<?xml version="1.0" standalone="no"?>
<!DOCTYPE svg PUBLIC "-//W3C//DTD SVG 1.1//EN" "http://www.w3.org/Graphics/SVG/1.1/DTD/svg11.dtd" >
<svg xmlns="http://www.w3.org/2000/svg" xmlns:xlink="http://www.w3.org/1999/xlink" version="1.1">
<metadata>
Created by FontForge 20150318 at Tue Sep 29 17:20:49 2015
 By uniteet7
Copyright (c) JT Types Ltd, 2006. All rights reserved.
</metadata>
<defs>
<font id="BlissProExtraBoldItalic" horiz-adv-x="392" >
  <font-face 
    font-family="BlissProExtraBoldItalic"
    font-weight="800"
    font-style="italic"
    font-stretch="normal"
    units-per-em="1000"
    panose-1="2 0 9 3 5 0 0 9 0 4"
    ascent="800"
    descent="-200"
    x-height="473"
    cap-height="659"
    bbox="-210 -241 1211 953"
    underline-thickness="50"
    underline-position="-50"
    slope="-12"
    unicode-range="U+0020-FB02"
  />
<missing-glyph horiz-adv-x="550" 
d="M50 0v659h450v-659h-450zM101 48h348v563h-348v-563zM231 222q-29 29 -29 60q0 25 20.5 48.5t44.5 38.5t44.5 37.5t20.5 47.5q0 21 -15.5 34t-39.5 13q-41 0 -85 -39l-27 35q49 51 117 51q48 0 77 -25.5t29 -65.5q0 -31 -20.5 -59t-45.5 -45t-45.5 -35.5t-20.5 -32.5
q0 -16 17 -35zM255 107q-16 0 -27 11t-11 28t11 28.5t27 11.5t26.5 -11.5t10.5 -28.5t-10.5 -28t-26.5 -11z" />
    <glyph glyph-name="fi" unicode="fi" horiz-adv-x="606" 
d="M-97 -139q42 42 71.5 85t48 81t33 98t22.5 107t21 137h-87l17 104h83l9 52q10 63 44 107q55 76 157 76q68 0 119 -32l-44 -104q-33 20 -65 20q-63 0 -77 -81l-6 -38h117l-37 -104h-97q-11 -73 -15.5 -103t-16 -92.5t-21.5 -94t-28.5 -81.5t-39.5 -82.5t-51.5 -70
t-68.5 -68.5zM342 0l104 473h134l-104 -473h-134zM535 540q-34 0 -55 20.5t-21 50.5q0 39 26 62.5t61 23.5q34 0 55 -20t21 -50q0 -39 -26 -63t-61 -24z" />
    <glyph glyph-name="fl" unicode="fl" horiz-adv-x="657" 
d="M-97 -139q42 42 71.5 85t48 81t33 98t22.5 107t21 137h-87l17 104h83l9 52q10 63 44 107q55 76 157 76q68 0 119 -32l-44 -104q-33 20 -65 20q-63 0 -77 -81l-6 -38h117l-37 -104h-97q-11 -73 -15.5 -103t-16 -92.5t-21.5 -94t-28.5 -81.5t-39.5 -82.5t-51.5 -70
t-68.5 -68.5zM491 -7q-55 0 -89.5 29t-34.5 83q0 23 8 58l119 545h135l-119 -538q-5 -23 -5 -34q0 -27 31 -27q20 0 37 5v-107q-38 -14 -82 -14z" />
    <glyph glyph-name=".notdef" horiz-adv-x="550" 
d="M50 0v659h450v-659h-450zM101 48h348v563h-348v-563zM231 222q-29 29 -29 60q0 25 20.5 48.5t44.5 38.5t44.5 37.5t20.5 47.5q0 21 -15.5 34t-39.5 13q-41 0 -85 -39l-27 35q49 51 117 51q48 0 77 -25.5t29 -65.5q0 -31 -20.5 -59t-45.5 -45t-45.5 -35.5t-20.5 -32.5
q0 -16 17 -35zM255 107q-16 0 -27 11t-11 28t11 28.5t27 11.5t26.5 -11.5t10.5 -28.5t-10.5 -28t-26.5 -11z" />
    <glyph glyph-name=".null" horiz-adv-x="0" 
 />
    <glyph glyph-name="nonmarkingreturn" horiz-adv-x="333" 
 />
    <glyph glyph-name="space" unicode=" " horiz-adv-x="165" 
 />
    <glyph glyph-name="exclam" unicode="!" horiz-adv-x="294" 
d="M82 -9q-28 0 -46.5 19t-18.5 48q0 35 23.5 59t57.5 24q28 0 47 -19.5t19 -48.5q0 -34 -24 -58t-58 -24zM79 200q-2 88 8 156.5t49 251.5l11 51h137l-11 -51q-41 -189 -59.5 -255t-57.5 -153h-77z" />
    <glyph glyph-name="quotedbl" unicode="&#x22;" horiz-adv-x="463" 
d="M199 466l-97 19l45 234l120 -23zM398 466l-97 19l46 234l120 -23z" />
    <glyph glyph-name="numbersign" unicode="#" horiz-adv-x="714" 
d="M61 0l51 162h-116l10 103h140l43 138h-118l10 103h142l48 153h130l-48 -153h120l48 153h130l-48 -153h113l-10 -103h-136l-44 -138h118l-10 -103h-141l-52 -162h-130l51 162h-119l-52 -162h-130zM276 265h120l43 138h-120z" />
    <glyph glyph-name="dollar" unicode="$" horiz-adv-x="552" 
d="M140 -88l21 105q-72 9 -130 44l47 98q61 -36 128 -36q47 0 81.5 16.5t34.5 56.5q0 29 -21.5 51.5t-52 40.5t-61.5 38.5t-52.5 56t-21.5 82.5q0 70 49 120t128 62l20 98h97l-20 -99q65 -7 117 -32l-24 -106q-64 36 -136 36q-39 0 -65 -16.5t-26 -49.5q0 -26 21.5 -47
t52.5 -38t61.5 -37.5t52 -56t21.5 -83.5q0 -79 -56 -133t-147 -66l-22 -105h-97z" />
    <glyph glyph-name="percent" unicode="%" horiz-adv-x="907" 
d="M149 0l496 659h111l-496 -659h-111zM213 310q-71 0 -106.5 39.5t-35.5 101.5q0 91 51.5 153t142.5 62q71 0 106 -39.5t35 -102.5q0 -91 -51.5 -152.5t-141.5 -61.5zM223 389q39 0 59 46t20 92q0 60 -47 60q-39 0 -59 -46.5t-20 -92.5q0 -59 47 -59zM638 -10
q-70 0 -105.5 39.5t-35.5 101.5q0 91 51.5 153t141.5 62q71 0 106.5 -39.5t35.5 -102.5q0 -91 -51.5 -152.5t-142.5 -61.5zM648 69q39 0 59 46t20 92q0 60 -47 60q-27 0 -45.5 -26t-25.5 -56t-7 -57q0 -59 46 -59z" />
    <glyph glyph-name="ampersand" unicode="&#x26;" horiz-adv-x="803" 
d="M263 -10q-110 0 -176.5 50.5t-66.5 138.5q0 81 52 134t148 71v2q-78 38 -78 114q0 72 63.5 119t161.5 47q116 0 195 -49l-38 -102q-77 44 -152 44q-43 0 -69.5 -18t-26.5 -48q0 -59 92 -86l-20 -91q-99 0 -146.5 -33t-47.5 -87q0 -45 33 -72t93 -27q83 0 153.5 49
t97.5 153h-81l23 104h328l-41 -104h-104q-24 -103 -87 -174.5t-141 -103t-165 -31.5z" />
    <glyph glyph-name="quotesingle" unicode="'" horiz-adv-x="264" 
d="M199 466l-97 19l45 234l120 -23z" />
    <glyph glyph-name="parenleft" unicode="(" horiz-adv-x="349" 
d="M141 -235q-103 132 -103 364q0 176 71 349.5t218 296.5l71 -80q-104 -98 -162.5 -246.5t-58.5 -328.5q0 -171 62 -292z" />
    <glyph glyph-name="parenright" unicode=")" horiz-adv-x="349" 
d="M15 -235l-72 79q104 98 163 247t59 328q0 167 -62 293l98 63q103 -133 103 -365q0 -176 -71 -349t-218 -296z" />
    <glyph glyph-name="asterisk" unicode="*" horiz-adv-x="497" 
d="M252 325l-86 38q12 32 49 81t41 57q-11 -3 -40.5 -14.5t-60 -20.5t-57.5 -10l-9 95q34 5 93.5 -2.5t68.5 -7.5q-2 2 -49 43t-67 71l76 55q23 -26 47 -83.5t26 -61.5q3 7 15 67t28 90l85 -37q-12 -33 -49.5 -83t-39.5 -54l61 21q61 21 96 22l10 -94q-34 -5 -95 2.5
t-67 7.5q4 -4 50 -44.5t64 -69.5l-76 -56q-22 27 -46 84t-27 62q-3 -11 -8.5 -42t-13 -62t-19.5 -54z" />
    <glyph glyph-name="plus" unicode="+" horiz-adv-x="559" 
d="M205 0v194h-172v111h172v190h125v-190h173v-111h-173v-194h-125z" />
    <glyph glyph-name="comma" unicode="," horiz-adv-x="276" 
d="M25 -155l-71 51q44 52 60 100.5t18 110.5h124q7 -154 -131 -262z" />
    <glyph glyph-name="hyphen" unicode="-" horiz-adv-x="330" 
d="M1 193l24 111h260l-24 -111h-260z" />
    <glyph glyph-name="period" unicode="." horiz-adv-x="276" 
d="M77 -9q-28 0 -46.5 19t-18.5 48q0 34 23.5 58.5t56.5 24.5q29 0 47.5 -19.5t18.5 -48.5q0 -34 -23.5 -58t-57.5 -24z" />
    <glyph glyph-name="slash" unicode="/" horiz-adv-x="407" 
d="M-38 -32l334 728h146l-334 -728h-146z" />
    <glyph glyph-name="zero" unicode="0" horiz-adv-x="568" 
d="M235 -10q-101 0 -150 62t-49 174q0 58 10 117t33 117.5t56 104t85 73.5t114 28q100 0 149.5 -62t49.5 -174q0 -74 -17 -147.5t-50.5 -141t-93.5 -109.5t-137 -42zM243 104q42 0 76.5 51.5t52 128t17.5 156.5q0 112 -63 112q-42 0 -76.5 -52t-52 -128t-17.5 -156
q0 -112 63 -112z" />
    <glyph glyph-name="one" unicode="1" horiz-adv-x="435" 
d="M135 0l113 515q-75 -36 -170 -54v110q47 11 111.5 39.5t106.5 53.5h119l-146 -664h-134z" />
    <glyph glyph-name="two" unicode="2" horiz-adv-x="542" 
d="M-2 0q9 67 34 123t58.5 93.5t71.5 68.5t75 55t66.5 45.5t48 47t18.5 53.5q0 66 -91 66q-79 0 -165 -42l-22 108q116 48 216 48q96 0 150.5 -44.5t54.5 -122.5q0 -54 -29.5 -100.5t-73.5 -81t-89.5 -65t-85 -66t-51.5 -71.5h289l-26 -115h-449z" />
    <glyph glyph-name="three" unicode="3" horiz-adv-x="536" 
d="M-20 30l51 106q58 -32 145 -32q60 0 102.5 24t42.5 78q0 41 -29 56.5t-98 15.5h-94l18 107h46q70 0 108 11q82 24 82 89q0 67 -92 67q-68 0 -156 -32l-19 104q99 42 203 42q99 0 153.5 -42t54.5 -115q0 -125 -136 -168v-2q103 -23 103 -123q0 -98 -79 -162t-212 -64
q-123 0 -194 40z" />
    <glyph glyph-name="four" unicode="4" horiz-adv-x="597" 
d="M260 0l34 158h-250l-13 93l392 413h116l-86 -397h99l-24 -109h-100l-34 -158h-134zM318 267l17 72q17 73 34 124l-186 -199q72 3 84 3h51z" />
    <glyph glyph-name="five" unicode="5" horiz-adv-x="538" 
d="M-8 28l50 107q59 -31 135 -31q60 0 106.5 28.5t46.5 88.5q0 30 -15 48.5t-44 25.5t-49.5 9t-54.5 2h-82l77 353h398l-43 -115h-246l-28 -132h24q105 0 156 -49.5t51 -124.5q0 -109 -81 -178.5t-216 -69.5q-114 0 -185 38z" />
    <glyph glyph-name="six" unicode="6" horiz-adv-x="579" 
d="M273 -10q-103 0 -163.5 60.5t-60.5 181.5q0 185 105 309.5t274 124.5q69 0 133 -26l-42 -102q-41 19 -96 19q-84 0 -146 -55t-91 -158h2q26 33 67.5 52.5t87.5 19.5q85 0 133.5 -49.5t48.5 -132.5q0 -111 -75 -177.5t-177 -66.5zM277 99q44 0 74.5 33t30.5 85
q0 41 -22 65.5t-63 24.5q-48 0 -76.5 -33t-28.5 -85q0 -42 21.5 -66t63.5 -24z" />
    <glyph glyph-name="seven" unicode="7" horiz-adv-x="503" 
d="M63 0q65 299 277 544h-272l-8 115h457v-50q-244 -301 -314 -609h-140z" />
    <glyph glyph-name="eight" unicode="8" horiz-adv-x="583" 
d="M264 -10q-107 0 -169.5 46t-62.5 125q0 69 41.5 113.5t110.5 65.5v3q-83 54 -83 136q0 79 65 133t176 54q105 0 162 -45.5t57 -115.5q0 -107 -133 -167v-2q100 -43 100 -145q0 -94 -76.5 -147.5t-187.5 -53.5zM273 94q47 0 79 22.5t32 65.5q0 35 -25 55t-81 44
q-2 1 -3.5 1.5l-3 1t-3.5 1.5q-91 -40 -91 -113q0 -37 27.5 -57.5t68.5 -20.5zM328 387q90 37 90 103q0 33 -22 52.5t-61 19.5q-40 0 -65 -23.5t-25 -57.5q0 -59 83 -94z" />
    <glyph glyph-name="nine" unicode="9" horiz-adv-x="577" 
d="M34 22l43 102q49 -25 110 -25q158 0 199 171h-2q-61 -40 -137 -40q-79 0 -132.5 49t-53.5 139q0 112 70.5 180t179.5 68q97 0 163 -62t66 -191q0 -186 -91.5 -304.5t-259.5 -118.5q-87 0 -155 32zM291 339q50 0 105 32q7 25 7 57q0 129 -94 129q-49 0 -76.5 -39
t-27.5 -89q0 -39 21 -64.5t65 -25.5z" />
    <glyph glyph-name="colon" unicode=":" horiz-adv-x="276" 
d="M77 -9q-28 0 -46.5 19t-18.5 48q0 34 23.5 58.5t56.5 24.5q29 0 47.5 -19.5t18.5 -48.5q0 -34 -23.5 -58t-57.5 -24zM134 304q-28 0 -46.5 19t-18.5 48q0 35 23 59t57 24q29 0 47.5 -19t18.5 -48q0 -35 -23.5 -59t-57.5 -24z" />
    <glyph glyph-name="semicolon" unicode=";" horiz-adv-x="276" 
d="M25 -155l-71 51q44 52 60 100.5t18 110.5h124q7 -154 -131 -262zM131 304q-28 0 -46.5 19t-18.5 48q0 35 23 59t57 24q29 0 47.5 -19t18.5 -48q0 -35 -23.5 -59t-57.5 -24z" />
    <glyph glyph-name="less" unicode="&#x3c;" horiz-adv-x="577" 
d="M55 208v104l431 173v-112l-315 -112v-2l315 -112v-112z" />
    <glyph glyph-name="equal" unicode="=" horiz-adv-x="559" 
d="M44 87v111h470v-111h-470zM44 299v111h470v-111h-470z" />
    <glyph glyph-name="greater" unicode="&#x3e;" horiz-adv-x="577" 
d="M74 35v112l315 112v2l-315 112v112l431 -173v-104z" />
    <glyph glyph-name="question" unicode="?" horiz-adv-x="450" 
d="M146 -9q-28 0 -46.5 19t-18.5 48q0 35 23 59t57 24q29 0 47.5 -19.5t18.5 -48.5q0 -34 -23.5 -58t-57.5 -24zM126 200q1 47 21 87t49 66.5t57.5 49.5t48.5 47.5t20 49.5q0 52 -65 52q-62 0 -124 -46l-49 94q89 66 200 66q77 0 125.5 -40.5t48.5 -104.5q0 -51 -35 -100
q-22 -29 -69 -65t-85.5 -73.5t-53.5 -82.5h-89z" />
    <glyph glyph-name="at" unicode="@" horiz-adv-x="780" 
d="M328 -140q-138 0 -226.5 91t-88.5 240q0 171 108 275t266 104q152 0 247 -87t95 -235q0 -107 -46 -163.5t-125 -56.5q-86 0 -104 82h-1q-14 -31 -53.5 -55.5t-88.5 -24.5q-55 0 -97.5 39t-42.5 121q0 97 63 159.5t160 62.5q89 0 160 -42l-21 -153q-5 -33 -5 -55
q0 -58 41 -58q35 0 55 36.5t20 99.5q0 112 -65 183.5t-194 71.5q-123 0 -205 -80.5t-82 -215.5q0 -126 67 -195t171 -69q81 0 134 25l23 -72q-73 -28 -165 -28zM336 109q37 0 64.5 36.5t36.5 106.5l9 67q-26 14 -54 14q-49 0 -82 -37.5t-33 -102.5q0 -84 59 -84z" />
    <glyph glyph-name="A" unicode="A" horiz-adv-x="639" 
d="M-60 0l373 662h117l129 -662h-144l-28 161h-207l-87 -161h-153zM241 270h129l-20 145q-6 33 -8 63h-2q-20 -48 -28 -64z" />
    <glyph glyph-name="B" unicode="B" horiz-adv-x="577" 
d="M4 0l144 659h181q99 0 147 -41.5t48 -108.5q0 -106 -103 -160v-2q38 -9 65.5 -40.5t27.5 -81.5q0 -94 -76 -159.5t-215 -65.5h-219zM226 389h59q45 0 74 27.5t29 69.5q0 61 -77 61h-50zM166 111h73q64 0 101.5 27t37.5 74q0 33 -24.5 49.5t-64.5 16.5h-87z" />
    <glyph glyph-name="C" unicode="C" horiz-adv-x="614" 
d="M346 -10q-146 0 -223.5 80t-77.5 204q0 177 115 284.5t285 107.5q99 0 170 -32l-26 -115q-69 33 -144 33q-115 0 -185 -78.5t-70 -186.5q0 -82 45.5 -132.5t130.5 -50.5q72 0 145 34l25 -110q-83 -38 -190 -38z" />
    <glyph glyph-name="D" unicode="D" horiz-adv-x="686" 
d="M4 0l144 659h157q119 0 199 -37q142 -64 142 -238q0 -121 -61.5 -211.5t-166.5 -135.5q-89 -37 -202 -37h-212zM167 115h55q85 0 142 30q137 69 137 249q0 89 -70 125q-47 25 -126 25h-44z" />
    <glyph glyph-name="E" unicode="E" horiz-adv-x="504" 
d="M4 0l144 659h366l-44 -115h-209l-34 -153h208l-25 -115h-208l-35 -161h236l-25 -115h-374z" />
    <glyph glyph-name="F" unicode="F" horiz-adv-x="493" 
d="M4 0l144 659h366l-43 -115h-210l-34 -153h207l-25 -115h-207l-60 -276h-138z" />
    <glyph glyph-name="G" unicode="G" horiz-adv-x="705" 
d="M358 -10q-154 0 -234 78.5t-80 209.5q0 75 27 144t77.5 123.5t130 87.5t175.5 33q122 0 215 -44l-25 -115q-78 45 -182 45q-130 0 -201.5 -79.5t-71.5 -183.5q0 -91 49 -138t132 -47q56 0 92 14l47 205h137l-63 -290q-92 -43 -225 -43z" />
    <glyph glyph-name="H" unicode="H" horiz-adv-x="728" 
d="M4 0l144 659h138l-58 -266h301l58 266h137l-143 -659h-138l60 277h-301l-60 -277h-138z" />
    <glyph glyph-name="I" unicode="I" horiz-adv-x="289" 
d="M4 0l144 659h138l-144 -659h-138z" />
    <glyph glyph-name="J" unicode="J" horiz-adv-x="328" 
d="M-147 -165l38 106q29 -13 65 -13q51 0 74 41q14 30 22 68l135 622h138l-143 -656q-14 -71 -41 -109q-56 -80 -175 -80q-63 0 -113 21z" />
    <glyph glyph-name="K" unicode="K" horiz-adv-x="603" 
d="M4 0l144 659h138l-62 -285h2l266 285h167l-330 -345l208 -314h-164l-170 271h-2l-59 -271h-138z" />
    <glyph glyph-name="L" unicode="L" horiz-adv-x="459" 
d="M4 0l144 659h138l-119 -544h228l-27 -115h-364z" />
    <glyph glyph-name="M" unicode="M" horiz-adv-x="827" 
d="M4 0l144 659h126l95 -236q40 -107 41 -110h2q27 41 73 97l196 249h143l-144 -659h-138l70 320q25 107 26 112h-2q-22 -32 -65 -84l-158 -199h-64l-80 196q-21 50 -32 87h-4q-2 -15 -31 -159l-60 -273h-138z" />
    <glyph glyph-name="N" unicode="N" horiz-adv-x="760" 
d="M4 0l144 659h130l199 -361q16 -29 43 -86h2q9 47 18 86l78 361h138l-144 -659h-119l-207 377q-28 51 -43 84h-2q-6 -35 -16 -80l-83 -381h-138z" />
    <glyph glyph-name="O" unicode="O" horiz-adv-x="746" 
d="M322 -10q-128 0 -202.5 73t-74.5 200q0 171 105.5 287t271.5 116q128 0 203 -73t75 -200q0 -170 -105.5 -286.5t-272.5 -116.5zM333 104q96 0 159 86.5t63 197.5q0 79 -37.5 121.5t-105.5 42.5q-96 0 -159.5 -86.5t-63.5 -197.5q0 -79 37.5 -121.5t106.5 -42.5z" />
    <glyph glyph-name="P" unicode="P" horiz-adv-x="559" 
d="M4 0l144 659h145q76 0 122 -20q53 -22 83 -65.5t30 -103.5q0 -77 -38.5 -135.5t-114.5 -86.5q-68 -26 -157 -26h-28l-48 -222h-138zM215 332h24q52 0 86 20q65 32 65 110q0 56 -43 75q-26 12 -59 12h-27z" />
    <glyph glyph-name="Q" unicode="Q" horiz-adv-x="746" 
d="M45 263q0 171 105.5 287t271.5 116q128 0 203 -73t75 -200q0 -144 -78 -252t-207 -138q-3 0 -8 -1t-9 -1.5t-7 -0.5v-2q12 -4 38.5 -18t53.5 -23t57 -9q39 0 86 13l25 -106q-62 -21 -132 -21q-85 0 -152.5 35.5t-131.5 100.5q-10 11 -61 48.5t-75 69.5q-54 71 -54 175z
M333 104q96 0 159 86.5t63 197.5q0 79 -37.5 121.5t-105.5 42.5q-96 0 -159.5 -86.5t-63.5 -197.5q0 -79 37.5 -121.5t106.5 -42.5z" />
    <glyph glyph-name="R" unicode="R" horiz-adv-x="581" 
d="M4 0l144 659h164q119 0 173.5 -48t54.5 -126q0 -80 -47 -130.5t-121 -68.5v-3q18 -29 39 -77l91 -206h-147l-69 171q-26 63 -39 79h-51l-54 -250h-138zM220 360h43q62 0 100.5 29.5t38.5 82.5q0 77 -98 77h-43z" />
    <glyph glyph-name="S" unicode="S" horiz-adv-x="496" 
d="M-19 39l55 107q70 -42 140 -42q46 0 79 18.5t33 60.5q0 26 -16 48t-40 36.5t-52 33.5t-52 38t-40 51.5t-16 72.5q0 88 62.5 145.5t172.5 57.5q100 0 172 -37l-24 -116q-66 39 -144 39q-46 0 -70.5 -19.5t-24.5 -49.5q0 -28 22 -51.5t54 -43t64 -42.5t54 -60.5t22 -85.5
q0 -100 -71 -155t-182 -55q-109 0 -198 49z" />
    <glyph glyph-name="T" unicode="T" horiz-adv-x="544" 
d="M130 0l119 544h-195l25 115h532l-50 -115h-174l-119 -544h-138z" />
    <glyph glyph-name="U" unicode="U" horiz-adv-x="702" 
d="M309 -10q-122 0 -187.5 56.5t-65.5 149.5q0 39 13 98l79 365h138l-83 -376q-8 -38 -8 -65q0 -57 30.5 -85.5t85.5 -28.5q70 0 111 41q36 37 50 104l90 410h138l-91 -416q-26 -124 -91 -182q-80 -71 -209 -71z" />
    <glyph glyph-name="V" unicode="V" horiz-adv-x="646" 
d="M225 -5l-149 664h145l64 -331q17 -86 25 -134h2q21 50 60 122l189 343h150l-380 -664h-106z" />
    <glyph glyph-name="W" unicode="W" horiz-adv-x="908" 
d="M171 -5l-95 664h146l37 -319q11 -99 14 -145h2q26 64 59 129l115 223l-18 112h133l41 -321q12 -84 17 -143h2q17 54 53 132l149 332h147l-328 -664h-116l-36 242q-14 85 -18 124h-2q-15 -39 -57 -120l-131 -246h-114z" />
    <glyph glyph-name="X" unicode="X" horiz-adv-x="612" 
d="M-62 0l288 340l-152 319h145l100 -213l180 213h160l-280 -331l159 -328h-146l-106 222l-189 -222h-159z" />
    <glyph glyph-name="Y" unicode="Y" horiz-adv-x="577" 
d="M169 0l56 259l-152 400h140l97 -280h2l175 280h153l-279 -408l-55 -251h-137z" />
    <glyph glyph-name="Z" unicode="Z" horiz-adv-x="555" 
d="M-38 0l387 544h-251l-9 115h491l-383 -544h288l-26 -115h-497z" />
    <glyph glyph-name="bracketleft" unicode="[" horiz-adv-x="367" 
d="M-17 -235l219 1009h230l-22 -102h-99l-175 -805h99l-22 -102h-230z" />
    <glyph glyph-name="backslash" unicode="\" horiz-adv-x="498" 
d="M275 -32l-198 728h139l198 -728h-139z" />
    <glyph glyph-name="bracketright" unicode="]" horiz-adv-x="367" 
d="M-103 -235l22 102h99l175 805h-99l22 102h231l-220 -1009h-230z" />
    <glyph glyph-name="asciicircum" unicode="^" horiz-adv-x="499" 
d="M45 287l150 372h109l151 -372h-112l-92 256h-2l-93 -256h-111z" />
    <glyph glyph-name="underscore" unicode="_" horiz-adv-x="438" 
d="M-96 -134l15 68h440l-15 -68h-440z" />
    <glyph glyph-name="grave" unicode="`" 
d="M160 531l-92 147h145l48 -147h-101z" />
    <glyph glyph-name="a" unicode="a" horiz-adv-x="497" 
d="M122 -10q-61 0 -97 35.5t-36 93.5q0 77 51 123q68 61 214 61l45 1q2 14 2 20q0 60 -80 60q-59 0 -134 -31l-18 95q89 37 179 37q35 0 65.5 -6t59.5 -21.5t46 -46.5t17 -75q0 -36 -16 -106l-14 -54q-14 -61 -14 -98q0 -34 9 -62l-116 -25q-13 34 -17 79q-26 -36 -65 -58
t-81 -22zM163 95q37 0 72.5 28.5t46.5 73.5l4 18h-27q-93 0 -125 -32q-18 -18 -18 -44q0 -44 47 -44z" />
    <glyph glyph-name="b" unicode="b" horiz-adv-x="541" 
d="M-11 15l153 693h134l-44 -206q-9 -42 -27 -95h2q61 78 147 78q59 0 97.5 -43.5t38.5 -116.5q0 -150 -99 -242.5t-247 -92.5q-96 0 -155 25zM143 104q16 -4 35 -4q78 0 128 60t50 144q0 29 -15.5 49.5t-43.5 20.5q-36 0 -70 -34q-42 -46 -62 -134z" />
    <glyph glyph-name="c" unicode="c" horiz-adv-x="448" 
d="M231 -10q-111 0 -167.5 58t-56.5 149q0 120 77 204t211 84q77 0 134 -27l-25 -107q-57 27 -106 27q-65 0 -111 -47t-46 -124q0 -53 27.5 -81.5t79.5 -28.5q56 0 110 31l36 -94q-27 -18 -74.5 -31t-88.5 -13z" />
    <glyph glyph-name="d" unicode="d" horiz-adv-x="536" 
d="M241 -10q-109 0 -171.5 60t-62.5 158q0 124 78.5 200.5t199.5 76.5q54 0 93 -13l52 236h134l-150 -682q-86 -36 -173 -36zM245 100q31 0 54 10l56 254q-29 11 -59 11q-68 0 -111.5 -45t-43.5 -117q0 -51 28 -82t76 -31z" />
    <glyph glyph-name="e" unicode="e" horiz-adv-x="494" 
d="M225 -10q-105 0 -161.5 56.5t-56.5 148.5q0 122 74.5 206t192.5 84q84 0 130.5 -43.5t46.5 -116.5q0 -52 -23 -123l-290 -4v-13q0 -43 28.5 -66.5t72.5 -23.5q60 0 129 33l36 -95q-82 -43 -179 -43zM153 288l163 3q7 17 7 35q0 26 -16.5 42t-44.5 16q-38 0 -68 -27.5
t-41 -68.5z" />
    <glyph glyph-name="f" unicode="f" horiz-adv-x="353" 
d="M-97 -139q42 42 71.5 85t48 81t33 98t22.5 107t21 137h-87l17 104h83l9 52q10 63 44 107q55 76 157 76q68 0 119 -32l-44 -104q-33 20 -65 20q-63 0 -77 -81l-6 -38h117l-37 -104h-97q-11 -73 -15.5 -103t-16 -92.5t-21.5 -94t-28.5 -81.5t-39.5 -82.5t-51.5 -70
t-68.5 -68.5z" />
    <glyph glyph-name="g" unicode="g" horiz-adv-x="529" 
d="M-38 -202l44 112q61 -31 120 -31q61 0 96 30.5t49 94.5l13 57h-2q-58 -71 -140 -71q-57 0 -96 41t-39 128q0 138 79.5 232t231.5 94q102 0 183 -34l-96 -436q-28 -130 -90 -191t-193 -61q-86 0 -160 35zM197 100q36 0 73 38t58 135l20 94q-22 8 -54 8q-69 0 -111 -58
t-42 -135q0 -82 56 -82z" />
    <glyph glyph-name="h" unicode="h" horiz-adv-x="545" 
d="M-14 0l155 708h135l-54 -238q-11 -54 -25 -88h2q70 103 170 103q56 0 87.5 -30.5t31.5 -90.5q0 -28 -14 -97l-59 -267h-135l58 259q10 48 10 64q0 45 -41 45q-52 0 -98 -66q-32 -48 -50 -128l-39 -174h-134z" />
    <glyph glyph-name="i" unicode="i" horiz-adv-x="250" 
d="M-14 0l104 473h134l-104 -473h-134zM179 540q-34 0 -55 20.5t-21 50.5q0 39 26 62.5t61 23.5q34 0 55 -20t21 -50q0 -39 -26 -63t-61 -24z" />
    <glyph glyph-name="j" unicode="j" horiz-adv-x="259" 
d="M-186 -219l41 108q27 -10 51 -10q63 0 79 82l113 512h134l-119 -543q-37 -167 -196 -167q-61 0 -103 18zM187 540q-34 0 -55 20.5t-21 50.5q0 39 26 62.5t62 23.5q34 0 54.5 -20t20.5 -50q0 -39 -26 -63t-61 -24z" />
    <glyph glyph-name="k" unicode="k" horiz-adv-x="501" 
d="M-14 0l155 708h135l-88 -397h2l175 162h161l-238 -218l146 -255h-150l-115 212h-2l-47 -212h-134z" />
    <glyph glyph-name="l" unicode="l" horiz-adv-x="305" 
d="M139 -7q-55 0 -89.5 29t-34.5 83q0 23 8 58l119 545h135l-119 -538q-5 -23 -5 -34q0 -27 31 -27q20 0 37 5v-107q-38 -14 -82 -14z" />
    <glyph glyph-name="m" unicode="m" horiz-adv-x="825" 
d="M-14 0l104 473h104l-3 -91h2q32 43 79 73t98 30q104 0 106 -105h2q33 44 81.5 74.5t100.5 30.5q51 0 81 -26.5t31 -76.5q0 -42 -15 -106l-60 -276h-135l62 281q7 28 7 48q0 39 -34 39q-48 0 -93 -57q-37 -49 -56 -133l-40 -178h-134l62 281q7 28 7 49q0 38 -35 38
q-48 0 -93 -58q-38 -50 -55 -132l-40 -178h-134z" />
    <glyph glyph-name="n" unicode="n" horiz-adv-x="545" 
d="M-14 0l104 473h104l-3 -91h2q75 103 176 103q56 0 87.5 -30.5t31.5 -90.5q0 -28 -14 -97l-59 -267h-135l58 259q10 48 10 64q0 45 -41 45q-50 0 -92 -55q-37 -49 -56 -139l-39 -174h-134z" />
    <glyph glyph-name="o" unicode="o" horiz-adv-x="538" 
d="M219 -10q-99 0 -155.5 57t-56.5 149q0 123 77 206t192 83q99 0 155 -57t56 -149q0 -123 -76.5 -206t-191.5 -83zM222 97q53 0 92 52t39 128q0 49 -21.5 75t-59.5 26q-53 0 -92 -52t-39 -128q0 -49 21.5 -75t59.5 -26z" />
    <glyph glyph-name="p" unicode="p" horiz-adv-x="539" 
d="M-66 -237l152 696q83 26 160 26q118 0 180 -55.5t62 -150.5q0 -128 -77.5 -208.5t-194.5 -80.5q-50 0 -95 16l-53 -243h-134zM145 112q28 -12 60 -12q66 0 107.5 48.5t41.5 117.5q0 55 -31 82t-80 27q-22 0 -42 -5z" />
    <glyph glyph-name="q" unicode="q" horiz-adv-x="529" 
d="M216 -237l44 199q15 71 25 99h-2q-60 -71 -141 -71q-57 0 -96 41t-39 128q0 89 32.5 161t105 118.5t175.5 46.5q99 0 182 -34l-151 -688h-135zM197 100q36 0 73.5 38t58.5 135l20 94q-24 8 -55 8q-69 0 -111 -58t-42 -135q0 -82 56 -82z" />
    <glyph glyph-name="r" unicode="r" horiz-adv-x="377" 
d="M-14 0l104 473h104l-3 -91h2q54 103 127 103q40 0 74 -27l-57 -109q-23 15 -49 15q-39 0 -73.5 -44.5t-56.5 -146.5l-37 -173h-135z" />
    <glyph glyph-name="s" unicode="s" horiz-adv-x="390" 
d="M-38 37l42 96q66 -38 125 -38q66 0 66 40q0 16 -17 30.5t-40.5 28t-47.5 30.5t-41 47t-17 68q0 63 46.5 104.5t132.5 41.5q82 0 149 -28l-21 -106q-66 30 -121 30q-51 0 -51 -38q0 -21 25.5 -41.5t55.5 -36t55.5 -49.5t25.5 -79q0 -70 -53 -108.5t-138 -38.5
q-97 0 -176 47z" />
    <glyph glyph-name="t" unicode="t" horiz-adv-x="383" 
d="M177 -10q-135 0 -135 112q0 28 9 69l44 198h-85l24 104h83l25 109l141 35l-32 -144h128l-42 -104h-109l-46 -213q-4 -12 -4 -26q0 -33 36 -33q34 0 80 24l32 -96q-73 -35 -149 -35z" />
    <glyph glyph-name="u" unicode="u" horiz-adv-x="540" 
d="M146 -10q-54 0 -89.5 33.5t-35.5 98.5q0 32 13 100l55 251h135l-60 -269q-7 -28 -7 -48q0 -52 44 -52q38 0 72 34t49 103l51 232h134l-65 -297q-13 -63 -13 -97q0 -33 9 -63l-116 -25q-13 40 -15 82h-2q-69 -83 -159 -83z" />
    <glyph glyph-name="v" unicode="v" horiz-adv-x="477" 
d="M138 -3l-104 476h130l28 -167q15 -93 22 -141h2q29 67 59 129l89 179h137l-259 -476h-104z" />
    <glyph glyph-name="w" unicode="w" horiz-adv-x="721" 
d="M112 -3l-77 476h127l23 -179q9 -73 13 -122h2q21 50 50 109l97 192h85l24 -168q11 -66 16 -133h2q8 22 50 115l86 186h137l-253 -476h-95l-27 181q-12 86 -15 107h-2q-19 -44 -56 -109l-95 -179h-92z" />
    <glyph glyph-name="x" unicode="x" horiz-adv-x="502" 
d="M-70 0l227 244l-136 229h137l84 -145l130 145h147l-220 -239l138 -234h-137l-87 150l-137 -150h-146z" />
    <glyph glyph-name="y" unicode="y" horiz-adv-x="504" 
d="M-121 -213l48 99q33 -16 66 -16q81 0 153 136l-113 467h130l41 -194q15 -72 28 -137h2q30 70 57 124l104 207h133l-254 -477q-68 -126 -130.5 -179.5t-158.5 -53.5q-66 0 -106 24z" />
    <glyph glyph-name="z" unicode="z" horiz-adv-x="432" 
d="M-52 0l259 369h-170l-11 104h398l-261 -369h206l-22 -104h-399z" />
    <glyph glyph-name="braceleft" unicode="{" horiz-adv-x="371" 
d="M221 -231q-96 7 -139.5 41t-43.5 96q0 25 6 58l38 181q4 17 4 35q0 29 -14 38.5t-38 11.5l18 86q42 0 61 22q13 19 17 43l45 218q14 70 50 107q59 67 188 68v-117q-66 -7 -92 -38q-16 -19 -23 -55l-32 -165q-11 -55 -31 -83q-24 -32 -76 -45v-2q59 -11 59 -77
q0 -24 -5 -47l-33 -148q-5 -27 -5 -48q0 -31 18.5 -45.5t59.5 -18.5z" />
    <glyph glyph-name="bar" unicode="|" horiz-adv-x="375" 
d="M121 -237v1017h133v-1017h-133z" />
    <glyph glyph-name="braceright" unicode="}" horiz-adv-x="371" 
d="M-57 -231v117q66 7 92 38q15 18 24 56l32 164q9 54 31 84q21 29 75 45v2q-59 11 -59 77q0 19 6 46l32 149q6 24 6 48q0 31 -19 45.5t-59 17.5l31 116q96 -7 140 -40.5t44 -95.5q0 -20 -7 -58l-38 -182q-4 -17 -4 -35q0 -20 8.5 -31t18 -14t26.5 -5l-19 -85q-43 0 -60 -23
q-12 -13 -18 -42l-45 -219q-13 -67 -49 -107q-60 -65 -189 -68z" />
    <glyph glyph-name="asciitilde" unicode="~" horiz-adv-x="559" 
d="M84 194l-63 86q74 73 160 73q42 0 103 -27.5t95 -27.5q46 0 93 40l63 -86q-73 -73 -160 -73q-41 0 -103 28t-95 28q-47 0 -93 -41z" />
    <glyph glyph-name="exclamdown" unicode="&#xa1;" horiz-adv-x="294" 
d="M-29 -183l11 51q41 190 59.5 256t57.5 151h77q2 -88 -7.5 -156t-49.5 -252l-11 -50h-137zM157 334q-28 0 -47 19.5t-19 48.5q0 34 24 58.5t57 24.5q28 0 46.5 -19t18.5 -48q0 -35 -23 -59.5t-57 -24.5z" />
    <glyph glyph-name="cent" unicode="&#xa2;" horiz-adv-x="551" 
d="M187 0l25 110q-61 18 -94.5 68t-33.5 117q0 103 58 175t152 89l22 100h98l-22 -96q59 -5 96 -25l-22 -99q-51 23 -103 23q-67 0 -106.5 -44t-39.5 -111q0 -48 27 -75.5t77 -27.5q52 0 100 25l26 -94q-64 -34 -139 -34l-22 -101h-99z" />
    <glyph glyph-name="sterling" unicode="&#xa3;" horiz-adv-x="552" 
d="M20 0l12 84q31 7 53.5 29t34 54t16.5 54.5t9 50.5q1 5 1 8h-72l16 110h70l10 63q12 73 44 120q62 93 193 93q75 0 142 -31l-45 -105q-38 22 -86 22q-65 0 -94 -51q-15 -25 -22 -68l-6 -43h174l-33 -110h-155q-7 -42 -13 -67.5t-23.5 -60.5t-43.5 -53v-2q60 13 133 13h138
l-16 -110h-437z" />
    <glyph glyph-name="currency" unicode="&#xa4;" horiz-adv-x="551" 
d="M92 61l-79 79l70 69q-33 53 -33 117q0 62 31 115l-69 68l79 79l68 -70q55 34 117 34q63 0 118 -34l65 68l79 -79l-68 -66q32 -53 32 -115q0 -65 -33 -118l68 -66l-79 -79l-67 68q-54 -31 -115 -31q-62 0 -115 31zM276 189q55 0 93.5 40t38.5 97t-38.5 97t-93.5 40
t-93.5 -40t-38.5 -97t38.5 -97t93.5 -40z" />
    <glyph glyph-name="yen" unicode="&#xa5;" horiz-adv-x="552" 
d="M139 0l23 108h-151l17 82h153l15 71h-153l18 81h115l-84 317h136l53 -279h2l164 279h145l-211 -317h116l-18 -81h-153l-15 -71h153l-18 -82h-153l-24 -108h-130z" />
    <glyph glyph-name="brokenbar" unicode="&#xa6;" horiz-adv-x="375" 
d="M121 -236v367h133v-367h-133zM121 413v367h133v-367h-133z" />
    <glyph glyph-name="section" unicode="&#xa7;" horiz-adv-x="556" 
d="M184 -164q-106 0 -188 47l49 103q68 -42 137 -42q108 0 108 79q0 30 -26 52.5t-63 40t-74 39t-63 60.5t-26 93q0 48 27 89t69 65q-22 33 -22 79q0 89 64 135t160 46q98 0 166 -36l-23 -112q-62 40 -138 40q-43 0 -68.5 -18t-25.5 -50q0 -30 27 -52.5t65 -39.5t76 -38
t65 -61t27 -97q0 -97 -98 -155q19 -36 19 -79q0 -49 -21 -86.5t-57 -59t-78 -32t-88 -10.5zM162 330q0 -36 27.5 -61t82.5 -53t81 -48q32 28 32 68q0 27 -19.5 50t-44.5 36.5t-64.5 35t-62.5 37.5q-32 -27 -32 -65z" />
    <glyph glyph-name="dieresis" unicode="&#xa8;" 
d="M101 538q-26 0 -42 15.5t-16 41.5q0 33 20 55t50 22q26 0 42.5 -15.5t16.5 -40.5q0 -33 -20.5 -55.5t-50.5 -22.5zM295 538q-26 0 -42 15.5t-16 41.5q0 33 20 55t50 22q26 0 42.5 -15.5t16.5 -40.5q0 -33 -20.5 -55.5t-50.5 -22.5z" />
    <glyph glyph-name="copyright" unicode="&#xa9;" horiz-adv-x="767" 
d="M384 -10q-146 0 -238.5 95.5t-92.5 241.5t92.5 241.5t238.5 95.5t238.5 -96t92.5 -241t-92.5 -241t-238.5 -96zM384 56q111 0 183.5 76t72.5 195t-72.5 195t-183.5 76q-112 0 -184.5 -76t-72.5 -195t72.5 -195t184.5 -76zM391 125q-84 0 -135.5 55t-51.5 143
q0 87 53.5 146t140.5 59q57 0 101 -23v-74q-46 27 -99 27q-52 0 -84.5 -36.5t-32.5 -95.5q0 -61 31 -97t83 -36q47 0 88 24l26 -61q-56 -31 -120 -31z" />
    <glyph glyph-name="ordfeminine" unicode="&#xaa;" horiz-adv-x="352" 
d="M-27 130l17 77h317l-17 -77h-317zM115 263q-42 0 -66 25.5t-24 67.5q0 66 50 98.5t137 32.5h28q0 1 0.5 4t0.5 5q0 34 -52 34q-47 0 -97 -19l-16 73q61 27 132 27q36 0 63.5 -8t49 -33.5t21.5 -65.5q0 -29 -9 -67l-12 -44q-11 -38 -11 -70q0 -11 6 -41l-86 -18
q-9 23 -10 47h-2q-44 -48 -103 -48zM150 344q23 0 46 18.5t30 46.5l1 7h-17q-89 0 -89 -46q0 -26 29 -26z" />
    <glyph glyph-name="guillemotleft" unicode="&#xab;" horiz-adv-x="592" 
d="M288 381l-138 -146l89 -149l-93 -54l-135 214l199 204zM545 381l-138 -146l89 -149l-93 -54l-135 214l199 204z" />
    <glyph glyph-name="logicalnot" unicode="&#xac;" horiz-adv-x="559" 
d="M37 248v112h470v-305h-125v193h-345z" />
    <glyph glyph-name="registered" unicode="&#xae;" horiz-adv-x="572" 
d="M313 180q-104 0 -171 69t-67 174q0 104 67 173.5t171 69.5q102 0 171.5 -70t69.5 -173q0 -104 -69.5 -173.5t-171.5 -69.5zM313 230q79 0 130.5 56t51.5 137t-51.5 136.5t-130.5 55.5t-130.5 -55.5t-51.5 -136.5t51.5 -137t130.5 -56zM281 295h-53v263h81q20 0 42 -6
q51 -15 51 -66q0 -29 -18 -47t-44 -24v-1q19 -10 77 -119h-61q-3 6 -9 17q-47 85 -57 88h-9v-105zM281 442h13q51 0 51 38q0 26 -21 32q-11 4 -29 4h-14v-74z" />
    <glyph glyph-name="macron" unicode="&#xaf;" 
d="M48 567l20 101h298l-21 -101h-297z" />
    <glyph glyph-name="degree" unicode="&#xb0;" horiz-adv-x="353" 
d="M210 353q-68 0 -111 43t-43 110t44 110t112 43t112 -43t44 -110t-44.5 -110t-113.5 -43zM212 434q29 0 48 20t19 51t-19 51.5t-48 20.5t-48 -20.5t-19 -51.5t19 -51t48 -20z" />
    <glyph glyph-name="plusminus" unicode="&#xb1;" horiz-adv-x="559" 
d="M40 0v111h470v-111h-470zM212 158v129h-172v112h172v129h125v-129h173v-112h-173v-129h-125z" />
    <glyph glyph-name="twosuperior" unicode="&#xb2;" horiz-adv-x="365" 
d="M49 402q9 56 36 99.5t59 68t62.5 43t51 35t20.5 33.5q0 29 -43 29q-49 0 -109 -27l-19 84q76 32 148 32q65 0 100 -29t35 -76q0 -41 -27 -75t-59.5 -52t-64 -38.5t-37.5 -37.5h165l-18 -89h-300z" />
    <glyph glyph-name="threesuperior" unicode="&#xb3;" horiz-adv-x="361" 
d="M57 420l32 78q46 -17 96 -17q69 0 69 46q0 35 -62 35h-62l15 75h41q89 1 89 46q0 30 -48 30q-39 0 -89 -15l-19 77q68 24 133 24q66 0 100 -26.5t34 -66.5q0 -78 -85 -102v-2q28 -4 46 -23.5t18 -51.5q0 -61 -47 -96t-135 -35q-72 0 -126 24z" />
    <glyph glyph-name="acute" unicode="&#xb4;" 
d="M132 531l75 147h145l-120 -147h-100z" />
    <glyph glyph-name="mu" unicode="&#xb5;" horiz-adv-x="590" 
d="M-62 -237l157 710h134l-58 -261q-7 -29 -7 -48q0 -60 60 -60q36 0 67.5 29.5t44.5 90.5l56 249h134l-68 -311q-4 -15 -4 -23q0 -27 32 -27q19 0 33 5v-109q-37 -15 -75 -15q-83 0 -94 71q-1 6 -1 19h-2q-57 -93 -140 -93q-52 0 -79 38h-2q-7 -55 -24 -130l-30 -135h-134z
" />
    <glyph glyph-name="paragraph" unicode="&#xb6;" horiz-adv-x="627" 
d="M143 -160l78 359q-77 0 -124.5 51t-47.5 129q0 122 97 201t237 79h237l-176 -819h-107l158 736h-87l-158 -736h-107z" />
    <glyph glyph-name="periodcentered" unicode="&#xb7;" horiz-adv-x="276" 
d="M111 175q-28 0 -46.5 19t-18.5 48q0 34 23.5 58.5t56.5 24.5q29 0 47.5 -19.5t18.5 -48.5q0 -34 -23.5 -58t-57.5 -24z" />
    <glyph glyph-name="cedilla" unicode="&#xb8;" 
d="M75 -198l26 58q20 -10 47 -10q54 0 54 35q0 29 -74 27l44 88h93l-24 -48q75 -7 75 -65q0 -46 -43 -72.5t-114 -26.5q-47 0 -84 14z" />
    <glyph glyph-name="onesuperior" unicode="&#xb9;" horiz-adv-x="349" 
d="M165 402l62 280q-52 -24 -122 -34v92q81 13 159 57h95l-87 -395h-107z" />
    <glyph glyph-name="ordmasculine" unicode="&#xba;" horiz-adv-x="377" 
d="M-22 130l18 77h332l-18 -77h-332zM185 263q-64 0 -105 36.5t-41 101.5q0 91 53 150.5t138 59.5q64 0 105 -36.5t41 -101.5q0 -91 -53 -150.5t-138 -59.5zM190 347q40 0 64 35.5t24 81.5q0 63 -53 63q-40 0 -64 -35.5t-24 -81.5q0 -63 53 -63z" />
    <glyph glyph-name="guillemotright" unicode="&#xbb;" horiz-adv-x="592" 
d="M250 101l138 146l-89 149l93 54l135 -214l-199 -204zM-7 101l138 146l-89 149l93 54l135 -214l-199 -204z" />
    <glyph glyph-name="onequarter" unicode="&#xbc;" horiz-adv-x="971" 
d="M144 0l496 659h111l-496 -659h-111zM146 270l62 280q-52 -24 -122 -34v92q81 13 159 57h95l-87 -395h-107zM656 0l17 82h-158l-15 69l238 244h106l-52 -236h56l-16 -77h-56l-18 -82h-102zM689 157l7 29q13 54 22 82l-111 -112z" />
    <glyph glyph-name="onehalf" unicode="&#xbd;" horiz-adv-x="971" 
d="M118 0l496 659h111l-496 -659h-111zM124 270l62 280q-52 -24 -122 -34v92q81 13 159 57h95l-87 -395h-107zM525 0q9 56 36 99.5t59 68t62.5 43t51 35t20.5 33.5q0 29 -43 29q-49 0 -109 -27l-19 84q76 32 148 32q65 0 100 -29t35 -76q0 -41 -27 -75t-59.5 -52t-64 -38.5
t-37.5 -37.5h165l-18 -89h-300z" />
    <glyph glyph-name="threequarters" unicode="&#xbe;" horiz-adv-x="971" 
d="M183 0l496 659h111l-496 -659h-111zM693 0l17 82h-158l-15 69l238 244h106l-52 -236h56l-16 -77h-56l-18 -82h-102zM726 157l7 29q13 54 22 82l-111 -112zM48 287l32 78q46 -17 96 -17q69 0 69 46q0 35 -62 35h-62l15 75h41q89 1 89 46q0 30 -48 30q-39 0 -89 -15l-19 77
q68 24 133 24q66 0 100 -26.5t34 -66.5q0 -78 -85 -102v-2q28 -4 46 -23.5t18 -51.5q0 -61 -47 -96t-135 -35q-72 0 -126 24z" />
    <glyph glyph-name="questiondown" unicode="&#xbf;" horiz-adv-x="450" 
d="M154 -190q-77 0 -125.5 40t-48.5 104q0 53 35 100q18 24 51.5 52t61.5 49t55.5 53t39.5 67h89q-1 -47 -21 -87t-49 -66.5t-57.5 -49.5t-48.5 -47.5t-20 -49.5q0 -52 65 -52q62 0 124 46l49 -94q-88 -65 -200 -65zM277 335q-29 0 -47.5 19.5t-18.5 48.5q0 34 23.5 58
t57.5 24q28 0 46.5 -19t18.5 -48q0 -35 -23.5 -59t-56.5 -24z" />
    <glyph glyph-name="Agrave" unicode="&#xc0;" horiz-adv-x="639" 
d="M-60 0l373 662h117l129 -662h-144l-28 161h-207l-87 -161h-153zM241 270h129l-20 145q-6 33 -8 63h-2q-20 -48 -28 -64zM340 696l-92 147h145l48 -147h-101z" />
    <glyph glyph-name="Aacute" unicode="&#xc1;" horiz-adv-x="639" 
d="M-60 0l373 662h117l129 -662h-144l-28 161h-207l-87 -161h-153zM241 270h129l-20 145q-6 33 -8 63h-2q-20 -48 -28 -64zM308 696l75 147h145l-120 -147h-100z" />
    <glyph glyph-name="Acircumflex" unicode="&#xc2;" horiz-adv-x="639" 
d="M-60 0l373 662h117l129 -662h-144l-28 161h-207l-87 -161h-153zM241 270h129l-20 145q-6 33 -8 63h-2q-20 -48 -28 -64zM223 696l121 147h98l86 -147h-99l-44 74l-57 -74h-105z" />
    <glyph glyph-name="Atilde" unicode="&#xc3;" horiz-adv-x="639" 
d="M-60 0l373 662h117l129 -662h-144l-28 161h-207l-87 -161h-153zM241 270h129l-20 145q-6 33 -8 63h-2q-20 -48 -28 -64zM212 717q5 65 33.5 97.5t70.5 32.5q32 0 70.5 -21t51.5 -21q25 0 30 36h88q-5 -64 -34 -97t-70 -33q-32 0 -70.5 21.5t-51.5 21.5q-25 0 -30 -37h-88
z" />
    <glyph glyph-name="Adieresis" unicode="&#xc4;" horiz-adv-x="639" 
d="M-60 0l373 662h117l129 -662h-144l-28 161h-207l-87 -161h-153zM241 270h129l-20 145q-6 33 -8 63h-2q-20 -48 -28 -64zM283 699q-26 0 -42 15.5t-16 41.5q0 33 20.5 55t49.5 22q26 0 42.5 -15.5t16.5 -41.5q0 -33 -20.5 -55t-50.5 -22zM477 699q-26 0 -42 15.5t-16 41.5
q0 33 20.5 55t49.5 22q26 0 42.5 -15.5t16.5 -41.5q0 -33 -20.5 -55t-50.5 -22z" />
    <glyph glyph-name="Aring" unicode="&#xc5;" horiz-adv-x="639" 
d="M-60 0l369 655q-48 20 -48 71t38.5 83t97.5 32q49 0 78.5 -21.5t29.5 -59.5q0 -75 -74 -104l128 -656h-144l-28 161h-207l-87 -161h-153zM241 270h129l-20 145q-6 33 -8 63h-2q-20 -48 -28 -64zM376 700q20 0 32.5 16.5t12.5 37.5q0 32 -31 32q-20 0 -32.5 -16.5
t-12.5 -37.5q0 -32 31 -32z" />
    <glyph glyph-name="AE" unicode="&#xc6;" horiz-adv-x="860" 
d="M-65 0l496 659h399l-31 -115h-210l-22 -153h208l-16 -115h-208l-22 -161h236l-16 -115h-373l23 161h-187l-121 -161h-156zM295 270h119l32 210h-2q-28 -45 -68 -100z" />
    <glyph glyph-name="Ccedilla" unicode="&#xc7;" horiz-adv-x="614" 
d="M158 -198l26 58q20 -10 47 -10q53 0 53 35q0 29 -73 27l43 88q-102 23 -155.5 97.5t-53.5 176.5q0 177 115 284.5t285 107.5q99 0 170 -32l-26 -115q-69 33 -144 33q-115 0 -185 -78.5t-70 -186.5q0 -82 45.5 -132.5t130.5 -50.5q72 0 145 34l25 -110q-83 -38 -194 -38
l-18 -38q74 -7 74 -65q0 -47 -42.5 -73t-113.5 -26q-47 0 -84 14z" />
    <glyph glyph-name="Egrave" unicode="&#xc8;" horiz-adv-x="504" 
d="M4 0l144 659h366l-44 -115h-209l-34 -153h208l-25 -115h-208l-35 -161h236l-25 -115h-374zM295 696l-92 147h145l48 -147h-101z" />
    <glyph glyph-name="Eacute" unicode="&#xc9;" horiz-adv-x="504" 
d="M4 0l144 659h366l-44 -115h-209l-34 -153h208l-25 -115h-208l-35 -161h236l-25 -115h-374zM267 696l75 147h145l-120 -147h-100z" />
    <glyph glyph-name="Ecircumflex" unicode="&#xca;" horiz-adv-x="504" 
d="M4 0l144 659h366l-44 -115h-209l-34 -153h208l-25 -115h-208l-35 -161h236l-25 -115h-374zM177 696l121 147h98l86 -147h-99l-44 74l-57 -74h-105z" />
    <glyph glyph-name="Edieresis" unicode="&#xcb;" horiz-adv-x="504" 
d="M4 0l144 659h366l-44 -115h-209l-34 -153h208l-25 -115h-208l-35 -161h236l-25 -115h-374zM242 699q-26 0 -42 15.5t-16 41.5q0 33 20.5 55t49.5 22q26 0 42.5 -15.5t16.5 -41.5q0 -33 -20.5 -55t-50.5 -22zM436 699q-26 0 -42 15.5t-16 41.5q0 33 20.5 55t49.5 22
q26 0 42.5 -15.5t16.5 -41.5q0 -33 -20.5 -55t-50.5 -22z" />
    <glyph glyph-name="Igrave" unicode="&#xcc;" horiz-adv-x="289" 
d="M4 0l144 659h138l-144 -659h-138zM193 696l-92 147h145l48 -147h-101z" />
    <glyph glyph-name="Iacute" unicode="&#xcd;" horiz-adv-x="289" 
d="M4 0l144 659h138l-144 -659h-138zM166 696l75 147h145l-120 -147h-100z" />
    <glyph glyph-name="Icircumflex" unicode="&#xce;" horiz-adv-x="289" 
d="M4 0l144 659h138l-144 -659h-138zM72 696l121 147h98l86 -147h-99l-44 74l-57 -74h-105z" />
    <glyph glyph-name="Idieresis" unicode="&#xcf;" horiz-adv-x="289" 
d="M4 0l144 659h138l-144 -659h-138zM132 699q-26 0 -42 15.5t-16 41.5q0 33 20.5 55t49.5 22q26 0 42.5 -15.5t16.5 -41.5q0 -33 -20.5 -55t-50.5 -22zM326 699q-26 0 -42 15.5t-16 41.5q0 33 20.5 55t49.5 22q26 0 42.5 -15.5t16.5 -41.5q0 -33 -20.5 -55t-50.5 -22z" />
    <glyph glyph-name="Eth" unicode="&#xd0;" horiz-adv-x="686" 
d="M4 0l61 280h-72l24 110h72l59 269h157q119 0 199 -37q142 -64 142 -238q0 -121 -61.5 -211.5t-166.5 -135.5q-89 -37 -202 -37h-212zM167 115h55q85 0 142 30q137 69 137 248q0 90 -70 126q-47 25 -126 25h-44l-34 -154h141l-24 -110h-142z" />
    <glyph glyph-name="Ntilde" unicode="&#xd1;" horiz-adv-x="764" 
d="M4 0l144 659h130l199 -361q16 -29 43 -86h2q9 47 18 86l78 361h138l-144 -659h-119l-207 377q-28 51 -43 84h-2q-6 -35 -16 -80l-83 -381h-138zM298 717q5 65 33.5 97.5t70.5 32.5q32 0 70.5 -21t51.5 -21q25 0 30 36h88q-5 -64 -34 -97t-70 -33q-32 0 -70.5 21.5
t-51.5 21.5q-25 0 -30 -37h-88z" />
    <glyph glyph-name="Ograve" unicode="&#xd2;" horiz-adv-x="746" 
d="M322 -10q-128 0 -202.5 73t-74.5 200q0 171 105.5 287t271.5 116q128 0 203 -73t75 -200q0 -170 -105.5 -286.5t-272.5 -116.5zM333 104q96 0 159 86.5t63 197.5q0 79 -37.5 121.5t-105.5 42.5q-96 0 -159.5 -86.5t-63.5 -197.5q0 -79 37.5 -121.5t106.5 -42.5zM404 696
l-92 147h145l48 -147h-101z" />
    <glyph glyph-name="Oacute" unicode="&#xd3;" horiz-adv-x="746" 
d="M322 -10q-128 0 -202.5 73t-74.5 200q0 171 105.5 287t271.5 116q128 0 203 -73t75 -200q0 -170 -105.5 -286.5t-272.5 -116.5zM333 104q96 0 159 86.5t63 197.5q0 79 -37.5 121.5t-105.5 42.5q-96 0 -159.5 -86.5t-63.5 -197.5q0 -79 37.5 -121.5t106.5 -42.5zM387 696
l75 147h145l-120 -147h-100z" />
    <glyph glyph-name="Ocircumflex" unicode="&#xd4;" horiz-adv-x="746" 
d="M322 -10q-128 0 -202.5 73t-74.5 200q0 171 105.5 287t271.5 116q128 0 203 -73t75 -200q0 -170 -105.5 -286.5t-272.5 -116.5zM333 104q96 0 159 86.5t63 197.5q0 79 -37.5 121.5t-105.5 42.5q-96 0 -159.5 -86.5t-63.5 -197.5q0 -79 37.5 -121.5t106.5 -42.5zM289 696
l121 147h98l86 -147h-99l-44 74l-57 -74h-105z" />
    <glyph glyph-name="Otilde" unicode="&#xd5;" horiz-adv-x="746" 
d="M322 -10q-128 0 -202.5 73t-74.5 200q0 171 105.5 287t271.5 116q128 0 203 -73t75 -200q0 -170 -105.5 -286.5t-272.5 -116.5zM333 104q96 0 159 86.5t63 197.5q0 79 -37.5 121.5t-105.5 42.5q-96 0 -159.5 -86.5t-63.5 -197.5q0 -79 37.5 -121.5t106.5 -42.5zM284 717
q5 65 33.5 97.5t70.5 32.5q32 0 70.5 -21t51.5 -21q25 0 30 36h88q-5 -64 -34 -97t-70 -33q-32 0 -70.5 21.5t-51.5 21.5q-25 0 -30 -37h-88z" />
    <glyph glyph-name="Odieresis" unicode="&#xd6;" horiz-adv-x="746" 
d="M322 -10q-128 0 -202.5 73t-74.5 200q0 171 105.5 287t271.5 116q128 0 203 -73t75 -200q0 -170 -105.5 -286.5t-272.5 -116.5zM333 104q96 0 159 86.5t63 197.5q0 79 -37.5 121.5t-105.5 42.5q-96 0 -159.5 -86.5t-63.5 -197.5q0 -79 37.5 -121.5t106.5 -42.5zM355 699
q-26 0 -42 15.5t-16 41.5q0 33 20.5 55t49.5 22q26 0 42.5 -15.5t16.5 -41.5q0 -33 -20.5 -55t-50.5 -22zM549 699q-26 0 -42 15.5t-16 41.5q0 33 20.5 55t49.5 22q26 0 42.5 -15.5t16.5 -41.5q0 -33 -20.5 -55t-50.5 -22z" />
    <glyph glyph-name="multiply" unicode="&#xd7;" horiz-adv-x="614" 
d="M128 -14l-79 80l180 181l-181 181l79 79l182 -181l180 180l78 -79l-179 -180l179 -180l-79 -79l-179 179z" />
    <glyph glyph-name="Oslash" unicode="&#xd8;" horiz-adv-x="746" 
d="M328 -10q-80 0 -140 31l-58 -70l-82 65l55 68q-59 71 -59 187q0 167 103 281t269 114q80 0 142 -31l54 65l82 -65l-53 -64q59 -71 59 -186q0 -167 -102.5 -281t-269.5 -114zM340 104q89 0 152 77.5t63 206.5q0 38 -10 65l-277 -333q32 -16 72 -16zM189 268q0 -40 10 -67
l278 334q-31 17 -72 17q-90 0 -153 -77t-63 -207z" />
    <glyph glyph-name="Ugrave" unicode="&#xd9;" horiz-adv-x="702" 
d="M309 -10q-122 0 -187.5 56.5t-65.5 149.5q0 39 13 98l79 365h138l-83 -376q-8 -38 -8 -65q0 -57 30.5 -85.5t85.5 -28.5q70 0 111 41q36 37 50 104l90 410h138l-91 -416q-26 -124 -91 -182q-80 -71 -209 -71zM391 696l-92 147h145l48 -147h-101z" />
    <glyph glyph-name="Uacute" unicode="&#xda;" horiz-adv-x="702" 
d="M309 -10q-122 0 -187.5 56.5t-65.5 149.5q0 39 13 98l79 365h138l-83 -376q-8 -38 -8 -65q0 -57 30.5 -85.5t85.5 -28.5q70 0 111 41q36 37 50 104l90 410h138l-91 -416q-26 -124 -91 -182q-80 -71 -209 -71zM376 696l75 147h145l-120 -147h-100z" />
    <glyph glyph-name="Ucircumflex" unicode="&#xdb;" horiz-adv-x="702" 
d="M309 -10q-122 0 -187.5 56.5t-65.5 149.5q0 39 13 98l79 365h138l-83 -376q-8 -38 -8 -65q0 -57 30.5 -85.5t85.5 -28.5q70 0 111 41q36 37 50 104l90 410h138l-91 -416q-26 -124 -91 -182q-80 -71 -209 -71zM278 696l121 147h98l86 -147h-99l-44 74l-57 -74h-105z" />
    <glyph glyph-name="Udieresis" unicode="&#xdc;" horiz-adv-x="702" 
d="M309 -10q-122 0 -187.5 56.5t-65.5 149.5q0 39 13 98l79 365h138l-83 -376q-8 -38 -8 -65q0 -57 30.5 -85.5t85.5 -28.5q70 0 111 41q36 37 50 104l90 410h138l-91 -416q-26 -124 -91 -182q-80 -71 -209 -71zM341 699q-26 0 -42 15.5t-16 41.5q0 33 20.5 55t49.5 22
q26 0 42.5 -15.5t16.5 -41.5q0 -33 -20.5 -55t-50.5 -22zM535 699q-26 0 -42 15.5t-16 41.5q0 33 20.5 55t49.5 22q26 0 42.5 -15.5t16.5 -41.5q0 -33 -20.5 -55t-50.5 -22z" />
    <glyph glyph-name="Yacute" unicode="&#xdd;" horiz-adv-x="577" 
d="M171 0l56 259l-152 400h140l97 -280h2l175 280h153l-279 -408l-55 -251h-137zM302 696l75 147h145l-120 -147h-100z" />
    <glyph glyph-name="Thorn" unicode="&#xde;" horiz-adv-x="555" 
d="M4 0l144 659h138l-24 -105h8q74 0 122 -21q113 -47 113 -168q0 -78 -38.5 -136t-114.5 -87q-66 -25 -158 -25h-27l-25 -117h-138zM191 227h25q51 0 86 19q65 34 65 110q0 57 -43 76q-26 12 -60 12h-26z" />
    <glyph glyph-name="germandbls" unicode="&#xdf;" horiz-adv-x="611" 
d="M-37 -141l139 635q19 86 62 135q68 79 194 79q91 0 150 -46.5t59 -134.5q0 -43 -14 -96q-118 -14 -118 -84q0 -23 18 -46t39 -40.5t39 -50t18 -71.5q0 -69 -53 -109t-132 -40q-97 0 -170 47l42 96q67 -38 119 -38q59 0 59 45q0 22 -18 43.5t-39 38t-39 47.5t-18 69
q0 58 36 98t98 50q3 12 3 30q0 76 -81 76q-97 0 -126 -127l-133 -606h-134z" />
    <glyph glyph-name="agrave" unicode="&#xe0;" horiz-adv-x="497" 
d="M122 -10q-61 0 -97 35.5t-36 93.5q0 77 51 123q68 61 214 61l45 1q2 14 2 20q0 60 -80 60q-59 0 -134 -31l-18 95q89 37 179 37q35 0 65.5 -6t59.5 -21.5t46 -46.5t17 -75q0 -36 -16 -106l-14 -54q-14 -61 -14 -98q0 -34 9 -62l-116 -25q-13 34 -17 79q-26 -36 -65 -58
t-81 -22zM163 95q37 0 72.5 28.5t46.5 73.5l4 18h-27q-93 0 -125 -32q-18 -18 -18 -44q0 -44 47 -44zM243 531l-92 147h145l48 -147h-101z" />
    <glyph glyph-name="aacute" unicode="&#xe1;" horiz-adv-x="497" 
d="M122 -10q-61 0 -97 35.5t-36 93.5q0 77 51 123q68 61 214 61l45 1q2 14 2 20q0 60 -80 60q-59 0 -134 -31l-18 95q89 37 179 37q35 0 65.5 -6t59.5 -21.5t46 -46.5t17 -75q0 -36 -16 -106l-14 -54q-14 -61 -14 -98q0 -34 9 -62l-116 -25q-13 34 -17 79q-26 -36 -65 -58
t-81 -22zM163 95q37 0 72.5 28.5t46.5 73.5l4 18h-27q-93 0 -125 -32q-18 -18 -18 -44q0 -44 47 -44zM215 531l75 147h145l-120 -147h-100z" />
    <glyph glyph-name="acircumflex" unicode="&#xe2;" horiz-adv-x="497" 
d="M122 -10q-61 0 -97 35.5t-36 93.5q0 77 51 123q68 61 214 61l45 1q2 14 2 20q0 60 -80 60q-59 0 -134 -31l-18 95q89 37 179 37q35 0 65.5 -6t59.5 -21.5t46 -46.5t17 -75q0 -36 -16 -106l-14 -54q-14 -61 -14 -98q0 -34 9 -62l-116 -25q-13 34 -17 79q-26 -36 -65 -58
t-81 -22zM163 95q37 0 72.5 28.5t46.5 73.5l4 18h-27q-93 0 -125 -32q-18 -18 -18 -44q0 -44 47 -44zM118 531l121 147h98l86 -147h-99l-44 74l-57 -74h-105z" />
    <glyph glyph-name="atilde" unicode="&#xe3;" horiz-adv-x="497" 
d="M122 -10q-61 0 -97 35.5t-36 93.5q0 77 51 123q68 61 214 61l45 1q2 14 2 20q0 60 -80 60q-59 0 -134 -31l-18 95q89 37 179 37q35 0 65.5 -6t59.5 -21.5t46 -46.5t17 -75q0 -36 -16 -106l-14 -54q-14 -61 -14 -98q0 -34 9 -62l-116 -25q-13 34 -17 79q-26 -36 -65 -58
t-81 -22zM163 95q37 0 72.5 28.5t46.5 73.5l4 18h-27q-93 0 -125 -32q-18 -18 -18 -44q0 -44 47 -44zM110 545q5 64 33.5 96.5t70.5 32.5q32 0 70.5 -21t51.5 -21q25 0 30 36h88q-5 -64 -33.5 -96.5t-70.5 -32.5q-32 0 -70.5 21t-51.5 21q-25 0 -30 -36h-88z" />
    <glyph glyph-name="adieresis" unicode="&#xe4;" horiz-adv-x="497" 
d="M122 -10q-61 0 -97 35.5t-36 93.5q0 77 51 123q68 61 214 61l45 1q2 14 2 20q0 60 -80 60q-59 0 -134 -31l-18 95q89 37 179 37q35 0 65.5 -6t59.5 -21.5t46 -46.5t17 -75q0 -36 -16 -106l-14 -54q-14 -61 -14 -98q0 -34 9 -62l-116 -25q-13 34 -17 79q-26 -36 -65 -58
t-81 -22zM163 95q37 0 72.5 28.5t46.5 73.5l4 18h-27q-93 0 -125 -32q-18 -18 -18 -44q0 -44 47 -44zM184 538q-26 0 -42 15.5t-16 41.5q0 33 20 55t50 22q26 0 42.5 -15.5t16.5 -40.5q0 -33 -20.5 -55.5t-50.5 -22.5zM378 538q-26 0 -42 15.5t-16 41.5q0 33 20 55t50 22
q26 0 42.5 -15.5t16.5 -40.5q0 -33 -20.5 -55.5t-50.5 -22.5z" />
    <glyph glyph-name="aring" unicode="&#xe5;" horiz-adv-x="497" 
d="M122 -10q-61 0 -97 35.5t-36 93.5q0 77 51 123q68 61 214 61l45 1q2 14 2 20q0 60 -80 60q-59 0 -134 -31l-18 95q89 37 179 37q35 0 65.5 -6t59.5 -21.5t46 -46.5t17 -75q0 -36 -16 -106l-14 -54q-14 -61 -14 -98q0 -34 9 -62l-116 -25q-13 34 -17 79q-26 -36 -65 -58
t-81 -22zM163 95q37 0 72.5 28.5t46.5 73.5l4 18h-27q-93 0 -125 -32q-18 -18 -18 -44q0 -44 47 -44zM278 522q-50 0 -79 21.5t-29 59.5q0 51 38.5 83t96.5 32q49 0 79 -21.5t30 -59.5q0 -51 -38.5 -83t-97.5 -32zM285 577q19 0 32 16.5t13 37.5q0 15 -9 23.5t-23 8.5
q-19 0 -31.5 -16.5t-12.5 -38.5q0 -31 31 -31z" />
    <glyph glyph-name="ae" unicode="&#xe6;" horiz-adv-x="774" 
d="M133 -10q-63 0 -103.5 37t-40.5 97q0 170 265 170h44q2 9 2 27q0 63 -79 63q-59 0 -134 -31l-18 95q89 37 173 37q110 0 148 -69h2q67 69 160 69q84 0 130.5 -43.5t46.5 -116.5q0 -58 -22 -117l-291 -5v-14q0 -44 28.5 -69t72.5 -25q60 0 129 33l36 -95q-82 -43 -171 -43
q-133 0 -180 101h-2q-73 -101 -196 -101zM163 95q39 0 73.5 25.5t45.5 71.5l3 11h-28q-141 0 -141 -64q0 -44 47 -44zM432 294l164 2q5 12 5 30q0 26 -16.5 42t-45.5 16q-37 0 -66.5 -25t-40.5 -65z" />
    <glyph glyph-name="ccedilla" unicode="&#xe7;" horiz-adv-x="448" 
d="M52 -198l26 58q20 -10 47 -10q53 0 53 35q0 29 -73 27l43 89q-69 19 -105 72t-36 124q0 120 77 204t211 84q77 0 134 -27l-25 -107q-57 27 -106 27q-65 0 -111 -47t-46 -124q0 -53 27.5 -81.5t79.5 -28.5q56 0 110 31l36 -94q-60 -40 -158 -44l-18 -38q74 -7 74 -65
q0 -47 -42.5 -73t-113.5 -26q-47 0 -84 14z" />
    <glyph glyph-name="egrave" unicode="&#xe8;" horiz-adv-x="494" 
d="M225 -10q-105 0 -161.5 56.5t-56.5 148.5q0 122 74.5 206t192.5 84q84 0 130.5 -43.5t46.5 -116.5q0 -52 -23 -123l-290 -4v-13q0 -43 28.5 -66.5t72.5 -23.5q60 0 129 33l36 -95q-82 -43 -179 -43zM153 288l163 3q7 17 7 35q0 26 -16.5 42t-44.5 16q-38 0 -68 -27.5
t-41 -68.5zM251 531l-92 147h145l48 -147h-101z" />
    <glyph glyph-name="eacute" unicode="&#xe9;" horiz-adv-x="494" 
d="M225 -10q-105 0 -161.5 56.5t-56.5 148.5q0 122 74.5 206t192.5 84q84 0 130.5 -43.5t46.5 -116.5q0 -52 -23 -123l-290 -4v-13q0 -43 28.5 -66.5t72.5 -23.5q60 0 129 33l36 -95q-82 -43 -179 -43zM153 288l163 3q7 17 7 35q0 26 -16.5 42t-44.5 16q-38 0 -68 -27.5
t-41 -68.5zM233 531l75 147h145l-120 -147h-100z" />
    <glyph glyph-name="ecircumflex" unicode="&#xea;" horiz-adv-x="494" 
d="M225 -10q-105 0 -161.5 56.5t-56.5 148.5q0 122 74.5 206t192.5 84q84 0 130.5 -43.5t46.5 -116.5q0 -52 -23 -123l-290 -4v-13q0 -43 28.5 -66.5t72.5 -23.5q60 0 129 33l36 -95q-82 -43 -179 -43zM153 288l163 3q7 17 7 35q0 26 -16.5 42t-44.5 16q-38 0 -68 -27.5
t-41 -68.5zM136 531l121 147h98l86 -147h-99l-44 74l-57 -74h-105z" />
    <glyph glyph-name="edieresis" unicode="&#xeb;" horiz-adv-x="494" 
d="M225 -10q-105 0 -161.5 56.5t-56.5 148.5q0 122 74.5 206t192.5 84q84 0 130.5 -43.5t46.5 -116.5q0 -52 -23 -123l-290 -4v-13q0 -43 28.5 -66.5t72.5 -23.5q60 0 129 33l36 -95q-82 -43 -179 -43zM153 288l163 3q7 17 7 35q0 26 -16.5 42t-44.5 16q-38 0 -68 -27.5
t-41 -68.5zM199 538q-26 0 -42 15.5t-16 41.5q0 33 20 55t50 22q26 0 42.5 -15.5t16.5 -40.5q0 -33 -20.5 -55.5t-50.5 -22.5zM393 538q-26 0 -42 15.5t-16 41.5q0 33 20 55t50 22q26 0 42.5 -15.5t16.5 -40.5q0 -33 -20.5 -55.5t-50.5 -22.5z" />
    <glyph glyph-name="igrave" unicode="&#xec;" horiz-adv-x="250" 
d="M137 531l-92 147h145l48 -147h-101zM-14 0l104 473h134l-104 -473h-134z" />
    <glyph glyph-name="iacute" unicode="&#xed;" horiz-adv-x="250" 
d="M103 531l75 147h145l-120 -147h-100zM-14 0l104 473h134l-104 -473h-134z" />
    <glyph glyph-name="icircumflex" unicode="&#xee;" horiz-adv-x="250" 
d="M-14 0l104 473h134l-104 -473h-134zM15 531l121 147h98l86 -147h-99l-44 74l-57 -74h-105z" />
    <glyph glyph-name="idieresis" unicode="&#xef;" horiz-adv-x="250" 
d="M74 538q-26 0 -42 15.5t-16 41.5q0 33 20 55t50 22q26 0 42.5 -15.5t16.5 -40.5q0 -33 -20.5 -55.5t-50.5 -22.5zM268 538q-26 0 -42 15.5t-16 41.5q0 33 20 55t50 22q26 0 42.5 -15.5t16.5 -40.5q0 -33 -20.5 -55.5t-50.5 -22.5zM-14 0l104 473h134l-104 -473h-134z" />
    <glyph glyph-name="eth" unicode="&#xf0;" horiz-adv-x="539" 
d="M209 -10q-93 1 -147.5 56.5t-54.5 146.5q0 120 71 201t172 81q88 0 134 -62h3q-4 91 -99 146l-123 -61l-25 55l71 34q-61 15 -127 14l25 107q141 -1 235 -55l112 55l25 -54l-83 -41q90 -87 90 -239q0 -182 -76 -283.5t-203 -100.5zM226 97q53 0 90 48.5t37 121.5
q0 52 -24 76.5t-61 24.5q-55 0 -91 -48.5t-36 -124.5q0 -98 85 -98z" />
    <glyph glyph-name="ntilde" unicode="&#xf1;" horiz-adv-x="543" 
d="M-14 0l104 473h104l-3 -91h2q75 103 176 103q56 0 87.5 -30.5t31.5 -90.5q0 -28 -14 -97l-59 -267h-135l58 259q10 48 10 64q0 45 -41 45q-50 0 -92 -55q-37 -49 -56 -139l-39 -174h-134zM151 545q5 64 33.5 96.5t70.5 32.5q32 0 70.5 -21t51.5 -21q25 0 30 36h88
q-5 -64 -33.5 -96.5t-70.5 -32.5q-32 0 -70.5 21t-51.5 21q-25 0 -30 -36h-88z" />
    <glyph glyph-name="ograve" unicode="&#xf2;" horiz-adv-x="538" 
d="M217 -10q-99 0 -155.5 57t-56.5 149q0 123 77 206t192 83q99 0 155 -57t56 -149q0 -123 -76.5 -206t-191.5 -83zM220 97q53 0 92 52t39 128q0 49 -21.5 75t-59.5 26q-53 0 -92 -52t-39 -128q0 -49 21.5 -75t59.5 -26zM256 531l-92 147h145l48 -147h-101z" />
    <glyph glyph-name="oacute" unicode="&#xf3;" horiz-adv-x="538" 
d="M217 -10q-99 0 -155.5 57t-56.5 149q0 123 77 206t192 83q99 0 155 -57t56 -149q0 -123 -76.5 -206t-191.5 -83zM220 97q53 0 92 52t39 128q0 49 -21.5 75t-59.5 26q-53 0 -92 -52t-39 -128q0 -49 21.5 -75t59.5 -26zM241 531l75 147h145l-120 -147h-100z" />
    <glyph glyph-name="ocircumflex" unicode="&#xf4;" horiz-adv-x="538" 
d="M217 -10q-99 0 -155.5 57t-56.5 149q0 123 77 206t192 83q99 0 155 -57t56 -149q0 -123 -76.5 -206t-191.5 -83zM220 97q53 0 92 52t39 128q0 49 -21.5 75t-59.5 26q-53 0 -92 -52t-39 -128q0 -49 21.5 -75t59.5 -26zM147 531l121 147h98l86 -147h-99l-44 74l-57 -74
h-105z" />
    <glyph glyph-name="otilde" unicode="&#xf5;" horiz-adv-x="538" 
d="M217 -10q-99 0 -155.5 57t-56.5 149q0 123 77 206t192 83q99 0 155 -57t56 -149q0 -123 -76.5 -206t-191.5 -83zM220 97q53 0 92 52t39 128q0 49 -21.5 75t-59.5 26q-53 0 -92 -52t-39 -128q0 -49 21.5 -75t59.5 -26zM136 545q5 64 33.5 96.5t70.5 32.5q32 0 70.5 -21
t51.5 -21q25 0 30 36h88q-5 -64 -33.5 -96.5t-70.5 -32.5q-32 0 -70.5 21t-51.5 21q-25 0 -30 -36h-88z" />
    <glyph glyph-name="odieresis" unicode="&#xf6;" horiz-adv-x="538" 
d="M217 -10q-99 0 -155.5 57t-56.5 149q0 123 77 206t192 83q99 0 155 -57t56 -149q0 -123 -76.5 -206t-191.5 -83zM220 97q53 0 92 52t39 128q0 49 -21.5 75t-59.5 26q-53 0 -92 -52t-39 -128q0 -49 21.5 -75t59.5 -26zM204 538q-26 0 -42 15.5t-16 41.5q0 33 20 55t50 22
q26 0 42.5 -15.5t16.5 -40.5q0 -33 -20.5 -55.5t-50.5 -22.5zM398 538q-26 0 -42 15.5t-16 41.5q0 33 20 55t50 22q26 0 42.5 -15.5t16.5 -40.5q0 -33 -20.5 -55.5t-50.5 -22.5z" />
    <glyph glyph-name="divide" unicode="&#xf7;" horiz-adv-x="559" 
d="M271 9q-27 0 -46.5 19.5t-19.5 47.5t19.5 47.5t46.5 19.5t46.5 -19.5t19.5 -47.5t-19.5 -47.5t-46.5 -19.5zM32 194v111h470v-111h-470zM271 355q-27 0 -46.5 19t-19.5 47q0 29 19.5 48.5t46.5 19.5t46.5 -19.5t19.5 -48.5q0 -28 -19.5 -47t-46.5 -19z" />
    <glyph glyph-name="oslash" unicode="&#xf8;" horiz-adv-x="538" 
d="M62 -31l-50 43l40 47q-45 54 -45 137q0 123 77 206t192 83q70 0 118 -30l42 50l50 -43l-42 -50q43 -54 43 -133q0 -123 -76.5 -206t-191.5 -83q-63 0 -116 28zM222 95q54 0 94 53t40 129q0 18 -3 30l-173 -201q15 -11 42 -11zM138 198q0 -21 4 -36l176 205q-19 13 -46 13
q-54 0 -94 -53t-40 -129z" />
    <glyph glyph-name="ugrave" unicode="&#xf9;" horiz-adv-x="540" 
d="M146 -10q-54 0 -89.5 33.5t-35.5 98.5q0 32 13 100l55 251h135l-60 -269q-7 -28 -7 -48q0 -52 44 -52q38 0 72 34t49 103l51 232h134l-65 -297q-13 -63 -13 -97q0 -33 9 -63l-116 -25q-13 40 -15 82h-2q-69 -83 -159 -83zM264 531l-92 147h145l48 -147h-101z" />
    <glyph glyph-name="uacute" unicode="&#xfa;" horiz-adv-x="540" 
d="M146 -10q-54 0 -89.5 33.5t-35.5 98.5q0 32 13 100l55 251h135l-60 -269q-7 -28 -7 -48q0 -52 44 -52q38 0 72 34t49 103l51 232h134l-65 -297q-13 -63 -13 -97q0 -33 9 -63l-116 -25q-13 40 -15 82h-2q-69 -83 -159 -83zM237 531l75 147h145l-120 -147h-100z" />
    <glyph glyph-name="ucircumflex" unicode="&#xfb;" horiz-adv-x="540" 
d="M146 -10q-54 0 -89.5 33.5t-35.5 98.5q0 32 13 100l55 251h135l-60 -269q-7 -28 -7 -48q0 -52 44 -52q38 0 72 34t49 103l51 232h134l-65 -297q-13 -63 -13 -97q0 -33 9 -63l-116 -25q-13 40 -15 82h-2q-69 -83 -159 -83zM156 531l121 147h98l86 -147h-99l-44 74l-57 -74
h-105z" />
    <glyph glyph-name="udieresis" unicode="&#xfc;" horiz-adv-x="540" 
d="M146 -10q-54 0 -89.5 33.5t-35.5 98.5q0 32 13 100l55 251h135l-60 -269q-7 -28 -7 -48q0 -52 44 -52q38 0 72 34t49 103l51 232h134l-65 -297q-13 -63 -13 -97q0 -33 9 -63l-116 -25q-13 40 -15 82h-2q-69 -83 -159 -83zM214 538q-26 0 -42 15.5t-16 41.5q0 33 20 55
t50 22q26 0 42.5 -15.5t16.5 -40.5q0 -33 -20.5 -55.5t-50.5 -22.5zM408 538q-26 0 -42 15.5t-16 41.5q0 33 20 55t50 22q26 0 42.5 -15.5t16.5 -40.5q0 -33 -20.5 -55.5t-50.5 -22.5z" />
    <glyph glyph-name="yacute" unicode="&#xfd;" horiz-adv-x="504" 
d="M-121 -213l48 99q33 -16 66 -16q81 0 153 136l-113 467h130l41 -194q15 -72 28 -137h2q30 70 57 124l104 207h133l-254 -477q-68 -126 -130.5 -179.5t-158.5 -53.5q-66 0 -106 24zM228 531l75 147h145l-120 -147h-100z" />
    <glyph glyph-name="thorn" unicode="&#xfe;" horiz-adv-x="540" 
d="M-66 -237l207 945h134l-50 -224q3 0 11 0.5t10 0.5q118 0 180 -55.5t62 -151.5q0 -128 -77.5 -208t-194.5 -80q-50 0 -95 16l-53 -243h-134zM145 112q28 -12 60 -12q66 0 107.5 48t41.5 117q0 56 -31 83t-80 27q-22 0 -42 -5z" />
    <glyph glyph-name="ydieresis" unicode="&#xff;" horiz-adv-x="504" 
d="M-121 -213l48 99q33 -16 66 -16q81 0 153 136l-113 467h130l41 -194q15 -72 28 -137h2q30 70 57 124l104 207h133l-254 -477q-68 -126 -130.5 -179.5t-158.5 -53.5q-66 0 -106 24zM195 538q-26 0 -42 15.5t-16 41.5q0 33 20 55t50 22q26 0 42.5 -15.5t16.5 -40.5
q0 -33 -20.5 -55.5t-50.5 -22.5zM389 538q-26 0 -42 15.5t-16 41.5q0 33 20 55t50 22q26 0 42.5 -15.5t16.5 -40.5q0 -33 -20.5 -55.5t-50.5 -22.5z" />
    <glyph glyph-name="Amacron" unicode="&#x100;" horiz-adv-x="639" 
d="M-60 0l373 662h117l129 -662h-144l-28 161h-207l-87 -161h-153zM241 270h129l-20 145q-6 33 -8 63h-2q-20 -48 -28 -64zM224 700l21 101h298l-21 -101h-298z" />
    <glyph glyph-name="amacron" unicode="&#x101;" horiz-adv-x="497" 
d="M122 -10q-61 0 -97 35.5t-36 93.5q0 77 51 123q68 61 214 61l45 1q2 14 2 20q0 60 -80 60q-59 0 -134 -31l-18 95q89 37 179 37q35 0 65.5 -6t59.5 -21.5t46 -46.5t17 -75q0 -36 -16 -106l-14 -54q-14 -61 -14 -98q0 -34 9 -62l-116 -25q-13 34 -17 79q-26 -36 -65 -58
t-81 -22zM163 95q37 0 72.5 28.5t46.5 73.5l4 18h-27q-93 0 -125 -32q-18 -18 -18 -44q0 -44 47 -44zM131 567l20 101h298l-21 -101h-297z" />
    <glyph glyph-name="Abreve" unicode="&#x102;" horiz-adv-x="639" 
d="M-60 0l373 662h117l129 -662h-144l-28 161h-207l-87 -161h-153zM241 270h129l-20 145q-6 33 -8 63h-2q-20 -48 -28 -64zM378 690q-66 0 -102.5 39t-29.5 106h90q-2 -30 11 -47t40 -17q26 0 45 17.5t27 46.5h94q-15 -70 -62 -107.5t-113 -37.5z" />
    <glyph glyph-name="abreve" unicode="&#x103;" horiz-adv-x="497" 
d="M122 -10q-61 0 -97 35.5t-36 93.5q0 77 51 123q68 61 214 61l45 1q2 14 2 20q0 60 -80 60q-59 0 -134 -31l-18 95q89 37 179 37q35 0 65.5 -6t59.5 -21.5t46 -46.5t17 -75q0 -36 -16 -106l-14 -54q-14 -61 -14 -98q0 -34 9 -62l-116 -25q-13 34 -17 79q-26 -36 -65 -58
t-81 -22zM163 95q37 0 72.5 28.5t46.5 73.5l4 18h-27q-93 0 -125 -32q-18 -18 -18 -44q0 -44 47 -44zM273 539q-66 0 -102 39t-29 107h89q-2 -30 11 -47t40 -17q26 0 45 17.5t27 46.5h95q-15 -70 -62 -108t-114 -38z" />
    <glyph glyph-name="Aogonek" unicode="&#x104;" horiz-adv-x="639" 
d="M-60 0l373 662h117l129 -662q-55 -16 -98 -48t-43 -63q0 -27 32 -27q16 0 37 6l7 -71q-38 -11 -84 -11q-102 0 -102 77q0 81 107 139l-28 159h-207l-87 -161h-153zM241 270h129l-20 145q-6 33 -8 63h-2q-20 -48 -28 -64z" />
    <glyph glyph-name="aogonek" unicode="&#x105;" horiz-adv-x="497" 
d="M122 -10q-61 0 -97 35.5t-36 93.5q0 77 51 123q68 61 214 61l45 1q2 14 2 20q0 60 -80 60q-59 0 -134 -31l-18 95q89 37 179 37q35 0 65.5 -6t59.5 -21.5t46 -46.5t17 -75q0 -36 -16 -106l-14 -54q-14 -61 -14 -100q0 -41 9 -70q-56 -24 -95 -55.5t-39 -61.5
q0 -27 33 -27q16 0 37 6l7 -71q-39 -11 -85 -11q-101 0 -101 77q0 47 38 83.5t85 56.5q-11 38 -13 67q-26 -36 -65 -58t-81 -22zM163 95q37 0 72.5 28.5t46.5 73.5l4 18h-27q-93 0 -125 -32q-18 -18 -18 -44q0 -44 47 -44z" />
    <glyph glyph-name="Cacute" unicode="&#x106;" horiz-adv-x="614" 
d="M346 -10q-146 0 -223.5 80t-77.5 204q0 177 115 284.5t285 107.5q99 0 170 -32l-26 -115q-69 33 -144 33q-115 0 -185 -78.5t-70 -186.5q0 -82 45.5 -132.5t130.5 -50.5q72 0 145 34l25 -110q-83 -38 -190 -38zM349 696l75 147h145l-120 -147h-100z" />
    <glyph glyph-name="cacute" unicode="&#x107;" horiz-adv-x="448" 
d="M231 -10q-111 0 -167.5 58t-56.5 149q0 120 77 204t211 84q77 0 134 -27l-25 -107q-57 27 -106 27q-65 0 -111 -47t-46 -124q0 -53 27.5 -81.5t79.5 -28.5q56 0 110 31l36 -94q-27 -18 -74.5 -31t-88.5 -13zM223 531l75 147h145l-120 -147h-100z" />
    <glyph glyph-name="Ccircumflex" unicode="&#x108;" horiz-adv-x="614" 
d="M346 -10q-146 0 -223.5 80t-77.5 204q0 177 115 284.5t285 107.5q99 0 170 -32l-26 -115q-69 33 -144 33q-115 0 -185 -78.5t-70 -186.5q0 -82 45.5 -132.5t130.5 -50.5q72 0 145 34l25 -110q-83 -38 -190 -38zM260 696l121 147h98l86 -147h-99l-44 74l-57 -74h-105z" />
    <glyph glyph-name="ccircumflex" unicode="&#x109;" horiz-adv-x="448" 
d="M231 -10q-111 0 -167.5 58t-56.5 149q0 120 77 204t211 84q77 0 134 -27l-25 -107q-57 27 -106 27q-65 0 -111 -47t-46 -124q0 -53 27.5 -81.5t79.5 -28.5q56 0 110 31l36 -94q-27 -18 -74.5 -31t-88.5 -13zM137 531l121 147h98l86 -147h-99l-44 74l-57 -74h-105z" />
    <glyph glyph-name="Cdotaccent" unicode="&#x10a;" horiz-adv-x="614" 
d="M346 -10q-146 0 -223.5 80t-77.5 204q0 177 115 284.5t285 107.5q99 0 170 -32l-26 -115q-69 33 -144 33q-115 0 -185 -78.5t-70 -186.5q0 -82 45.5 -132.5t130.5 -50.5q72 0 145 34l25 -110q-83 -38 -190 -38zM415 701q-34 0 -54.5 21t-20.5 51q0 38 26 62t61 24
q34 0 55 -20.5t21 -50.5q0 -38 -26.5 -62.5t-61.5 -24.5z" />
    <glyph glyph-name="cdotaccent" unicode="&#x10b;" horiz-adv-x="448" 
d="M231 -10q-111 0 -167.5 58t-56.5 149q0 120 77 204t211 84q77 0 134 -27l-25 -107q-57 27 -106 27q-65 0 -111 -47t-46 -124q0 -53 27.5 -81.5t79.5 -28.5q56 0 110 31l36 -94q-27 -18 -74.5 -31t-88.5 -13zM299 540q-34 0 -54.5 20.5t-20.5 50.5q0 39 25.5 62.5
t61.5 23.5q34 0 55 -20t21 -50q0 -39 -26.5 -63t-61.5 -24z" />
    <glyph glyph-name="Ccaron" unicode="&#x10c;" horiz-adv-x="614" 
d="M346 -10q-146 0 -223.5 80t-77.5 204q0 177 115 284.5t285 107.5q99 0 170 -32l-26 -115q-69 33 -144 33q-115 0 -185 -78.5t-70 -186.5q0 -82 45.5 -132.5t130.5 -50.5q72 0 145 34l25 -110q-83 -38 -190 -38zM365 696l-85 147h99l43 -74l58 74h105l-121 -147h-99z" />
    <glyph glyph-name="ccaron" unicode="&#x10d;" horiz-adv-x="448" 
d="M231 -10q-111 0 -167.5 58t-56.5 149q0 120 77 204t211 84q77 0 134 -27l-25 -107q-57 27 -106 27q-65 0 -111 -47t-46 -124q0 -53 27.5 -81.5t79.5 -28.5q56 0 110 31l36 -94q-27 -18 -74.5 -31t-88.5 -13zM242 531l-85 147h99l43 -74l58 74h105l-121 -147h-99z" />
    <glyph glyph-name="Dcaron" unicode="&#x10e;" horiz-adv-x="686" 
d="M4 0l144 659h157q119 0 199 -37q142 -64 142 -238q0 -121 -61.5 -211.5t-166.5 -135.5q-89 -37 -202 -37h-212zM167 115h55q85 0 142 30q137 69 137 249q0 89 -70 125q-47 25 -126 25h-44zM317 696l-85 147h99l43 -74l58 74h105l-121 -147h-99z" />
    <glyph glyph-name="dcaron" unicode="&#x10f;" horiz-adv-x="536" 
d="M241 -10q-109 0 -171.5 60t-62.5 158q0 124 78.5 200.5t199.5 76.5q54 0 93 -13l52 236h134l-150 -682q-86 -36 -173 -36zM245 100q31 0 54 10l56 254q-29 11 -59 11q-68 0 -111.5 -45t-43.5 -117q0 -51 28 -82t76 -31zM586 513l61 196h133l-92 -196h-102z" />
    <glyph glyph-name="Dcroat" unicode="&#x110;" horiz-adv-x="686" 
d="M4 0l61 280h-72l24 110h72l59 269h157q119 0 199 -37q142 -64 142 -238q0 -121 -61.5 -211.5t-166.5 -135.5q-89 -37 -202 -37h-212zM167 115h55q85 0 142 30q137 69 137 248q0 90 -70 126q-47 25 -126 25h-44l-34 -154h141l-24 -110h-142z" />
    <glyph glyph-name="dcroat" unicode="&#x111;" horiz-adv-x="536" 
d="M241 -10q-109 0 -171.5 60t-62.5 158q0 124 78.5 200.5t199.5 76.5q54 0 93 -13l16 74h-139l21 98h140l14 64h134l-14 -64h55l-22 -98h-55l-114 -520q-86 -36 -173 -36zM245 100q31 0 54 10l56 254q-29 11 -59 11q-68 0 -111.5 -45t-43.5 -117q0 -51 28 -82t76 -31z" />
    <glyph glyph-name="Emacron" unicode="&#x112;" horiz-adv-x="504" 
d="M4 0l144 659h366l-44 -115h-209l-34 -153h208l-25 -115h-208l-35 -161h236l-25 -115h-374zM186 700l21 101h298l-21 -101h-298z" />
    <glyph glyph-name="emacron" unicode="&#x113;" horiz-adv-x="494" 
d="M225 -10q-105 0 -161.5 56.5t-56.5 148.5q0 122 74.5 206t192.5 84q84 0 130.5 -43.5t46.5 -116.5q0 -52 -23 -123l-290 -4v-13q0 -43 28.5 -66.5t72.5 -23.5q60 0 129 33l36 -95q-82 -43 -179 -43zM153 288l163 3q7 17 7 35q0 26 -16.5 42t-44.5 16q-38 0 -68 -27.5
t-41 -68.5zM143 567l20 101h298l-21 -101h-297z" />
    <glyph glyph-name="Ebreve" unicode="&#x114;" horiz-adv-x="504" 
d="M4 0l144 659h366l-44 -115h-209l-34 -153h208l-25 -115h-208l-35 -161h236l-25 -115h-374zM330 690q-66 0 -102.5 39t-29.5 106h90q-2 -30 11 -47t40 -17q26 0 45 17.5t27 46.5h94q-15 -70 -62 -107.5t-113 -37.5z" />
    <glyph glyph-name="ebreve" unicode="&#x115;" horiz-adv-x="494" 
d="M225 -10q-105 0 -161.5 56.5t-56.5 148.5q0 122 74.5 206t192.5 84q84 0 130.5 -43.5t46.5 -116.5q0 -52 -23 -123l-290 -4v-13q0 -43 28.5 -66.5t72.5 -23.5q60 0 129 33l36 -95q-82 -43 -179 -43zM153 288l163 3q7 17 7 35q0 26 -16.5 42t-44.5 16q-38 0 -68 -27.5
t-41 -68.5zM290 539q-66 0 -102 39t-29 107h89q-2 -30 11 -47t40 -17q26 0 45 17.5t27 46.5h95q-15 -70 -62 -108t-114 -38z" />
    <glyph glyph-name="Edotaccent" unicode="&#x116;" horiz-adv-x="504" 
d="M4 0l144 659h366l-44 -115h-209l-34 -153h208l-25 -115h-208l-35 -161h236l-25 -115h-374zM333 701q-34 0 -54.5 21t-20.5 51q0 38 26 62t61 24q34 0 55 -20.5t21 -50.5q0 -38 -26.5 -62.5t-61.5 -24.5z" />
    <glyph glyph-name="edotaccent" unicode="&#x117;" horiz-adv-x="494" 
d="M225 -10q-105 0 -161.5 56.5t-56.5 148.5q0 122 74.5 206t192.5 84q84 0 130.5 -43.5t46.5 -116.5q0 -52 -23 -123l-290 -4v-13q0 -43 28.5 -66.5t72.5 -23.5q60 0 129 33l36 -95q-82 -43 -179 -43zM153 288l163 3q7 17 7 35q0 26 -16.5 42t-44.5 16q-38 0 -68 -27.5
t-41 -68.5zM297 540q-34 0 -54.5 20.5t-20.5 50.5q0 39 25.5 62.5t61.5 23.5q34 0 55 -20t21 -50q0 -39 -26.5 -63t-61.5 -24z" />
    <glyph glyph-name="Eogonek" unicode="&#x118;" horiz-adv-x="504" 
d="M4 0l144 659h366l-44 -115h-209l-34 -153h208l-25 -115h-208l-35 -161h236l-25 -115h-18q-128 -55 -128 -111q0 -27 32 -27q17 0 38 6l7 -71q-41 -11 -85 -11q-102 0 -102 77t103 137h-221z" />
    <glyph glyph-name="eogonek" unicode="&#x119;" horiz-adv-x="494" 
d="M225 -214q-102 0 -102 77q0 71 88 127v2q-98 3 -151 58.5t-53 144.5q0 122 74.5 206t192.5 84q84 0 130.5 -43.5t46.5 -116.5q0 -52 -23 -123l-290 -4v-13q0 -44 28.5 -67t72.5 -23q60 0 129 33l36 -94q-68 -31 -119.5 -71.5t-51.5 -73.5q0 -27 33 -27q16 0 37 6l7 -71
q-39 -11 -85 -11zM153 288l163 3q7 17 7 35q0 26 -16.5 42t-44.5 16q-38 0 -68 -27.5t-41 -68.5z" />
    <glyph glyph-name="Ecaron" unicode="&#x11a;" horiz-adv-x="505" 
d="M4 0l144 659h366l-44 -115h-209l-34 -153h208l-25 -115h-208l-35 -161h236l-25 -115h-374zM282 696l-85 147h99l43 -74l58 74h105l-121 -147h-99z" />
    <glyph glyph-name="ecaron" unicode="&#x11b;" horiz-adv-x="494" 
d="M225 -10q-105 0 -161.5 56.5t-56.5 148.5q0 122 74.5 206t192.5 84q84 0 130.5 -43.5t46.5 -116.5q0 -52 -23 -123l-290 -4v-13q0 -43 28.5 -66.5t72.5 -23.5q60 0 129 33l36 -95q-82 -43 -179 -43zM153 288l163 3q7 17 7 35q0 26 -16.5 42t-44.5 16q-38 0 -68 -27.5
t-41 -68.5zM241 531l-85 147h99l43 -74l58 74h105l-121 -147h-99z" />
    <glyph glyph-name="Gcircumflex" unicode="&#x11c;" horiz-adv-x="705" 
d="M358 -10q-154 0 -234 78.5t-80 209.5q0 75 27 144t77.5 123.5t130 87.5t175.5 33q122 0 215 -44l-25 -115q-78 45 -182 45q-130 0 -201.5 -79.5t-71.5 -183.5q0 -91 49 -138t132 -47q56 0 92 14l47 205h137l-63 -290q-92 -43 -225 -43zM284 696l121 147h98l86 -147h-99
l-44 74l-57 -74h-105z" />
    <glyph glyph-name="gcircumflex" unicode="&#x11d;" horiz-adv-x="517" 
d="M-38 -202l44 112q61 -31 120 -31q61 0 96 30.5t49 94.5l13 57h-2q-58 -71 -140 -71q-57 0 -96 41t-39 128q0 138 79.5 232t231.5 94q102 0 183 -34l-96 -436q-28 -130 -90 -191t-193 -61q-86 0 -160 35zM197 100q36 0 73 38t58 135l20 94q-22 8 -54 8q-69 0 -111 -58
t-42 -135q0 -82 56 -82zM169 531l121 147h98l86 -147h-99l-44 74l-57 -74h-105z" />
    <glyph glyph-name="Gbreve" unicode="&#x11e;" horiz-adv-x="705" 
d="M358 -10q-154 0 -234 78.5t-80 209.5q0 75 27 144t77.5 123.5t130 87.5t175.5 33q122 0 215 -44l-25 -115q-78 45 -182 45q-130 0 -201.5 -79.5t-71.5 -183.5q0 -91 49 -138t132 -47q56 0 92 14l47 205h137l-63 -290q-92 -43 -225 -43zM436 690q-66 0 -102.5 39
t-29.5 106h90q-2 -30 11 -47t40 -17q26 0 45 17.5t27 46.5h94q-15 -70 -62 -107.5t-113 -37.5z" />
    <glyph glyph-name="gbreve" unicode="&#x11f;" horiz-adv-x="517" 
d="M-38 -202l44 112q61 -31 120 -31q61 0 96 30.5t49 94.5l13 57h-2q-58 -71 -140 -71q-57 0 -96 41t-39 128q0 138 79.5 232t231.5 94q102 0 183 -34l-96 -436q-28 -130 -90 -191t-193 -61q-86 0 -160 35zM197 100q36 0 73 38t58 135l20 94q-22 8 -54 8q-69 0 -111 -58
t-42 -135q0 -82 56 -82zM326 539q-66 0 -102 39t-29 107h89q-2 -30 11 -47t40 -17q26 0 45 17.5t27 46.5h95q-15 -70 -62 -108t-114 -38z" />
    <glyph glyph-name="Gdotaccent" unicode="&#x120;" horiz-adv-x="705" 
d="M358 -10q-154 0 -234 78.5t-80 209.5q0 75 27 144t77.5 123.5t130 87.5t175.5 33q122 0 215 -44l-25 -115q-78 45 -182 45q-130 0 -201.5 -79.5t-71.5 -183.5q0 -91 49 -138t132 -47q56 0 92 14l47 205h137l-63 -290q-92 -43 -225 -43zM439 701q-34 0 -54.5 21t-20.5 51
q0 38 26 62t61 24q34 0 55 -20.5t21 -50.5q0 -38 -26.5 -62.5t-61.5 -24.5z" />
    <glyph glyph-name="gdotaccent" unicode="&#x121;" horiz-adv-x="517" 
d="M-38 -202l44 112q61 -31 120 -31q61 0 96 30.5t49 94.5l13 57h-2q-58 -71 -140 -71q-57 0 -96 41t-39 128q0 138 79.5 232t231.5 94q102 0 183 -34l-96 -436q-28 -130 -90 -191t-193 -61q-86 0 -160 35zM197 100q36 0 73 38t58 135l20 94q-22 8 -54 8q-69 0 -111 -58
t-42 -135q0 -82 56 -82zM326 540q-34 0 -54.5 20.5t-20.5 50.5q0 39 25.5 62.5t61.5 23.5q34 0 55 -20t21 -50q0 -39 -26.5 -63t-61.5 -24z" />
    <glyph glyph-name="Gcommaaccent" unicode="&#x122;" horiz-adv-x="705" 
d="M358 -10q-154 0 -234 78.5t-80 209.5q0 75 27 144t77.5 123.5t130 87.5t175.5 33q122 0 215 -44l-25 -115q-78 45 -182 45q-130 0 -201.5 -79.5t-71.5 -183.5q0 -91 49 -138t132 -47q56 0 92 14l47 205h137l-63 -290q-92 -43 -225 -43zM222 -237l-25 85q83 14 83 62
q0 11 -9 38h120q9 -24 9 -51q0 -117 -178 -134z" />
    <glyph glyph-name="gcommaaccent" unicode="&#x123;" horiz-adv-x="517" 
d="M251 531q-10 23 -10 50q0 118 179 135l25 -84q-83 -14 -83 -63q0 -14 8 -38h-119zM-38 -202l44 112q61 -31 120 -31q61 0 96 30.5t49 94.5l13 57h-2q-58 -71 -140 -71q-57 0 -96 42t-39 129q0 88 32 159.5t104 118t175 46.5q102 0 183 -34l-96 -436q-28 -130 -90 -191
t-193 -61q-86 0 -160 35zM197 100q36 0 73 38t58 135l20 94q-22 8 -54 8q-69 0 -111 -57.5t-42 -133.5q0 -84 56 -84z" />
    <glyph glyph-name="Hcircumflex" unicode="&#x124;" horiz-adv-x="728" 
d="M4 0l144 659h138l-58 -266h301l58 266h137l-143 -659h-138l60 277h-301l-60 -277h-138zM294 696l121 147h98l86 -147h-99l-44 74l-57 -74h-105z" />
    <glyph glyph-name="hcircumflex" unicode="&#x125;" horiz-adv-x="547" 
d="M-14 0l155 708h135l-54 -238q-11 -54 -25 -88h2q70 103 170 103q56 0 87.5 -30.5t31.5 -90.5q0 -28 -14 -97l-59 -267h-135l58 259q10 48 10 64q0 45 -41 45q-52 0 -98 -66q-32 -48 -50 -128l-39 -174h-134zM56 726l121 147h98l86 -147h-99l-44 74l-57 -74h-105z" />
    <glyph glyph-name="Hbar" unicode="&#x126;" horiz-adv-x="728" 
d="M4 0l104 477h-66l22 102h66l18 80h138l-18 -80h301l18 80h137l-17 -80h69l-23 -102h-68l-104 -477h-138l60 277h-301l-60 -277h-138zM228 393h301l18 84h-301z" />
    <glyph glyph-name="hbar" unicode="&#x127;" horiz-adv-x="545" 
d="M-14 0l118 539h-54l24 101h52l15 68h135l-15 -68h116l-24 -101h-116l-15 -69q-11 -54 -25 -88h2q70 103 170 103q56 0 87.5 -30.5t31.5 -90.5q0 -28 -14 -97l-59 -267h-135l58 259q10 48 10 64q0 45 -41 45q-48 0 -91 -57q-38 -49 -59 -143l-37 -168h-134z" />
    <glyph glyph-name="Itilde" unicode="&#x128;" horiz-adv-x="289" 
d="M4 0l144 659h138l-144 -659h-138zM62 717q5 65 33.5 97.5t70.5 32.5q32 0 70.5 -21t51.5 -21q25 0 30 36h88q-5 -64 -34 -97t-70 -33q-32 0 -70.5 21.5t-51.5 21.5q-25 0 -30 -37h-88z" />
    <glyph glyph-name="itilde" unicode="&#x129;" horiz-adv-x="250" 
d="M4 545q5 64 33.5 96.5t70.5 32.5q32 0 70.5 -21t51.5 -21q25 0 30 36h88q-5 -64 -33.5 -96.5t-70.5 -32.5q-32 0 -70.5 21t-51.5 21q-25 0 -30 -36h-88zM-14 0l104 473h134l-104 -473h-134z" />
    <glyph glyph-name="imacron" unicode="&#x12b;" horiz-adv-x="250" 
d="M25 567l20 101h298l-21 -101h-297zM-14 0l104 473h134l-104 -473h-134z" />
    <glyph glyph-name="Ibreve" unicode="&#x12c;" horiz-adv-x="289" 
d="M4 0l144 659h138l-144 -659h-138zM227 690q-66 0 -102.5 39t-29.5 106h90q-2 -30 11 -47t40 -17q26 0 45 17.5t27 46.5h94q-15 -70 -62 -107.5t-113 -37.5z" />
    <glyph glyph-name="Iogonek" unicode="&#x12e;" horiz-adv-x="289" 
d="M5 2l143 657h138l-144 -659q-49 -23 -77.5 -52t-28.5 -59q0 -27 32 -27q16 0 37 6l7 -71q-39 -11 -84 -11q-102 0 -102 78q0 77 79 138z" />
    <glyph glyph-name="iogonek" unicode="&#x12f;" horiz-adv-x="250" 
d="M9 -214q-101 0 -101 78q0 76 78 138l104 471h134l-104 -473q-103 -54 -103 -111q0 -27 33 -27q16 0 37 6l7 -71q-39 -11 -85 -11zM179 540q-34 0 -55 20.5t-21 50.5q0 39 26 62.5t61 23.5q34 0 55 -20.5t21 -50.5q0 -38 -26 -62t-61 -24z" />
    <glyph glyph-name="Idotaccent" unicode="&#x130;" horiz-adv-x="289" 
d="M4 0l144 659h138l-144 -659h-138zM234 701q-34 0 -54.5 21t-20.5 51q0 38 26 62t61 24q34 0 55 -20.5t21 -50.5q0 -38 -26.5 -62.5t-61.5 -24.5z" />
    <glyph glyph-name="dotlessi" unicode="&#x131;" horiz-adv-x="250" 
d="M-14 0l104 473h134l-104 -473h-134z" />
    <glyph glyph-name="IJ" unicode="&#x132;" horiz-adv-x="616" 
d="M4 0l144 659h138l-144 -659h-138zM141 -165l38 106q29 -13 65 -13q51 0 74 41q14 30 22 68l135 622h138l-143 -656q-14 -71 -41 -109q-56 -80 -175 -80q-63 0 -113 21z" />
    <glyph glyph-name="ij" unicode="&#x133;" horiz-adv-x="502" 
d="M-14 0l104 473h134l-104 -473h-134zM179 540q-34 0 -55 20.5t-21 50.5q0 39 26 62.5t61 23.5q34 0 55 -20t21 -50q0 -39 -26 -63t-61 -24zM60 -219l41 108q27 -10 51 -10q63 0 79 82l113 512h134l-119 -543q-37 -167 -196 -167q-61 0 -103 18zM433 540q-34 0 -55 20.5
t-21 50.5q0 39 26 62.5t62 23.5q34 0 54.5 -20t20.5 -50q0 -39 -26 -63t-61 -24z" />
    <glyph glyph-name="Jcircumflex" unicode="&#x134;" horiz-adv-x="328" 
d="M-147 -165l38 106q29 -13 65 -13q51 0 74 41q14 30 22 68l135 622h138l-143 -656q-14 -71 -41 -109q-56 -80 -175 -80q-63 0 -113 21zM102 696l121 147h98l86 -147h-99l-44 74l-57 -74h-105z" />
    <glyph glyph-name="jcircumflex" unicode="&#x135;" horiz-adv-x="259" 
d="M-186 -219l37 98q26 -10 54 -10q60 0 79 84l114 520h134l-119 -544q-37 -166 -196 -166q-61 0 -103 18zM14 531l121 147h98l86 -147h-99l-43 74l-58 -74h-105z" />
    <glyph glyph-name="Kcommaaccent" unicode="&#x136;" horiz-adv-x="603" 
d="M4 0l144 659h138l-62 -285h2l266 285h167l-330 -345l208 -314h-164l-170 271h-2l-59 -271h-138zM108 -237l-25 85q83 14 83 62q0 11 -9 38h120q9 -24 9 -51q0 -117 -178 -134z" />
    <glyph glyph-name="kcommaaccent" unicode="&#x137;" horiz-adv-x="501" 
d="M-14 0l155 708h135l-88 -397h2l175 162h161l-238 -218l146 -255h-150l-115 212h-2l-47 -212h-134zM70 -237l-25 85q83 14 83 62q0 11 -9 38h120q9 -24 9 -51q0 -117 -178 -134z" />
    <glyph glyph-name="Lacute" unicode="&#x139;" horiz-adv-x="459" 
d="M4 0l144 659h138l-119 -544h228l-27 -115h-364zM172 696l75 147h145l-120 -147h-100z" />
    <glyph glyph-name="lacute" unicode="&#x13a;" horiz-adv-x="305" 
d="M150 732l65 127h139l-103 -127h-101zM139 -7q-55 0 -89.5 29t-34.5 83q0 23 8 58l119 545h135l-119 -538q-5 -23 -5 -34q0 -27 31 -27q20 0 37 5v-107q-38 -14 -82 -14z" />
    <glyph glyph-name="Lcommaaccent" unicode="&#x13b;" horiz-adv-x="459" 
d="M4 0l144 659h138l-119 -544h228l-27 -115h-364zM44 -237l-25 85q83 14 83 62q0 11 -9 38h120q9 -24 9 -51q0 -117 -178 -134z" />
    <glyph glyph-name="lcommaaccent" unicode="&#x13c;" horiz-adv-x="305" 
d="M139 -7q-55 0 -89.5 29t-34.5 83q0 23 8 58l119 545h135l-119 -538q-5 -23 -5 -34q0 -27 31 -27q20 0 37 5v-107q-38 -14 -82 -14zM-28 -237l-25 85q83 14 83 62q0 11 -9 38h120q9 -24 9 -51q0 -117 -178 -134z" />
    <glyph glyph-name="Lcaron" unicode="&#x13d;" horiz-adv-x="459" 
d="M4 0l144 659h138l-119 -544h228l-27 -115h-364zM339 513l61 196h133l-92 -196h-102z" />
    <glyph glyph-name="lcaron" unicode="&#x13e;" horiz-adv-x="305" 
d="M139 -7q-55 0 -89.5 29t-34.5 83q0 23 8 58l119 545h135l-119 -538q-5 -23 -5 -34q0 -27 31 -27q20 0 37 5v-107q-38 -14 -82 -14zM292 513l61 196h133l-92 -196h-102z" />
    <glyph glyph-name="Ldot" unicode="&#x13f;" horiz-adv-x="459" 
d="M4 0l144 659h138l-119 -544h228l-27 -115h-364zM366 262q-28 0 -46.5 19t-18.5 48q0 34 23.5 58.5t56.5 24.5q29 0 47.5 -19.5t18.5 -48.5q0 -34 -23.5 -58t-57.5 -24z" />
    <glyph glyph-name="ldot" unicode="&#x140;" horiz-adv-x="362" 
d="M139 -7q-55 0 -89.5 29t-34.5 83q0 23 8 58l119 545h135l-119 -538q-5 -23 -5 -34q0 -27 31 -27q20 0 37 5v-107q-38 -14 -82 -14zM301 271q-28 0 -46.5 19t-18.5 48q0 34 23.5 58.5t56.5 24.5q29 0 47.5 -19.5t18.5 -48.5q0 -34 -23.5 -58t-57.5 -24z" />
    <glyph glyph-name="Lslash" unicode="&#x141;" horiz-adv-x="467" 
d="M13 0l46 213l-63 -34l28 126l63 33l69 321h138l-52 -239l144 75l-28 -126l-143 -75l-40 -179h228l-26 -115h-364z" />
    <glyph glyph-name="lslash" unicode="&#x142;" horiz-adv-x="319" 
d="M154 -7q-56 0 -90.5 29t-34.5 83q0 23 8 58l18 88l-57 -30l28 127l58 30l72 330h135l-56 -251l64 33l-28 -127l-64 -34l-35 -159q-5 -23 -5 -34q0 -27 31 -27q21 0 37 5v-107q-38 -14 -81 -14z" />
    <glyph glyph-name="Nacute" unicode="&#x143;" horiz-adv-x="764" 
d="M4 0l144 659h130l199 -361q16 -29 43 -86h2q9 47 18 86l78 361h138l-144 -659h-119l-207 377q-28 51 -43 84h-2q-6 -35 -16 -80l-83 -381h-138zM401 696l75 147h145l-120 -147h-100z" />
    <glyph glyph-name="nacute" unicode="&#x144;" horiz-adv-x="543" 
d="M-14 0l104 473h104l-3 -91h2q75 103 176 103q56 0 87.5 -30.5t31.5 -90.5q0 -28 -14 -97l-59 -267h-135l58 259q10 48 10 64q0 45 -41 45q-50 0 -92 -55q-37 -49 -56 -139l-39 -174h-134zM249 531l75 147h145l-120 -147h-100z" />
    <glyph glyph-name="Ncommaaccent" unicode="&#x145;" horiz-adv-x="764" 
d="M4 0l144 659h130l199 -361q16 -29 43 -86h2q9 47 18 86l78 361h138l-144 -659h-119l-207 377q-28 51 -43 84h-2q-6 -35 -16 -80l-83 -381h-138zM202 -237l-25 85q83 14 83 62q0 11 -9 38h120q9 -24 9 -51q0 -117 -178 -134z" />
    <glyph glyph-name="ncommaaccent" unicode="&#x146;" horiz-adv-x="543" 
d="M-14 0l104 473h104l-3 -91h2q75 103 176 103q56 0 87.5 -30.5t31.5 -90.5q0 -28 -14 -97l-59 -267h-135l58 259q10 48 10 64q0 45 -41 45q-50 0 -92 -55q-37 -49 -56 -139l-39 -174h-134zM72 -237l-25 85q83 14 83 62q0 11 -9 38h120q9 -24 9 -51q0 -117 -178 -134z" />
    <glyph glyph-name="Ncaron" unicode="&#x147;" horiz-adv-x="764" 
d="M4 0l144 659h130l199 -361q16 -29 43 -86h2q9 47 18 86l78 361h138l-144 -659h-119l-207 377q-28 51 -43 84h-2q-6 -35 -16 -80l-83 -381h-138zM412 696l-85 147h99l43 -74l58 74h105l-121 -147h-99z" />
    <glyph glyph-name="ncaron" unicode="&#x148;" horiz-adv-x="543" 
d="M-14 0l104 473h104l-3 -91h2q75 103 176 103q56 0 87.5 -30.5t31.5 -90.5q0 -28 -14 -97l-59 -267h-135l58 259q10 48 10 64q0 45 -41 45q-50 0 -92 -55q-37 -49 -56 -139l-39 -174h-134zM255 531l-85 147h99l43 -74l58 74h105l-121 -147h-99z" />
    <glyph glyph-name="Eng" unicode="&#x14a;" horiz-adv-x="759" 
d="M4 0l144 659h130l199 -360q20 -36 43 -87h2q9 49 18 86l78 361h138l-152 -695q-37 -166 -208 -166q-62 0 -110 21l38 106q27 -13 61 -13q37 0 57 20.5t33 75.5l4 16l-194 349q-26 47 -43 85h-2q-6 -40 -16 -80l-82 -378h-138z" />
    <glyph glyph-name="eng" unicode="&#x14b;" horiz-adv-x="545" 
d="M-14 0l104 473h104l-3 -91h2q75 103 176 103q56 0 87.5 -30.5t31.5 -90.5q0 -28 -14 -97l-66 -295q-36 -167 -195 -167q-61 0 -103 18l41 108q27 -10 51 -10q63 0 79 82l57 256q10 48 10 64q0 45 -41 45q-52 0 -96 -61q-33 -47 -52 -133l-39 -174h-134z" />
    <glyph glyph-name="Omacron" unicode="&#x14c;" horiz-adv-x="746" 
d="M322 -10q-128 0 -202.5 73t-74.5 200q0 171 105.5 287t271.5 116q128 0 203 -73t75 -200q0 -170 -105.5 -286.5t-272.5 -116.5zM333 104q96 0 159 86.5t63 197.5q0 79 -37.5 121.5t-105.5 42.5q-96 0 -159.5 -86.5t-63.5 -197.5q0 -79 37.5 -121.5t106.5 -42.5zM295 700
l21 101h298l-21 -101h-298z" />
    <glyph glyph-name="omacron" unicode="&#x14d;" horiz-adv-x="538" 
d="M217 -10q-99 0 -155.5 57t-56.5 149q0 123 77 206t192 83q99 0 155 -57t56 -149q0 -123 -76.5 -206t-191.5 -83zM220 97q53 0 92 52t39 128q0 49 -21.5 75t-59.5 26q-53 0 -92 -52t-39 -128q0 -49 21.5 -75t59.5 -26zM148 567l20 101h298l-21 -101h-297z" />
    <glyph glyph-name="Obreve" unicode="&#x14e;" horiz-adv-x="746" 
d="M322 -10q-128 0 -202.5 73t-74.5 200q0 171 105.5 287t271.5 116q128 0 203 -73t75 -200q0 -170 -105.5 -286.5t-272.5 -116.5zM333 104q96 0 159 86.5t63 197.5q0 79 -37.5 121.5t-105.5 42.5q-96 0 -159.5 -86.5t-63.5 -197.5q0 -79 37.5 -121.5t106.5 -42.5zM436 690
q-66 0 -102.5 39t-29.5 106h90q-2 -30 11 -47t40 -17q26 0 45 17.5t27 46.5h94q-15 -70 -62 -107.5t-113 -37.5z" />
    <glyph glyph-name="obreve" unicode="&#x14f;" horiz-adv-x="538" 
d="M217 -10q-99 0 -155.5 57t-56.5 149q0 123 77 206t192 83q99 0 155 -57t56 -149q0 -123 -76.5 -206t-191.5 -83zM220 97q53 0 92 52t39 128q0 49 -21.5 75t-59.5 26q-53 0 -92 -52t-39 -128q0 -49 21.5 -75t59.5 -26zM295 539q-66 0 -102 39t-29 107h89q-2 -30 11 -47
t40 -17q26 0 45 17.5t27 46.5h95q-15 -70 -62 -108t-114 -38z" />
    <glyph glyph-name="Ohungarumlaut" unicode="&#x150;" horiz-adv-x="746" 
d="M322 -10q-128 0 -202.5 73t-74.5 200q0 171 105.5 287t271.5 116q128 0 203 -73t75 -200q0 -170 -105.5 -286.5t-272.5 -116.5zM333 104q96 0 159 86.5t63 197.5q0 79 -37.5 121.5t-105.5 42.5q-96 0 -159.5 -86.5t-63.5 -197.5q0 -79 37.5 -121.5t106.5 -42.5zM299 696
l75 147h145l-120 -147h-100zM481 696l75 147h146l-120 -147h-101z" />
    <glyph glyph-name="ohungarumlaut" unicode="&#x151;" horiz-adv-x="538" 
d="M217 -10q-99 0 -155.5 57t-56.5 149q0 123 77 206t192 83q99 0 155 -57t56 -149q0 -123 -76.5 -206t-191.5 -83zM220 97q53 0 92 52t39 128q0 49 -21.5 75t-59.5 26q-53 0 -92 -52t-39 -128q0 -49 21.5 -75t59.5 -26zM157 531l75 147h145l-120 -147h-100zM339 531l75 147
h146l-120 -147h-101z" />
    <glyph glyph-name="OE" unicode="&#x152;" horiz-adv-x="892" 
d="M44 271q0 170 108 282.5t292 112.5q24 0 85.5 -3.5t86.5 -3.5h286l-44 -115h-210l-33 -153h208l-25 -115h-208l-35 -161h236l-25 -115h-268q-28 0 -84 -5t-86 -5q-133 0 -208.5 76t-75.5 205zM189 269q0 -80 39 -122.5t115 -42.5q34 0 74 8l93 430q-38 10 -84 10
q-107 0 -172 -82t-65 -201z" />
    <glyph glyph-name="oe" unicode="&#x153;" horiz-adv-x="836" 
d="M209 -10q-93 0 -147.5 57t-54.5 149q0 123 75 206t186 83t161 -88h2q31 41 80.5 64.5t107.5 23.5q81 0 126.5 -44t45.5 -116q0 -47 -23 -123l-290 -4q-1 -5 -1 -13q0 -44 28.5 -67t72.5 -23q61 0 130 33l36 -95q-82 -43 -179 -43q-121 0 -168 90h-2q-75 -90 -186 -90z
M222 97q53 0 92 52t39 128q0 49 -21.5 75t-59.5 26q-53 0 -92 -52t-39 -128q0 -49 21.5 -75t59.5 -26zM493 288l163 3q6 18 6 35q0 26 -16 42t-45 16q-38 0 -67.5 -27.5t-40.5 -68.5z" />
    <glyph glyph-name="Racute" unicode="&#x154;" horiz-adv-x="581" 
d="M4 0l144 659h164q119 0 173.5 -48t54.5 -126q0 -80 -47 -130.5t-121 -68.5v-3q18 -29 39 -77l91 -206h-147l-69 171q-26 63 -39 79h-51l-54 -250h-138zM220 360h43q62 0 100.5 29.5t38.5 82.5q0 77 -98 77h-43zM270 696l75 147h145l-120 -147h-100z" />
    <glyph glyph-name="racute" unicode="&#x155;" horiz-adv-x="377" 
d="M-14 0l104 473h104l-3 -91h2q54 103 127 103q40 0 74 -27l-57 -109q-23 15 -49 15q-39 0 -73.5 -44.5t-56.5 -146.5l-37 -173h-135zM189 531l75 147h145l-120 -147h-100z" />
    <glyph glyph-name="Rcommaaccent" unicode="&#x156;" horiz-adv-x="581" 
d="M4 0l144 659h164q119 0 173.5 -48t54.5 -126q0 -80 -47 -130.5t-121 -68.5v-3q18 -29 39 -77l91 -206h-147l-69 171q-26 63 -39 79h-51l-54 -250h-138zM220 360h43q62 0 100.5 29.5t38.5 82.5q0 77 -98 77h-43zM112 -237l-25 85q83 14 83 62q0 11 -9 38h120q9 -24 9 -51
q0 -117 -178 -134z" />
    <glyph glyph-name="rcommaaccent" unicode="&#x157;" horiz-adv-x="377" 
d="M-14 0l104 473h104l-3 -91h2q54 103 127 103q40 0 74 -27l-57 -109q-23 15 -49 15q-39 0 -73.5 -44.5t-56.5 -146.5l-37 -173h-135zM-56 -237l-25 85q83 14 83 62q0 11 -9 38h120q9 -24 9 -51q0 -117 -178 -134z" />
    <glyph glyph-name="Rcaron" unicode="&#x158;" horiz-adv-x="581" 
d="M4 0l144 659h164q119 0 173.5 -48t54.5 -126q0 -80 -47 -130.5t-121 -68.5v-3q18 -29 39 -77l91 -206h-147l-69 171q-26 63 -39 79h-51l-54 -250h-138zM220 360h43q62 0 100.5 29.5t38.5 82.5q0 77 -98 77h-43zM281 696l-85 147h99l43 -74l58 74h105l-121 -147h-99z" />
    <glyph glyph-name="rcaron" unicode="&#x159;" horiz-adv-x="377" 
d="M-14 0l104 473h104l-3 -91h2q54 103 127 103q40 0 74 -27l-57 -109q-23 15 -49 15q-39 0 -73.5 -44.5t-56.5 -146.5l-37 -173h-135zM198 531l-85 147h99l43 -74l58 74h105l-121 -147h-99z" />
    <glyph glyph-name="Sacute" unicode="&#x15a;" horiz-adv-x="496" 
d="M-19 39l55 107q70 -42 140 -42q46 0 79 18.5t33 60.5q0 26 -16 48t-40 36.5t-52 33.5t-52 38t-40 51.5t-16 72.5q0 88 62.5 145.5t172.5 57.5q100 0 172 -37l-24 -116q-66 39 -144 39q-46 0 -70.5 -19.5t-24.5 -49.5q0 -28 22 -51.5t54 -43t64 -42.5t54 -60.5t22 -85.5
q0 -100 -71 -155t-182 -55q-109 0 -198 49zM257 696l75 147h145l-120 -147h-100z" />
    <glyph glyph-name="sacute" unicode="&#x15b;" horiz-adv-x="390" 
d="M-38 37l42 96q66 -38 125 -38q66 0 66 40q0 16 -17 30.5t-40.5 28t-47.5 30.5t-41 47t-17 68q0 63 46.5 104.5t132.5 41.5q82 0 149 -28l-21 -106q-66 30 -121 30q-51 0 -51 -38q0 -21 25.5 -41.5t55.5 -36t55.5 -49.5t25.5 -79q0 -70 -53 -108.5t-138 -38.5
q-97 0 -176 47zM172 531l75 147h145l-120 -147h-100z" />
    <glyph glyph-name="Scircumflex" unicode="&#x15c;" horiz-adv-x="496" 
d="M-19 39l55 107q70 -42 140 -42q46 0 79 18.5t33 60.5q0 26 -16 48t-40 36.5t-52 33.5t-52 38t-40 51.5t-16 72.5q0 88 62.5 145.5t172.5 57.5q100 0 172 -37l-24 -116q-66 39 -144 39q-46 0 -70.5 -19.5t-24.5 -49.5q0 -28 22 -51.5t54 -43t64 -42.5t54 -60.5t22 -85.5
q0 -100 -71 -155t-182 -55q-109 0 -198 49zM166 696l121 147h98l86 -147h-99l-44 74l-57 -74h-105z" />
    <glyph glyph-name="scircumflex" unicode="&#x15d;" horiz-adv-x="390" 
d="M-38 37l42 96q66 -38 125 -38q66 0 66 40q0 16 -17 30.5t-40.5 28t-47.5 30.5t-41 47t-17 68q0 63 46.5 104.5t132.5 41.5q82 0 149 -28l-21 -106q-66 30 -121 30q-51 0 -51 -38q0 -21 25.5 -41.5t55.5 -36t55.5 -49.5t25.5 -79q0 -70 -53 -108.5t-138 -38.5
q-97 0 -176 47zM78 531l121 147h98l86 -147h-99l-44 74l-57 -74h-105z" />
    <glyph glyph-name="Scedilla" unicode="&#x15e;" horiz-adv-x="496" 
d="M37 -198l26 58q20 -10 47 -10q54 0 54 35q0 29 -74 27l40 81q-82 8 -149 46l55 107q70 -42 140 -42q46 0 79 18.5t33 60.5q0 26 -16 48t-40 36.5t-52 33.5t-52 38t-40 51.5t-16 72.5q0 88 62.5 145.5t172.5 57.5q100 0 172 -37l-24 -116q-66 39 -144 39
q-46 0 -70.5 -19.5t-24.5 -49.5q0 -28 22 -51.5t54 -43t64 -42.5t54 -60.5t22 -85.5q0 -89 -57.5 -143t-151.5 -64l-20 -41q75 -7 75 -65q0 -46 -43 -72.5t-114 -26.5q-47 0 -84 14z" />
    <glyph glyph-name="scedilla" unicode="&#x15f;" horiz-adv-x="390" 
d="M-21 -198l26 58q20 -10 47 -10q54 0 54 35q0 29 -74 27l41 84q-59 10 -111 41l42 96q66 -38 125 -38q66 0 66 40q0 16 -17 30.5t-40.5 28t-47.5 30.5t-41 47t-17 68q0 63 46.5 104.5t132.5 41.5q82 0 149 -28l-21 -106q-66 30 -121 30q-51 0 -51 -38q0 -21 25.5 -41.5
t55.5 -36t55.5 -49.5t25.5 -79q0 -65 -45 -102.5t-120 -42.5l-19 -40q75 -7 75 -65q0 -47 -42.5 -73t-113.5 -26q-48 0 -85 14z" />
    <glyph glyph-name="Scaron" unicode="&#x160;" horiz-adv-x="496" 
d="M-19 39l55 107q70 -42 140 -42q46 0 79 18.5t33 60.5q0 26 -16 48t-40 36.5t-52 33.5t-52 38t-40 51.5t-16 72.5q0 88 62.5 145.5t172.5 57.5q100 0 172 -37l-24 -116q-66 39 -144 39q-46 0 -70.5 -19.5t-24.5 -49.5q0 -28 22 -51.5t54 -43t64 -42.5t54 -60.5t22 -85.5
q0 -100 -71 -155t-182 -55q-109 0 -198 49zM263 696l-85 147h99l43 -74l58 74h105l-121 -147h-99z" />
    <glyph glyph-name="scaron" unicode="&#x161;" horiz-adv-x="390" 
d="M-38 37l42 96q66 -38 125 -38q66 0 66 40q0 16 -17 30.5t-40.5 28t-47.5 30.5t-41 47t-17 68q0 63 46.5 104.5t132.5 41.5q82 0 149 -28l-21 -106q-66 30 -121 30q-51 0 -51 -38q0 -21 25.5 -41.5t55.5 -36t55.5 -49.5t25.5 -79q0 -70 -53 -108.5t-138 -38.5
q-97 0 -176 47zM182 531l-85 147h99l43 -74l58 74h105l-121 -147h-99z" />
    <glyph glyph-name="Tcommaaccent" unicode="&#x162;" horiz-adv-x="544" 
d="M130 0l119 544h-195l25 115h532l-50 -115h-174l-119 -544h-138zM78 -237l-25 85q83 14 83 62q0 11 -9 38h120q9 -24 9 -51q0 -117 -178 -134z" />
    <glyph glyph-name="tcommaaccent" unicode="&#x163;" horiz-adv-x="383" 
d="M177 -10q-135 0 -135 112q0 28 9 69l44 198h-85l24 104h83l25 109l141 35l-32 -144h128l-42 -104h-109l-46 -213q-4 -12 -4 -26q0 -33 36 -33q34 0 80 24l32 -96q-73 -35 -149 -35zM6 -237l-25 85q83 14 83 62q0 11 -9 38h120q9 -24 9 -51q0 -117 -178 -134z" />
    <glyph glyph-name="Tcaron" unicode="&#x164;" horiz-adv-x="544" 
d="M130 0l119 544h-195l25 115h532l-50 -115h-174l-119 -544h-138zM303 696l-85 147h99l43 -74l58 74h105l-121 -147h-99z" />
    <glyph glyph-name="tcaron" unicode="&#x165;" horiz-adv-x="383" 
d="M177 -10q-135 0 -135 112q0 28 9 69l44 198h-85l24 104h83l25 109l141 35l-32 -144h128l-42 -104h-109l-46 -213q-4 -12 -4 -26q0 -33 36 -33q34 0 80 24l32 -96q-73 -35 -149 -35zM322 513l61 196h133l-92 -196h-102z" />
    <glyph glyph-name="Tbar" unicode="&#x166;" horiz-adv-x="544" 
d="M130 0l54 249h-120l25 110h119l41 185h-195l25 115h532l-50 -115h-174l-41 -185h123l-25 -110h-122l-54 -249h-138z" />
    <glyph glyph-name="tbar" unicode="&#x167;" horiz-adv-x="383" 
d="M177 -10q-135 0 -135 112q0 28 7 59l6 30h-82l24 101h80l18 77h-85l24 104h83l25 110l141 33l-32 -143h128l-42 -104h-109l-17 -77h96l-24 -101h-93l-7 -29q-5 -19 -5 -32q0 -33 36 -33q34 0 80 24l32 -96q-73 -35 -149 -35z" />
    <glyph glyph-name="Utilde" unicode="&#x168;" horiz-adv-x="702" 
d="M309 -10q-122 0 -187.5 56.5t-65.5 149.5q0 39 13 98l79 365h138l-83 -376q-8 -38 -8 -65q0 -57 30.5 -85.5t85.5 -28.5q70 0 111 41q36 37 50 104l90 410h138l-91 -416q-26 -124 -91 -182q-80 -71 -209 -71zM270 717q5 65 33.5 97.5t70.5 32.5q32 0 70.5 -21t51.5 -21
q25 0 30 36h88q-5 -64 -34 -97t-70 -33q-32 0 -70.5 21.5t-51.5 21.5q-25 0 -30 -37h-88z" />
    <glyph glyph-name="utilde" unicode="&#x169;" horiz-adv-x="540" 
d="M146 -10q-54 0 -89.5 33.5t-35.5 98.5q0 32 13 100l55 251h135l-60 -269q-7 -28 -7 -48q0 -52 44 -52q38 0 72 34t49 103l51 232h134l-65 -297q-13 -63 -13 -97q0 -33 9 -63l-116 -25q-13 40 -15 82h-2q-69 -83 -159 -83zM149 545q5 64 33.5 96.5t70.5 32.5
q32 0 70.5 -21t51.5 -21q25 0 30 36h88q-5 -64 -33.5 -96.5t-70.5 -32.5q-32 0 -70.5 21t-51.5 21q-25 0 -30 -36h-88z" />
    <glyph glyph-name="Umacron" unicode="&#x16a;" horiz-adv-x="702" 
d="M309 -10q-122 0 -187.5 56.5t-65.5 149.5q0 39 13 98l79 365h138l-83 -376q-8 -38 -8 -65q0 -57 30.5 -85.5t85.5 -28.5q70 0 111 41q36 37 50 104l90 410h138l-91 -416q-26 -124 -91 -182q-80 -71 -209 -71zM282 700l21 101h298l-21 -101h-298z" />
    <glyph glyph-name="umacron" unicode="&#x16b;" horiz-adv-x="540" 
d="M146 -10q-54 0 -89.5 33.5t-35.5 98.5q0 32 13 100l55 251h135l-60 -269q-7 -28 -7 -48q0 -52 44 -52q38 0 72 34t49 103l51 232h134l-65 -297q-13 -63 -13 -97q0 -33 9 -63l-116 -25q-13 40 -15 82h-2q-69 -83 -159 -83zM164 567l20 101h298l-21 -101h-297z" />
    <glyph glyph-name="Ubreve" unicode="&#x16c;" horiz-adv-x="702" 
d="M309 -10q-122 0 -187.5 56.5t-65.5 149.5q0 39 13 98l79 365h138l-83 -376q-8 -38 -8 -65q0 -57 30.5 -85.5t85.5 -28.5q70 0 111 41q36 37 50 104l90 410h138l-91 -416q-26 -124 -91 -182q-80 -71 -209 -71zM426 690q-66 0 -102.5 39t-29.5 106h90q-2 -30 11 -47t40 -17
q26 0 45 17.5t27 46.5h94q-15 -70 -62 -107.5t-113 -37.5z" />
    <glyph glyph-name="ubreve" unicode="&#x16d;" horiz-adv-x="540" 
d="M146 -10q-54 0 -89.5 33.5t-35.5 98.5q0 32 13 100l55 251h135l-60 -269q-7 -28 -7 -48q0 -52 44 -52q38 0 72 34t49 103l51 232h134l-65 -297q-13 -63 -13 -97q0 -33 9 -63l-116 -25q-13 40 -15 82h-2q-69 -83 -159 -83zM309 539q-66 0 -102 39t-29 107h89
q-2 -30 11 -47t40 -17q26 0 45 17.5t27 46.5h95q-15 -70 -62 -108t-114 -38z" />
    <glyph glyph-name="Uring" unicode="&#x16e;" horiz-adv-x="702" 
d="M309 -10q-122 0 -187.5 56.5t-65.5 149.5q0 39 13 98l79 365h138l-83 -376q-8 -38 -8 -65q0 -57 30.5 -85.5t85.5 -28.5q70 0 111 41q36 37 50 104l90 410h138l-91 -416q-26 -124 -91 -182q-80 -71 -209 -71zM424 653q-49 0 -78.5 21.5t-29.5 59.5q0 51 38.5 83t96.5 32
q49 0 79 -21.5t30 -59.5q0 -51 -38.5 -83t-97.5 -32zM431 708q19 0 32 16.5t13 37.5q0 32 -31 32q-20 0 -32.5 -16.5t-12.5 -37.5q0 -32 31 -32z" />
    <glyph glyph-name="uring" unicode="&#x16f;" horiz-adv-x="540" 
d="M146 -10q-54 0 -89.5 33.5t-35.5 98.5q0 32 13 100l55 251h135l-60 -269q-7 -28 -7 -48q0 -52 44 -52q38 0 72 34t49 103l51 232h134l-65 -297q-13 -63 -13 -97q0 -33 9 -63l-116 -25q-13 40 -15 82h-2q-69 -83 -159 -83zM305 522q-50 0 -79 21.5t-29 59.5q0 51 38.5 83
t96.5 32q49 0 79 -21.5t30 -59.5q0 -51 -38.5 -83t-97.5 -32zM312 577q20 0 32.5 16.5t12.5 37.5q0 15 -9 23.5t-23 8.5q-19 0 -31.5 -16.5t-12.5 -38.5q0 -31 31 -31z" />
    <glyph glyph-name="Uhungarumlaut" unicode="&#x170;" horiz-adv-x="702" 
d="M309 -10q-122 0 -187.5 56.5t-65.5 149.5q0 39 13 98l79 365h138l-83 -376q-8 -38 -8 -65q0 -57 30.5 -85.5t85.5 -28.5q70 0 111 41q36 37 50 104l90 410h138l-91 -416q-26 -124 -91 -182q-80 -71 -209 -71zM285 696l75 147h145l-120 -147h-100zM467 696l75 147h146
l-120 -147h-101z" />
    <glyph glyph-name="uhungarumlaut" unicode="&#x171;" horiz-adv-x="540" 
d="M146 -10q-54 0 -89.5 33.5t-35.5 98.5q0 32 13 100l55 251h135l-60 -269q-7 -28 -7 -48q0 -52 44 -52q38 0 72 34t49 103l51 232h134l-65 -297q-13 -63 -13 -97q0 -33 9 -63l-116 -25q-13 40 -15 82h-2q-69 -83 -159 -83zM165 531l75 147h145l-120 -147h-100zM347 531
l75 147h146l-120 -147h-101z" />
    <glyph glyph-name="Uogonek" unicode="&#x172;" horiz-adv-x="702" 
d="M262 -214q-102 0 -102 77q0 71 92 130v2q-88 10 -142 63t-54 138q0 39 13 98l79 365h138l-83 -376q-8 -38 -8 -65q0 -114 116 -114q130 0 161 145l90 410h138l-91 -416q-22 -100 -68.5 -157t-128.5 -82q-55 -17 -98.5 -50t-43.5 -65q0 -27 32 -27q17 0 38 6l7 -71
q-41 -11 -85 -11z" />
    <glyph glyph-name="uogonek" unicode="&#x173;" horiz-adv-x="540" 
d="M297 -214q-102 0 -102 77q0 47 38 84t85 57q-10 34 -12 69h-2q-68 -83 -158 -83q-54 0 -89.5 33.5t-35.5 98.5q0 32 13 100l55 251h135l-60 -269q-7 -28 -7 -48q0 -52 44 -52q38 0 72 34t49 103l51 232h134l-65 -297q-13 -63 -13 -99q0 -41 9 -71q-56 -24 -94.5 -55.5
t-38.5 -61.5q0 -27 32 -27q17 0 38 6l7 -71q-39 -11 -85 -11z" />
    <glyph glyph-name="Wcircumflex" unicode="&#x174;" horiz-adv-x="908" 
d="M171 -5l-95 664h146l37 -319q11 -99 14 -145h2q26 64 59 129l115 223l-18 112h133l41 -321q12 -84 17 -143h2q17 54 53 132l149 332h147l-328 -664h-116l-36 242q-14 85 -18 124h-2q-15 -39 -57 -120l-131 -246h-114zM381 696l121 147h98l86 -147h-99l-44 74l-57 -74
h-105z" />
    <glyph glyph-name="wcircumflex" unicode="&#x175;" horiz-adv-x="721" 
d="M112 -3l-77 476h127l23 -179q9 -73 13 -122h2q21 50 50 109l97 192h85l24 -168q11 -66 16 -133h2q8 22 50 115l86 186h137l-253 -476h-95l-27 181q-12 86 -15 107h-2q-19 -44 -56 -109l-95 -179h-92zM248 531l121 147h98l86 -147h-99l-44 74l-57 -74h-105z" />
    <glyph glyph-name="Ycircumflex" unicode="&#x176;" horiz-adv-x="577" 
d="M171 0l56 259l-152 400h140l97 -280h2l175 280h153l-279 -408l-55 -251h-137zM207 696l121 147h98l86 -147h-99l-44 74l-57 -74h-105z" />
    <glyph glyph-name="ycircumflex" unicode="&#x177;" horiz-adv-x="504" 
d="M-121 -213l48 99q33 -16 66 -16q81 0 153 136l-113 467h130l41 -194q15 -72 28 -137h2q30 70 57 124l104 207h133l-254 -477q-68 -126 -130.5 -179.5t-158.5 -53.5q-66 0 -106 24zM137 531l121 147h98l86 -147h-99l-44 74l-57 -74h-105z" />
    <glyph glyph-name="Ydieresis" unicode="&#x178;" horiz-adv-x="577" 
d="M171 0l56 259l-152 400h140l97 -280h2l175 280h153l-279 -408l-55 -251h-137zM268 699q-26 0 -42 15.5t-16 41.5q0 33 20.5 55t49.5 22q26 0 42.5 -15.5t16.5 -41.5q0 -33 -20.5 -55t-50.5 -22zM462 699q-26 0 -42 15.5t-16 41.5q0 33 20.5 55t49.5 22q26 0 42.5 -15.5
t16.5 -41.5q0 -33 -20.5 -55t-50.5 -22z" />
    <glyph glyph-name="Zacute" unicode="&#x179;" horiz-adv-x="555" 
d="M-38 0l387 544h-251l-9 115h491l-383 -544h288l-26 -115h-497zM267 696l75 147h145l-120 -147h-100z" />
    <glyph glyph-name="zacute" unicode="&#x17a;" horiz-adv-x="432" 
d="M-52 0l259 369h-170l-11 104h398l-261 -369h206l-22 -104h-399zM176 531l75 147h145l-120 -147h-100z" />
    <glyph glyph-name="Zdotaccent" unicode="&#x17b;" horiz-adv-x="555" 
d="M-38 0l387 544h-251l-9 115h491l-383 -544h288l-26 -115h-497zM331 701q-34 0 -54.5 21t-20.5 51q0 38 26 62t61 24q34 0 55 -20.5t21 -50.5q0 -38 -26.5 -62.5t-61.5 -24.5z" />
    <glyph glyph-name="zdotaccent" unicode="&#x17c;" horiz-adv-x="432" 
d="M-52 0l259 369h-170l-11 104h398l-261 -369h206l-22 -104h-399zM243 540q-34 0 -54.5 20.5t-20.5 50.5q0 39 25.5 62.5t61.5 23.5q34 0 55 -20t21 -50q0 -39 -26.5 -63t-61.5 -24z" />
    <glyph glyph-name="Zcaron" unicode="&#x17d;" horiz-adv-x="555" 
d="M-38 0l387 544h-251l-9 115h491l-383 -544h288l-26 -115h-497zM281 696l-85 147h99l43 -74l58 74h105l-121 -147h-99z" />
    <glyph glyph-name="zcaron" unicode="&#x17e;" horiz-adv-x="432" 
d="M-52 0l259 369h-170l-11 104h398l-261 -369h206l-22 -104h-399zM190 531l-85 147h99l43 -74l58 74h105l-121 -147h-99z" />
    <glyph glyph-name="florin" unicode="&#x192;" horiz-adv-x="551" 
d="M-102 -134l47 106q33 -22 78 -22q75 0 97 95l57 247h-100l14 105h109l29 127q43 184 217 184q81 0 135 -36l-47 -106q-33 22 -78 22q-76 0 -98 -95l-22 -96h127l-36 -105h-114l-64 -278q-19 -85 -72.5 -134.5t-143.5 -49.5q-83 0 -135 36z" />
    <glyph glyph-name="Aringacute" unicode="&#x1fa;" horiz-adv-x="639" 
d="M-60 0l369 655q-48 20 -48 71q0 46 31.5 77t82.5 36l58 114h145l-107 -131q34 -21 34 -62q0 -75 -74 -104l128 -656h-144l-28 161h-207l-87 -161h-153zM241 270h129l-20 145q-6 33 -8 63h-2q-20 -48 -28 -64zM376 700q20 0 32.5 16.5t12.5 37.5q0 32 -31 32
q-20 0 -32.5 -16.5t-12.5 -37.5q0 -32 31 -32z" />
    <glyph glyph-name="aringacute" unicode="&#x1fb;" horiz-adv-x="497" 
d="M275 515q-49 0 -78.5 21.5t-29.5 59.5q0 45 30 76t78 37l68 134h145l-120 -145q43 -21 43 -67q0 -51 -38.5 -83.5t-97.5 -32.5zM282 570q20 0 32.5 16.5t12.5 38.5q0 32 -31 32q-20 0 -32.5 -16.5t-12.5 -38.5q0 -32 31 -32zM122 -10q-61 0 -97 35.5t-36 93.5
q0 77 51 123q68 61 214 61l45 1q2 14 2 20q0 60 -80 60q-59 0 -134 -31l-18 95q89 37 179 37q35 0 65.5 -6t59.5 -21.5t46 -46.5t17 -75q0 -36 -16 -106l-14 -54q-14 -61 -14 -98q0 -34 9 -62l-116 -25q-13 34 -17 79q-26 -36 -65 -58t-81 -22zM163 95q37 0 72.5 28.5
t46.5 73.5l4 18h-27q-93 0 -125 -32q-18 -18 -18 -44q0 -44 47 -44z" />
    <glyph glyph-name="AEacute" unicode="&#x1fc;" horiz-adv-x="860" 
d="M-65 0l496 659h399l-31 -115h-210l-22 -153h208l-16 -115h-208l-22 -161h236l-16 -115h-373l23 161h-187l-121 -161h-156zM295 270h119l32 210h-2q-28 -45 -68 -100zM510 696l75 147h145l-120 -147h-100z" />
    <glyph glyph-name="aeacute" unicode="&#x1fd;" horiz-adv-x="774" 
d="M133 -10q-63 0 -103.5 37t-40.5 97q0 170 265 170h44q2 9 2 27q0 63 -79 63q-59 0 -134 -31l-18 95q89 37 173 37q110 0 148 -69h2q67 69 160 69q84 0 130.5 -43.5t46.5 -116.5q0 -58 -22 -117l-291 -5v-14q0 -44 28.5 -69t72.5 -25q60 0 129 33l36 -95q-82 -43 -171 -43
q-133 0 -180 101h-2q-73 -101 -196 -101zM163 95q39 0 73.5 25.5t45.5 71.5l3 11h-28q-141 0 -141 -64q0 -44 47 -44zM432 294l164 2q5 12 5 30q0 26 -16.5 42t-45.5 16q-37 0 -66.5 -25t-40.5 -65zM363 531l75 147h145l-120 -147h-100z" />
    <glyph glyph-name="Oslashacute" unicode="&#x1fe;" horiz-adv-x="746" 
d="M328 -10q-80 0 -140 31l-58 -70l-82 65l55 68q-59 71 -59 187q0 167 103 281t269 114q80 0 142 -31l54 65l82 -65l-53 -64q59 -71 59 -186q0 -167 -102.5 -281t-269.5 -114zM340 104q89 0 152 77.5t63 206.5q0 38 -10 65l-277 -333q32 -16 72 -16zM189 268q0 -40 10 -67
l278 334q-31 17 -72 17q-90 0 -153 -77t-63 -207zM387 696l75 147h145l-120 -147h-100z" />
    <glyph glyph-name="oslashacute" unicode="&#x1ff;" horiz-adv-x="538" 
d="M242 531l75 147h145l-120 -147h-100zM62 -31l-50 43l40 47q-45 54 -45 137q0 123 77 206t192 83q70 0 118 -30l42 50l50 -43l-42 -50q43 -54 43 -133q0 -123 -76.5 -206t-191.5 -83q-63 0 -116 28zM222 95q54 0 94 53t40 129q0 18 -3 30l-173 -201q15 -11 42 -11z
M138 198q0 -21 4 -36l176 205q-19 13 -46 13q-54 0 -94 -53t-40 -129z" />
    <glyph glyph-name="Scommaaccent" unicode="&#x218;" horiz-adv-x="496" 
d="M-19 39l55 107q70 -42 140 -42q46 0 79 18.5t33 60.5q0 26 -16 48t-40 36.5t-52 33.5t-52 38t-40 51.5t-16 72.5q0 88 62.5 145.5t172.5 57.5q100 0 172 -37l-24 -116q-66 39 -144 39q-46 0 -70.5 -19.5t-24.5 -49.5q0 -28 22 -51.5t54 -43t64 -42.5t54 -60.5t22 -85.5
q0 -100 -71 -155t-182 -55q-109 0 -198 49zM54 -237l-25 85q83 14 83 62q0 11 -9 38h120q9 -24 9 -51q0 -117 -178 -134z" />
    <glyph glyph-name="scommaaccent" unicode="&#x219;" horiz-adv-x="390" 
d="M-38 37l42 96q66 -38 125 -38q66 0 66 40q0 16 -17 30.5t-40.5 28t-47.5 30.5t-41 47t-17 68q0 63 46.5 104.5t132.5 41.5q82 0 149 -28l-21 -106q-66 30 -121 30q-51 0 -51 -38q0 -21 25.5 -41.5t55.5 -36t55.5 -49.5t25.5 -79q0 -70 -53 -108.5t-138 -38.5
q-97 0 -176 47zM3 -237l-25 85q83 14 83 62q0 11 -9 38h120q9 -24 9 -51q0 -117 -178 -134z" />
    <glyph glyph-name="circumflex" unicode="&#x2c6;" 
d="M43 531l121 147h98l86 -147h-99l-44 74l-57 -74h-105z" />
    <glyph glyph-name="caron" unicode="&#x2c7;" 
d="M148 531l-85 147h99l43 -74l58 74h105l-121 -147h-99z" />
    <glyph glyph-name="breve" unicode="&#x2d8;" 
d="M198 539q-66 0 -102 39t-29 107h89q-2 -30 11 -47t40 -17q26 0 45 17.5t27 46.5h95q-15 -70 -62 -108t-114 -38z" />
    <glyph glyph-name="dotaccent" unicode="&#x2d9;" 
d="M199 540q-34 0 -54.5 20.5t-20.5 50.5q0 39 25.5 62.5t61.5 23.5q34 0 55 -20t21 -50q0 -39 -26.5 -63t-61.5 -24z" />
    <glyph glyph-name="ring" unicode="&#x2da;" 
d="M195 522q-50 0 -79 21.5t-29 59.5q0 51 38.5 83t96.5 32q49 0 79 -21.5t30 -59.5q0 -51 -38.5 -83t-97.5 -32zM202 577q20 0 32.5 16.5t12.5 37.5q0 15 -9 23.5t-23 8.5q-19 0 -31.5 -16.5t-12.5 -38.5q0 -31 31 -31z" />
    <glyph glyph-name="ogonek" unicode="&#x2db;" 
d="M178 -214q-101 0 -101 77q0 49 33.5 83.5t92.5 66.5l112 -13q-129 -56 -129 -111q0 -27 33 -27q16 0 37 6l7 -71q-39 -11 -85 -11z" />
    <glyph glyph-name="tilde" unicode="&#x2dc;" 
d="M27 545q5 64 33.5 96.5t70.5 32.5q32 0 70.5 -21t51.5 -21q25 0 30 36h88q-5 -64 -33.5 -96.5t-70.5 -32.5q-32 0 -70.5 21t-51.5 21q-25 0 -30 -36h-88z" />
    <glyph glyph-name="hungarumlaut" unicode="&#x2dd;" 
d="M62 531l75 147h145l-120 -147h-100zM244 531l75 147h146l-120 -147h-101z" />
    <glyph glyph-name="uni0315" unicode="&#x315;" 
d="M149 513l61 196h133l-92 -196h-102z" />
    <glyph glyph-name="uni0326" unicode="&#x326;" 
d="M119 -237l-25 85q83 14 83 62q0 11 -9 38h120q9 -24 9 -51q0 -117 -178 -134z" />
    <glyph glyph-name="Alphatonos" unicode="&#x386;" horiz-adv-x="690" 
d="M34 473l72 186h133l-98 -186h-107zM-9 0l373 662h117l129 -662h-144l-28 161h-207l-87 -161h-153zM292 270h129l-21 145q-1 6 -2.5 18t-2.5 23l-2 22h-2q-15 -36 -28 -64z" />
    <glyph glyph-name="Epsilontonos" unicode="&#x388;" horiz-adv-x="641" 
d="M30 473l72 186h132l-98 -186h-106zM145 0l143 659h367l-44 -115h-210l-33 -153h207l-25 -115h-207l-36 -161h237l-25 -115h-374z" />
    <glyph glyph-name="Etatonos" unicode="&#x389;" horiz-adv-x="870" 
d="M30 473l72 186h132l-98 -186h-106zM145 0l143 659h138l-58 -266h301l58 266h138l-144 -659h-138l60 277h-301l-60 -277h-137z" />
    <glyph glyph-name="Iotatonos" unicode="&#x38a;" horiz-adv-x="431" 
d="M30 473l72 186h132l-98 -186h-106zM145 0l143 659h138l-144 -659h-137z" />
    <glyph glyph-name="Omicrontonos" unicode="&#x38c;" horiz-adv-x="862" 
d="M30 473l72 186h132l-98 -186h-106zM438 -10q-128 0 -203 73.5t-75 200.5q0 170 105.5 286t272.5 116q127 0 202 -73t75 -201q0 -170 -105 -286t-272 -116zM448 104q96 0 159.5 86t63.5 197q0 79 -37.5 122t-105.5 43q-97 0 -160 -86t-63 -197q0 -79 37.5 -122t105.5 -43z
" />
    <glyph glyph-name="Upsilontonos" unicode="&#x38e;" horiz-adv-x="795" 
d="M30 473l72 186h132l-98 -186h-106zM352 0l34 153q11 49 11 94q0 82 -34.5 179.5t-105.5 232.5h144q85 -165 93 -287h2q62 142 209 287h162q-76 -79 -123 -131t-97.5 -118t-80 -128t-43.5 -126l-34 -156h-137z" />
    <glyph glyph-name="Omegatonos" unicode="&#x38f;" horiz-adv-x="865" 
d="M30 473l72 186h132l-98 -186h-106zM116 0l24 115h54q27 0 67 -12l1 2q-86 93 -86 209q0 147 102 249.5t257 102.5q138 0 214 -69.5t76 -184.5q0 -87 -48 -166t-129 -141v-2q36 12 73 12h49l-24 -115h-265l19 90q177 133 177 312q0 68 -38.5 109t-105.5 41
q-92 0 -154.5 -71.5t-62.5 -195.5q0 -110 76 -195l-18 -90h-258z" />
    <glyph glyph-name="iotadieresistonos" unicode="&#x390;" horiz-adv-x="304" 
d="M146 -7q-60 0 -95 29.5t-35 83.5q0 21 7 57l68 310h135l-68 -303q-4 -20 -4 -31q0 -30 34 -30q19 0 42 7v-111q-36 -12 -84 -12zM132 531l48 150h93l-72 -150h-69zM67 543q-23 0 -37.5 14.5t-14.5 38.5q0 29 20 49t47 20q23 0 37 -14.5t14 -38.5q0 -29 -19.5 -49
t-46.5 -20zM312 543q-23 0 -37 14.5t-14 38.5q0 29 19.5 49t46.5 20q23 0 37.5 -14.5t14.5 -38.5q0 -29 -20 -49t-47 -20z" />
    <glyph glyph-name="Alpha" unicode="&#x391;" horiz-adv-x="640" 
d="M-59 0l373 662h117l129 -662h-144l-28 161h-207l-87 -161h-153zM242 270h129l-20 145q-5 33 -8 63h-2q-20 -48 -28 -64z" />
    <glyph glyph-name="Beta" unicode="&#x392;" horiz-adv-x="576" 
d="M5 0l144 659h181q99 0 147 -41.5t48 -108.5q0 -106 -103 -160v-2q38 -9 65.5 -40.5t27.5 -81.5q0 -94 -76 -159.5t-215 -65.5h-219zM227 389h59q45 0 74 27.5t29 69.5q0 61 -77 61h-50zM167 111h73q64 0 101.5 27t37.5 74q0 33 -24.5 49.5t-64.5 16.5h-87z" />
    <glyph glyph-name="Gamma" unicode="&#x393;" horiz-adv-x="467" 
d="M5 0l144 659h378l-50 -115h-216l-118 -544h-138z" />
    <glyph glyph-name="Epsilon" unicode="&#x395;" horiz-adv-x="501" 
d="M5 0l144 659h366l-44 -115h-209l-34 -153h208l-25 -115h-208l-35 -161h236l-25 -115h-374z" />
    <glyph glyph-name="Zeta" unicode="&#x396;" horiz-adv-x="554" 
d="M-37 0l387 544h-251l-9 115h491l-383 -544h288l-26 -115h-497z" />
    <glyph glyph-name="Eta" unicode="&#x397;" horiz-adv-x="730" 
d="M5 0l144 659h138l-58 -266h301l58 266h137l-143 -659h-138l60 277h-301l-60 -277h-138z" />
    <glyph glyph-name="Theta" unicode="&#x398;" horiz-adv-x="754" 
d="M326 -10q-128 0 -204 73t-76 200q0 170 106.5 286.5t273.5 116.5q128 0 204.5 -73t76.5 -200q0 -170 -107 -286.5t-274 -116.5zM337 104q96 0 161 87t65 197q0 78 -39 121t-108 43q-96 0 -161 -87t-65 -197q0 -79 38.5 -121.5t108.5 -42.5zM243 277l23 108h242l-24 -108
h-241z" />
    <glyph glyph-name="Iota" unicode="&#x399;" horiz-adv-x="290" 
d="M5 0l144 659h138l-144 -659h-138z" />
    <glyph glyph-name="Kappa" unicode="&#x39a;" horiz-adv-x="600" 
d="M5 0l144 659h138l-62 -285h2l266 285h167l-330 -345l208 -314h-164l-170 271h-2l-59 -271h-138z" />
    <glyph glyph-name="Lambda" unicode="&#x39b;" horiz-adv-x="643" 
d="M-59 0l370 662h122l130 -662h-146l-61 388q-4 25 -12 90h-2q-9 -26 -42 -91l-204 -387h-155z" />
    <glyph glyph-name="Mu" unicode="&#x39c;" horiz-adv-x="828" 
d="M5 0l144 659h126l95 -236q40 -107 41 -110h2q27 41 73 97l196 249h143l-144 -659h-138l70 320q25 107 26 112h-2q-22 -32 -65 -84l-158 -199h-64l-80 196q-21 50 -32 87h-4q-2 -15 -31 -159l-60 -273h-138z" />
    <glyph glyph-name="Nu" unicode="&#x39d;" horiz-adv-x="760" 
d="M5 0l144 659h130l199 -361q16 -29 43 -86h2q9 47 18 86l78 361h138l-144 -659h-119l-207 377q-28 51 -43 84h-2q-6 -35 -16 -80l-83 -381h-138z" />
    <glyph glyph-name="Xi" unicode="&#x39e;" horiz-adv-x="550" 
d="M-31 0l25 115h471l-25 -115h-471zM87 278l26 115h338l-25 -115h-339zM96 544l25 115h452l-50 -115h-427z" />
    <glyph glyph-name="Omicron" unicode="&#x39f;" horiz-adv-x="748" 
d="M323 -10q-128 0 -202.5 73t-74.5 200q0 171 105.5 287t271.5 116q128 0 203 -73t75 -200q0 -170 -105.5 -286.5t-272.5 -116.5zM334 104q96 0 159 86.5t63 197.5q0 79 -37.5 121.5t-105.5 42.5q-96 0 -159.5 -86.5t-63.5 -197.5q0 -79 37.5 -121.5t106.5 -42.5z" />
    <glyph glyph-name="Pi" unicode="&#x3a0;" horiz-adv-x="705" 
d="M6 0l145 659h546l-144 -659h-138l119 543h-271l-119 -543h-138z" />
    <glyph glyph-name="Rho" unicode="&#x3a1;" horiz-adv-x="558" 
d="M5 0l144 659h145q76 0 122 -20q53 -22 83 -65.5t30 -103.5q0 -77 -38.5 -135.5t-114.5 -86.5q-68 -26 -157 -26h-28l-48 -222h-138zM216 332h24q52 0 86 20q65 32 65 110q0 56 -43 75q-26 12 -59 12h-27z" />
    <glyph glyph-name="Sigma" unicode="&#x3a3;" horiz-adv-x="563" 
d="M-40 0l262 358l-119 301h472l-50 -115h-239l77 -199l-170 -230h286l-25 -115h-494z" />
    <glyph glyph-name="Tau" unicode="&#x3a4;" horiz-adv-x="545" 
d="M131 0l119 544h-195l25 115h532l-50 -115h-174l-119 -544h-138z" />
    <glyph glyph-name="Upsilon" unicode="&#x3a5;" horiz-adv-x="609" 
d="M167 0l33 153q12 54 12 94q0 82 -34.5 179.5t-105.5 232.5h143q85 -160 93 -287h3q61 142 208 287h162q-76 -79 -123 -131t-97.5 -118t-80 -128t-43.5 -126l-33 -156h-137z" />
    <glyph glyph-name="Phi" unicode="&#x3a6;" horiz-adv-x="808" 
d="M257 -20l13 60q-104 15 -165.5 78t-61.5 162q0 143 98.5 237.5t253.5 99.5l12 57h135l-13 -58q104 -15 166.5 -78t62.5 -162q0 -143 -99.5 -238t-255.5 -100l-12 -58h-134zM295 158l75 343q-86 -7 -137 -69.5t-51 -144.5q0 -109 113 -129zM429 154q86 6 137.5 69.5
t51.5 145.5q0 111 -115 129z" />
    <glyph glyph-name="Chi" unicode="&#x3a7;" horiz-adv-x="613" 
d="M-61 0l288 340l-152 319h145l100 -213l180 213h160l-280 -331l159 -328h-146l-106 222l-189 -222h-159z" />
    <glyph glyph-name="Psi" unicode="&#x3a8;" horiz-adv-x="784" 
d="M243 0l44 200q-193 24 -193 212q0 94 44 247h134q-44 -161 -44 -229q0 -105 86 -109l73 338h138l-74 -338q37 1 65.5 17t47.5 42t34.5 70.5t25 91.5t19.5 117h134q-14 -118 -36.5 -198t-62.5 -140.5t-102 -90t-152 -32.5l-43 -198h-138z" />
    <glyph glyph-name="uni03A9" unicode="&#x3a9;" horiz-adv-x="741" 
d="M-8 0l24 115h54q25 0 67 -12l1 2q-87 94 -87 209q0 147 102 249.5t258 102.5q137 0 213 -69.5t76 -184.5q0 -88 -48 -166.5t-129 -140.5v-2q38 12 73 12h49l-24 -115h-264l18 90q178 132 178 312q0 68 -38.5 109t-105.5 41q-93 0 -155 -71.5t-62 -195.5q0 -110 76 -195
l-19 -90h-257z" />
    <glyph glyph-name="Iotadieresis" unicode="&#x3aa;" horiz-adv-x="290" 
d="M5 0l144 659h138l-144 -659h-138zM133 699q-26 0 -42 15.5t-16 41.5q0 33 20.5 55t49.5 22q26 0 42.5 -15.5t16.5 -41.5q0 -33 -20.5 -55t-50.5 -22zM327 699q-26 0 -42 15.5t-16 41.5q0 33 20.5 55t49.5 22q26 0 42.5 -15.5t16.5 -41.5q0 -33 -20.5 -55t-50.5 -22z" />
    <glyph glyph-name="Upsilondieresis" unicode="&#x3ab;" horiz-adv-x="609" 
d="M167 0l33 153q12 54 12 94q0 82 -34.5 179.5t-105.5 232.5h143q85 -160 93 -287h3q61 142 208 287h162q-76 -79 -123 -131t-97.5 -118t-80 -128t-43.5 -126l-33 -156h-137zM277 699q-26 0 -42 15.5t-16 41.5q0 33 20.5 55t49.5 22q26 0 42.5 -15.5t16.5 -41.5
q0 -33 -20.5 -55t-50.5 -22zM471 699q-26 0 -42 15.5t-16 41.5q0 33 20.5 55t49.5 22q26 0 42.5 -15.5t16.5 -41.5q0 -33 -20.5 -55t-50.5 -22z" />
    <glyph glyph-name="alphatonos" unicode="&#x3ac;" horiz-adv-x="591" 
d="M157 -10q-68 0 -108.5 48t-40.5 139q0 75 28.5 144.5t85.5 116.5t129 47q61 0 97 -35t43 -94h2q27 66 65 126l99 -61q-106 -156 -132 -195q0 -114 64 -114q15 0 28 5v-115q-25 -7 -52 -7q-109 0 -121 129h-2q-28 -61 -76.5 -97.5t-108.5 -36.5zM192 100q39 0 68.5 40.5
t59.5 107.5q-3 31 -6 50t-9.5 38.5t-18.5 29t-30 9.5q-45 0 -79 -64.5t-34 -131.5q0 -79 49 -79zM336 531h-103l87 167h143z" />
    <glyph glyph-name="epsilontonos" unicode="&#x3ad;" horiz-adv-x="468" 
d="M313 531h-103l87 167h143zM180 -10q-94 0 -142.5 37t-48.5 97q0 45 26.5 77t72.5 46l1 2q-52 27 -52 86q0 69 62.5 109.5t157.5 40.5q87 0 171 -28l-22 -102q-73 29 -149 29q-89 0 -89 -53q0 -44 96 -44q36 0 70 3l-21 -95q-32 4 -81 4q-109 0 -109 -58q0 -50 78 -50
q80 0 169 39l23 -93q-97 -47 -213 -47z" />
    <glyph glyph-name="etatonos" unicode="&#x3ae;" horiz-adv-x="570" 
d="M10 0l71 324q3 10 3 19q0 22 -25 22q-15 0 -29 -5v108q45 17 87 17q43 0 71 -21.5t28 -70.5q0 -7 -1 -11h2q77 103 176 103q56 0 87.5 -30.5t31.5 -90.5q0 -28 -14 -97l-112 -504h-134l110 496q10 48 10 64q0 45 -41 45q-50 0 -92 -55q-37 -49 -56 -139l-39 -174h-134z
M382 531h-103l87 167h143z" />
    <glyph glyph-name="iotatonos" unicode="&#x3af;" horiz-adv-x="304" 
d="M146 -7q-60 0 -95 29.5t-35 83.5q0 21 7 57l68 310h135l-68 -303q-4 -20 -4 -31q0 -30 34 -30q19 0 42 7v-111q-36 -12 -84 -12zM213 531h-103l87 167h143z" />
    <glyph glyph-name="upsilondieresistonos" unicode="&#x3b0;" horiz-adv-x="558" 
d="M223 -10q-93 0 -146 45.5t-53 122.5q0 42 19.5 103t19.5 79q0 25 -24 25q-7 0 -21 -4v108q42 16 80 16q45 0 73.5 -27.5t28.5 -75.5q0 -36 -21 -106t-21 -99q0 -80 78 -80q66 0 102 65t36 164q0 92 -30 147h129q34 -63 34 -158q0 -65 -17 -122t-50 -103t-89 -73t-128 -27
zM235 531l48 150h93l-72 -150h-69zM170 543q-23 0 -37.5 14.5t-14.5 38.5q0 29 20 49t47 20q23 0 37 -14.5t14 -38.5q0 -29 -19.5 -49t-46.5 -20zM415 543q-23 0 -37 14.5t-14 38.5q0 29 19.5 49t46.5 20q23 0 37.5 -14.5t14.5 -38.5q0 -29 -20 -49t-47 -20z" />
    <glyph glyph-name="alpha" unicode="&#x3b1;" horiz-adv-x="591" 
d="M157 -10q-68 0 -108.5 48t-40.5 139q0 75 28.5 144.5t85.5 116.5t129 47q61 0 97 -35t43 -94h2q27 66 65 126l99 -61q-106 -156 -132 -195q0 -114 64 -114q15 0 28 5v-115q-25 -7 -52 -7q-109 0 -121 129h-2q-28 -61 -76.5 -97.5t-108.5 -36.5zM192 100q39 0 68.5 40.5
t59.5 107.5q-3 31 -6 50t-9.5 38.5t-18.5 29t-30 9.5q-45 0 -79 -64.5t-34 -131.5q0 -79 49 -79z" />
    <glyph glyph-name="beta" unicode="&#x3b2;" horiz-adv-x="526" 
d="M216 -10q-205 0 -205 234q0 80 24 164t66.5 156t110.5 118t147 46q70 0 115.5 -37t45.5 -104q0 -58 -35 -110t-103 -86v-2q45 -7 67 -41t22 -81q0 -106 -70.5 -181.5t-184.5 -75.5zM227 97q47 0 78 38.5t31 99.5q0 67 -56 67q-25 0 -133 -36q-3 -22 -3 -44
q0 -125 83 -125zM167 376q219 61 219 181q0 44 -42 44q-51 0 -101.5 -66.5t-75.5 -158.5z" />
    <glyph glyph-name="gamma" unicode="&#x3b3;" horiz-adv-x="567" 
d="M61 -237q23 106 45 179q36 162 36 273q0 24 -3 47.5t-11 51t-26.5 44t-44.5 16.5q-25 0 -41 -6v108q39 9 72 9q83 0 124.5 -56.5t41.5 -141.5q0 -68 -13 -139h2q50 118 101 197.5t120 140.5l85 -97q-161 -146 -269 -366q-38 -78 -62 -180l-17 -80h-140z" />
    <glyph glyph-name="delta" unicode="&#x3b4;" horiz-adv-x="552" 
d="M233 -10q-106 1 -165.5 56t-59.5 143q0 89 51 152t134 91v2q-63 63 -63 128q0 66 48.5 106t129.5 40q59 0 125.5 -18.5t110.5 -41.5l-46 -105q-108 56 -179 56q-55 2 -55 -40q0 -21 23 -45.5t56 -52t66 -59.5t56 -79t23 -100q0 -99 -71 -166.5t-184 -66.5zM233 97
q53 -1 86.5 38t33.5 94q0 68 -73 130q-64 -21 -101 -66t-37 -102q0 -42 24 -67.5t67 -26.5z" />
    <glyph glyph-name="epsilon" unicode="&#x3b5;" horiz-adv-x="468" 
d="M180 -10q-94 0 -142.5 37t-48.5 97q0 45 26.5 77t72.5 46l1 2q-52 27 -52 86q0 69 62.5 109.5t157.5 40.5q87 0 171 -28l-22 -102q-73 29 -149 29q-89 0 -89 -53q0 -44 96 -44q36 0 70 3l-21 -95q-32 4 -81 4q-109 0 -109 -58q0 -50 78 -50q80 0 169 39l23 -93
q-97 -47 -213 -47z" />
    <glyph glyph-name="zeta" unicode="&#x3b6;" horiz-adv-x="457" 
d="M261 -195l-91 67q71 66 71 99q0 20 -24 35t-57.5 29.5t-67.5 33t-58 55t-24 86.5q0 124 90.5 228.5t236.5 171.5v3q-131 -35 -225 -39l-11 107q160 0 388 27v-77q-342 -196 -342 -389q0 -39 24 -66.5t58.5 -43t69 -30.5t58.5 -40t24 -61q0 -91 -120 -196z" />
    <glyph glyph-name="eta" unicode="&#x3b7;" horiz-adv-x="570" 
d="M10 0l71 324q3 10 3 19q0 22 -25 22q-15 0 -29 -5v108q45 17 87 17q43 0 71 -21.5t28 -70.5q0 -7 -1 -11h2q77 103 176 103q56 0 87.5 -30.5t31.5 -90.5q0 -28 -14 -97l-112 -504h-134l110 496q10 48 10 64q0 45 -41 45q-50 0 -92 -55q-37 -49 -56 -139l-39 -174h-134z
" />
    <glyph glyph-name="theta" unicode="&#x3b8;" horiz-adv-x="568" 
d="M199 -10q-88 0 -136.5 38t-48.5 98q0 30 15.5 80t15.5 82q0 28 -7 52h125q9 -22 9 -51t-13.5 -72.5t-13.5 -64.5q0 -55 67 -55t107.5 60.5t58.5 155.5q-273 41 -273 209q0 81 53 133.5t142 52.5q111 0 168.5 -73.5t57.5 -200.5q0 -60 -10 -119.5t-34.5 -119t-60.5 -104.5
t-93.5 -73t-128.5 -28zM235 530q0 -87 156 -112q2 22 2 30q0 71 -25 112t-66 41q-29 0 -48 -19t-19 -52z" />
    <glyph glyph-name="iota" unicode="&#x3b9;" horiz-adv-x="304" 
d="M146 -7q-60 0 -95 29.5t-35 83.5q0 21 7 57l68 310h135l-68 -303q-4 -20 -4 -31q0 -30 34 -30q19 0 42 7v-111q-36 -12 -84 -12z" />
    <glyph glyph-name="kappa" unicode="&#x3ba;" horiz-adv-x="564" 
d="M-13 0l104 473h134l-33 -150l-6 -23q-6 -24 -10 -38l2 -1q97 130 333 225l52 -110q-125 -48 -223 -112l137 -264h-153l-91 187q-87 -69 -99 -127l-13 -60h-134z" />
    <glyph glyph-name="lambda" unicode="&#x3bb;" horiz-adv-x="525" 
d="M-52 0l295 494q-8 60 -26.5 82t-51.5 22q-27 0 -59 -13l-26 101q55 22 108 22q87 0 131.5 -61t54.5 -205q10 -139 30 -246t65 -196h-141q-49 110 -59 319h-2l-171 -319h-148z" />
    <glyph glyph-name="uni03BC" unicode="&#x3bc;" horiz-adv-x="592" 
d="M-61 -237l157 710h134l-58 -261q-7 -29 -7 -48q0 -60 60 -60q36 0 67.5 29.5t44.5 90.5l56 249h134l-68 -311q-4 -15 -4 -23q0 -27 32 -27q19 0 33 5v-109q-37 -15 -75 -15q-83 0 -94 71q-1 6 -1 19h-2q-57 -93 -140 -93q-52 0 -79 38h-2q-7 -55 -24 -130l-30 -135h-134z
" />
    <glyph glyph-name="nu" unicode="&#x3bd;" horiz-adv-x="507" 
d="M90 -3l-70 476h134l39 -331h2q138 116 138 267q0 33 -6 64h138q4 -24 4 -54q0 -125 -70 -222t-212 -200h-97z" />
    <glyph glyph-name="xi" unicode="&#x3be;" horiz-adv-x="471" 
d="M179 -128q71 58 71 90q0 20 -25 33t-60.5 23.5t-71.5 25t-61 46t-25 77.5q0 58 40 106.5t110 68.5v2q-73 24 -73 86q0 102 202 179v3q-112 -26 -184 -29l-11 107q241 0 398 17v-75q-131 -39 -198.5 -88.5t-67.5 -95.5q0 -56 107 -56q39 0 75 4l-17 -107q-30 5 -77 5
q-68 0 -118 -25.5t-50 -71.5q0 -29 25.5 -47t62 -28t73 -22t62 -37.5t25.5 -66.5q0 -95 -121 -191z" />
    <glyph glyph-name="omicron" unicode="&#x3bf;" horiz-adv-x="539" 
d="M220 -10q-99 0 -155.5 57t-56.5 149q0 123 77 206t192 83q99 0 155 -57t56 -149q0 -123 -76.5 -206t-191.5 -83zM223 97q53 0 92 52t39 128q0 49 -21.5 75t-59.5 26q-53 0 -92 -52t-39 -128q0 -49 21.5 -75t59.5 -26z" />
    <glyph glyph-name="pi" unicode="&#x3c0;" horiz-adv-x="621" 
d="M32 0l81 369h-89l23 104h591l-42 -104h-90l-47 -217q-3 -10 -3 -18q0 -22 27 -22q15 0 30 5v-111q-36 -13 -89 -13q-108 0 -108 92q0 30 10 77l45 207h-124l-80 -369h-135z" />
    <glyph glyph-name="rho" unicode="&#x3c1;" horiz-adv-x="552" 
d="M-66 -237l109 507q25 113 85 164t155 51q101 0 159.5 -55t58.5 -152q0 -123 -75.5 -205.5t-191.5 -82.5q-69 0 -109 26h-2l-55 -253h-134zM227 99q66 0 103 51t37 126q0 49 -22.5 74.5t-63.5 25.5q-46 0 -69 -33t-39 -102l-27 -119q31 -23 81 -23z" />
    <glyph glyph-name="sigmafinal" unicode="&#x3c2;" horiz-adv-x="453" 
d="M136 -128q26 26 35 35.5t20.5 27.5t11.5 32q0 19 -14.5 35t-36 27t-47 27t-47 34.5t-36 51.5t-14.5 75q0 126 82 198t195 70q88 -2 139 -27l-25 -107q-52 27 -113 27q-68 0 -106 -44t-38 -106q0 -34 20.5 -59t49 -41t57.5 -32.5t49.5 -43.5t20.5 -64q0 -85 -112 -183z
" />
    <glyph glyph-name="sigma" unicode="&#x3c3;" horiz-adv-x="575" 
d="M211 -10q-92 0 -147.5 53t-55.5 143q0 129 77 208t196 79h316l-42 -108h-48q-47 0 -75 6v-2q32 -59 32 -123q0 -105 -68.5 -180.5t-184.5 -75.5zM220 97q53 0 82.5 50t29.5 126q0 52 -21 94h-11q-76 0 -117.5 -52t-41.5 -127q0 -44 20.5 -67.5t58.5 -23.5z" />
    <glyph glyph-name="tau" unicode="&#x3c4;" horiz-adv-x="475" 
d="M234 -10q-71 0 -104.5 30t-33.5 82q0 28 9 69l43 198h-127l23 104h443l-42 -104h-163l-47 -213q-3 -14 -3 -25q0 -34 39 -34t83 23l32 -95q-73 -35 -152 -35z" />
    <glyph glyph-name="upsilon" unicode="&#x3c5;" horiz-adv-x="558" 
d="M223 -10q-93 0 -146 45.5t-53 122.5q0 42 19.5 103t19.5 79q0 25 -24 25q-7 0 -21 -4v108q42 16 80 16q45 0 73.5 -27.5t28.5 -75.5q0 -36 -21 -106t-21 -99q0 -80 78 -80q66 0 102 65t36 164q0 92 -30 147h129q34 -63 34 -158q0 -65 -17 -122t-50 -103t-89 -73t-128 -27
z" />
    <glyph glyph-name="phi" unicode="&#x3c6;" horiz-adv-x="702" 
d="M148 -237l51 231q-191 36 -191 207q0 79 34 154t87 127l122 -25q-112 -122 -112 -249q0 -94 83 -108l46 211q37 174 188 174q93 0 143.5 -52t50.5 -133q0 -125 -91 -215t-230 -95l-49 -227h-132zM354 98q65 4 114.5 62.5t49.5 142.5q0 33 -16 53.5t-42 20.5
q-46 0 -59 -66z" />
    <glyph glyph-name="chi" unicode="&#x3c7;" horiz-adv-x="551" 
d="M-119 -237l281 388q-19 136 -35.5 179t-57.5 43q-15 0 -30 -5v106q30 10 63 10q72 0 107 -52.5t50 -173.5h2l146 215h143l-262 -364q21 -150 36.5 -194.5t56.5 -44.5q13 0 31 4v-106q-32 -9 -64 -9q-73 0 -108 56t-50 186h-2l-164 -238h-143z" />
    <glyph glyph-name="psi" unicode="&#x3c8;" horiz-adv-x="744" 
d="M170 -237l49 228q-98 7 -152 53t-54 121q0 44 23.5 120.5t23.5 131.5q0 26 -7 56h129q12 -30 12 -71q0 -45 -22 -113.5t-22 -100.5q0 -85 92 -93l135 613h132l-133 -613q85 10 134.5 77.5t49.5 167.5q0 78 -28 133h129q32 -62 32 -151q0 -136 -89.5 -231t-250.5 -101
l-50 -227h-133z" />
    <glyph glyph-name="omega" unicode="&#x3c9;" horiz-adv-x="776" 
d="M168 -10q-77 0 -118.5 49.5t-41.5 132.5q0 89 44 170.5t113 139.5l123 -25q-150 -150 -150 -278q0 -33 14.5 -55.5t45.5 -22.5q34 0 58.5 26.5t36.5 70.5t17.5 81t7.5 78h142q-32 -79 -32 -158q0 -42 16 -70t51 -28q47 0 73.5 48.5t26.5 117.5q0 94 -53 190l125 25
q57 -90 57 -216q0 -120 -61.5 -198t-164.5 -78q-63 0 -102 36t-45 98h-2q-22 -61 -70.5 -97.5t-110.5 -36.5z" />
    <glyph glyph-name="iotadieresis" unicode="&#x3ca;" horiz-adv-x="304" 
d="M146 -7q-60 0 -95 29.5t-35 83.5q0 21 7 57l68 310h135l-68 -303q-4 -20 -4 -31q0 -30 34 -30q19 0 42 7v-111q-36 -12 -84 -12zM82 538q-26 0 -42 15.5t-16 41.5q0 33 20 55t50 22q26 0 42.5 -15.5t16.5 -40.5q0 -33 -20.5 -55.5t-50.5 -22.5zM276 538q-26 0 -42 15.5
t-16 41.5q0 33 20 55t50 22q26 0 42.5 -15.5t16.5 -40.5q0 -33 -20.5 -55.5t-50.5 -22.5z" />
    <glyph glyph-name="upsilondieresis" unicode="&#x3cb;" horiz-adv-x="558" 
d="M223 -10q-93 0 -146 45.5t-53 122.5q0 42 19.5 103t19.5 79q0 25 -24 25q-7 0 -21 -4v108q42 16 80 16q45 0 73.5 -27.5t28.5 -75.5q0 -36 -21 -106t-21 -99q0 -80 78 -80q66 0 102 65t36 164q0 92 -30 147h129q34 -63 34 -158q0 -65 -17 -122t-50 -103t-89 -73t-128 -27
zM189 538q-26 0 -42 15.5t-16 41.5q0 33 20 55t50 22q26 0 42.5 -15.5t16.5 -40.5q0 -33 -20.5 -55.5t-50.5 -22.5zM383 538q-26 0 -42 15.5t-16 41.5q0 33 20 55t50 22q26 0 42.5 -15.5t16.5 -40.5q0 -33 -20.5 -55.5t-50.5 -22.5z" />
    <glyph glyph-name="omicrontonos" unicode="&#x3cc;" horiz-adv-x="539" 
d="M220 -10q-99 0 -155.5 57t-56.5 149q0 123 77 206t192 83q99 0 155 -57t56 -149q0 -123 -76.5 -206t-191.5 -83zM223 97q53 0 92 52t39 128q0 49 -21.5 75t-59.5 26q-53 0 -92 -52t-39 -128q0 -49 21.5 -75t59.5 -26zM342 531h-103l87 167h143z" />
    <glyph glyph-name="upsilontonos" unicode="&#x3cd;" horiz-adv-x="558" 
d="M319 531h-103l87 167h143zM223 -10q-93 0 -146 45.5t-53 122.5q0 42 19.5 103t19.5 79q0 25 -24 25q-7 0 -21 -4v108q42 16 80 16q45 0 73.5 -27.5t28.5 -75.5q0 -36 -21 -106t-21 -99q0 -80 78 -80q66 0 102 65t36 164q0 92 -30 147h129q34 -63 34 -158q0 -65 -17 -122
t-50 -103t-89 -73t-128 -27z" />
    <glyph glyph-name="omegatonos" unicode="&#x3ce;" horiz-adv-x="776" 
d="M168 -10q-77 0 -118.5 49.5t-41.5 132.5q0 89 44 170.5t113 139.5l123 -25q-150 -150 -150 -278q0 -33 14.5 -55.5t45.5 -22.5q34 0 58.5 26.5t36.5 70.5t17.5 81t7.5 78h142q-32 -79 -32 -158q0 -42 16 -70t51 -28q47 0 73.5 48.5t26.5 117.5q0 94 -53 190l125 25
q57 -90 57 -216q0 -120 -61.5 -198t-164.5 -78q-63 0 -102 36t-45 98h-2q-22 -61 -70.5 -97.5t-110.5 -36.5zM459 531h-103l87 167h143z" />
    <glyph glyph-name="uni0400" unicode="&#x400;" horiz-adv-x="501" 
d="M5 0l144 659h366l-44 -115h-209l-34 -153h208l-25 -115h-208l-35 -161h236l-25 -115h-374zM296 696l-92 147h145l48 -147h-101z" />
    <glyph glyph-name="afii10023" unicode="&#x401;" horiz-adv-x="503" 
d="M5 0l144 659h366l-44 -115h-209l-34 -153h208l-25 -115h-208l-35 -161h236l-25 -115h-374zM243 699q-26 0 -42 15.5t-16 41.5q0 33 20.5 55t49.5 22q26 0 42.5 -15.5t16.5 -41.5q0 -33 -20.5 -55t-50.5 -22zM437 699q-26 0 -42 15.5t-16 41.5q0 33 20.5 55t49.5 22
q26 0 42.5 -15.5t16.5 -41.5q0 -33 -20.5 -55t-50.5 -22z" />
    <glyph glyph-name="afii10051" unicode="&#x402;" horiz-adv-x="733" 
d="M128 0l119 549h-194l25 110h555l-42 -110h-206l-32 -148q6 0 17 1t20 1.5t17 0.5q118 0 186 -54t68 -141q0 -95 -57.5 -155.5t-161.5 -60.5q-63 0 -106 19l40 104q23 -11 53 -11q45 0 70.5 26t25.5 71q0 88 -137 88q-28 0 -61 -5l-62 -285h-137z" />
    <glyph glyph-name="afii10052" unicode="&#x403;" horiz-adv-x="507" 
d="M5 0l144 659h378l-50 -115h-216l-118 -544h-138zM286 696l75 147h145l-120 -147h-100z" />
    <glyph glyph-name="afii10053" unicode="&#x404;" horiz-adv-x="624" 
d="M343 -10q-151 0 -224 77t-73 200q0 182 106.5 290.5t280.5 108.5q108 0 180 -32l-26 -112q-78 32 -156 32q-87 0 -146.5 -46.5t-83.5 -120.5h294l-23 -109h-285q-1 -3 -1 -10q1 -73 44.5 -119.5t124.5 -46.5q77 0 153 36l25 -110q-83 -38 -190 -38z" />
    <glyph glyph-name="afii10054" unicode="&#x405;" horiz-adv-x="496" 
d="M-18 39l55 107q70 -42 140 -42q46 0 79 18.5t33 60.5q0 26 -16 48t-40 36.5t-52 33.5t-52 38t-40 51.5t-16 72.5q0 88 62.5 145.5t172.5 57.5q100 0 172 -37l-24 -116q-66 39 -144 39q-46 0 -70.5 -19.5t-24.5 -49.5q0 -28 22 -51.5t54 -43t64 -42.5t54 -60.5t22 -85.5
q0 -100 -71 -155t-182 -55q-109 0 -198 49z" />
    <glyph glyph-name="afii10055" unicode="&#x406;" horiz-adv-x="291" 
d="M5 0l144 659h138l-144 -659h-138z" />
    <glyph glyph-name="afii10056" unicode="&#x407;" horiz-adv-x="290" 
d="M5 0l144 659h138l-144 -659h-138zM133 699q-26 0 -42 15.5t-16 41.5q0 33 20.5 55t49.5 22q26 0 42.5 -15.5t16.5 -41.5q0 -33 -20.5 -55t-50.5 -22zM327 699q-26 0 -42 15.5t-16 41.5q0 33 20.5 55t49.5 22q26 0 42.5 -15.5t16.5 -41.5q0 -33 -20.5 -55t-50.5 -22z" />
    <glyph glyph-name="afii10057" unicode="&#x408;" horiz-adv-x="330" 
d="M-146 -165l38 106q29 -13 65 -13q51 0 74 41q14 30 22 68l135 622h138l-143 -656q-14 -71 -41 -109q-56 -80 -175 -80q-63 0 -113 21z" />
    <glyph glyph-name="afii10058" unicode="&#x409;" horiz-adv-x="934" 
d="M-47 2l27 122q9 -2 23 -2q40 0 76 37q50 51 96 172.5t105 327.5h365l-52 -236h21q103 0 155 -26q93 -47 93 -148q0 -118 -76.5 -183.5t-216.5 -65.5h-206l120 549h-103q-60 -202 -106.5 -316.5t-100.5 -170.5q-64 -67 -162 -67q-31 0 -58 7zM525 112h52q69 0 109 31
t40 94q0 43 -37 62q-25 13 -78 13h-42z" />
    <glyph glyph-name="afii10059" unicode="&#x40a;" horiz-adv-x="988" 
d="M5 0l144 659h137l-58 -266h273l58 266h138l-52 -236h23q104 0 154 -26q94 -46 94 -148q0 -118 -76.5 -183.5t-216.5 -65.5h-208l60 277h-273l-60 -277h-137zM577 112h53q70 0 110 31t40 94q0 43 -37 62q-25 13 -79 13h-43z" />
    <glyph glyph-name="afii10060" unicode="&#x40b;" horiz-adv-x="777" 
d="M131 0l120 549h-195l24 110h561l-42 -110h-211l-32 -152q50 9 102 9q110 0 165.5 -46t55.5 -126q0 -30 -9 -72l-36 -162h-137l34 151q9 40 9 65q0 40 -27 58t-87 18q-45 0 -96 -10l-61 -282h-138z" />
    <glyph glyph-name="afii10061" unicode="&#x40c;" horiz-adv-x="635" 
d="M333 696l75 147h145l-120 -147h-100zM5 0l144 659h137l-59 -270h63q40 0 65.5 34.5t51 94.5t49.5 90q48 58 125 58q40 0 79 -13l-25 -117q-22 8 -38 8q-26 0 -49 -26q-13 -16 -34 -61t-45.5 -78t-59.5 -45v-2q38 -13 55 -75l76 -257h-155l-47 214q-15 65 -43 65h-92
l-61 -279h-137z" />
    <glyph glyph-name="uni040D" unicode="&#x40d;" horiz-adv-x="751" 
d="M5 0l144 659h137l-80 -364q-6 -33 -19 -80h2q11 12 102 111l315 333h140l-144 -659h-138l81 374q5 23 17 69h-2q-29 -35 -97 -106l-321 -337h-137zM400 696l-92 147h145l48 -147h-101z" />
    <glyph glyph-name="afii10062" unicode="&#x40e;" horiz-adv-x="595" 
d="M28 3l26 109q22 -7 44 -7q36 0 63 21t56 69l-138 464h145l84 -329h2l199 329h150l-327 -513q-55 -86 -104 -120.5t-121 -34.5q-40 0 -79 12zM196 836l103 23q10 -80 70 -80q68 0 123 106l95 -44q-43 -85 -96.5 -123t-128.5 -38q-69 0 -114 40t-52 116z" />
    <glyph glyph-name="afii10145" unicode="&#x40f;" horiz-adv-x="701" 
d="M5 0l144 659h137l-117 -538h272l117 538h138l-145 -659h-199l-41 -188h-129l41 188h-218z" />
    <glyph glyph-name="afii10017" unicode="&#x410;" horiz-adv-x="640" 
d="M-59 0l373 662h117l129 -662h-144l-28 161h-207l-87 -161h-153zM242 270h129l-20 145q-5 33 -8 63h-2q-20 -48 -28 -64z" />
    <glyph glyph-name="afii10018" unicode="&#x411;" horiz-adv-x="585" 
d="M5 0l144 659h411l-42 -110h-256l-30 -139h39q102 0 159 -30q85 -44 85 -144q0 -106 -78 -171t-215 -65h-217zM167 112h62q80 0 115 35.5t35 80.5q0 36 -26 55q-26 16 -90 16h-56z" />
    <glyph glyph-name="afii10019" unicode="&#x412;" horiz-adv-x="577" 
d="M5 0l144 659h181q99 0 147 -41.5t48 -108.5q0 -106 -103 -160v-2q38 -9 65.5 -40.5t27.5 -81.5q0 -94 -76 -159.5t-215 -65.5h-219zM227 389h59q45 0 74 27.5t29 69.5q0 61 -77 61h-50zM167 111h73q64 0 101.5 27t37.5 74q0 33 -24.5 49.5t-64.5 16.5h-87z" />
    <glyph glyph-name="afii10020" unicode="&#x413;" horiz-adv-x="462" 
d="M5 0l144 659h378l-50 -115h-216l-118 -544h-138z" />
    <glyph glyph-name="afii10021" unicode="&#x414;" horiz-adv-x="707" 
d="M-84 -188l66 304h36q93 97 155.5 225.5t115.5 317.5h367l-119 -543h93l-67 -304h-137l42 188h-373l-42 -188h-137zM400 116l94 433h-111q-83 -287 -207 -431v-2h224z" />
    <glyph glyph-name="afii10022" unicode="&#x415;" horiz-adv-x="503" 
d="M5 0l144 659h366l-44 -115h-209l-34 -153h208l-25 -115h-208l-35 -161h236l-25 -115h-374z" />
    <glyph glyph-name="afii10024" unicode="&#x416;" horiz-adv-x="959" 
d="M-33 0l150 253q50 81 99 94v2q-22 20 -32 87.5t-20 84.5q-14 24 -42 24q-19 0 -37 -8l24 116q34 13 72 13q60 0 87 -41q14 -21 21 -55t9.5 -64.5t7 -59t18 -45.5t38.5 -17h51l60 275h132l-59 -275h52q39 0 65.5 34.5t54 95.5t49.5 90q46 62 128 62q41 0 75 -13l-25 -116
q-21 8 -37 8q-28 0 -49 -27q-14 -16 -35 -58.5t-45.5 -76t-56.5 -47.5v-2q36 -13 55 -76l78 -258h-150l-52 214q-6 27 -16.5 41.5t-18 17t-18.5 2.5h-76l-60 -275h-133l60 275h-81q-19 0 -35.5 -12.5t-37.5 -49.5l-118 -213h-152z" />
    <glyph glyph-name="afii10025" unicode="&#x417;" horiz-adv-x="559" 
d="M212 -10q-121 0 -203 45l25 111q81 -42 168 -42q60 0 98 23.5t38 75.5q0 78 -140 78q-43 0 -71 -1l24 108q24 -1 62 -1q158 0 158 95q0 34 -28 52t-79 18q-76 0 -151 -33l-22 103q103 44 201 44q94 0 156 -44t62 -120q0 -60 -35 -103t-100 -64v-2q105 -38 105 -141
q0 -92 -70.5 -147t-197.5 -55z" />
    <glyph glyph-name="afii10026" unicode="&#x418;" horiz-adv-x="751" 
d="M5 0l144 659h137l-80 -364q-6 -33 -19 -80h2q11 12 102 111l315 333h140l-144 -659h-138l81 374q5 23 17 69h-2q-29 -35 -97 -106l-321 -337h-137z" />
    <glyph glyph-name="afii10027" unicode="&#x419;" horiz-adv-x="751" 
d="M5 0l144 659h137l-80 -364q-6 -33 -19 -80h2q11 12 102 111l315 333h140l-144 -659h-138l81 374q5 23 17 69h-2q-29 -35 -97 -106l-321 -337h-137zM275 836l103 23q10 -80 70 -80q68 0 123 106l95 -44q-43 -85 -96.5 -123t-128.5 -38q-69 0 -114 40t-52 116z" />
    <glyph glyph-name="afii10028" unicode="&#x41a;" horiz-adv-x="649" 
d="M5 0l144 659h137l-59 -270h63q40 0 65.5 34.5t51 94.5t49.5 90q48 58 125 58q40 0 79 -13l-25 -117q-22 8 -38 8q-26 0 -49 -26q-13 -16 -34 -61t-45.5 -78t-59.5 -45v-2q38 -13 55 -75l76 -257h-155l-47 214q-15 65 -43 65h-92l-61 -279h-137z" />
    <glyph glyph-name="afii10029" unicode="&#x41b;" horiz-adv-x="658" 
d="M-47 2l27 122q9 -2 23 -2q40 0 76 37q50 51 96 172.5t105 327.5h374l-144 -659h-138l120 549h-112q-60 -202 -106.5 -316.5t-100.5 -170.5q-64 -67 -162 -67q-31 0 -58 7z" />
    <glyph glyph-name="afii10030" unicode="&#x41c;" horiz-adv-x="829" 
d="M5 0l144 659h126l95 -236q40 -107 41 -110h2q27 41 73 97l196 249h143l-144 -659h-138l70 320q25 107 26 112h-2q-22 -32 -65 -84l-158 -199h-64l-80 196q-21 50 -32 87h-4q-2 -15 -31 -159l-60 -273h-138z" />
    <glyph glyph-name="afii10031" unicode="&#x41d;" horiz-adv-x="730" 
d="M5 0l144 659h138l-58 -266h301l58 266h137l-143 -659h-138l60 277h-301l-60 -277h-138z" />
    <glyph glyph-name="afii10032" unicode="&#x41e;" horiz-adv-x="748" 
d="M323 -10q-128 0 -202.5 73t-74.5 200q0 171 105.5 287t271.5 116q128 0 203 -73t75 -200q0 -170 -105.5 -286.5t-272.5 -116.5zM334 104q96 0 159 86.5t63 197.5q0 79 -37.5 121.5t-105.5 42.5q-96 0 -159.5 -86.5t-63.5 -197.5q0 -79 37.5 -121.5t106.5 -42.5z" />
    <glyph glyph-name="afii10033" unicode="&#x41f;" horiz-adv-x="700" 
d="M4 0l145 659h546l-144 -659h-138l119 543h-271l-119 -543h-138z" />
    <glyph glyph-name="afii10034" unicode="&#x420;" horiz-adv-x="558" 
d="M5 0l144 659h145q76 0 122 -20q53 -22 83 -65.5t30 -103.5q0 -77 -38.5 -135.5t-114.5 -86.5q-68 -26 -157 -26h-28l-48 -222h-138zM216 332h24q52 0 86 20q65 32 65 110q0 56 -43 75q-26 12 -59 12h-27z" />
    <glyph glyph-name="afii10035" unicode="&#x421;" horiz-adv-x="614" 
d="M347 -10q-146 0 -223.5 80t-77.5 204q0 177 115 284.5t285 107.5q99 0 170 -32l-26 -115q-69 33 -144 33q-115 0 -185 -78.5t-70 -186.5q0 -82 45.5 -132.5t130.5 -50.5q72 0 145 34l25 -110q-83 -38 -190 -38z" />
    <glyph glyph-name="afii10036" unicode="&#x422;" horiz-adv-x="544" 
d="M130 0l119 544h-195l25 115h532l-50 -115h-174l-119 -544h-138z" />
    <glyph glyph-name="afii10037" unicode="&#x423;" horiz-adv-x="595" 
d="M27 3l26 109q22 -7 44 -7q36 0 63 21t56 69l-138 464h145l84 -329h2l199 329h150l-327 -513q-55 -86 -104 -120.5t-121 -34.5q-40 0 -79 12z" />
    <glyph glyph-name="afii10038" unicode="&#x424;" horiz-adv-x="774" 
d="M239 -18l20 95q-105 14 -160 66.5t-55 139.5q0 128 84.5 215t243.5 96l18 80h138l-19 -85q108 -14 164.5 -66.5t56.5 -140.5q0 -129 -86.5 -216.5t-248.5 -94.5l-19 -89h-137zM421 187q78 11 125 60.5t47 124.5q0 91 -108 106zM283 188l64 289q-76 -11 -121 -61t-45 -123
q0 -90 102 -105z" />
    <glyph glyph-name="afii10039" unicode="&#x425;" horiz-adv-x="613" 
d="M-61 0l288 340l-152 319h145l100 -213l180 213h160l-280 -331l159 -328h-146l-106 222l-189 -222h-159z" />
    <glyph glyph-name="afii10040" unicode="&#x426;" horiz-adv-x="724" 
d="M5 0l144 659h137l-118 -543h248l119 543h138l-118 -543h96l-67 -304h-135l41 188h-485z" />
    <glyph glyph-name="afii10041" unicode="&#x427;" horiz-adv-x="652" 
d="M366 0l56 262q-50 -9 -105 -9q-110 0 -165.5 46t-55.5 126q0 30 9 72l36 162h137l-34 -151q-9 -40 -9 -65q0 -40 27 -58t87 -18q49 0 99 10l62 282h137l-143 -659h-138z" />
    <glyph glyph-name="afii10042" unicode="&#x428;" horiz-adv-x="922" 
d="M5 0l144 659h137l-119 -543h178l119 543h138l-119 -543h177l119 543h138l-144 -659h-768z" />
    <glyph glyph-name="afii10043" unicode="&#x429;" horiz-adv-x="966" 
d="M5 0l144 659h137l-119 -543h177l119 543h138l-119 -543h177l119 543h137l-118 -543h96l-67 -304h-134l40 188h-727z" />
    <glyph glyph-name="afii10044" unicode="&#x42a;" horiz-adv-x="735" 
d="M163 0l119 549h-202l-8 110h372l-51 -236h22q103 0 155 -26q93 -47 93 -148q0 -118 -76.5 -183.5t-216.5 -65.5h-207zM325 112h53q69 0 109 31t40 94q0 43 -37 62q-25 13 -78 13h-43z" />
    <glyph glyph-name="afii10045" unicode="&#x42b;" horiz-adv-x="811" 
d="M5 0l144 659h136l-50 -236h15q102 0 154 -26q93 -46 93 -148q0 -118 -76.5 -183.5t-216.5 -65.5h-199zM167 112h45q70 0 110 31t40 94q0 43 -37 62q-26 13 -79 13h-35zM525 0l144 659h138l-144 -659h-138z" />
    <glyph glyph-name="afii10046" unicode="&#x42c;" horiz-adv-x="587" 
d="M5 0l144 659h137l-51 -236h32q104 0 154 -26q94 -46 94 -148q0 -118 -76.5 -183.5t-216.5 -65.5h-217zM167 112h62q70 0 110 31t40 94q0 43 -37 62q-25 13 -79 13h-52z" />
    <glyph glyph-name="afii10047" unicode="&#x42d;" horiz-adv-x="618" 
d="M14 34l24 113q84 -45 173 -45q82 0 137.5 47t73.5 129h-294l22 109h280q-3 78 -49.5 122.5t-124.5 44.5q-73 0 -147 -33l-22 103q100 42 198 42q135 0 210 -79.5t75 -210.5q0 -175 -97 -280.5t-263 -105.5q-113 0 -196 44z" />
    <glyph glyph-name="afii10048" unicode="&#x42e;" horiz-adv-x="1031" 
d="M5 0l144 659h137l-58 -266h141q36 123 128.5 198t219.5 75q121 0 194 -71.5t73 -193.5q0 -174 -102 -292.5t-265 -118.5q-121 0 -194 71t-73 194q0 15 1 23h-148l-61 -278h-137zM628 104q94 0 153 86.5t59 198.5q0 77 -35.5 120t-97.5 43q-95 0 -154 -86.5t-59 -199.5
q0 -77 35.5 -119.5t98.5 -42.5z" />
    <glyph glyph-name="afii10049" unicode="&#x42f;" horiz-adv-x="616" 
d="M-35 0l144 226q38 61 81 80v2q-39 19 -60.5 55.5t-21.5 79.5q0 98 73 157t184 59h246l-144 -659h-138l55 249h-82q-37 0 -75 -65l-108 -184h-154zM341 359h67l41 190h-77q-53 0 -88.5 -28.5t-35.5 -80.5q0 -38 24 -59.5t69 -21.5z" />
    <glyph glyph-name="afii10065" unicode="&#x430;" horiz-adv-x="499" 
d="M123 -10q-61 0 -97 35.5t-36 93.5q0 77 51 123q68 61 214 61l45 1q2 14 2 20q0 60 -80 60q-59 0 -134 -31l-18 95q89 37 179 37q35 0 65.5 -6t59.5 -21.5t46 -46.5t17 -75q0 -36 -16 -106l-14 -54q-14 -61 -14 -98q0 -34 9 -62l-116 -25q-13 34 -17 79q-26 -36 -65 -58
t-81 -22zM164 95q37 0 72.5 28.5t46.5 73.5l4 18h-27q-93 0 -125 -32q-18 -18 -18 -44q0 -44 47 -44z" />
    <glyph glyph-name="afii10066" unicode="&#x431;" horiz-adv-x="541" 
d="M226 -10q-93 0 -149.5 59t-56.5 175q0 104 36 211t85 156q35 35 82 54.5t90 28t185 32.5l22 -115q-23 -4 -58.5 -10.5t-52 -9.5t-42.5 -8t-37.5 -8t-29.5 -7.5t-27 -8.5t-20.5 -9t-19 -11t-14.5 -13q-41 -42 -66 -136h2q31 43 76 65t89 22q79 0 122.5 -53.5t43.5 -130.5
q0 -112 -74.5 -197.5t-185.5 -85.5zM233 97q53 0 85.5 48.5t32.5 114.5q0 94 -73 94q-55 0 -90 -51.5t-35 -116.5q0 -43 21 -66t59 -23z" />
    <glyph glyph-name="afii10067" unicode="&#x432;" horiz-adv-x="502" 
d="M-10 25l95 434q83 26 177 26q100 0 147.5 -35.5t46.5 -89.5q0 -46 -29.5 -76t-81.5 -42v-2q79 -23 79 -93q0 -72 -62 -114.5t-186 -42.5q-118 0 -186 35zM136 92q22 -8 55 -8q50 0 74.5 18.5t24.5 46.5q0 47 -75 47h-56zM177 282h43q101 0 103 63q0 46 -69 46
q-26 0 -55 -7z" />
    <glyph glyph-name="afii10068" unicode="&#x433;" horiz-adv-x="430" 
d="M170 -10q-81 0 -130 35.5t-49 101.5q0 48 27 81t65.5 49t77.5 28t66 27t27 36q0 33 -58 33q-51 0 -113 -22l-29 97q82 29 161 29q84 0 128.5 -36.5t44.5 -96.5q0 -47 -27 -80.5t-66 -50t-77.5 -28.5t-65.5 -26t-27 -34q0 -38 58 -38q69 0 131 33l39 -94q-86 -44 -183 -44
z" />
    <glyph glyph-name="afii10069" unicode="&#x434;" horiz-adv-x="527" 
d="M205 -10q-87 0 -142 53.5t-55 147.5q0 115 69.5 190.5t173.5 75.5q59 0 106 -21h2q-7 157 -143 157q-47 0 -98 -15l-24 110q58 20 127 20q132 0 200 -83t68 -223q0 -111 -30 -202.5t-95.5 -150.5t-158.5 -59zM214 97q57 0 93.5 65t47.5 168q-40 24 -86 24
q-59 0 -93.5 -51t-34.5 -115q0 -91 73 -91z" />
    <glyph glyph-name="afii10070" unicode="&#x435;" horiz-adv-x="496" 
d="M226 -10q-105 0 -161.5 56.5t-56.5 148.5q0 122 74.5 206t192.5 84q84 0 130.5 -43.5t46.5 -116.5q0 -52 -23 -123l-290 -4v-13q0 -43 28.5 -66.5t72.5 -23.5q60 0 129 33l36 -95q-82 -43 -179 -43zM154 288l163 3q7 17 7 35q0 26 -16.5 42t-44.5 16q-38 0 -68 -27.5
t-41 -68.5z" />
    <glyph glyph-name="afii10072" unicode="&#x436;" horiz-adv-x="778" 
d="M-45 5l30 110q13 -6 26 -6q19 0 31 15q7 8 27 39t41.5 53.5t49.5 30.5v2q-29 20 -38 55l-49 169h137l31 -137q10 -45 34 -45h42l38 182h130l-38 -182h35q28 0 48 25.5t41.5 68t40.5 62.5q32 37 91 37q39 0 67 -10l-27 -110q-12 6 -23 6q-16 0 -30 -15q-7 -9 -25 -37
t-37 -48.5t-42 -29.5v-2q28 -17 41 -59l57 -179h-136l-38 146q-13 45 -33 45h-48l-41 -191h-130l40 191h-43q-25 0 -45.5 -27.5t-45.5 -70.5t-49 -65q-37 -34 -98 -34q-37 0 -62 11z" />
    <glyph glyph-name="afii10073" unicode="&#x437;" horiz-adv-x="442" 
d="M145 -10q-95 0 -167 37l25 95q66 -32 134 -32q41 0 70.5 14t29.5 45q0 50 -103 50q-31 0 -62 -2l20 92q28 -2 68 -2q102 0 102 54q0 43 -74 43q-56 0 -113 -22l-27 91q75 32 164 32q80 0 129 -32t49 -95q0 -40 -25.5 -71t-65.5 -45v-2q68 -30 68 -96q0 -72 -61 -113
t-161 -41z" />
    <glyph glyph-name="afii10074" unicode="&#x438;" horiz-adv-x="541" 
d="M147 -10q-54 0 -89.5 33.5t-35.5 98.5q0 32 13 100l55 251h135l-60 -269q-7 -28 -7 -48q0 -52 44 -52q38 0 72 34t49 103l51 232h134l-65 -297q-13 -63 -13 -97q0 -33 9 -63l-116 -25q-13 40 -15 82h-2q-69 -83 -159 -83z" />
    <glyph glyph-name="afii10075" unicode="&#x439;" horiz-adv-x="541" 
d="M147 -10q-54 0 -89.5 33.5t-35.5 98.5q0 32 13 100l55 251h135l-60 -269q-7 -28 -7 -48q0 -52 44 -52q38 0 72 34t49 103l51 232h134l-65 -297q-13 -63 -13 -97q0 -33 9 -63l-116 -25q-13 40 -15 82h-2q-69 -83 -159 -83zM137 692l101 24q10 -81 67 -81q35 0 63.5 26
t56.5 80l91 -44q-45 -85 -94 -121.5t-123 -36.5q-69 0 -112 38.5t-50 114.5z" />
    <glyph glyph-name="afii10076" unicode="&#x43a;" horiz-adv-x="510" 
d="M-16 0l104 473h134l-40 -181h40q28 0 46 25t37.5 67.5t38.5 64.5q30 36 90 36q35 0 70 -11l-27 -110q-10 5 -25 5q-17 0 -30 -14q-8 -9 -25 -37.5t-34.5 -48.5t-40.5 -29v-2q28 -16 42 -59l55 -179h-137l-32 146q-10 45 -33 45h-57l-42 -191h-134z" />
    <glyph glyph-name="afii10077" unicode="&#x43b;" horiz-adv-x="565" 
d="M-55 5l28 110q12 -4 24 -4q32 0 50 30q13 22 33 76t45 108t57 91q62 69 179 69q73 0 145 -18l-62 -280q-12 -54 -12 -89q0 -38 15 -80l-129 -27q-21 46 -21 97q0 39 12 92l43 192q-4 1 -14 1q-39 0 -67 -38q-23 -34 -66 -145.5t-73 -147.5q-40 -47 -119 -47q-40 0 -68 10
z" />
    <glyph glyph-name="afii10078" unicode="&#x43c;" horiz-adv-x="679" 
d="M-55 2l27 111q12 -4 26 -4q36 0 58 39q34 61 83 325h104q49 -104 91 -228h2q19 28 60 75l130 153h127l-62 -286q-13 -59 -13 -96q0 -38 10 -73l-130 -27q-14 41 -14 89q0 61 33 184h-3l-55 -66l-86 -101h-56q-32 99 -62 170h-2q-19 -95 -37 -148.5t-51 -85.5
q-41 -40 -114 -40q-34 0 -66 9z" />
    <glyph glyph-name="afii10079" unicode="&#x43d;" horiz-adv-x="549" 
d="M-16 0l104 473h134l-36 -164h167l36 164h135l-104 -473h-135l42 191h-167l-42 -191h-134z" />
    <glyph glyph-name="afii10080" unicode="&#x43e;" horiz-adv-x="539" 
d="M220 -10q-99 0 -155.5 57t-56.5 149q0 123 77 206t192 83q99 0 155 -57t56 -149q0 -123 -76.5 -206t-191.5 -83zM223 97q53 0 92 52t39 128q0 49 -21.5 75t-59.5 26q-53 0 -92 -52t-39 -128q0 -49 21.5 -75t59.5 -26z" />
    <glyph glyph-name="afii10081" unicode="&#x43f;" horiz-adv-x="547" 
d="M-13 0l104 473h104l-3 -91h2q75 103 176 103q56 0 87.5 -30.5t31.5 -90.5q0 -28 -14 -97l-59 -267h-135l58 259q10 48 10 64q0 45 -41 45q-50 0 -92 -55q-37 -49 -56 -139l-39 -174h-134z" />
    <glyph glyph-name="afii10082" unicode="&#x440;" horiz-adv-x="540" 
d="M-65 -237l152 696q83 26 160 26q118 0 180 -55.5t62 -150.5q0 -128 -77.5 -208.5t-194.5 -80.5q-50 0 -95 16l-53 -243h-134zM146 112q28 -12 60 -12q66 0 107.5 48.5t41.5 117.5q0 55 -31 82t-80 27q-22 0 -42 -5z" />
    <glyph glyph-name="afii10083" unicode="&#x441;" horiz-adv-x="450" 
d="M232 -10q-111 0 -167.5 58t-56.5 149q0 120 77 204t211 84q77 0 134 -27l-25 -107q-57 27 -106 27q-65 0 -111 -47t-46 -124q0 -53 27.5 -81.5t79.5 -28.5q56 0 110 31l36 -94q-27 -18 -74.5 -31t-88.5 -13z" />
    <glyph glyph-name="afii10084" unicode="&#x442;" horiz-adv-x="824" 
d="M-16 0l104 473h104l-3 -91h2q32 43 79 73t98 30q104 0 106 -105h2q33 44 81.5 74.5t100.5 30.5q51 0 81 -26.5t31 -76.5q0 -42 -15 -106l-60 -276h-135l62 281q7 28 7 48q0 39 -34 39q-48 0 -93 -57q-37 -49 -56 -133l-40 -178h-134l62 281q7 28 7 49q0 38 -35 38
q-48 0 -93 -58q-38 -50 -55 -132l-40 -178h-134z" />
    <glyph glyph-name="afii10085" unicode="&#x443;" horiz-adv-x="505" 
d="M-120 -213l48 99q33 -16 66 -16q81 0 153 136l-113 467h130l41 -194q15 -72 28 -137h2q30 70 57 124l104 207h133l-254 -477q-68 -126 -130.5 -179.5t-158.5 -53.5q-66 0 -106 24z" />
    <glyph glyph-name="afii10086" unicode="&#x444;" horiz-adv-x="737" 
d="M70 -221l38 107q15 -7 35 -7q38 0 56 33q12 19 39 119l-2 1q-40 -43 -101 -43q-59 0 -93.5 45.5t-34.5 126.5q0 132 72 227.5t182 95.5q37 0 72 -11l11 57q39 178 186 178q49 0 85 -16l-37 -107q-17 7 -36 7q-28 0 -44 -17t-27 -56q-3 -10 -8.5 -38t-8.5 -38l2 -1
q40 43 101 43q59 0 93.5 -45.5t34.5 -126.5q0 -132 -72 -227.5t-182 -95.5q-33 0 -72 11q-15 -57 -22 -81.5t-25 -60.5t-41 -55q-46 -41 -118 -41q-47 0 -83 16zM192 99q28 0 49 25.5t28 61.5l40 184q-15 6 -39 6q-59 0 -93.5 -63t-35.5 -142q0 -72 51 -72zM422 98
q58 0 93 63t35 142q2 72 -50 72q-28 0 -49 -25t-29 -61l-39 -185q15 -6 39 -6z" />
    <glyph glyph-name="afii10087" unicode="&#x445;" horiz-adv-x="503" 
d="M-69 0l227 244l-136 229h137l84 -145l130 145h147l-220 -239l138 -234h-137l-87 150l-137 -150h-146z" />
    <glyph glyph-name="afii10088" unicode="&#x446;" horiz-adv-x="596" 
d="M147 -10q-54 0 -89.5 33.5t-35.5 98.5q0 39 13 100l55 251h134l-60 -269q-6 -30 -6 -48q0 -52 44 -52q38 0 71.5 33.5t49.5 102.5l51 233h134l-47 -214q-18 -85 -18 -115q0 -34 15.5 -42.5t67.5 -2.5l-57 -268h-118l33 167q-57 15 -71 80h-2q-70 -88 -164 -88z" />
    <glyph glyph-name="afii10089" unicode="&#x447;" horiz-adv-x="532" 
d="M268 0l25 112q10 49 18 77h-2q-57 -30 -128 -30q-65 0 -99 31.5t-34 85.5q0 32 12 84l25 113h135l-29 -125q-6 -27 -6 -40q0 -43 52 -43q38 0 66.5 14.5t31.5 29.5l37 164h135l-105 -473h-134z" />
    <glyph glyph-name="afii10090" unicode="&#x448;" horiz-adv-x="784" 
d="M133 -10q-52 0 -81.5 33t-29.5 96q0 42 13 103l55 251h134l-60 -269q-6 -34 -6 -50q0 -50 37 -50q36 0 65.5 40.5t42.5 98.5l50 230h134l-59 -269q-7 -30 -7 -51q0 -49 37 -49q36 0 65 39.5t42 97.5l51 232h135l-66 -297q-13 -63 -13 -97q0 -33 9 -63l-116 -25
q-13 39 -15 85h-2q-68 -86 -152 -86q-39 0 -68.5 21.5t-35.5 68.5h-2q-68 -90 -157 -90z" />
    <glyph glyph-name="afii10091" unicode="&#x449;" horiz-adv-x="839" 
d="M133 -10q-52 0 -81.5 33t-29.5 96q0 42 13 103l55 251h134l-60 -269q-6 -34 -6 -50q0 -50 37 -50q36 0 65.5 40.5t42.5 98.5l50 230h134l-59 -269q-7 -30 -7 -51q0 -49 37 -49q36 0 65 39.5t42 97.5l51 232h135l-47 -214q-18 -86 -18 -115q0 -34 15.5 -42.5t66.5 -2.5
l-56 -268h-119l34 167q-57 15 -72 78h-2q-70 -86 -157 -86q-39 0 -68.5 21.5t-35.5 68.5h-2q-68 -90 -157 -90z" />
    <glyph glyph-name="afii10092" unicode="&#x44a;" horiz-adv-x="628" 
d="M118 25l72 337h-144l-12 111h316l-37 -165q33 5 64 5q85 0 132.5 -38t47.5 -99q0 -86 -71 -136t-182 -50q-119 0 -186 35zM266 99q18 -7 53 -7q45 0 74 18.5t29 51.5q0 51 -83 51q-29 0 -49 -5z" />
    <glyph glyph-name="afii10093" unicode="&#x44b;" horiz-adv-x="712" 
d="M-4 25l98 448h134l-36 -165q27 5 56 5q82 0 129.5 -38t47.5 -99q0 -86 -68.5 -136t-184.5 -50q-106 0 -176 35zM144 99q20 -7 51 -7q43 0 69 18t26 52q0 51 -75 51q-27 0 -47 -5zM447 0l104 473h135l-104 -473h-135z" />
    <glyph glyph-name="afii10094" unicode="&#x44c;" horiz-adv-x="506" 
d="M-4 25l98 448h134l-36 -165q32 5 63 5q85 0 132.5 -38t47.5 -99q0 -86 -70.5 -136t-182.5 -50q-119 0 -186 35zM144 99q20 -7 54 -7q45 0 73.5 18.5t28.5 51.5q0 51 -82 51q-30 0 -50 -5z" />
    <glyph glyph-name="afii10095" unicode="&#x44d;" horiz-adv-x="471" 
d="M-2 26l24 96q54 -33 124 -33q111 0 140 106h-184l20 91h170q-11 98 -111 98q-43 0 -102 -26l-27 90q67 37 147 37q107 0 163.5 -61.5t56.5 -164.5q0 -121 -71 -195t-193 -74q-87 0 -157 36z" />
    <glyph glyph-name="afii10096" unicode="&#x44e;" horiz-adv-x="764" 
d="M-16 0l104 473h134l-37 -169h85q29 82 93.5 131.5t148.5 49.5q92 0 147 -54t55 -145q0 -126 -74.5 -211t-187.5 -85q-84 0 -136.5 45t-62.5 123v28h-94l-41 -186h-134zM460 97q51 0 85.5 53.5t34.5 133.5q0 94 -76 94q-51 0 -85.5 -53.5t-34.5 -133.5q0 -94 76 -94z" />
    <glyph glyph-name="afii10097" unicode="&#x44f;" horiz-adv-x="500" 
d="M-46 5l30 111q13 -6 27 -6q15 0 29 15q6 7 19 27.5t26.5 35.5t29.5 23v2q-62 29 -62 104t60 121.5t166 46.5q94 0 196 -31l-100 -454h-133l36 163h-45q-23 0 -38 -20.5t-33.5 -56t-43.5 -57.5q-36 -34 -102 -34q-35 0 -62 10zM243 257h55l28 125q-29 8 -54 8
q-41 0 -65 -23t-24 -57q0 -24 14.5 -38.5t45.5 -14.5z" />
    <glyph glyph-name="uni0450" unicode="&#x450;" horiz-adv-x="496" 
d="M226 -10q-105 0 -161.5 56.5t-56.5 148.5q0 122 74.5 206t192.5 84q84 0 130.5 -43.5t46.5 -116.5q0 -52 -23 -123l-290 -4v-13q0 -43 28.5 -66.5t72.5 -23.5q60 0 129 33l36 -95q-82 -43 -179 -43zM154 288l163 3q7 17 7 35q0 26 -16.5 42t-44.5 16q-38 0 -68 -27.5
t-41 -68.5zM259 531l-92 147h145l48 -147h-101z" />
    <glyph glyph-name="afii10071" unicode="&#x451;" horiz-adv-x="496" 
d="M226 -10q-105 0 -161.5 56.5t-56.5 148.5q0 122 74.5 206t192.5 84q84 0 130.5 -43.5t46.5 -116.5q0 -52 -23 -123l-290 -4v-13q0 -43 28.5 -66.5t72.5 -23.5q60 0 129 33l36 -95q-82 -43 -179 -43zM154 288l163 3q7 17 7 35q0 26 -16.5 42t-44.5 16q-38 0 -68 -27.5
t-41 -68.5zM200 538q-26 0 -42 15.5t-16 41.5q0 33 20 55t50 22q26 0 42.5 -15.5t16.5 -40.5q0 -33 -20.5 -55.5t-50.5 -22.5zM394 538q-26 0 -42 15.5t-16 41.5q0 33 20 55t50 22q26 0 42.5 -15.5t16.5 -40.5q0 -33 -20.5 -55.5t-50.5 -22.5z" />
    <glyph glyph-name="afii10099" unicode="&#x452;" horiz-adv-x="558" 
d="M-16 0l118 539h-53l25 101h51l15 68h134l-15 -68h134l-24 -101h-134l-18 -89q-9 -45 -27 -88h2q70 103 165 103q68 0 103 -55.5t35 -138.5q0 -142 -75 -266t-212 -167l-43 105q85 28 138 118t53 194q0 93 -59 93q-45 0 -88 -57q-38 -49 -58 -139l-33 -152h-134z" />
    <glyph glyph-name="afii10100" unicode="&#x453;" horiz-adv-x="430" 
d="M187 531l75 147h145l-120 -147h-100zM170 -10q-81 0 -130 35.5t-49 101.5q0 48 27 81t65.5 49t77.5 28t66 27t27 36q0 33 -58 33q-51 0 -113 -22l-29 97q82 29 161 29q84 0 128.5 -36.5t44.5 -96.5q0 -47 -27 -80.5t-66 -50t-77.5 -28.5t-65.5 -26t-27 -34q0 -38 58 -38
q69 0 131 33l39 -94q-86 -44 -183 -44z" />
    <glyph glyph-name="afii10101" unicode="&#x454;" horiz-adv-x="462" 
d="M230 -10q-108 0 -165 58t-57 153q0 120 72.5 202t206.5 82q75 0 132 -27l-25 -101q-46 27 -100 27q-51 0 -89 -26.5t-54 -71.5h190l-19 -91h-183v-7q1 -45 27.5 -72t75.5 -27q52 0 106 30l37 -87q-63 -42 -155 -42z" />
    <glyph glyph-name="afii10102" unicode="&#x455;" horiz-adv-x="391" 
d="M-37 37l42 96q66 -38 125 -38q66 0 66 40q0 16 -17 30.5t-41 28t-47.5 30.5t-40.5 47t-17 68q0 63 46.5 104.5t132.5 41.5q82 0 149 -28l-21 -106q-66 30 -121 30q-51 0 -51 -38q0 -21 25.5 -41.5t55.5 -36t55.5 -49.5t25.5 -79q0 -70 -53 -108.5t-138 -38.5
q-97 0 -176 47z" />
    <glyph glyph-name="afii10103" unicode="&#x456;" horiz-adv-x="249" 
d="M-16 0l104 473h134l-104 -473h-134zM177 540q-34 0 -55 20.5t-21 50.5q0 39 26 62.5t61 23.5q34 0 55 -20t21 -50q0 -39 -26 -63t-61 -24z" />
    <glyph glyph-name="afii10104" unicode="&#x457;" horiz-adv-x="249" 
d="M72 538q-26 0 -42 15.5t-16 41.5q0 33 20 55t50 22q26 0 42.5 -15.5t16.5 -40.5q0 -33 -20.5 -55.5t-50.5 -22.5zM266 538q-26 0 -42 15.5t-16 41.5q0 33 20 55t50 22q26 0 42.5 -15.5t16.5 -40.5q0 -33 -20.5 -55.5t-50.5 -22.5zM-16 0l104 473h134l-104 -473h-134z" />
    <glyph glyph-name="afii10105" unicode="&#x458;" horiz-adv-x="260" 
d="M-185 -219l41 108q27 -10 51 -10q63 0 79 82l113 512h134l-119 -543q-37 -167 -196 -167q-61 0 -103 18zM188 540q-34 0 -55 20.5t-21 50.5q0 39 26 62.5t62 23.5q34 0 54.5 -20t20.5 -50q0 -39 -26 -63t-61 -24z" />
    <glyph glyph-name="afii10106" unicode="&#x459;" horiz-adv-x="770" 
d="M-55 5l28 110q12 -4 24 -4q32 0 50 30q13 22 33 76t45 108t57 91q62 69 179 69q68 0 142 -18l-35 -159q24 4 53 4q83 0 130.5 -37.5t47.5 -98.5q0 -87 -66.5 -136.5t-183.5 -49.5q-107 0 -174 35l76 347q-4 1 -13 1q-39 0 -67 -38q-23 -34 -66 -145.5t-73 -147.5
q-40 -47 -119 -47q-40 0 -68 10zM420 99q20 -7 51 -7q42 0 68.5 19.5t26.5 52.5q0 49 -74 49q-29 0 -47 -5z" />
    <glyph glyph-name="afii10107" unicode="&#x45a;" horiz-adv-x="782" 
d="M-16 0l104 473h134l-36 -164h159l36 164h135l-36 -165q36 4 52 4q84 0 131.5 -37.5t47.5 -98.5q0 -87 -67.5 -136.5t-184.5 -49.5q-108 0 -175 35l36 166h-160l-42 -191h-134zM432 99q20 -7 51 -7q42 0 68.5 19.5t26.5 52.5q0 49 -75 49q-27 0 -47 -5z" />
    <glyph glyph-name="afii10108" unicode="&#x45b;" horiz-adv-x="544" 
d="M-16 0l118 539h-54l25 101h52l15 68h134l-15 -68h123l-24 -101h-122l-19 -89q-9 -45 -27 -88h2q70 103 169 103q57 0 90.5 -29.5t33.5 -87.5q0 -26 -16 -101l-55 -247h-135l53 239q10 49 10 65q0 44 -42 44q-47 0 -91 -56q-38 -52 -59 -144l-32 -148h-134z" />
    <glyph glyph-name="afii10109" unicode="&#x45c;" horiz-adv-x="510" 
d="M249 531l75 147h145l-120 -147h-100zM-16 0l104 473h134l-40 -181h40q28 0 46 25t37.5 67.5t38.5 64.5q30 36 90 36q35 0 70 -11l-27 -110q-10 5 -25 5q-17 0 -30 -14q-8 -9 -25 -37.5t-34.5 -48.5t-40.5 -29v-2q28 -16 42 -59l55 -179h-137l-32 146q-10 45 -33 45h-57
l-42 -191h-134z" />
    <glyph glyph-name="uni045D" unicode="&#x45d;" horiz-adv-x="541" 
d="M147 -10q-54 0 -89.5 33.5t-35.5 98.5q0 32 13 100l55 251h135l-60 -269q-7 -28 -7 -48q0 -52 44 -52q38 0 72 34t49 103l51 232h134l-65 -297q-13 -63 -13 -97q0 -33 9 -63l-116 -25q-13 40 -15 82h-2q-69 -83 -159 -83zM264 531l-92 147h145l48 -147h-101z" />
    <glyph glyph-name="afii10110" unicode="&#x45e;" horiz-adv-x="505" 
d="M-120 -213l48 99q33 -16 66 -16q81 0 153 136l-113 467h130l41 -194q15 -72 28 -137h2q30 70 57 124l104 207h133l-254 -477q-68 -126 -130.5 -179.5t-158.5 -53.5q-66 0 -106 24zM119 692l101 24q10 -81 67 -81q35 0 63.5 26t56.5 80l91 -44q-45 -85 -94 -121.5
t-123 -36.5q-69 0 -112 38.5t-50 114.5z" />
    <glyph glyph-name="afii10193" unicode="&#x45f;" horiz-adv-x="541" 
d="M101 -210l56 164h100l-33 -164h-123zM147 -10q-54 0 -89.5 33.5t-35.5 98.5q0 39 13 100l55 251h134l-60 -269q-6 -30 -6 -48q0 -52 43 -52q39 0 73 34t49 103l51 232h134l-65 -297q-13 -63 -13 -97q0 -33 9 -63l-116 -25q-14 36 -16 82h-2q-68 -83 -158 -83z" />
    <glyph glyph-name="afii10146" unicode="&#x462;" horiz-adv-x="645" 
d="M63 0l110 507h-127l24 110h127l19 83h138l-18 -83h168l-43 -110h-149l-23 -104h48q98 0 149 -27q87 -44 87 -143q0 -106 -78 -169.5t-215 -63.5h-217zM225 112h63q80 0 114.5 34t34.5 77t-33 57q-25 12 -83 12h-56z" />
    <glyph glyph-name="afii10194" unicode="&#x463;" horiz-adv-x="559" 
d="M49 25l77 350h-128l22 98h126l31 136h134l-30 -136h162l-40 -98h-144l-17 -80q36 6 69 6q86 0 131.5 -36t45.5 -96q0 -82 -70.5 -130.5t-182.5 -48.5q-113 0 -186 35zM196 95q22 -8 55 -8q45 0 73.5 18t28.5 51q0 49 -79 49q-27 0 -55 -6z" />
    <glyph glyph-name="afii10147" unicode="&#x472;" horiz-adv-x="757" 
d="M326 -10q-133 0 -207 71t-74 196q0 175 105 292t279 117q133 0 207.5 -71t74.5 -196q0 -176 -105 -292.5t-280 -116.5zM336 102q81 0 137 48.5t79 127.5h-363q-1 -10 -1 -25q0 -72 37 -111.5t111 -39.5zM208 393h359v9q0 73 -36.5 112.5t-110.5 39.5q-78 0 -132.5 -44
t-79.5 -117z" />
    <glyph glyph-name="afii10195" unicode="&#x473;" horiz-adv-x="541" 
d="M220 -10q-101 0 -156.5 55t-54.5 151q0 129 75.5 209t192.5 80q101 0 157 -55t55 -151q-1 -129 -76.5 -209t-192.5 -80zM224 92q41 0 73 27.5t47 75.5h-202q-1 -5 -1 -15q0 -88 83 -88zM154 284h202v11q0 88 -82 88q-41 0 -73 -26.5t-47 -72.5z" />
    <glyph glyph-name="afii10148" unicode="&#x474;" horiz-adv-x="683" 
d="M211 -5l-124 664h143l54 -328q13 -74 19 -148h2q85 233 143 341q42 77 88.5 109.5t114.5 32.5q41 0 86 -13l-25 -119q-15 7 -39 7q-33 0 -58 -24t-53 -74q-77 -138 -204 -448h-147z" />
    <glyph glyph-name="afii10196" unicode="&#x475;" horiz-adv-x="503" 
d="M135 -3l-98 476h131l25 -167q12 -83 18 -141h2q49 171 92 239q51 81 140 81q44 0 79 -13l-26 -108q-14 6 -32 6q-39 0 -74 -65q-51 -89 -135 -308h-122z" />
    <glyph glyph-name="afii10050" unicode="&#x490;" horiz-adv-x="530" 
d="M5 0l144 659h288l31 143l133 37l-61 -290h-278l-120 -549h-137z" />
    <glyph glyph-name="afii10098" unicode="&#x491;" horiz-adv-x="430" 
d="M-16 0l104 473h230l32 134l125 35l-63 -286h-216l-78 -356h-134z" />
    <glyph glyph-name="Wgrave" unicode="&#x1e80;" horiz-adv-x="908" 
d="M171 -5l-95 664h146l37 -319q11 -99 14 -145h2q26 64 59 129l115 223l-18 112h133l41 -321q12 -84 17 -143h2q17 54 53 132l149 332h147l-328 -664h-116l-36 242q-14 85 -18 124h-2q-15 -39 -57 -120l-131 -246h-114zM481 696l-92 147h145l48 -147h-101z" />
    <glyph glyph-name="wgrave" unicode="&#x1e81;" horiz-adv-x="721" 
d="M112 -3l-77 476h127l23 -179q9 -73 13 -122h2q21 50 50 109l97 192h85l24 -168q11 -66 16 -133h2q8 22 50 115l86 186h137l-253 -476h-95l-27 181q-12 86 -15 107h-2q-19 -44 -56 -109l-95 -179h-92zM366 531l-92 147h145l48 -147h-101z" />
    <glyph glyph-name="Wacute" unicode="&#x1e82;" horiz-adv-x="908" 
d="M171 -5l-95 664h146l37 -319q11 -99 14 -145h2q26 64 59 129l115 223l-18 112h133l41 -321q12 -84 17 -143h2q17 54 53 132l149 332h147l-328 -664h-116l-36 242q-14 85 -18 124h-2q-15 -39 -57 -120l-131 -246h-114zM470 696l75 147h145l-120 -147h-100z" />
    <glyph glyph-name="wacute" unicode="&#x1e83;" horiz-adv-x="721" 
d="M112 -3l-77 476h127l23 -179q9 -73 13 -122h2q21 50 50 109l97 192h85l24 -168q11 -66 16 -133h2q8 22 50 115l86 186h137l-253 -476h-95l-27 181q-12 86 -15 107h-2q-19 -44 -56 -109l-95 -179h-92zM338 531l75 147h145l-120 -147h-100z" />
    <glyph glyph-name="Wdieresis" unicode="&#x1e84;" horiz-adv-x="908" 
d="M171 -5l-95 664h146l37 -319q11 -99 14 -145h2q26 64 59 129l115 223l-18 112h133l41 -321q12 -84 17 -143h2q17 54 53 132l149 332h147l-328 -664h-116l-36 242q-14 85 -18 124h-2q-15 -39 -57 -120l-131 -246h-114zM438 699q-26 0 -42 15.5t-16 41.5q0 33 20.5 55
t49.5 22q26 0 42.5 -15.5t16.5 -41.5q0 -33 -20.5 -55t-50.5 -22zM632 699q-26 0 -42 15.5t-16 41.5q0 33 20.5 55t49.5 22q26 0 42.5 -15.5t16.5 -41.5q0 -33 -20.5 -55t-50.5 -22z" />
    <glyph glyph-name="wdieresis" unicode="&#x1e85;" horiz-adv-x="721" 
d="M112 -3l-77 476h127l23 -179q9 -73 13 -122h2q21 50 50 109l97 192h85l24 -168q11 -66 16 -133h2q8 22 50 115l86 186h137l-253 -476h-95l-27 181q-12 86 -15 107h-2q-19 -44 -56 -109l-95 -179h-92zM307 538q-26 0 -42 15.5t-16 41.5q0 33 20 55t50 22q26 0 42.5 -15.5
t16.5 -40.5q0 -33 -20.5 -55.5t-50.5 -22.5zM501 538q-26 0 -42 15.5t-16 41.5q0 33 20 55t50 22q26 0 42.5 -15.5t16.5 -40.5q0 -33 -20.5 -55.5t-50.5 -22.5z" />
    <glyph glyph-name="Ygrave" unicode="&#x1ef2;" horiz-adv-x="577" 
d="M171 0l56 259l-152 400h140l97 -280h2l175 280h153l-279 -408l-55 -251h-137zM321 696l-92 147h145l48 -147h-101z" />
    <glyph glyph-name="ygrave" unicode="&#x1ef3;" horiz-adv-x="504" 
d="M-121 -213l48 99q33 -16 66 -16q81 0 153 136l-113 467h130l41 -194q15 -72 28 -137h2q30 70 57 124l104 207h133l-254 -477q-68 -126 -130.5 -179.5t-158.5 -53.5q-66 0 -106 24zM253 531l-92 147h145l48 -147h-101z" />
    <glyph glyph-name="endash" unicode="&#x2013;" horiz-adv-x="450" 
d="M0 202v97h450v-97h-450z" />
    <glyph glyph-name="emdash" unicode="&#x2014;" horiz-adv-x="800" 
d="M0 202v97h800v-97h-800z" />
    <glyph glyph-name="quoteleft" unicode="&#x2018;" horiz-adv-x="211" 
d="M103 429q-17 53 -17 97q0 97 65 191l83 -26q-28 -63 -28 -126q0 -43 15 -100z" />
    <glyph glyph-name="quoteright" unicode="&#x2019;" horiz-adv-x="213" 
d="M79 455q28 66 28 126q0 38 -16 100l118 36q17 -48 17 -97q0 -101 -65 -191z" />
    <glyph glyph-name="quotesinglbase" unicode="&#x201a;" horiz-adv-x="213" 
d="M-43 -143q28 66 28 126q0 38 -16 100l118 36q17 -48 17 -97q0 -101 -65 -191z" />
    <glyph glyph-name="quotedblleft" unicode="&#x201c;" horiz-adv-x="429" 
d="M103 429q-17 53 -17 97q0 97 65 191l83 -26q-28 -63 -28 -126q0 -43 15 -100zM321 429q-17 53 -17 97q0 97 65 191l83 -26q-28 -66 -28 -126q0 -43 15 -100z" />
    <glyph glyph-name="quotedblright" unicode="&#x201d;" horiz-adv-x="431" 
d="M380 429l-83 26q28 66 28 126q0 38 -16 100l118 36q17 -48 17 -97q0 -100 -64 -191zM161 429l-82 26q28 66 28 126q0 38 -16 100l118 36q17 -48 17 -97q0 -101 -65 -191z" />
    <glyph glyph-name="quotedblbase" unicode="&#x201e;" horiz-adv-x="431" 
d="M258 -169l-83 26q28 66 28 126q0 38 -16 100l118 36q17 -48 17 -97q0 -100 -64 -191zM39 -169l-82 26q28 66 28 126q0 38 -16 100l118 36q17 -48 17 -97q0 -101 -65 -191z" />
    <glyph glyph-name="dagger" unicode="&#x2020;" horiz-adv-x="503" 
d="M98 -51l27 128q19 91 44.5 188.5t28.5 111.5q-15 0 -74 -7t-83 -6l28 136q23 -1 78 -9t72 -9q5 20 11.5 78t11.5 80h137q-5 -20 -24 -78.5t-23 -79.5q8 0 70 7.5t87 6.5l-29 -135q-23 1 -77.5 8.5t-71.5 7.5q-7 -26 -19.5 -101.5t-25.5 -135.5l-40 -191h-128z" />
    <glyph glyph-name="daggerdbl" unicode="&#x2021;" horiz-adv-x="502" 
d="M96 -51q4 24 22.5 82t22.5 76q-8 0 -70 -7.5t-87 -6.5l28 135q23 -1 77.5 -8t72.5 -8q2 8 6.5 36t9.5 47q4 16 11 43.5t9 38.5q-15 0 -74 -7t-83 -6l28 136q23 -1 78 -9t72 -9q5 21 11.5 79.5t10.5 78.5h136q-4 -21 -23 -79t-23 -79q8 0 70 7.5t87 6.5l-29 -135
q-23 1 -77.5 8t-71.5 8q-3 -12 -7 -38t-7 -39q-4 -24 -12.5 -54t-9.5 -34q15 0 74 7t83 6l-28 -136q-23 1 -78 9t-72 9q-4 -17 -8 -45t-7.5 -63.5t-5.5 -49.5h-136z" />
    <glyph glyph-name="bullet" unicode="&#x2022;" horiz-adv-x="345" 
d="M167 187q-53 0 -89.5 38t-36.5 92q0 56 36 94t90 38t90.5 -38t36.5 -94q0 -54 -36.5 -92t-90.5 -38z" />
    <glyph glyph-name="ellipsis" unicode="&#x2026;" horiz-adv-x="894" 
d="M86 -9q-28 0 -46.5 19t-18.5 48q0 35 23.5 59t57.5 24q28 0 46.5 -19.5t18.5 -48.5q0 -34 -23.5 -58t-57.5 -24zM385 -9q-28 0 -46.5 19t-18.5 48q0 35 23 59t57 24q29 0 47.5 -19.5t18.5 -48.5q0 -34 -23.5 -58t-57.5 -24zM686 -9q-28 0 -46.5 19t-18.5 48q0 35 23 59
t57 24q29 0 47.5 -19.5t18.5 -48.5q0 -34 -23.5 -58t-57.5 -24z" />
    <glyph glyph-name="perthousand" unicode="&#x2030;" horiz-adv-x="1282" 
d="M149 0l496 659h111l-496 -659h-111zM213 310q-71 0 -106.5 39.5t-35.5 101.5q0 91 51.5 153t142.5 62q71 0 106 -39.5t35 -102.5q0 -91 -51.5 -152.5t-141.5 -61.5zM223 389q39 0 59 46t20 92q0 60 -47 60q-39 0 -59 -46.5t-20 -92.5q0 -59 47 -59zM638 -10
q-70 0 -105.5 39.5t-35.5 101.5q0 91 51.5 153t141.5 62q71 0 106.5 -39.5t35.5 -102.5q0 -91 -51.5 -152.5t-142.5 -61.5zM648 69q39 0 59 46t20 92q0 60 -47 60q-27 0 -45.5 -26t-25.5 -56t-7 -57q0 -59 46 -59zM1017 -10q-71 0 -106.5 39.5t-35.5 101.5q0 91 51.5 153
t142.5 62q71 0 106.5 -39.5t35.5 -102.5q0 -91 -51.5 -152.5t-142.5 -61.5zM1027 69q39 0 59 46t20 92q0 60 -47 60q-39 0 -59 -46.5t-20 -92.5q0 -59 47 -59z" />
    <glyph glyph-name="guilsinglleft" unicode="&#x2039;" horiz-adv-x="335" 
d="M288 381l-138 -146l89 -149l-93 -54l-135 214l199 204z" />
    <glyph glyph-name="guilsinglright" unicode="&#x203a;" horiz-adv-x="335" 
d="M-7 101l138 146l-89 149l93 54l135 -214l-199 -204z" />
    <glyph glyph-name="fraction" unicode="&#x2044;" horiz-adv-x="184" 
d="M-210 0l496 659h111l-496 -659h-111z" />
    <glyph glyph-name="zerosuperior" unicode="&#x2070;" horiz-adv-x="393" 
d="M224 396q-71 0 -106 44t-35 113q0 106 52 176t138 70q71 0 106 -43.5t35 -112.5q0 -107 -52 -177t-138 -70zM228 481q36 0 56 59.5t20 110.5q0 64 -36 64q-35 0 -55 -59.5t-20 -110.5q0 -64 35 -64z" />
    <glyph glyph-name="foursuperior" unicode="&#x2074;" horiz-adv-x="393" 
d="M227 402l17 82h-158l-15 69l238 244h106l-52 -236h56l-16 -77h-56l-18 -82h-102zM260 559l7 29q13 54 22 82l-111 -112z" />
    <glyph glyph-name="fivesuperior" unicode="&#x2075;" horiz-adv-x="367" 
d="M50 419l31 79q43 -17 92 -17q78 0 78 51q0 25 -27 35q-18 5 -43 5h-72l45 219h262l-26 -88h-152l-13 -58h8q36 0 57 -8q72 -25 72 -97q0 -67 -51 -105.5t-139 -38.5q-64 0 -122 23z" />
    <glyph glyph-name="sixsuperior" unicode="&#x2076;" horiz-adv-x="385" 
d="M230 396q-67 0 -110 38.5t-43 111.5q0 109 66.5 181t168.5 72q60 0 104 -22l-29 -80q-39 18 -75 18q-35 0 -65.5 -20.5t-46.5 -53.5l2 -1q36 18 71 18q51 0 85 -31t34 -81q0 -70 -45.5 -110t-116.5 -40zM233 478q24 0 38.5 15t14.5 38q0 19 -12.5 32t-32.5 13
q-24 0 -39 -13.5t-15 -37.5q0 -20 12.5 -33.5t33.5 -13.5z" />
    <glyph glyph-name="sevensuperior" unicode="&#x2077;" horiz-adv-x="328" 
d="M77 402q50 167 173 301h-156l-12 88h303v-55q-134 -148 -187 -334h-121z" />
    <glyph glyph-name="eightsuperior" unicode="&#x2078;" horiz-adv-x="393" 
d="M228 396q-72 0 -112 27.5t-40 76.5q0 74 81 105v2q-43 33 -43 79q0 50 43 81.5t114 31.5q69 0 106.5 -28.5t37.5 -73.5q0 -63 -69 -93v-2q53 -24 53 -84q0 -58 -48 -90t-123 -32zM232 481q23 0 40 10t17 31q0 29 -53 46q-51 -20 -51 -50q0 -37 47 -37zM260 638
q45 14 45 47q0 16 -11 24t-27 8q-18 0 -30.5 -10t-12.5 -27q0 -31 36 -42z" />
    <glyph glyph-name="ninesuperior" unicode="&#x2079;" horiz-adv-x="383" 
d="M62 416l31 81q27 -16 72 -16q85 0 113 70l-2 1q-27 -15 -69 -15q-52 0 -87 30t-35 85q0 66 43.5 106.5t113.5 40.5t114 -40t44 -121q0 -107 -60.5 -174.5t-170.5 -67.5q-65 0 -107 20zM237 617q24 0 51 16q1 7 1 20q0 32 -14 48t-35 16q-22 0 -36 -15t-14 -38
q0 -47 47 -47z" />
    <glyph glyph-name="plussuperior" unicode="&#x207a;" horiz-adv-x="394" 
d="M204 434v122h-111v80h111v118h88v-118h110v-80h-110v-122h-88z" />
    <glyph glyph-name="minussuperior" unicode="&#x207b;" horiz-adv-x="394" 
d="M93 556v80h309v-80h-309z" />
    <glyph glyph-name="equalsuperior" unicode="&#x207c;" horiz-adv-x="394" 
d="M93 486v81h309v-81h-309zM93 625v81h309v-81h-309z" />
    <glyph glyph-name="parenleftsuperior" unicode="&#x207d;" horiz-adv-x="226" 
d="M136 356q-26 29 -43 77.5t-17 99.5q0 177 155 302l57 -58q-110 -108 -110 -241q0 -82 30 -132z" />
    <glyph glyph-name="parenrightsuperior" unicode="&#x207e;" horiz-adv-x="226" 
d="M82 356l-57 59q110 107 110 240q0 84 -30 132l72 48q26 -29 43 -77.5t17 -99.5q0 -176 -155 -302z" />
    <glyph glyph-name="n.superior" unicode="&#x207f;" horiz-adv-x="380" 
d="M21 270l73 332h78l-1 -56h1q54 65 120 65q40 0 63.5 -22t23.5 -66q0 -19 -7 -57l-43 -196h-102l43 199q3 17 3 28q0 25 -24 25t-54.5 -31t-45.5 -98l-26 -123h-102z" />
    <glyph glyph-name="zeroinferior" unicode="&#x2080;" horiz-adv-x="393" 
d="M110 -186q-71 0 -106 44t-35 113q0 106 52 176t138 70q71 0 106 -43.5t35 -112.5q0 -107 -52 -177t-138 -70zM114 -101q36 0 56 59.5t20 110.5q0 64 -36 64q-35 0 -55 -59.5t-20 -110.5q0 -64 35 -64z" />
    <glyph glyph-name="oneinferior" unicode="&#x2081;" horiz-adv-x="349" 
d="M52 -180l62 280q-52 -24 -122 -34v92q81 13 159 57h95l-87 -395h-107z" />
    <glyph glyph-name="twoinferior" unicode="&#x2082;" horiz-adv-x="365" 
d="M-64 -180q9 56 36 99.5t59 68t62.5 43t51 35t20.5 33.5q0 29 -43 29q-49 0 -109 -27l-19 84q76 32 148 32q65 0 100 -29t35 -76q0 -41 -27 -75t-59.5 -52t-64 -38.5t-37.5 -37.5h165l-18 -89h-300z" />
    <glyph glyph-name="threeinferior" unicode="&#x2083;" horiz-adv-x="361" 
d="M-57 -162l32 78q46 -17 96 -17q69 0 69 46q0 35 -62 35h-62l15 75h41q89 1 89 46q0 30 -48 30q-39 0 -89 -15l-19 77q68 24 133 24q66 0 100 -26.5t34 -66.5q0 -78 -85 -102v-2q28 -4 46 -23.5t18 -51.5q0 -61 -47 -96t-135 -35q-72 0 -126 24z" />
    <glyph glyph-name="fourinferior" unicode="&#x2084;" horiz-adv-x="393" 
d="M113 -180l17 82h-158l-15 69l238 244h106l-52 -236h56l-16 -77h-56l-18 -82h-102zM146 -23l7 29q13 54 22 82l-111 -112z" />
    <glyph glyph-name="fiveinferior" unicode="&#x2085;" horiz-adv-x="367" 
d="M-64 -163l31 79q43 -17 92 -17q78 0 78 51q0 25 -27 35q-18 5 -43 5h-72l45 219h262l-26 -88h-152l-13 -58h8q36 0 57 -8q72 -25 72 -97q0 -67 -51 -105.5t-139 -38.5q-65 0 -122 23z" />
    <glyph glyph-name="sixinferior" unicode="&#x2086;" horiz-adv-x="385" 
d="M115 -186q-67 0 -110 38.5t-43 111.5q0 109 66.5 181t168.5 72q60 0 104 -22l-29 -80q-39 18 -75 18q-35 0 -65.5 -20.5t-46.5 -53.5l2 -1q36 18 71 18q51 0 85 -31t34 -81q0 -70 -45.5 -110t-116.5 -40zM118 -104q24 0 38.5 15t14.5 38q0 19 -12.5 32t-32.5 13
q-24 0 -39 -13.5t-15 -37.5q0 -20 12.5 -33.5t33.5 -13.5z" />
    <glyph glyph-name="seveninferior" unicode="&#x2087;" horiz-adv-x="328" 
d="M-37 -180q50 167 173 301h-156l-12 88h303v-55q-134 -148 -187 -334h-121z" />
    <glyph glyph-name="eightinferior" unicode="&#x2088;" horiz-adv-x="393" 
d="M114 -186q-72 0 -112 27.5t-40 76.5q0 74 81 105v2q-43 33 -43 79q0 50 43 81.5t114 31.5q69 0 106.5 -28.5t37.5 -73.5q0 -63 -69 -93v-2q53 -24 53 -84q0 -58 -48 -90t-123 -32zM118 -101q23 0 40 10t17 31q0 29 -53 46q-51 -20 -51 -50q0 -37 47 -37zM146 56
q45 14 45 47q0 16 -11 24t-27 8q-18 0 -30.5 -10t-12.5 -27q0 -31 36 -42z" />
    <glyph glyph-name="nineinferior" unicode="&#x2089;" horiz-adv-x="383" 
d="M-52 -166l31 81q27 -16 72 -16q85 0 113 70l-2 1q-27 -15 -69 -15q-52 0 -87 30t-35 85q0 66 43.5 106.5t113.5 40.5t114 -40t44 -121q0 -107 -60.5 -174.5t-170.5 -67.5q-65 0 -107 20zM123 35q24 0 51 16q1 7 1 20q0 32 -14 48t-35 16q-22 0 -36 -15t-14 -38
q0 -47 47 -47z" />
    <glyph glyph-name="parenleftinferior" unicode="&#x208d;" horiz-adv-x="226" 
d="M23 -226q-26 29 -43 77.5t-17 99.5q0 177 155 302l57 -58q-110 -108 -110 -241q0 -82 30 -132z" />
    <glyph glyph-name="parenrightinferior" unicode="&#x208e;" horiz-adv-x="226" 
d="M-31 -226l-57 59q110 107 110 240q0 84 -30 132l72 48q26 -29 43 -77.5t17 -99.5q0 -176 -155 -302z" />
    <glyph glyph-name="Euro" unicode="&#x20ac;" horiz-adv-x="552" 
d="M28 207l9 82h57v3q0 41 7 75h-59l10 81h70q38 102 120 160t181 58q82 0 144 -32l-23 -116q-53 31 -113 31q-103 0 -157 -101h208l-25 -81h-212q-7 -47 -7 -69v-9h210l-25 -82h-177q19 -101 114 -101q53 0 110 29l24 -107q-64 -38 -153 -38q-102 0 -163.5 55.5
t-78.5 161.5h-71z" />
    <glyph glyph-name="afii61289" unicode="&#x2113;" horiz-adv-x="510" 
d="M249 -10q-81 0 -124.5 40t-43.5 115q0 11 1 17q-32 -9 -66 -18l-17 115q53 10 96 25l30 142q26 124 86.5 182t145.5 58q67 0 106.5 -36t39.5 -98q0 -103 -78 -185.5t-213 -139.5q-2 -16 -2 -23q0 -41 17 -58t52 -17q55 0 118 41l45 -105q-95 -55 -193 -55zM242 350
q59 35 94.5 82.5t35.5 94.5q0 33 -28 33q-55 0 -90 -157z" />
    <glyph glyph-name="afii61352" unicode="&#x2116;" horiz-adv-x="1055" 
d="M4 0l144 659h128l131 -336q16 -39 27 -83h2q6 53 15 93l71 326h137l-143 -659h-119l-139 349q-22 61 -27 82h-2q-4 -50 -14 -93l-73 -338h-138zM623 130l17 77h333l-18 -77h-332zM830 263q-64 0 -105.5 36.5t-41.5 101.5q0 91 53 150.5t139 59.5q63 0 104.5 -36.5
t41.5 -101.5q0 -91 -53 -150.5t-138 -59.5zM835 347q40 0 64 35.5t24 81.5q0 63 -53 63q-40 0 -64.5 -35.5t-24.5 -81.5q0 -63 54 -63z" />
    <glyph glyph-name="uni2117" unicode="&#x2117;" horiz-adv-x="767" 
d="M384 -10q-146 0 -238.5 95.5t-92.5 241.5t92.5 241.5t238.5 95.5t238.5 -96t92.5 -241t-92.5 -241t-238.5 -96zM384 56q111 0 183.5 76t72.5 195t-72.5 195t-183.5 76q-112 0 -184.5 -76t-72.5 -195t72.5 -195t184.5 -76zM354 130h-79v392h111q76 0 115.5 -35.5
t39.5 -99.5q0 -60 -39 -96.5t-113 -36.5h-35v-124zM354 325h38q37 0 53.5 18t16.5 44t-14.5 45.5t-48.5 19.5h-45v-127z" />
    <glyph glyph-name="trademark" unicode="&#x2122;" horiz-adv-x="880" 
d="M172 264v306h-112v89h349l-21 -89h-106v-306h-110zM431 264v395h94l81 -111q24 -35 44 -70h3q20 37 41 67l78 114h101v-395h-110v161q0 38 3 68h-2q-17 -31 -34 -54l-54 -77h-48l-54 77q-22 33 -33 54h-2q2 -20 2 -68v-161h-110z" />
    <glyph glyph-name="estimated" unicode="&#x212e;" horiz-adv-x="754" 
d="M376 -10q-146 0 -248.5 84.5t-102.5 226.5q0 143 103 226.5t252 83.5q86 0 154.5 -28t110.5 -74.5t63.5 -104t19.5 -119.5h-556v-160q32 -46 88 -71.5t121 -25.5q134 0 209 91h90q-103 -129 -304 -129zM172 324h414v152q-68 97 -206 97q-139 0 -208 -97v-152z" />
    <glyph glyph-name="onethird" unicode="&#x2153;" horiz-adv-x="971" 
d="M132 0l496 659h111l-496 -659h-111zM132 270l62 280q-52 -24 -122 -34v92q81 13 159 57h95l-87 -395h-107zM540 15l32 78q46 -17 96 -17q69 0 69 46q0 35 -62 35h-62l15 75h41q89 1 89 46q0 30 -48 30q-39 0 -89 -15l-19 77q68 24 133 24q66 0 100 -26.5t34 -66.5
q0 -78 -85 -102v-2q28 -4 46 -23.5t18 -51.5q0 -61 -47 -96t-135 -35q-72 0 -126 24z" />
    <glyph glyph-name="twothirds" unicode="&#x2154;" horiz-adv-x="971" 
d="M192 0l496 659h111l-496 -659h-111zM32 270q9 56 36 99.5t59 68t62.5 43t51 35t20.5 33.5q0 29 -43 29q-49 0 -109 -27l-19 84q76 32 148 32q65 0 100 -29t35 -76q0 -41 -27 -75t-59.5 -52t-64 -38.5t-37.5 -37.5h165l-18 -89h-300zM585 15l32 78q46 -17 96 -17
q69 0 69 46q0 35 -62 35h-62l15 75h41q89 1 89 46q0 30 -48 30q-39 0 -89 -15l-19 77q68 24 133 24q66 0 100 -26.5t34 -66.5q0 -78 -85 -102v-2q28 -4 46 -23.5t18 -51.5q0 -61 -47 -96t-135 -35q-72 0 -126 24z" />
    <glyph glyph-name="oneeighth" unicode="&#x215b;" horiz-adv-x="971" 
d="M120 0l496 659h111l-496 -659h-111zM132 270l62 280q-52 -24 -122 -34v92q81 13 159 57h95l-87 -395h-107zM669 -9q-72 0 -112 27.5t-40 76.5q0 74 81 105v2q-43 33 -43 79q0 50 43 81.5t114 31.5q69 0 106.5 -28.5t37.5 -73.5q0 -63 -69 -93v-2q53 -24 53 -84
q0 -58 -48 -90t-123 -32zM673 76q23 0 40 10t17 31q0 29 -53 46q-51 -20 -51 -50q0 -37 47 -37zM701 233q45 14 45 47q0 16 -11 24t-27 8q-18 0 -30.5 -10t-12.5 -27q0 -31 36 -42z" />
    <glyph glyph-name="threeeighths" unicode="&#x215c;" horiz-adv-x="971" 
d="M158 0l496 659h111l-496 -659h-111zM698 -9q-72 0 -112 27.5t-40 76.5q0 74 81 105v2q-43 33 -43 79q0 50 43 81.5t114 31.5q69 0 106.5 -28.5t37.5 -73.5q0 -63 -69 -93v-2q53 -24 53 -84q0 -58 -48 -90t-123 -32zM702 76q23 0 40 10t17 31q0 29 -53 46q-51 -20 -51 -50
q0 -37 47 -37zM730 233q45 14 45 47q0 16 -11 24t-27 8q-18 0 -30.5 -10t-12.5 -27q0 -31 36 -42zM40 287l32 78q46 -17 96 -17q69 0 69 46q0 35 -62 35h-62l15 75h41q89 1 89 46q0 30 -48 30q-39 0 -89 -15l-19 77q68 24 133 24q66 0 100 -26.5t34 -66.5q0 -78 -85 -102v-2
q28 -4 46 -23.5t18 -51.5q0 -61 -47 -96t-135 -35q-72 0 -126 24z" />
    <glyph glyph-name="fiveeighths" unicode="&#x215d;" horiz-adv-x="971" 
d="M161 0l496 659h111l-496 -659h-111zM44 286l31 79q43 -17 92 -17q78 0 78 51q0 25 -27 35q-18 5 -43 5h-72l45 219h262l-26 -88h-152l-13 -58h8q36 0 57 -8q72 -25 72 -97q0 -67 -51 -105.5t-139 -38.5q-64 0 -122 23zM699 -9q-72 0 -112 27.5t-40 76.5q0 74 81 105v2
q-43 33 -43 79q0 50 43 81.5t114 31.5q69 0 106.5 -28.5t37.5 -73.5q0 -63 -69 -93v-2q53 -24 53 -84q0 -58 -48 -90t-123 -32zM703 76q23 0 40 10t17 31q0 29 -53 46q-51 -20 -51 -50q0 -37 47 -37zM731 233q45 14 45 47q0 16 -11 24t-27 8q-18 0 -30.5 -10t-12.5 -27
q0 -31 36 -42z" />
    <glyph glyph-name="seveneighths" unicode="&#x215e;" horiz-adv-x="971" 
d="M128 0l496 659h111l-496 -659h-111zM682 -9q-72 0 -112 27.5t-40 76.5q0 74 81 105v2q-43 33 -43 79q0 50 43 81.5t114 31.5q69 0 106.5 -28.5t37.5 -73.5q0 -63 -69 -93v-2q53 -24 53 -84q0 -58 -48 -90t-123 -32zM686 76q23 0 40 10t17 31q0 29 -53 46q-51 -20 -51 -50
q0 -37 47 -37zM714 233q45 14 45 47q0 16 -11 24t-27 8q-18 0 -30.5 -10t-12.5 -27q0 -31 36 -42zM107 270q50 167 173 301h-156l-12 88h303v-55q-134 -148 -187 -334h-121z" />
    <glyph glyph-name="partialdiff" unicode="&#x2202;" horiz-adv-x="552" 
d="M219 -10q-92 0 -142.5 52.5t-48.5 140.5q3 118 75 187.5t173 69.5q52 0 102 -26l2 1q0 10 -2 24q-11 121 -124 121q-62 0 -128 -39l-43 92q92 53 189 53q105 0 173.5 -70.5t68.5 -201.5q0 -181 -80 -292.5t-215 -111.5zM235 97q57 0 92.5 57t47.5 152q-41 27 -85 27
q-56 0 -90.5 -39.5t-36.5 -94.5q-4 -45 14.5 -73.5t57.5 -28.5z" />
    <glyph glyph-name="Delta" unicode="&#x2206;" horiz-adv-x="642" 
d="M-47 0l360 662h117l126 -662h-603zM159 115h240l-44 283q-8 44 -11 80h-2q-11 -28 -37 -79z" />
    <glyph glyph-name="product" unicode="&#x220f;" horiz-adv-x="704" 
d="M1 -180l160 729h-88l24 110h681l-44 -110h-93l-160 -729h-138l160 729h-204l-160 -729h-138z" />
    <glyph glyph-name="summation" unicode="&#x2211;" horiz-adv-x="620" 
d="M-59 -181l338 434l-166 406h582l-56 -110h-323l123 -315l-239 -305h320l-24 -110h-555z" />
    <glyph glyph-name="minus" unicode="&#x2212;" horiz-adv-x="559" 
d="M34 194v111h470v-111h-470z" />
    <glyph glyph-name="radical" unicode="&#x221a;" horiz-adv-x="706" 
d="M200 -122l-43 403l-106 -29l-27 110l247 70l19 -230q7 -95 7 -165h2q21 57 64 149l304 641h146l-469 -949h-144z" />
    <glyph glyph-name="infinity" unicode="&#x221e;" horiz-adv-x="768" 
d="M208 93q-83 0 -130.5 52t-47.5 128t47.5 128.5t130.5 52.5q92 0 176 -97q82 97 176 97q83 0 130.5 -52.5t47.5 -128.5t-47.5 -128t-130.5 -52q-95 0 -176 96q-85 -96 -176 -96zM223 212q44 0 95 61q-52 61 -95 61q-25 0 -41.5 -17t-16.5 -44t16.5 -44t41.5 -17zM545 212
q25 0 41.5 17t16.5 44t-16.5 44t-41.5 17q-43 0 -95 -61q51 -61 95 -61z" />
    <glyph glyph-name="integral" unicode="&#x222b;" horiz-adv-x="343" 
d="M-159 -206l44 104q33 -20 65 -20t50 19.5t27 61.5l113 561q13 66 45 110q55 78 157 78q68 0 119 -32l-44 -104q-33 20 -65 20t-50 -19.5t-27 -61.5l-113 -561q-13 -66 -45 -110q-55 -78 -157 -78q-66 0 -119 32z" />
    <glyph glyph-name="approxequal" unicode="&#x2248;" horiz-adv-x="559" 
d="M84 62l-63 87q76 73 160 73q42 0 103 -28t95 -28q47 0 93 41l63 -87q-73 -72 -160 -72q-41 0 -103 27.5t-95 27.5q-47 0 -93 -41zM84 285l-63 86q74 73 160 73q42 0 103 -27.5t95 -27.5q46 0 93 40l63 -86q-73 -73 -160 -73q-41 0 -103 28t-95 28q-47 0 -93 -41z" />
    <glyph glyph-name="notequal" unicode="&#x2260;" horiz-adv-x="559" 
d="M94 -1l42 88h-92v111h146l49 101h-195v111h249l39 81h135l-39 -81h86v-111h-140l-49 -101h189v-111h-243l-42 -88h-135z" />
    <glyph glyph-name="lessequal" unicode="&#x2264;" horiz-adv-x="559" 
d="M42 0v111h470v-111h-470zM62 287v113l431 138v-111l-302 -83v-2l302 -83v-111z" />
    <glyph glyph-name="greaterequal" unicode="&#x2265;" horiz-adv-x="559" 
d="M41 0v111h470v-111h-470zM61 148v111l301 83v2l-301 83v111l430 -138v-113z" />
    <glyph glyph-name="lozenge" unicode="&#x25ca;" horiz-adv-x="468" 
d="M114 0l-80 289l190 289h116l80 -289l-190 -289h-116zM140 280l45 -176h2l127 194l-45 176h-2z" />
    <glyph glyph-name="Imacron" horiz-adv-x="289" 
d="M4 0l144 659h138l-144 -659h-138zM73 700l21 101h298l-21 -101h-298z" />
    <glyph glyph-name="ibreve" horiz-adv-x="250" 
d="M174 539q-66 0 -102 39t-29 107h89q-2 -30 11 -47t40 -17q26 0 45 17.5t27 46.5h95q-15 -70 -62 -108t-114 -38zM-14 0l104 473h134l-104 -473h-134z" />
    <glyph glyph-name="zero.numr" horiz-adv-x="393" 
d="M200 263q-71 0 -106 44t-35 113q0 106 52 176t138 70q71 0 106 -43.5t35 -112.5q0 -107 -52 -177t-138 -70zM204 348q36 0 56 59.5t20 110.5q0 64 -36 64q-35 0 -55 -60t-20 -110q0 -64 35 -64z" />
    <glyph glyph-name="Adieresis.small" horiz-adv-x="572" 
d="M-57 0l315 534h119l119 -534h-136l-18 100h-202l-57 -100h-140zM198 201h126l-15 85q-9 45 -13 89h-2q-7 -15 -41 -78zM228 571q-26 0 -42 15.5t-16 41.5q0 33 20 55t50 22q26 0 42.5 -15.5t16.5 -40.5q0 -33 -20.5 -55.5t-50.5 -22.5zM422 571q-26 0 -42 15.5t-16 41.5
q0 33 20 55t50 22q26 0 42.5 -15.5t16.5 -40.5q0 -33 -20.5 -55.5t-50.5 -22.5z" />
    <glyph glyph-name="Atilde.small" horiz-adv-x="572" 
d="M160 580q5 64 33.5 96.5t70.5 32.5q32 0 70.5 -21t51.5 -21q25 0 30 36h88q-5 -64 -33.5 -96.5t-70.5 -32.5q-32 0 -70.5 21t-51.5 21q-25 0 -30 -36h-88zM-57 0l315 534h119l119 -534h-136l-18 100h-202l-57 -100h-140zM198 201h126l-15 85q-9 45 -13 89h-2
q-7 -15 -41 -78z" />
    <glyph glyph-name="Acircumflex.small" horiz-adv-x="572" 
d="M-57 0l315 534h119l119 -534h-136l-18 100h-202l-57 -100h-140zM198 201h126l-15 85q-9 45 -13 89h-2q-7 -15 -41 -78zM168 566l121 147h98l86 -147h-99l-44 74l-57 -74h-105z" />
    <glyph glyph-name="Aacute.small" horiz-adv-x="572" 
d="M266 566l75 147h145l-120 -147h-100zM-57 0l315 534h119l119 -534h-136l-18 100h-202l-57 -100h-140zM198 201h126l-15 85q-9 45 -13 89h-2q-7 -15 -41 -78z" />
    <glyph glyph-name="Agrave.small" horiz-adv-x="572" 
d="M276 566l-92 147h145l48 -147h-101zM-57 0l315 534h119l119 -534h-136l-18 100h-202l-57 -100h-140zM198 201h126l-15 85q-9 45 -13 89h-2q-7 -15 -41 -78z" />
    <glyph glyph-name="Z.small" horiz-adv-x="506" 
d="M-20 0l306 422h-214l-9 108h446l-308 -422h237l-23 -108h-435z" />
    <glyph glyph-name="Y.small" horiz-adv-x="525" 
d="M135 0l44 199l-123 331h128l75 -227h2l152 227h138l-239 -338l-42 -192h-135z" />
    <glyph glyph-name="X.small" horiz-adv-x="576" 
d="M-49 0l253 278l-142 252h133l95 -170l149 170h146l-239 -267l149 -263h-135l-101 182l-162 -182h-146z" />
    <glyph glyph-name="W.small" horiz-adv-x="817" 
d="M140 -3l-87 533h129l33 -241q7 -53 13 -125h2q18 42 55 113l87 165l-14 88h116l36 -226q11 -73 17 -142h2q29 68 64 137l119 231h134l-289 -533h-112l-28 172q-7 39 -15 106h-2q-22 -52 -52 -105l-95 -173h-113z" />
    <glyph glyph-name="V.small" horiz-adv-x="540" 
d="M158 -3l-109 533h128l41 -237q16 -111 18 -136h2q16 41 64 131l134 242h136l-304 -533h-110z" />
    <glyph glyph-name="U.small" horiz-adv-x="633" 
d="M262 -10q-93 0 -157 41.5t-64 129.5q0 38 13 94l60 275h134l-66 -303q-7 -29 -7 -51q0 -39 25.5 -60t68.5 -21q67 0 102 46q21 28 31 72l69 317h134l-70 -320q-19 -88 -58 -137q-67 -83 -215 -83z" />
    <glyph glyph-name="T.small" horiz-adv-x="489" 
d="M111 0l93 422h-167l24 108h465l-41 -108h-147l-93 -422h-134z" />
    <glyph glyph-name="S.small" horiz-adv-x="478" 
d="M-7 35l43 96q74 -39 143 -39q82 0 82 61q0 23 -21 41t-50.5 32.5t-59 32.5t-50.5 49.5t-21 74.5q0 75 54.5 116t139.5 41q87 0 168 -30l-22 -103q-69 33 -136 33q-33 0 -50 -14t-17 -37q0 -21 20.5 -38t50 -31.5t59.5 -32.5t50.5 -50.5t20.5 -76.5q0 -77 -57 -123.5
t-160 -46.5q-100 0 -187 45z" />
    <glyph glyph-name="R.small" horiz-adv-x="529" 
d="M5 0l116 530h168q97 0 149 -38.5t52 -107.5q0 -61 -41 -105.5t-106 -64.5v-2q23 -23 57 -96l54 -116h-140l-42 99q-26 61 -47 82h-46l-40 -181h-134zM201 283h49q47 0 78 24t31 61q0 27 -19.5 43.5t-59.5 16.5h-47z" />
    <glyph glyph-name="Q.small" horiz-adv-x="635" 
d="M415 -155q-71 0 -127 32t-113 93q-13 13 -40 37t-40.5 39t-30.5 39t-24.5 53.5t-7.5 66.5q0 139 87 237t230 98q100 0 165 -56t65 -159q0 -124 -70.5 -216t-189.5 -112q-10 -2 -18 -2v-2q7 -3 33 -17.5t47 -21t49 -6.5q41 0 79 12l24 -96q-60 -19 -118 -19zM274 95
q76 0 123.5 68t47.5 154q0 53 -27 85.5t-81 32.5q-76 0 -123.5 -68t-47.5 -154q0 -53 27 -85.5t81 -32.5z" />
    <glyph glyph-name="P.small" horiz-adv-x="511" 
d="M5 0l116 530h159q90 0 141.5 -43t51.5 -117q0 -90 -64.5 -146.5t-189.5 -56.5h-44l-36 -167h-134zM198 269h36q53 0 80.5 26.5t27.5 70.5q0 62 -72 62h-37z" />
    <glyph glyph-name="O.small" horiz-adv-x="635" 
d="M262 -10q-100 0 -165 56t-65 159q0 139 87 237t230 98q100 0 165 -56t65 -159q0 -139 -87 -237t-230 -98zM274 95q76 0 123.5 68t47.5 154q0 53 -27 85.5t-81 32.5q-76 0 -123.5 -68t-47.5 -154q0 -53 27 -85.5t81 -32.5z" />
    <glyph glyph-name="N.small" horiz-adv-x="654" 
d="M5 0l116 530h125l120 -232q36 -69 50 -104h2q6 45 19 97l52 239h135l-116 -530h-121l-120 233q-39 76 -52 116h-3q-5 -41 -18 -98l-55 -251h-134z" />
    <glyph glyph-name="M.small" horiz-adv-x="727" 
d="M5 0l116 530h124l47 -121q26 -69 50 -139h2q40 53 95 116l125 144h133l-116 -530h-135l45 203q17 81 31 127h-2q-34 -49 -72 -93l-102 -125h-55l-46 119q-21 57 -34 99h-2q-7 -42 -21 -106l-49 -224h-134z" />
    <glyph glyph-name="L.small" horiz-adv-x="422" 
d="M5 0l116 530h134l-92 -422h197l-26 -108h-329z" />
    <glyph glyph-name="K.small" horiz-adv-x="545" 
d="M5 0l116 530h134l-50 -232h2l215 232h148l-263 -282l183 -248h-149l-153 211h-3l-46 -211h-134z" />
    <glyph glyph-name="J.small" horiz-adv-x="309" 
d="M-139 -140l37 101q27 -13 58 -13q36 0 53 20t26 62l110 500h134l-116 -532q-18 -80 -64 -119.5t-130 -39.5q-60 0 -108 21z" />
    <glyph glyph-name="I.small" horiz-adv-x="285" 
d="M5 0l116 530h134l-116 -530h-134z" />
    <glyph glyph-name="H.small" horiz-adv-x="648" 
d="M5 0l116 530h134l-45 -207h227l46 207h135l-116 -530h-135l47 214h-228l-47 -214h-134z" />
    <glyph glyph-name="G.small" horiz-adv-x="600" 
d="M288 -10q-121 0 -188.5 62t-67.5 168q0 139 93 229.5t229 90.5q93 0 182 -33l-25 -103q-67 31 -138 31q-87 0 -147 -59t-60 -152q0 -61 34.5 -95t100.5 -34q26 0 58 8l34 155h134l-52 -236q-85 -32 -187 -32z" />
    <glyph glyph-name="F.small" horiz-adv-x="441" 
d="M5 0l116 530h333l-41 -108h-181l-26 -118h179l-22 -101h-179l-45 -203h-134z" />
    <glyph glyph-name="E.small" horiz-adv-x="481" 
d="M5 0l116 530h333l-39 -102h-182l-24 -110h178l-22 -102h-179l-24 -114h203l-23 -102h-337z" />
    <glyph glyph-name="D.small" horiz-adv-x="606" 
d="M5 0l116 530h155q127 0 201 -57t74 -167q0 -60 -22 -114t-63 -97.5t-108.5 -69t-151.5 -25.5h-201zM164 108h58q93 0 144 57.5t51 140.5q0 58 -39 87t-109 29h-38z" />
    <glyph glyph-name="C.small" horiz-adv-x="517" 
d="M280 -10q-115 0 -181.5 62t-66.5 167q0 140 92.5 230.5t228.5 90.5q76 0 139 -25l-25 -103q-49 23 -105 23q-82 0 -139 -58.5t-57 -151.5q0 -63 34 -96.5t98 -33.5q63 0 121 29l28 -99q-77 -35 -167 -35z" />
    <glyph glyph-name="B.small" horiz-adv-x="537" 
d="M5 0l116 530h193q78 0 121.5 -32t43.5 -89q0 -88 -91 -130v-2q79 -23 79 -101q0 -75 -66.5 -125.5t-179.5 -50.5h-216zM160 94h71q43 0 72.5 20.5t29.5 58.5q0 51 -66 51h-79zM207 310h53q40 0 64 23t24 56q0 47 -55 47h-58z" />
    <glyph glyph-name="A.small" horiz-adv-x="572" 
d="M-57 0l315 534h119l119 -534h-136l-18 100h-202l-57 -100h-140zM198 201h126l-15 85q-9 45 -13 89h-2q-7 -15 -41 -78z" />
    <glyph glyph-name="four.OT" horiz-adv-x="551" 
d="M197 -195l43 195h-235l-13 92l385 393h103l-82 -376h97l-24 -109h-97l-36 -164zM265 109l18 77q13 53 31 108h-2l-179 -187q48 2 87 2h45z" />
    <glyph glyph-name="three.OT" horiz-adv-x="551" 
d="M-25 -165l37 101q53 -25 125 -25q73 0 117 32t44 82q0 74 -119 74h-98l14 99q128 3 181.5 35t53.5 90q0 31 -22 48t-63 17q-63 0 -146 -38l-27 96q100 48 202 48q85 0 137 -40.5t52 -108.5q0 -132 -131 -179v-2q42 -10 70.5 -42.5t28.5 -86.5q0 -104 -79.5 -167
t-212.5 -63q-94 0 -164 30z" />
    <glyph glyph-name="two.OT" horiz-adv-x="551" 
d="M14 0q10 66 44 118t75.5 82t82 53.5t67.5 45.5t27 45q0 44 -63 44q-66 0 -142 -37l-25 96q92 47 196 47q78 0 122.5 -38t44.5 -97q0 -47 -31.5 -87t-70.5 -63.5t-81 -52t-56 -52.5h220l-23 -104h-387z" />
    <glyph glyph-name="one.OT" horiz-adv-x="551" 
d="M202 0l74 336q-31 -16 -82.5 -32t-91.5 -21v107q54 10 121.5 38.5t110.5 57.5h110l-107 -486h-135z" />
    <glyph glyph-name="zero.OT" horiz-adv-x="551" 
d="M220 -10q-93 0 -147 52t-54 143q0 135 78 222t196 87q93 0 147 -52t54 -143q0 -136 -77.5 -222.5t-196.5 -86.5zM232 96q55 0 91.5 59t36.5 133q0 47 -20 73.5t-60 26.5q-55 0 -91.5 -59t-36.5 -132q0 -47 20.5 -74t59.5 -27z" />
    <glyph glyph-name="yen.OP" horiz-adv-x="551" 
d="M137 0l15 70h-115l17 80h115l13 58h-116l17 80h74l-71 222h124l53 -192h2l127 192h139l-163 -222h75l-17 -80h-116l-13 -58h116l-17 -80h-117l-15 -70h-127z" />
    <glyph glyph-name="sterling.OP" horiz-adv-x="551" 
d="M43 0l8 74q30 6 49 30.5t25 47.5t12 61h-53l12 88h53l7 44q13 85 67.5 129.5t140.5 44.5q72 0 124 -25l-36 -100q-31 19 -74 19q-78 0 -91 -81l-5 -31h147l-27 -88h-134q-12 -80 -44 -121l1 -2q30 6 77 6h128l-11 -96h-376z" />
    <glyph glyph-name="dollar.OP" horiz-adv-x="551" 
d="M146 -71l19 86q-70 8 -126 34l38 96q64 -32 130 -32q92 0 92 46q0 17 -20 30.5t-48.5 25t-56.5 26.5t-48 43t-20 67q0 53 38.5 96t119.5 53l15 77h92l-16 -78q66 -9 107 -28l-23 -101q-66 33 -135 33q-71 0 -71 -40q0 -21 31 -39t67.5 -31t67.5 -45t31 -77
q0 -65 -44 -105.5t-131 -49.5l-17 -87h-92z" />
    <glyph glyph-name="Euro.OP" horiz-adv-x="551" 
d="M45 152l8 71h47q0 33 6 63h-49l9 71h61q33 76 98 119t145 43q72 0 130 -29l-22 -104q-48 31 -101 31q-73 0 -114 -60h159l-21 -71h-170q-7 -33 -7 -63h167l-22 -71h-135q20 -60 93 -60q51 0 101 31l25 -95q-65 -38 -140 -38q-79 0 -134 43t-72 119h-62z" />
    <glyph glyph-name="nine.OP" horiz-adv-x="567" 
d="M28 -208l-13 104q100 13 185 62t126 128h-2q-55 -27 -111 -27q-80 0 -129.5 51.5t-49.5 136.5q0 109 70 178t179 69q102 0 159 -63t57 -168q0 -79 -26.5 -153t-80 -141t-147.5 -114t-217 -63zM253 165q51 0 102 30q9 28 9 69q0 53 -21.5 88.5t-68.5 35.5
q-49 0 -78.5 -36.5t-29.5 -87.5q0 -99 87 -99z" />
    <glyph glyph-name="eight.OP" horiz-adv-x="580" 
d="M250 -10q-107 0 -169.5 46t-62.5 125q0 132 151 179v3q-37 25 -59.5 56t-22.5 80q0 79 65 133t176 54q105 0 162 -45.5t57 -115.5q0 -107 -133 -167v-2q100 -44 100 -145q0 -94 -76.5 -147.5t-187.5 -53.5zM259 94q47 0 79 22.5t32 65.5q0 35 -25 55t-81 44
q-2 1 -3.5 1.5l-3 1t-3.5 1.5q-92 -40 -92 -113q0 -37 28 -57.5t69 -20.5zM314 387q89 37 89 103q0 33 -21.5 52.5t-60.5 19.5q-40 0 -65 -23.5t-25 -57.5q0 -60 83 -94z" />
    <glyph glyph-name="seven.OP" horiz-adv-x="503" 
d="M32 -201q48 171 124.5 325t158.5 258h-275l-17 104h471v-43q-104 -134 -189.5 -297.5t-122.5 -316.5z" />
    <glyph glyph-name="six.OP" horiz-adv-x="567" 
d="M243 -10q-95 0 -154 59.5t-59 172.5q0 83 28 159t82.5 140t145 108.5t207.5 59.5l15 -105q-105 -13 -199.5 -70.5t-128.5 -143.5l2 -1q62 49 144 49q74 0 122.5 -47.5t48.5 -129.5q0 -103 -69 -177t-185 -74zM248 96q48 0 82 35t34 89q0 38 -22.5 64t-63.5 26
q-66 0 -101 -58q-16 -26 -16 -64q0 -40 23 -66t64 -26z" />
    <glyph glyph-name="five.OP" horiz-adv-x="500" 
d="M-58 -166l37 101q62 -24 126 -24q74 0 122.5 36t48.5 101q0 47 -36.5 66.5t-110.5 19.5h-99l77 352h385l-37 -104h-243l-32 -151h21q96 0 151.5 -44.5t55.5 -132.5q0 -106 -80 -177.5t-221 -71.5q-96 0 -165 29z" />
    <glyph glyph-name="four.OP" horiz-adv-x="551" 
d="M193 -195l43 195h-235l-14 92l385 393h104l-82 -376h97l-24 -109h-98l-35 -164zM261 109l17 77q14 55 32 108h-2l-179 -187q48 2 87 2h45z" />
    <glyph glyph-name="three.OP" horiz-adv-x="528" 
d="M-42 -165l37 101q53 -25 125 -25q73 0 117 32t44 82q0 74 -119 74h-98l14 99q128 3 181.5 35t53.5 90q0 31 -22 48t-62 17q-64 0 -147 -38l-27 96q100 48 202 48q85 0 137 -40.5t52 -108.5q0 -132 -131 -179v-2q42 -10 70.5 -42.5t28.5 -86.5q0 -104 -79.5 -167
t-212.5 -63q-94 0 -164 30z" />
    <glyph glyph-name="two.OP" horiz-adv-x="510" 
d="M-1 0q10 66 44 118t75.5 82t82 53.5t67.5 45.5t27 45q0 44 -63 44q-66 0 -142 -37l-24 96q91 47 196 47q77 0 121.5 -38t44.5 -97q0 -47 -31.5 -87t-70.5 -63.5t-81 -52t-56 -52.5h220l-23 -104h-387z" />
    <glyph glyph-name="one.OP" horiz-adv-x="425" 
d="M122 0l74 336q-66 -34 -140 -47v107q97 23 198 90h110l-107 -486h-135z" />
    <glyph glyph-name="zero.OP" horiz-adv-x="551" 
d="M221 -10q-93 0 -144 51.5t-51 143.5q0 136 74.5 222.5t190.5 86.5q93 0 144.5 -51.5t51.5 -143.5q0 -136 -74.5 -222.5t-191.5 -86.5zM232 96q55 0 88.5 58.5t33.5 133.5q0 46 -18.5 73t-55.5 27q-54 0 -87.5 -58.5t-33.5 -132.5q0 -101 73 -101z" />
    <glyph glyph-name="yen.LT" horiz-adv-x="552" 
d="M139 0l23 108h-151l17 82h153l15 71h-153l18 81h115l-84 317h136l53 -279h2l164 279h145l-211 -317h116l-18 -81h-153l-15 -71h153l-18 -82h-153l-24 -108h-130z" />
    <glyph glyph-name="sterling.LT" horiz-adv-x="552" 
d="M20 0l12 84q31 7 53.5 29t34 54t16.5 54.5t9 50.5q1 5 1 8h-72l16 110h70l10 63q12 73 44 120q62 93 193 93q75 0 142 -31l-45 -105q-38 22 -86 22q-65 0 -94 -51q-15 -25 -22 -68l-6 -43h174l-33 -110h-155q-7 -42 -13 -67.5t-23.5 -60.5t-43.5 -53v-2q60 13 133 13h138
l-16 -110h-437z" />
    <glyph glyph-name="five.OT" horiz-adv-x="551" 
d="M-35 -166l37 101q62 -24 125 -24q74 0 122.5 36t48.5 101q0 47 -36 66.5t-111 19.5h-98l76 352h386l-37 -104h-243l-32 -151h20q96 0 152 -44.5t56 -132.5q0 -106 -80.5 -177.5t-221.5 -71.5q-95 0 -164 29z" />
    <glyph glyph-name="six.OT" horiz-adv-x="551" 
d="M235 -10q-95 0 -154 59.5t-59 172.5q0 83 28 159t82.5 140t145 108.5t207.5 59.5l15 -105q-105 -13 -200 -70.5t-128 -143.5l2 -1q62 49 144 49q74 0 122.5 -47.5t48.5 -129.5q0 -103 -69 -177t-185 -74zM240 96q47 0 81.5 35.5t34.5 88.5q0 38 -22.5 64t-63.5 26
q-67 0 -101 -58q-17 -28 -17 -64q0 -40 23.5 -66t64.5 -26z" />
    <glyph glyph-name="seven.OT" horiz-adv-x="551" 
d="M68 -201q48 170 125 324t159 259h-275l-17 104h471v-43q-105 -135 -190.5 -298t-121.5 -316z" />
    <glyph glyph-name="eight.OT" horiz-adv-x="551" 
d="M232 -10q-106 0 -168.5 46t-62.5 125q0 133 151 179v3q-83 54 -83 136q0 79 65.5 133t176.5 54q104 0 161 -45.5t57 -115.5q0 -107 -132 -167v-2q99 -44 99 -145q0 -94 -76.5 -147.5t-187.5 -53.5zM241 94q48 0 79.5 22.5t31.5 65.5q0 16 -7 29.5t-13.5 21.5t-27 19.5
t-29.5 15.5t-39 17q-91 -41 -91 -113q0 -37 27.5 -57.5t68.5 -20.5zM296 387q90 37 90 103q0 33 -22 52.5t-61 19.5q-40 0 -64.5 -23.5t-24.5 -57.5q0 -60 82 -94z" />
    <glyph glyph-name="nine.OT" horiz-adv-x="551" 
d="M20 -208l-13 104q100 13 185 62t125 128h-2q-54 -27 -110 -27q-80 0 -130 51.5t-50 136.5q0 109 70.5 178t178.5 69q103 0 160 -63t57 -168q0 -79 -26.5 -153t-80 -141t-147.5 -114t-217 -63zM244 165q52 0 103 30q9 28 9 69q0 53 -21.5 88.5t-68.5 35.5q-50 0 -79 -36.5
t-29 -87.5q0 -99 86 -99z" />
    <glyph glyph-name="Euro.OT" horiz-adv-x="551" 
d="M45 152l8 71h47q0 33 6 63h-49l9 71h61q33 76 98 119t145 43q72 0 130 -29l-22 -104q-48 31 -101 31q-73 0 -114 -60h159l-21 -71h-170q-7 -33 -7 -63h167l-22 -71h-135q20 -60 93 -60q51 0 101 31l25 -95q-65 -38 -140 -38q-79 0 -134 43t-72 119h-62z" />
    <glyph glyph-name="dollar.OT" horiz-adv-x="551" 
d="M146 -71l19 86q-70 8 -126 34l38 96q64 -32 130 -32q92 0 92 46q0 17 -20 30.5t-48.5 25t-56.5 26.5t-48 43t-20 67q0 53 38.5 96t119.5 53l15 77h92l-16 -78q66 -9 107 -28l-23 -101q-66 33 -135 33q-71 0 -71 -40q0 -21 31 -39t67.5 -31t67.5 -45t31 -77
q0 -65 -44 -105.5t-131 -49.5l-17 -87h-92z" />
    <glyph glyph-name="sterling.OT" horiz-adv-x="551" 
d="M43 0l8 74q30 6 49 30.5t25 47.5t12 61h-53l12 88h53l7 44q13 85 67.5 129.5t140.5 44.5q72 0 124 -25l-36 -100q-31 19 -74 19q-78 0 -91 -81l-5 -31h147l-27 -88h-134q-12 -80 -44 -121l1 -2q30 6 77 6h128l-11 -96h-376z" />
    <glyph glyph-name="yen.OT" horiz-adv-x="551" 
d="M137 0l15 70h-115l17 80h115l13 58h-116l17 80h74l-71 222h124l53 -192h2l127 192h139l-163 -222h75l-17 -80h-116l-13 -58h116l-17 -80h-117l-15 -70h-127z" />
    <glyph glyph-name="zero.small" horiz-adv-x="506" 
d="M205 -10q-85 0 -132.5 50.5t-47.5 142.5q0 41 6.5 85t24.5 94t44.5 88.5t72.5 64t103 25.5q85 0 132.5 -50.5t47.5 -142.5q0 -41 -6.5 -85t-24.5 -94t-44.5 -88.5t-72.5 -64t-103 -25.5zM212 95q45 0 77 82.5t32 166.5q0 91 -52 91q-45 0 -76.5 -82.5t-31.5 -166.5
q0 -91 51 -91z" />
    <glyph glyph-name="one.small" horiz-adv-x="387" 
d="M107 0l87 395q-65 -29 -142 -43v109q44 10 103.5 32t93.5 41h110l-117 -534h-135z" />
    <glyph glyph-name="two.small" horiz-adv-x="481" 
d="M-8 0q10 77 46 136t79.5 92t86 58t71 49.5t28.5 51.5q0 48 -69 48q-70 0 -150 -38l-21 102q102 41 194 41q78 0 130 -37t52 -109q0 -50 -35 -92t-79 -67.5t-93.5 -61.5t-70.5 -71h253l-21 -102h-401z" />
    <glyph glyph-name="three.small" horiz-adv-x="477" 
d="M-18 33l45 94q61 -32 129 -32q56 0 84.5 21t28.5 54q0 26 -24 36.5t-77 10.5h-91l17 99h47q55 0 87 8q67 18 67 64q0 23 -20 35t-53 12q-54 0 -137 -29l-19 99q95 35 176 35q91 0 140 -36.5t49 -99.5q0 -89 -102 -131v-2q75 -25 75 -97q0 -79 -66 -131.5t-181 -52.5
q-100 0 -175 43z" />
    <glyph glyph-name="four.small" horiz-adv-x="531" 
d="M217 0l25 114h-215l-12 81l344 339h110l-70 -317h82l-23 -103h-81l-25 -114h-135zM270 217l13 58q7 35 25 88l-146 -147q7 0 23.5 0.5t27.5 0.5h57z" />
    <glyph glyph-name="five.small" horiz-adv-x="478" 
d="M-20 33l46 94q56 -31 124 -31q55 0 84 23t29 57q0 35 -31.5 48t-90.5 13h-81l64 293h348l-38 -102h-208l-20 -94h9q86 0 135 -41t49 -108q0 -84 -66 -139.5t-180 -55.5q-101 0 -173 43z" />
    <glyph glyph-name="six.small" horiz-adv-x="514" 
d="M232 -10q-91 0 -145 51.5t-54 147.5q0 151 87.5 251t232.5 100q68 0 127 -25l-39 -95q-42 18 -89 18q-60 0 -107.5 -35t-71.5 -96h2q50 38 114 38q74 0 116.5 -42t42.5 -112q0 -92 -62.5 -146.5t-153.5 -54.5zM234 92q34 0 58 24.5t24 61.5q0 29 -17.5 48.5t-49.5 19.5
q-38 0 -60 -24t-22 -62q0 -31 17.5 -49.5t49.5 -18.5z" />
    <glyph glyph-name="seven.small" horiz-adv-x="447" 
d="M48 0q50 228 220 422h-221l-9 108h405v-48q-204 -242 -259 -482h-136z" />
    <glyph glyph-name="eight.small" horiz-adv-x="518" 
d="M218 -10q-93 0 -145 39t-52 105q0 101 119 146v2q-64 39 -64 105q0 62 52 107.5t148 45.5q92 0 139.5 -39t47.5 -99q0 -83 -104 -134v-2q79 -41 79 -108q0 -78 -61.5 -123t-158.5 -45zM224 88q33 0 57.5 16t24.5 47q0 23 -20.5 40.5t-65.5 35.5q-68 -31 -68 -82
q0 -28 21 -42.5t51 -14.5zM268 314q27 10 45.5 29.5t18.5 46.5q0 23 -15.5 37.5t-44.5 14.5q-30 0 -47 -16t-17 -42q0 -47 60 -70z" />
    <glyph glyph-name="nine.small" horiz-adv-x="513" 
d="M22 20l40 95q51 -23 102 -23q57 0 97 31.5t55 88.5h-2q-44 -27 -100 -27q-72 0 -118 39t-46 113q0 88 58 145.5t153 57.5q86 0 143.5 -51.5t57.5 -158.5q0 -68 -17 -127.5t-51 -108t-92.5 -76.5t-135.5 -28q-80 0 -144 30zM247 284q43 0 80 22q3 15 3 35q0 97 -70 97
q-37 0 -57.5 -27.5t-20.5 -61.5q0 -65 65 -65z" />
    <glyph glyph-name="Euro.small" horiz-adv-x="491" 
d="M9 158l8 73h48q0 29 7 66h-51l10 74h62q35 80 102.5 124.5t149.5 44.5q76 0 134 -30l-22 -108q-52 33 -106 33q-74 0 -117 -64h165l-23 -74h-175q-7 -31 -8 -66h173l-23 -73h-140q20 -63 96 -63q54 0 104 32l26 -97q-65 -40 -144 -40q-81 0 -138 44.5t-75 123.5h-63z" />
    <glyph glyph-name="dollar.small" horiz-adv-x="491" 
d="M110 -73l19 88q-66 10 -113 38l42 94q66 -33 129 -33q78 0 78 49q0 20 -19 36.5t-45.5 30t-53.5 30.5t-46 45.5t-19 65.5q0 54 39 96t112 52l17 82h101l-19 -83q50 -6 97 -26l-20 -103q-64 33 -124 33q-68 0 -68 -41q0 -18 19 -33t45.5 -28.5t53.5 -30t46 -45.5t19 -67
q0 -61 -44.5 -107t-126.5 -56l-19 -87h-100z" />
    <glyph glyph-name="sterling.small" horiz-adv-x="491" 
d="M4 0l14 83q81 16 95 134h-61l17 101h57l8 50q10 58 39 96q54 76 165 76q70 0 132 -28l-37 -100q-41 23 -84 23q-46 0 -69 -32q-13 -18 -20 -55l-4 -30h154l-31 -101h-137q-12 -81 -45 -117v-2q31 4 88 4h131l-18 -102h-394z" />
    <glyph glyph-name="yen.small" horiz-adv-x="491" 
d="M0 77l16 77h128l12 53h-129l17 77h95l-72 246h130l43 -212h2l129 212h145l-174 -246h92l-17 -77h-131l-12 -53h132l-17 -77h-131l-16 -77h-131l16 77h-127z" />
    <glyph glyph-name="six.LT" horiz-adv-x="552" 
d="M256 -10q-103 0 -163.5 60.5t-60.5 181.5q0 185 105 309.5t274 124.5q69 0 133 -26l-42 -102q-42 19 -96 19q-83 0 -145.5 -55t-91.5 -158h2q26 33 67.5 52.5t86.5 19.5q85 0 134 -49.5t49 -132.5q0 -111 -75 -177.5t-177 -66.5zM260 99q44 0 74 33t30 85
q0 41 -21.5 65.5t-62.5 24.5q-48 0 -77 -33t-29 -85q0 -42 22 -66t64 -24z" />
    <glyph glyph-name="seven.LT" horiz-adv-x="552" 
d="M103 0q64 300 277 544h-272l-9 115h458v-50q-245 -300 -315 -609h-139z" />
    <glyph glyph-name="eight.LT" horiz-adv-x="552" 
d="M243 -10q-107 0 -169.5 46t-62.5 125q0 132 151 179v3q-37 25 -59.5 56t-22.5 80q0 79 65 133t176 54q105 0 162 -45.5t57 -115.5q0 -107 -133 -167v-2q100 -44 100 -145q0 -94 -76.5 -147.5t-187.5 -53.5zM252 94q47 0 79 22.5t32 65.5q0 35 -25 55t-81 44q-7 3 -10 4
q-92 -40 -92 -113q0 -37 28 -57.5t69 -20.5zM307 387q89 37 89 103q0 33 -21.5 52.5t-60.5 19.5q-40 0 -65 -23.5t-25 -57.5q0 -60 83 -94z" />
    <glyph glyph-name="nine.LT" horiz-adv-x="552" 
d="M20 22l42 102q49 -25 110 -25q158 0 199 171h-2q-61 -40 -137 -40q-79 0 -132.5 49t-53.5 139q0 112 70.5 180t179.5 68q97 0 163 -62t66 -191q0 -121 -38.5 -215.5t-119 -151t-193.5 -56.5q-87 0 -154 32zM276 339q50 0 105 32q7 25 7 57q0 64 -24.5 96.5t-68.5 32.5
q-49 0 -76.5 -39t-27.5 -89q0 -39 20.5 -64.5t64.5 -25.5z" />
    <glyph glyph-name="Euro.LT" horiz-adv-x="552" 
d="M28 207l9 82h57v3q0 41 7 75h-59l10 81h70q38 102 120 160t181 58q82 0 144 -32l-23 -116q-53 31 -113 31q-103 0 -157 -101h208l-25 -81h-212q-7 -47 -7 -69v-9h210l-25 -82h-177q19 -101 114 -101q53 0 110 29l24 -107q-64 -38 -153 -38q-102 0 -163.5 55.5
t-78.5 161.5h-71z" />
    <glyph glyph-name="dollar.LT" horiz-adv-x="552" 
d="M140 -88l21 105q-72 9 -130 44l47 98q61 -36 128 -36q47 0 81.5 16.5t34.5 56.5q0 29 -21.5 51.5t-52 40.5t-61.5 38.5t-52.5 56t-21.5 82.5q0 70 49 120t128 62l20 98h97l-20 -99q65 -7 117 -32l-24 -106q-64 36 -136 36q-39 0 -65 -16.5t-26 -49.5q0 -26 21.5 -47
t52.5 -38t61.5 -37.5t52 -56t21.5 -83.5q0 -79 -56 -133t-147 -66l-22 -105h-97z" />
    <glyph glyph-name="plusinferior" horiz-adv-x="394" 
d="M91 -148v122h-111v80h111v118h88v-118h110v-80h-110v-122h-88z" />
    <glyph glyph-name="minusinferior" horiz-adv-x="394" 
d="M-20 -26v80h309v-80h-309z" />
    <glyph glyph-name="equalinferior" horiz-adv-x="394" 
d="M-20 -96v81h309v-81h-309zM-20 43v81h309v-81h-309z" />
    <glyph glyph-name="five.LT" horiz-adv-x="552" 
d="M-4 28l50 107q57 -31 133 -31q61 0 108 28.5t47 88.5q0 30 -15 48.5t-44 25.5t-49.5 9t-54.5 2h-83l77 353h399l-43 -115h-246l-29 -132h25q104 0 155.5 -49.5t51.5 -124.5q0 -109 -81.5 -178.5t-215.5 -69.5q-116 0 -185 38z" />
    <glyph glyph-name="four.LT" horiz-adv-x="552" 
d="M243 0l35 158h-251l-13 93l393 413h116l-87 -397h92l-24 -109h-92l-35 -158h-134zM302 267l17 72q13 54 33 124l-185 -199q69 3 84 3h51z" />
    <glyph glyph-name="three.LT" horiz-adv-x="552" 
d="M-7 30l51 106q58 -32 145 -32q60 0 102.5 24t42.5 78q0 41 -29 56.5t-97 15.5h-94l17 107h47q68 0 108 11q81 24 81 89q0 67 -92 67q-66 0 -156 -32l-19 104q101 42 203 42q99 0 153.5 -42t54.5 -115q0 -125 -136 -168v-2q103 -23 103 -123q0 -98 -79 -162t-212 -64
q-121 0 -194 40z" />
    <glyph glyph-name="two.LT" horiz-adv-x="552" 
d="M4 0q9 67 34 123t58 93.5t71.5 68.5t75 55t66.5 45.5t48 47t18 53.5q0 66 -90 66q-78 0 -166 -42l-21 108q114 48 216 48q95 0 149.5 -44t54.5 -123q0 -54 -29.5 -100.5t-73.5 -81t-89.5 -65t-84.5 -66t-51 -71.5h288l-25 -115h-449z" />
    <glyph glyph-name="Amacron.small" horiz-adv-x="572" 
d="M175 602l20 101h298l-21 -101h-297zM-57 0l315 534h119l119 -534h-136l-18 100h-202l-57 -100h-140zM198 201h126l-15 85q-9 45 -13 89h-2q-7 -15 -41 -78z" />
    <glyph glyph-name="Ccircumflex.small" horiz-adv-x="517" 
d="M280 -10q-115 0 -181.5 62t-66.5 167q0 140 92.5 230.5t228.5 90.5q76 0 139 -25l-25 -103q-49 23 -105 23q-82 0 -139 -58.5t-57 -151.5q0 -63 34 -96.5t98 -33.5q63 0 121 29l28 -99q-77 -35 -167 -35zM184 566l121 147h98l86 -147h-99l-44 74l-57 -74h-105z" />
    <glyph glyph-name="Abreve.small" horiz-adv-x="572" 
d="M320 574q-66 0 -102 39t-29 107h89q-2 -30 11 -47t40 -17q26 0 45 17.5t27 46.5h95q-15 -70 -62 -108t-114 -38zM-57 0l315 534h119l119 -534h-136l-18 100h-202l-57 -100h-140zM198 201h126l-15 85q-9 45 -13 89h-2q-7 -15 -41 -78z" />
    <glyph glyph-name="Ccaron.small" horiz-adv-x="517" 
d="M292 566l-85 147h99l43 -74l58 74h105l-121 -147h-99zM280 -10q-115 0 -181.5 62t-66.5 167q0 140 92.5 230.5t228.5 90.5q76 0 139 -25l-25 -103q-49 23 -105 23q-82 0 -139 -58.5t-57 -151.5q0 -63 34 -96.5t98 -33.5q63 0 121 29l28 -99q-77 -35 -167 -35z" />
    <glyph glyph-name="Cdotaccent.small" horiz-adv-x="517" 
d="M280 -10q-115 0 -181.5 62t-66.5 167q0 140 92.5 230.5t228.5 90.5q76 0 139 -25l-25 -103q-49 23 -105 23q-82 0 -139 -58.5t-57 -151.5q0 -63 34 -96.5t98 -33.5q63 0 121 29l28 -99q-77 -35 -167 -35zM352 573q-34 0 -54.5 20.5t-20.5 50.5q0 39 25.5 62.5t61.5 23.5
q34 0 55 -20t21 -50q0 -39 -26.5 -63t-61.5 -24z" />
    <glyph glyph-name="Ccedilla.small" horiz-adv-x="517" 
d="M98 -198l26 58q20 -10 47 -10q54 0 54 35q0 29 -74 27l44 88q-78 21 -120.5 78t-42.5 141q0 140 92.5 230.5t228.5 90.5q76 0 139 -25l-25 -103q-49 23 -105 23q-82 0 -139 -58.5t-57 -151.5q0 -63 34 -96.5t98 -33.5q63 0 121 29l28 -99q-79 -35 -164 -35l-19 -38
q75 -7 75 -65q0 -46 -43 -72.5t-114 -26.5q-47 0 -84 14z" />
    <glyph glyph-name="Dcaron.small" horiz-adv-x="606" 
d="M273 566l-85 147h99l43 -74l58 74h105l-121 -147h-99zM5 0l116 530h155q127 0 201 -57t74 -167q0 -60 -22 -114t-63 -97.5t-108.5 -69t-151.5 -25.5h-201zM164 108h58q93 0 144 57.5t51 140.5q0 58 -39 87t-109 29h-38z" />
    <glyph glyph-name="Dcroat.small" horiz-adv-x="606" 
d="M5 0l47 215h-58l22 101h58l47 214h155q127 0 201 -57t74 -167q0 -60 -22 -114t-63 -97.5t-108.5 -69t-151.5 -25.5h-201zM164 108h58q93 0 144 57.5t51 140.5q0 58 -39 87t-109 29h-38l-23 -106h101l-22 -101h-101z" />
    <glyph glyph-name="Egrave.small" horiz-adv-x="481" 
d="M244 566l-92 147h145l48 -147h-101zM5 0l116 530h333l-39 -102h-182l-24 -110h178l-22 -102h-179l-24 -114h203l-23 -102h-337z" />
    <glyph glyph-name="Eacute.small" horiz-adv-x="481" 
d="M230 566l75 147h145l-120 -147h-100zM5 0l116 530h333l-39 -102h-182l-24 -110h178l-22 -102h-179l-24 -114h203l-23 -102h-337z" />
    <glyph glyph-name="Ecircumflex.small" horiz-adv-x="481" 
d="M5 0l116 530h333l-39 -102h-182l-24 -110h178l-22 -102h-179l-24 -114h203l-23 -102h-337zM141 566l121 147h98l86 -147h-99l-44 74l-57 -74h-105z" />
    <glyph glyph-name="Ecaron.small" horiz-adv-x="481" 
d="M235 566l-85 147h99l43 -74l58 74h105l-121 -147h-99zM5 0l116 530h333l-39 -102h-182l-24 -110h178l-22 -102h-179l-24 -114h203l-23 -102h-337z" />
    <glyph glyph-name="Edieresis.small" horiz-adv-x="481" 
d="M5 0l116 530h333l-39 -102h-182l-24 -110h178l-22 -102h-179l-24 -114h203l-23 -102h-337zM198 571q-26 0 -42 15.5t-16 41.5q0 33 20 55t50 22q26 0 42.5 -15.5t16.5 -40.5q0 -33 -20.5 -55.5t-50.5 -22.5zM392 571q-26 0 -42 15.5t-16 41.5q0 33 20 55t50 22
q26 0 42.5 -15.5t16.5 -40.5q0 -33 -20.5 -55.5t-50.5 -22.5z" />
    <glyph glyph-name="Emacron.small" horiz-adv-x="481" 
d="M147 602l20 101h298l-21 -101h-297zM5 0l116 530h333l-39 -102h-182l-24 -110h178l-22 -102h-179l-24 -114h203l-23 -102h-337z" />
    <glyph glyph-name="Aring.small" horiz-adv-x="572" 
d="M-57 0l315 534q-50 18 -50 70q0 51 38.5 83t97.5 32q49 0 78.5 -21.5t29.5 -59.5q0 -37 -20.5 -64t-55.5 -40l120 -534h-136l-18 100h-202l-57 -100h-140zM198 201h126l-15 85q-9 45 -13 89h-2q-7 -15 -41 -78zM323 578q20 0 32.5 16.5t12.5 37.5q0 32 -31 32
q-20 0 -32.5 -16.5t-12.5 -37.5q0 -32 31 -32z" />
    <glyph glyph-name="Ebreve.small" horiz-adv-x="481" 
d="M288 574q-66 0 -102 39t-29 107h89q-2 -30 11 -47t40 -17q26 0 45 17.5t27 46.5h95q-15 -70 -62 -108t-114 -38zM5 0l116 530h333l-39 -102h-182l-24 -110h178l-22 -102h-179l-24 -114h203l-23 -102h-337z" />
    <glyph glyph-name="Aringacute.small" horiz-adv-x="572" 
d="M-57 0l315 534q-50 18 -50 70q0 47 33 78t83 36l65 127h145l-119 -144q37 -21 37 -63q0 -37 -20.5 -64t-55.5 -40l120 -534h-136l-18 100h-202l-57 -100h-140zM198 201h126l-15 85q-9 45 -13 89h-2q-7 -15 -41 -78zM323 578q20 0 32.5 16.5t12.5 37.5q0 32 -31 32
q-20 0 -32.5 -16.5t-12.5 -37.5q0 -32 31 -32z" />
    <glyph glyph-name="Aogonek.small" horiz-adv-x="572" 
d="M-57 0l316 534h117l120 -534q-56 -15 -100.5 -47.5t-44.5 -63.5q0 -27 32 -27q15 0 38 6l6 -71q-39 -11 -84 -11q-102 0 -102 77q0 46 33 82.5t85 59.5l-17 95h-202l-57 -100h-140zM198 201h126l-15 85q-9 45 -13 89h-2q-7 -15 -41 -78z" />
    <glyph glyph-name="Edotaccent.small" horiz-adv-x="481" 
d="M5 0l116 530h333l-39 -102h-182l-24 -110h178l-22 -102h-179l-24 -114h203l-23 -102h-337zM287 573q-34 0 -54.5 20.5t-20.5 50.5q0 39 25.5 62.5t61.5 23.5q34 0 55 -20t21 -50q0 -39 -26.5 -63t-61.5 -24z" />
    <glyph glyph-name="Eogonek.small" horiz-adv-x="481" 
d="M5 0l116 530h333l-39 -102h-182l-24 -110h178l-22 -102h-179l-24 -114h203l-23 -102h-17q-128 -55 -128 -111q0 -27 32 -27q16 0 37 6l7 -71q-39 -11 -84 -11q-102 0 -102 77t103 137h-185z" />
    <glyph glyph-name="Gcircumflex.small" horiz-adv-x="600" 
d="M288 -10q-121 0 -188.5 62t-67.5 168q0 139 93 229.5t229 90.5q93 0 182 -33l-25 -103q-67 31 -138 31q-87 0 -147 -59t-60 -152q0 -61 34.5 -95t100.5 -34q26 0 58 8l34 155h134l-52 -236q-85 -32 -187 -32zM208 566l121 147h98l86 -147h-99l-44 74l-57 -74h-105z" />
    <glyph glyph-name="Gbreve.small" horiz-adv-x="600" 
d="M354 574q-66 0 -102 39t-29 107h89q-2 -30 11 -47t40 -17q26 0 45 17.5t27 46.5h95q-15 -70 -62 -108t-114 -38zM288 -10q-121 0 -188.5 62t-67.5 168q0 139 93 229.5t229 90.5q93 0 182 -33l-25 -103q-67 31 -138 31q-87 0 -147 -59t-60 -152q0 -61 34.5 -95t100.5 -34
q26 0 58 8l34 155h134l-52 -236q-85 -32 -187 -32z" />
    <glyph glyph-name="Gdotaccent.small" horiz-adv-x="600" 
d="M288 -10q-121 0 -188.5 62t-67.5 168q0 139 93 229.5t229 90.5q93 0 182 -33l-25 -103q-67 31 -138 31q-87 0 -147 -59t-60 -152q0 -61 34.5 -95t100.5 -34q26 0 58 8l34 155h134l-52 -236q-85 -32 -187 -32zM363 573q-34 0 -54.5 20.5t-20.5 50.5q0 39 25.5 62.5
t61.5 23.5q34 0 55 -20t21 -50q0 -39 -26.5 -63t-61.5 -24z" />
    <glyph glyph-name="Gcommaaccent.small" horiz-adv-x="600" 
d="M288 -10q-121 0 -188.5 62t-67.5 168q0 139 93 229.5t229 90.5q93 0 182 -33l-25 -103q-67 31 -138 31q-87 0 -147 -59t-60 -152q0 -61 34.5 -95t100.5 -34q26 0 58 8l34 155h134l-52 -236q-85 -32 -187 -32zM160 -237l-25 85q83 14 83 62q0 11 -9 38h120q9 -24 9 -51
q0 -117 -178 -134z" />
    <glyph glyph-name="Hcircumflex.small" horiz-adv-x="648" 
d="M5 0l116 530h134l-45 -207h227l46 207h135l-116 -530h-135l47 214h-228l-47 -214h-134zM218 566l121 147h98l86 -147h-99l-44 74l-57 -74h-105z" />
    <glyph glyph-name="Hbar.small" horiz-adv-x="648" 
d="M5 0l85 389h-51l18 84h51l13 57h134l-12 -57h228l12 57h135l-13 -57h53l-18 -84h-53l-85 -389h-135l47 214h-228l-47 -214h-134zM210 323h227l14 66h-227z" />
    <glyph glyph-name="Igrave.small" horiz-adv-x="285" 
d="M158 566l-92 147h145l48 -147h-101zM5 0l116 530h134l-116 -530h-134z" />
    <glyph glyph-name="Iacute.small" horiz-adv-x="285" 
d="M131 566l75 147h145l-120 -147h-100zM5 0l116 530h134l-116 -530h-134z" />
    <glyph glyph-name="Icircumflex.small" horiz-adv-x="285" 
d="M5 0l116 530h134l-116 -530h-134zM39 566l121 147h98l86 -147h-99l-44 74l-57 -74h-105z" />
    </font>
</defs>
</svg>
