<?xml version="1.0" standalone="no"?>
<!DOCTYPE svg PUBLIC "-//W3C//DTD SVG 1.1//EN" "http://www.w3.org/Graphics/SVG/1.1/DTD/svg11.dtd" >
<svg xmlns="http://www.w3.org/2000/svg" xmlns:xlink="http://www.w3.org/1999/xlink" version="1.1">
<metadata>
Created by FontForge 20150318 at Tue Sep 29 17:23:15 2015
 By uniteet7
Copyright (c) JT Types Ltd, 2006. All rights reserved.
</metadata>
<defs>
<font id="BlissProHeavyItalic" horiz-adv-x="400" >
  <font-face 
    font-family="BlissProHeavyItalic"
    font-weight="900"
    font-style="italic"
    font-stretch="normal"
    units-per-em="1000"
    panose-1="2 0 9 3 5 0 0 9 0 4"
    ascent="800"
    descent="-200"
    x-height="473"
    cap-height="659"
    bbox="-209 -241 1241 953"
    underline-thickness="50"
    underline-position="-50"
    slope="-12"
    unicode-range="U+0020-FB02"
  />
<missing-glyph horiz-adv-x="550" 
d="M50 0v659h450v-659h-450zM101 48h348v563h-348v-563zM231 222q-29 29 -29 60q0 25 20.5 48.5t44.5 38.5t44.5 37.5t20.5 47.5q0 21 -15.5 34t-39.5 13q-41 0 -85 -39l-27 35q49 51 117 51q48 0 77 -25.5t29 -65.5q0 -31 -20.5 -59t-45.5 -45t-45.5 -35.5t-20.5 -32.5
q0 -16 17 -35zM255 107q-16 0 -27 11t-11 28t11 28.5t27 11.5t26.5 -11.5t10.5 -28.5t-10.5 -28t-26.5 -11z" />
    <glyph glyph-name="fi" unicode="fi" horiz-adv-x="627" 
d="M-100 -128q43 44 73.5 87.5t48.5 79.5t32 94t20.5 98.5t18.5 125.5h-91l19 116h87l8 48q11 65 47 112q59 75 162 75q71 0 129 -35l-50 -116q-36 21 -67 21q-30 0 -47 -18t-24 -57l-5 -30h120l-41 -116h-98q-29 -203 -54 -286q-54 -183 -188 -292zM348 0l105 473h151
l-105 -473h-151zM549 529q-37 0 -60.5 23t-23.5 56q0 42 28.5 68t67.5 26q37 0 60.5 -22.5t23.5 -55.5q0 -42 -28.5 -68.5t-67.5 -26.5z" />
    <glyph glyph-name="fl" unicode="fl" horiz-adv-x="685" 
d="M-100 -128q43 44 73.5 87.5t48.5 79.5t32 94t20.5 98.5t18.5 125.5h-91l19 116h87l8 48q11 65 47 112q59 75 162 75q71 0 129 -35l-50 -116q-36 21 -67 21q-30 0 -47 -18t-24 -57l-5 -30h120l-41 -116h-98q-29 -203 -54 -286q-54 -183 -188 -292zM514 -8q-60 0 -98 32
t-38 90q0 25 8 62l118 532h151l-117 -523q-5 -25 -5 -35q0 -28 32 -28q20 0 36 5v-120q-43 -15 -87 -15z" />
    <glyph glyph-name=".notdef" horiz-adv-x="550" 
d="M50 0v659h450v-659h-450zM101 48h348v563h-348v-563zM231 222q-29 29 -29 60q0 25 20.5 48.5t44.5 38.5t44.5 37.5t20.5 47.5q0 21 -15.5 34t-39.5 13q-41 0 -85 -39l-27 35q49 51 117 51q48 0 77 -25.5t29 -65.5q0 -31 -20.5 -59t-45.5 -45t-45.5 -35.5t-20.5 -32.5
q0 -16 17 -35zM255 107q-16 0 -27 11t-11 28t11 28.5t27 11.5t26.5 -11.5t10.5 -28.5t-10.5 -28t-26.5 -11z" />
    <glyph glyph-name=".null" horiz-adv-x="0" 
 />
    <glyph glyph-name="nonmarkingreturn" horiz-adv-x="333" 
 />
    <glyph glyph-name="space" unicode=" " horiz-adv-x="160" 
 />
    <glyph glyph-name="exclam" unicode="!" horiz-adv-x="300" 
d="M84 -10q-31 0 -51 20.5t-20 52.5q0 38 25.5 64.5t62.5 26.5q31 0 51.5 -21t20.5 -53q0 -37 -26 -63.5t-63 -26.5zM77 207q-4 87 5 154.5t48 247.5l11 50h154l-11 -51q-40 -185 -58.5 -250t-60.5 -151h-88z" />
    <glyph glyph-name="quotedbl" unicode="&#x22;" horiz-adv-x="470" 
d="M203 460l-110 21l45 240l133 -26zM413 460l-110 21l45 240l133 -26z" />
    <glyph glyph-name="numbersign" unicode="#" horiz-adv-x="726" 
d="M53 0l50 157h-113l11 114h139l40 128h-116l11 114h142l46 146h146l-46 -146h116l46 146h146l-46 -146h109l-11 -114h-135l-40 -128h116l-11 -114h-142l-50 -157h-146l50 157h-116l-50 -157h-146zM286 271h116l40 128h-116z" />
    <glyph glyph-name="dollar" unicode="$" horiz-adv-x="560" 
d="M139 -90l22 107q-70 8 -134 45l53 109q61 -36 130 -36q111 0 111 62q0 26 -22 47t-53 38t-62 37t-53 56t-22 85q0 71 49.5 122t130.5 64l20 100h107l-21 -100q67 -7 123 -33l-27 -118q-66 37 -140 37q-36 0 -60.5 -15t-24.5 -43q0 -25 22 -44.5t53 -35.5t62 -36t53 -55
t22 -83q0 -78 -57.5 -134t-152.5 -69l-22 -107h-107z" />
    <glyph glyph-name="percent" unicode="%" horiz-adv-x="919" 
d="M148 0l498 659h123l-498 -659h-123zM210 308q-74 0 -110.5 40.5t-36.5 103.5q0 91 52.5 152.5t146.5 61.5q74 0 110.5 -40.5t36.5 -103.5q0 -91 -52.5 -152.5t-146.5 -61.5zM221 394q37 0 54.5 45.5t17.5 87.5q0 53 -42 53q-37 0 -54.5 -45.5t-17.5 -87.5q0 -53 42 -53z
M654 -10q-74 0 -110.5 40.5t-36.5 103.5q0 91 52.5 152.5t146.5 61.5q74 0 110.5 -40.5t36.5 -103.5q0 -91 -52.5 -152.5t-146.5 -61.5zM665 76q37 0 54.5 45.5t17.5 87.5q0 53 -42 53q-37 0 -54.5 -45.5t-17.5 -87.5q0 -53 42 -53z" />
    <glyph glyph-name="ampersand" unicode="&#x26;" horiz-adv-x="812" 
d="M266 -10q-113 0 -181.5 51t-68.5 140q0 81 51.5 133.5t146.5 70.5v2q-76 39 -76 111t65.5 120t167.5 48q123 0 202 -52l-42 -113q-79 46 -155 46q-40 0 -64 -16.5t-24 -41.5q0 -52 87 -78l-22 -100q-99 0 -143 -31t-44 -81q0 -41 31.5 -65.5t88.5 -24.5q78 0 145.5 44
t94.5 140h-81l26 116h346l-46 -116h-105q-24 -100 -88 -170.5t-143.5 -101.5t-168.5 -31z" />
    <glyph glyph-name="quotesingle" unicode="'" horiz-adv-x="260" 
d="M203 460l-110 21l45 240l133 -26z" />
    <glyph glyph-name="parenleft" unicode="(" horiz-adv-x="355" 
d="M134 -236q-105 133 -105 364q0 180 73 354t225 294l79 -89q-103 -93 -162 -240t-59 -331q0 -161 59 -281z" />
    <glyph glyph-name="parenright" unicode=")" horiz-adv-x="355" 
d="M19 -236l-79 89q103 93 162 240t59 331q0 161 -59 281l110 71q105 -133 105 -364q0 -180 -73 -354t-225 -294z" />
    <glyph glyph-name="asterisk" unicode="*" horiz-adv-x="500" 
d="M258 321l-94 42q12 33 50.5 81t42.5 55q-9 -2 -38 -14.5t-60.5 -22.5t-58.5 -10l-10 104q35 6 96 -4t66 -10q-2 2 -50 42t-68 71l84 60q23 -27 46 -86t24 -61q1 2 11.5 64.5t28.5 93.5l94 -41q-12 -34 -52 -83.5t-41 -51.5q9 2 38 14t60.5 21.5t58.5 9.5l11 -103
q-36 -6 -99 4l-63 10q3 -3 50.5 -43t65.5 -70l-84 -61q-23 27 -46 86t-24 62q-3 -10 -7 -41t-11.5 -63t-20.5 -55z" />
    <glyph glyph-name="plus" unicode="+" horiz-adv-x="569" 
d="M203 0v186h-164v124h164v183h140v-183h165v-124h-165v-186h-140z" />
    <glyph glyph-name="comma" unicode="," horiz-adv-x="290" 
d="M38 -162l-82 56q44 54 59.5 102.5t17.5 111.5h137q5 -72 -28 -142.5t-104 -127.5z" />
    <glyph glyph-name="hyphen" unicode="-" horiz-adv-x="326" 
d="M-5 187l27 124h263l-27 -124h-263z" />
    <glyph glyph-name="period" unicode="." horiz-adv-x="290" 
d="M84 -10q-31 0 -51 20.5t-20 52.5q0 38 25.5 64.5t62.5 26.5q31 0 51.5 -21t20.5 -53q0 -37 -26 -63.5t-63 -26.5z" />
    <glyph glyph-name="slash" unicode="/" horiz-adv-x="413" 
d="M-46 -32l336 728h165l-336 -728h-165z" />
    <glyph glyph-name="zero" unicode="0" horiz-adv-x="579" 
d="M242 -10q-104 0 -155 63.5t-51 176.5q0 56 9.5 113t32 116t56 104t86.5 74t118 29q104 0 155 -63.5t51 -176.5q0 -56 -9.5 -113t-32 -116t-56 -104t-86.5 -74t-118 -29zM251 117q39 0 70 51t46 122.5t15 145.5q0 50 -11.5 76.5t-41.5 26.5q-39 0 -70 -51t-46 -122.5
t-15 -145.5q0 -50 11.5 -76.5t41.5 -26.5z" />
    <glyph glyph-name="one" unicode="1" horiz-adv-x="442" 
d="M135 0l111 500q-75 -34 -171 -52v123q49 11 114.5 39t109.5 54h134l-147 -664h-151z" />
    <glyph glyph-name="two" unicode="2" horiz-adv-x="549" 
d="M-5 0q8 66 33 121t58 92.5t71.5 69t75 55.5t66 45.5t48 46t18.5 50.5q0 33 -22 46t-64 13q-79 0 -168 -42l-23 120q119 49 225 49q100 0 156.5 -45.5t56.5 -125.5q0 -54 -29 -101t-72 -81.5t-88 -64.5t-83 -61t-49 -58h283l-29 -129h-464z" />
    <glyph glyph-name="three" unicode="3" horiz-adv-x="541" 
d="M-26 30l56 119q59 -32 148 -32q57 0 96 21.5t39 70.5q0 36 -25.5 49.5t-90.5 13.5h-100l20 118h48q69 0 111 12q71 21 71 77q0 60 -86 60q-69 0 -158 -31l-20 117q106 41 211 41q102 0 158.5 -42t56.5 -116q0 -126 -134 -166v-2q100 -25 100 -120q0 -99 -81 -164.5
t-219 -65.5q-127 0 -201 40z" />
    <glyph glyph-name="four" unicode="4" horiz-adv-x="604" 
d="M254 0l34 153h-246l-14 103l393 408h131l-86 -389h100l-27 -122h-100l-34 -153h-151zM315 275l13 53q19 78 32 113l-161 -169q66 3 82 3h34z" />
    <glyph glyph-name="five" unicode="5" horiz-adv-x="545" 
d="M-11 28l55 120q59 -31 136 -31q56 0 100.5 25.5t44.5 81.5q0 18 -6.5 32t-20 21.5t-25.5 12.5t-33.5 6.5t-32 2t-32.5 0.5h-11h-82l80 360h416l-49 -129h-245l-25 -113h23q105 0 155 -49.5t50 -124.5q0 -111 -83.5 -182t-222.5 -71q-121 0 -192 38z" />
    <glyph glyph-name="six" unicode="6" horiz-adv-x="585" 
d="M276 -10q-106 0 -169 61t-63 183q0 184 106 308t278 124q76 0 146 -29l-47 -114q-47 22 -106 22q-76 0 -134 -47.5t-89 -145.5h2q58 68 152 68q87 0 135.5 -49.5t48.5 -132.5q0 -115 -77.5 -181.5t-182.5 -66.5zM281 111q40 0 67 29.5t27 77.5q0 37 -20 59t-57 22
q-44 0 -69 -30t-25 -77q0 -81 77 -81z" />
    <glyph glyph-name="seven" unicode="7" horiz-adv-x="513" 
d="M63 0q31 154 104.5 291t162.5 239h-264l-9 129h470v-55q-241 -301 -308 -604h-156z" />
    <glyph glyph-name="eight" unicode="8" horiz-adv-x="590" 
d="M268 -10q-110 0 -174 46.5t-64 125.5q0 132 150 178v3q-37 25 -59 55t-22 79q0 80 66.5 134.5t181.5 54.5q109 0 167 -46.5t58 -115.5q0 -104 -128 -166v-2q95 -44 95 -143q0 -96 -78 -149.5t-193 -53.5zM279 105q41 0 69.5 19t28.5 58q0 13 -4.5 23.5t-9.5 17.5
t-18 15.5t-20 12.5t-26.5 14t-28.5 14q-78 -43 -78 -105q0 -32 24.5 -50.5t62.5 -18.5zM337 393q74 34 74 93q0 29 -18.5 47t-53.5 18q-36 0 -57 -21.5t-21 -50.5q0 -51 76 -86z" />
    <glyph glyph-name="nine" unicode="9" horiz-adv-x="580" 
d="M29 24l49 113q51 -26 114 -26q147 0 186 152h-2q-56 -37 -130 -37q-81 0 -135 49.5t-54 139.5q0 114 73 182.5t186 68.5q46 0 85.5 -13.5t74 -41.5t54.5 -79.5t20 -120.5q0 -86 -22 -161t-65 -133.5t-112.5 -92.5t-157.5 -34q-92 0 -164 34zM297 347q42 0 92 25
q7 23 7 57q0 116 -82 116q-46 0 -70.5 -36t-24.5 -81q0 -35 18.5 -58t59.5 -23z" />
    <glyph glyph-name="colon" unicode=":" horiz-adv-x="290" 
d="M84 -10q-31 0 -51 20.5t-20 52.5q0 38 25.5 64.5t62.5 26.5q31 0 51.5 -21t20.5 -53q0 -37 -26 -63.5t-63 -26.5zM137 294q-31 0 -51 20.5t-20 52.5q0 38 25.5 64.5t62.5 26.5q31 0 51.5 -21t20.5 -53q0 -37 -26 -63.5t-63 -26.5z" />
    <glyph glyph-name="semicolon" unicode=";" horiz-adv-x="290" 
d="M38 -162l-82 56q44 54 59.5 102.5t17.5 111.5h137q5 -72 -28 -142.5t-104 -127.5zM137 294q-31 0 -51 20.5t-20 52.5q0 38 25.5 64.5t62.5 26.5q31 0 51.5 -21t20.5 -53q0 -37 -26 -63.5t-63 -26.5z" />
    <glyph glyph-name="less" unicode="&#x3c;" horiz-adv-x="569" 
d="M50 203v114l434 169v-124l-306 -101v-2l306 -101v-124z" />
    <glyph glyph-name="equal" unicode="=" horiz-adv-x="569" 
d="M50 73v124h469v-124h-469zM50 297v124h469v-124h-469z" />
    <glyph glyph-name="greater" unicode="&#x3e;" horiz-adv-x="569" 
d="M65 34v124l306 101v2l-306 101v124l434 -169v-114z" />
    <glyph glyph-name="question" unicode="?" horiz-adv-x="450" 
d="M149 -10q-31 0 -51 20.5t-20 52.5q0 38 25.5 64.5t62.5 26.5q31 0 51.5 -21t20.5 -53q0 -37 -26 -63.5t-63 -26.5zM124 207q0 45 19.5 83t47.5 63.5t55.5 48t47 45.5t19.5 46q0 46 -60 46q-59 0 -121 -45l-54 105q90 67 206 67q82 0 131.5 -42t49.5 -107q0 -55 -36 -103
q-22 -29 -68 -63t-83.5 -68.5t-52.5 -75.5h-101z" />
    <glyph glyph-name="at" unicode="@" horiz-adv-x="783" 
d="M325 -140q-139 0 -228.5 91t-89.5 240q0 172 109 275.5t270 103.5q153 0 248.5 -87t95.5 -237q0 -106 -46 -162t-126 -56q-86 0 -106 81h-1q-14 -31 -53.5 -55.5t-89.5 -24.5q-57 0 -101 40t-44 122q0 97 64.5 159.5t164.5 62.5q93 0 166 -43l-20 -150q-5 -35 -5 -56
q0 -54 37 -54q32 0 50 33t18 94q0 112 -63 182t-191 70q-123 0 -204 -78.5t-81 -210.5q0 -125 66 -192t168 -67q84 0 137 26l24 -79q-75 -28 -169 -28zM336 115q36 0 61.5 35.5t33.5 100.5l8 63q-24 13 -50 13q-46 0 -77.5 -35.5t-31.5 -97.5q0 -79 56 -79z" />
    <glyph glyph-name="A" unicode="A" horiz-adv-x="659" 
d="M-65 0l381 662h133l132 -662h-162l-27 157h-199l-86 -157h-172zM262 279h111l-17 127q-5 40 -6 54h-2q-14 -36 -23 -54z" />
    <glyph glyph-name="B" unicode="B" horiz-adv-x="589" 
d="M2 0l145 659h193q101 0 150 -40.5t49 -109.5q0 -104 -100 -158v-2q37 -9 64 -40t27 -80q0 -96 -77 -162.5t-217 -66.5h-234zM243 395h51q40 0 66.5 23t26.5 64q0 52 -68 52h-45zM184 124h68q58 0 92 23.5t34 66.5q0 57 -81 57h-81z" />
    <glyph glyph-name="C" unicode="C" horiz-adv-x="622" 
d="M355 -10q-79 0 -140 23.5t-97.5 64.5t-54.5 91.5t-18 108.5q0 178 117.5 283t289.5 105q100 0 172 -30l-29 -129q-70 32 -144 32q-110 0 -176.5 -73.5t-66.5 -172.5q0 -79 44.5 -127.5t126.5 -48.5q68 0 139 32l28 -123q-81 -36 -191 -36z" />
    <glyph glyph-name="D" unicode="D" horiz-adv-x="702" 
d="M2 0l145 659h172q120 0 203 -38q141 -65 141 -238q0 -122 -62 -211.5t-167 -133.5q-90 -38 -202 -38h-230zM185 129h52q80 0 137 30q126 66 126 235q0 78 -59 111q-45 25 -121 25h-46z" />
    <glyph glyph-name="E" unicode="E" horiz-adv-x="517" 
d="M2 0l145 659h383l-49 -129h-207l-30 -133h206l-28 -129h-206l-31 -139h234l-28 -129h-389z" />
    <glyph glyph-name="F" unicode="F" horiz-adv-x="507" 
d="M2 0l145 659h383l-48 -129h-208l-30 -133h205l-28 -129h-205l-59 -268h-155z" />
    <glyph glyph-name="G" unicode="G" horiz-adv-x="720" 
d="M370 -10q-164 0 -245 80.5t-81 211.5q0 73 27 141t77.5 122.5t132 87.5t180.5 33q131 0 224 -45l-28 -128q-81 46 -187 46q-67 0 -119.5 -22.5t-82.5 -59.5t-45.5 -78.5t-15.5 -84.5q0 -86 47 -131.5t129 -45.5q48 0 81 11l46 198h154l-65 -295q-95 -41 -229 -41z" />
    <glyph glyph-name="H" unicode="H" horiz-adv-x="750" 
d="M2 0l145 659h155l-57 -259h291l57 259h155l-145 -659h-155l59 270h-291l-59 -270h-155z" />
    <glyph glyph-name="I" unicode="I" horiz-adv-x="303" 
d="M2 0l145 659h155l-145 -659h-155z" />
    <glyph glyph-name="J" unicode="J" horiz-adv-x="342" 
d="M-149 -164l43 118q29 -14 65 -14q50 0 71 40q12 25 21 65l135 614h155l-144 -658q-16 -69 -42 -106q-58 -82 -183 -82q-69 0 -121 23z" />
    <glyph glyph-name="K" unicode="K" horiz-adv-x="622" 
d="M2 0l145 659h155l-61 -278h2l259 278h188l-331 -346l203 -313h-183l-162 265h-2l-58 -265h-155z" />
    <glyph glyph-name="L" unicode="L" horiz-adv-x="468" 
d="M2 0l145 659h155l-117 -530h224l-30 -129h-377z" />
    <glyph glyph-name="M" unicode="M" horiz-adv-x="841" 
d="M2 0l145 659h141l92 -221q36 -88 41 -105h2q22 35 72 96l185 230h160l-145 -659h-155l69 312q21 89 22 93h-3q-20 -29 -59 -75l-147 -180h-69l-76 178q-20 46 -30 77h-4q-2 -30 -30 -155l-56 -250h-155z" />
    <glyph glyph-name="N" unicode="N" horiz-adv-x="780" 
d="M2 0l145 659h147l192 -339q19 -34 43 -84h2q9 45 17 81l75 342h155l-145 -659h-135l-201 355q-26 45 -43 82h-2q-4 -26 -15 -75l-80 -362h-155z" />
    <glyph glyph-name="O" unicode="O" horiz-adv-x="756" 
d="M326 -10q-129 0 -205 73t-76 199q0 173 107 288.5t276 115.5q129 0 205 -73t76 -199q0 -173 -107 -288.5t-276 -115.5zM338 117q89 0 149 82.5t60 188.5q0 72 -34.5 111.5t-96.5 39.5q-89 0 -149 -82.5t-60 -188.5q0 -72 34.5 -111.5t96.5 -39.5z" />
    <glyph glyph-name="P" unicode="P" horiz-adv-x="576" 
d="M2 0l145 659h161q77 0 127 -22q111 -49 111 -168q0 -78 -37 -136t-111 -88q-72 -29 -169 -29h-24l-48 -216h-155zM232 339h21q52 0 87 22q51 32 51 97q0 48 -34 66q-24 12 -56 12h-26z" />
    <glyph glyph-name="Q" unicode="Q" horiz-adv-x="756" 
d="M45 262q0 173 107 288.5t276 115.5q129 0 205 -73t76 -199q0 -141 -74 -246.5t-198 -141.5l-20 -5v-2q12 -3 36.5 -14t49.5 -18t52 -7q42 0 84 13l28 -119q-63 -21 -136 -21q-86 0 -153.5 34t-135.5 101q-9 9 -61.5 45.5t-78.5 69.5q-57 72 -57 179zM338 117
q89 0 149 82.5t60 188.5q0 72 -34.5 111.5t-96.5 39.5q-89 0 -149 -82.5t-60 -188.5q0 -72 34.5 -111.5t96.5 -39.5z" />
    <glyph glyph-name="R" unicode="R" horiz-adv-x="596" 
d="M2 0l145 659h176q123 0 179 -48t56 -129q0 -80 -47 -130.5t-118 -68.5v-3q16 -26 38 -74l90 -206h-165l-68 173q-23 56 -34 68h-44l-53 -241h-155zM237 364h38q56 0 92 27.5t36 75.5q0 69 -89 69h-39z" />
    <glyph glyph-name="S" unicode="S" horiz-adv-x="505" 
d="M-25 41l62 120q74 -44 143 -44q43 0 73.5 16t30.5 52q0 28 -22.5 50.5t-54.5 40.5t-63.5 39t-54 57t-22.5 84q0 90 64.5 150t180.5 60q104 0 180 -38l-27 -130q-69 41 -149 41q-44 0 -65.5 -17.5t-21.5 -42.5q0 -23 16 -42.5t40.5 -33.5t52.5 -33t52.5 -39t40.5 -52.5
t16 -73.5q0 -101 -73.5 -158t-189.5 -57t-209 51z" />
    <glyph glyph-name="T" unicode="T" horiz-adv-x="562" 
d="M130 0l117 530h-195l28 129h550l-56 -129h-172l-117 -530h-155z" />
    <glyph glyph-name="U" unicode="U" horiz-adv-x="720" 
d="M320 -10q-128 0 -196 58.5t-68 152.5q0 44 13 101l78 357h155l-83 -372q-7 -32 -7 -61q0 -54 29 -81.5t81 -27.5q65 0 105 40q34 34 48 98l89 404h155l-90 -409q-28 -130 -95 -188q-84 -72 -214 -72z" />
    <glyph glyph-name="V" unicode="V" horiz-adv-x="671" 
d="M230 -5l-153 664h163l61 -310q20 -100 25 -134h2q24 57 60 121l180 323h169l-386 -664h-121z" />
    <glyph glyph-name="W" unicode="W" horiz-adv-x="933" 
d="M174 -5l-97 664h164l35 -299q11 -97 13 -143h2q22 54 59 126l106 203l-18 113h148l40 -301q12 -85 17 -141h2q16 53 51 130l138 312h165l-329 -664h-131l-36 225q-14 84 -18 120h-2q-17 -46 -55 -114l-126 -231h-128z" />
    <glyph glyph-name="X" unicode="X" horiz-adv-x="622" 
d="M-69 0l291 341l-152 318h162l95 -199l169 199h180l-282 -330l160 -329h-163l-101 209l-181 -209h-178z" />
    <glyph glyph-name="Y" unicode="Y" horiz-adv-x="599" 
d="M171 0l57 260l-154 399h156l94 -267h2l165 267h171l-281 -409l-55 -250h-155z" />
    <glyph glyph-name="Z" unicode="Z" horiz-adv-x="565" 
d="M-42 0l377 530h-240l-9 129h508l-372 -530h277l-29 -129h-512z" />
    <glyph glyph-name="bracketleft" unicode="[" horiz-adv-x="380" 
d="M-19 -236l221 1011h248l-25 -114h-100l-171 -783h100l-25 -114h-248z" />
    <glyph glyph-name="backslash" unicode="\" horiz-adv-x="522" 
d="M278 -32l-198 728h157l198 -728h-157z" />
    <glyph glyph-name="bracketright" unicode="]" horiz-adv-x="380" 
d="M-107 -236l25 114h100l171 783h-100l25 114h248l-221 -1011h-248z" />
    <glyph glyph-name="asciicircum" unicode="^" horiz-adv-x="476" 
d="M30 287l148 372h120l148 -372h-124l-83 244h-2l-83 -244h-124z" />
    <glyph glyph-name="underscore" unicode="_" horiz-adv-x="438" 
d="M-99 -139l16 73h438l-16 -73h-438z" />
    <glyph glyph-name="grave" unicode="`" 
d="M160 531l-96 147h161l48 -147h-113z" />
    <glyph glyph-name="a" unicode="a" horiz-adv-x="507" 
d="M120 -10q-62 0 -98.5 36.5t-36.5 94.5q0 76 49 122q70 64 222 64h37q1 5 1 11q0 27 -17 41t-60 14q-58 0 -132 -29l-20 105q91 36 184 36q197 0 197 -153q0 -42 -16 -104l-15 -58q-13 -54 -13 -89q0 -33 9 -63l-130 -28q-14 36 -18 78q-25 -35 -63 -56.5t-80 -21.5z
M167 106q35 0 67.5 25.5t42.5 66.5l3 12h-23q-89 0 -118 -32q-13 -14 -13 -35q0 -37 41 -37z" />
    <glyph glyph-name="b" unicode="b" horiz-adv-x="553" 
d="M-16 16l154 692h151l-44 -201q-10 -47 -28 -97h2q62 75 146 75q59 0 97.5 -44t38.5 -115q0 -152 -101.5 -244t-253.5 -92q-103 0 -162 26zM157 116q9 -3 28 -3q74 0 120 56t46 131q0 27 -14.5 44.5t-38.5 17.5q-32 0 -62 -31q-40 -42 -60 -129z" />
    <glyph glyph-name="c" unicode="c" horiz-adv-x="452" 
d="M234 -10q-117 0 -174.5 59.5t-57.5 150.5q0 118 77 201.5t216 83.5q78 0 139 -28l-28 -119q-58 28 -107 28q-61 0 -104 -42t-43 -114q0 -101 102 -101q56 0 106 29l41 -105q-27 -18 -75.5 -30.5t-91.5 -12.5z" />
    <glyph glyph-name="d" unicode="d" horiz-adv-x="549" 
d="M245 -10q-114 0 -178.5 61.5t-64.5 159.5q0 122 78 198t202 76q50 0 91 -12l52 235h151l-151 -681q-90 -37 -180 -37zM248 113q28 0 47 8l52 232q-23 9 -53 9q-64 0 -103 -40.5t-39 -105.5q0 -47 26.5 -75t69.5 -28z" />
    <glyph glyph-name="e" unicode="e" horiz-adv-x="503" 
d="M228 -10q-111 0 -168.5 57.5t-57.5 148.5q0 121 76 205t198 84q86 0 134.5 -44t48.5 -118q0 -50 -23 -127l-288 -5v-8q0 -38 27 -57.5t68 -19.5q59 0 130 32l40 -105q-83 -43 -185 -43zM165 291l145 2q6 17 6 30q0 24 -15 37t-39 13q-33 0 -60 -23t-37 -59z" />
    <glyph glyph-name="f" unicode="f" horiz-adv-x="367" 
d="M-100 -128q43 44 73.5 87.5t48.5 79.5t32 94t20.5 98.5t18.5 125.5h-91l19 116h87l8 48q11 65 47 112q59 75 162 75q71 0 129 -35l-50 -116q-36 21 -67 21q-30 0 -47 -18t-24 -57l-5 -30h120l-41 -116h-98q-29 -203 -54 -286q-54 -183 -188 -292z" />
    <glyph glyph-name="g" unicode="g" horiz-adv-x="537" 
d="M-44 -202l49 125q63 -30 120 -30q59 0 92.5 28t47.5 86l12 51h-2q-56 -68 -138 -68q-56 0 -95.5 41.5t-39.5 130.5q0 138 80.5 230.5t235.5 92.5q103 0 193 -36l-94 -424q-30 -137 -95 -199.5t-201 -62.5q-90 0 -165 35zM202 113q14 0 28 6t31.5 21.5t33.5 50t27 84.5
l17 80q-19 7 -49 7q-62 0 -100 -52.5t-38 -122.5q0 -74 50 -74z" />
    <glyph glyph-name="h" unicode="h" horiz-adv-x="561" 
d="M-19 0l157 708h151l-54 -238q-12 -54 -26 -87h2q70 102 169 102q58 0 90 -31t32 -92q0 -31 -15 -99l-59 -263h-151l57 253q10 44 10 62q0 39 -36 39q-48 0 -89 -62q-32 -49 -50 -127l-37 -165h-151z" />
    <glyph glyph-name="i" unicode="i" horiz-adv-x="260" 
d="M-19 0l105 473h151l-105 -473h-151zM182 529q-37 0 -60.5 23t-23.5 56q0 42 28.5 68t67.5 26q37 0 60.5 -22.5t23.5 -55.5q0 -42 -28.5 -68.5t-67.5 -26.5z" />
    <glyph glyph-name="j" unicode="j" horiz-adv-x="266" 
d="M-195 -217l46 120q26 -10 53 -10q60 0 76 76l112 504h151l-118 -533q-40 -177 -208 -177q-66 0 -112 20zM188 529q-37 0 -60.5 23t-23.5 56q0 42 28.5 68t67.5 26q37 0 60.5 -22.5t23.5 -55.5q0 -42 -28.5 -68.5t-67.5 -26.5z" />
    <glyph glyph-name="k" unicode="k" horiz-adv-x="520" 
d="M-19 0l157 708h151l-88 -392h2l167 157h180l-238 -220l140 -253h-168l-105 204h-2l-45 -204h-151z" />
    <glyph glyph-name="l" unicode="l" horiz-adv-x="319" 
d="M148 -8q-60 0 -98 32t-38 90q0 25 8 62l118 532h151l-117 -523q-5 -25 -5 -35q0 -28 32 -28q20 0 36 5v-120q-43 -15 -87 -15z" />
    <glyph glyph-name="m" unicode="m" horiz-adv-x="844" 
d="M-19 0l105 473h116v-90h2q33 42 80.5 72t99.5 30q104 0 107 -103h2q33 42 82 72.5t102 30.5q52 0 82 -26.5t31 -74.5q1 -37 -15 -110l-61 -274h-151l63 280q6 26 6 42q0 32 -29 32q-45 0 -85 -51q-38 -49 -57 -134l-38 -169h-151l63 280q6 26 6 43q0 31 -29 31
q-46 0 -86 -52q-38 -50 -56 -133l-38 -169h-151z" />
    <glyph glyph-name="n" unicode="n" horiz-adv-x="561" 
d="M-19 0l105 473h116v-90h2q79 102 176 102q58 0 90 -31t32 -92q0 -31 -15 -99l-59 -263h-151l57 253q10 44 10 62q0 39 -36 39q-45 0 -82 -49t-57 -140l-37 -165h-151z" />
    <glyph glyph-name="o" unicode="o" horiz-adv-x="548" 
d="M223 -10q-102 0 -161.5 58.5t-59.5 154.5q0 118 77.5 200t195.5 82q102 0 161.5 -58.5t59.5 -154.5q0 -118 -77.5 -200t-195.5 -82zM227 109q47 0 83 45.5t36 116.5q0 47 -20.5 71t-54.5 24q-47 0 -83 -45.5t-36 -116.5q0 -47 20.5 -71t54.5 -24z" />
    <glyph glyph-name="p" unicode="p" horiz-adv-x="550" 
d="M-72 -237l154 695q86 27 166 27q121 0 185.5 -56t64.5 -153q0 -125 -76 -205.5t-195 -80.5q-50 0 -94 17l-54 -244h-151zM159 124q27 -11 56 -11q59 0 96 43.5t37 104.5q0 53 -29 77t-74 24q-19 0 -34 -3z" />
    <glyph glyph-name="q" unicode="q" horiz-adv-x="537" 
d="M208 -237l43 194q18 79 26 101h-2q-56 -68 -138 -68q-56 0 -95.5 41.5t-39.5 130.5q0 138 80.5 230.5t235.5 92.5q103 0 193 -36l-152 -686h-151zM202 113q14 0 28 6t31.5 21.5t33.5 50t27 84.5l17 80q-19 7 -49 7q-62 0 -100 -52.5t-38 -122.5q0 -74 50 -74z" />
    <glyph glyph-name="r" unicode="r" horiz-adv-x="394" 
d="M-19 0l105 473h116v-90h2q26 48 54.5 75t70.5 27t79 -31l-64 -120q-26 17 -51 17q-84 0 -124 -185l-36 -166h-152z" />
    <glyph glyph-name="s" unicode="s" 
d="M-42 40l47 107q68 -41 129 -41q57 0 57 31q0 14 -17 27t-41.5 26t-48.5 30t-41 47t-17 69q0 64 48 106.5t137 42.5q88 0 159 -30l-24 -118q-70 32 -127 32q-42 0 -42 -29q0 -19 26 -38t56.5 -34t56.5 -49t26 -79q0 -73 -54.5 -111.5t-142.5 -38.5q-102 0 -187 50z" />
    <glyph glyph-name="t" unicode="t" horiz-adv-x="398" 
d="M184 -10q-144 0 -144 118q0 29 10 73l39 176h-86l26 116h85l25 110l159 38l-33 -148h127l-46 -116h-107l-43 -194q-3 -12 -3 -23q0 -31 33 -31q35 0 81 23l35 -106q-80 -36 -158 -36z" />
    <glyph glyph-name="u" unicode="u" horiz-adv-x="553" 
d="M147 -10q-55 0 -92 34.5t-37 101.5q0 37 14 103l54 244h151l-60 -266q-6 -26 -6 -41q0 -49 40 -49q33 0 62.5 29t45.5 98l51 229h151l-67 -303q-12 -58 -12 -89q0 -33 9 -63l-130 -28q-13 33 -17 78h-2q-70 -78 -155 -78z" />
    <glyph glyph-name="v" unicode="v" horiz-adv-x="489" 
d="M140 -3l-107 476h145l24 -146q13 -77 23 -143h2q23 57 58 129l77 160h153l-258 -476h-117z" />
    <glyph glyph-name="w" unicode="w" horiz-adv-x="737" 
d="M112 -3l-78 476h142l20 -162q9 -72 13 -120h2q17 43 50 108l89 174h93l23 -149q12 -75 17 -133h2q12 32 50 115l78 167h153l-259 -476h-105l-27 165q-6 39 -15 102h-2q-18 -38 -55 -105l-89 -162h-102z" />
    <glyph glyph-name="x" unicode="x" horiz-adv-x="520" 
d="M-77 0l233 245l-140 228h153l82 -135l124 135h164l-225 -240l142 -233h-153l-85 140l-131 -140h-164z" />
    <glyph glyph-name="y" unicode="y" horiz-adv-x="522" 
d="M-120 -211l54 110q35 -17 69 -17q77 0 144 126l-115 465h145l38 -177q13 -63 28 -139h2q34 77 58 125l97 191h148l-256 -473q-69 -127 -133 -182t-164 -55q-71 0 -115 26z" />
    <glyph glyph-name="z" unicode="z" horiz-adv-x="448" 
d="M-58 0l255 357h-164l-12 116h419l-257 -357h203l-25 -116h-419z" />
    <glyph glyph-name="braceleft" unicode="{" horiz-adv-x="380" 
d="M235 -233q-103 6 -150.5 40.5t-47.5 99.5q0 25 6 57l37 176q4 19 4 37q0 16 -4 26.5t-14.5 15t-15 5.5t-18.5 3l20 92q42 0 59 21q13 16 18 43l44 215q13 69 51 109q64 69 200 69v-131q-66 -5 -92 -36q-15 -18 -22 -51l-29 -153q-10 -57 -33 -88t-78 -46v-2
q62 -11 62 -80q0 -22 -5 -43l-31 -140q-6 -24 -6 -49q0 -31 19 -44.5t60 -15.5z" />
    <glyph glyph-name="bar" unicode="|" horiz-adv-x="405" 
d="M128 -237v1017h149v-1017h-149z" />
    <glyph glyph-name="braceright" unicode="}" horiz-adv-x="380" 
d="M-55 -233v131q66 5 92 36q15 18 22 51l29 153q10 57 33 88t78 46v2q-62 11 -62 80q0 22 5 43l31 140q6 24 6 49q0 31 -19 44.5t-60 15.5l34 130q103 -6 150.5 -40.5t47.5 -99.5q0 -26 -6 -57l-37 -176q-4 -19 -4 -37q0 -16 4 -26.5t14.5 -15t15 -5.5t18.5 -3l-20 -92
q-42 0 -59 -21q-13 -16 -18 -43l-44 -215q-13 -69 -51 -109q-64 -69 -200 -69z" />
    <glyph glyph-name="asciitilde" unicode="~" horiz-adv-x="569" 
d="M90 189l-69 98q78 75 169 75q43 0 101 -27t93 -27q48 0 95 40l69 -98q-78 -75 -169 -75q-43 0 -101 27t-93 27q-48 0 -95 -40z" />
    <glyph glyph-name="exclamdown" unicode="&#xa1;" horiz-adv-x="300" 
d="M-35 -184l11 51q40 185 58.5 250t60.5 151h88q4 -87 -5 -154.5t-48 -247.5l-11 -50h-154zM159 321q-31 0 -51.5 21t-20.5 53q0 37 26 63.5t63 26.5q31 0 51 -20.5t20 -52.5q0 -38 -25.5 -64.5t-62.5 -26.5z" />
    <glyph glyph-name="cent" unicode="&#xa2;" horiz-adv-x="560" 
d="M189 0l25 110q-63 19 -97 69.5t-34 117.5q0 101 57.5 172t151.5 90l23 100h107l-22 -96q62 -5 99 -26l-25 -110q-51 24 -104 24q-65 0 -101.5 -40t-36.5 -100q0 -45 26.5 -70.5t74.5 -25.5t96 23l29 -105q-65 -32 -139 -32l-22 -101h-108z" />
    <glyph glyph-name="sterling" unicode="&#xa3;" horiz-adv-x="560" 
d="M18 0l13 92q15 3 28.5 9t23 16.5t17.5 20t14 24.5t10 24.5t7 26t4.5 23t3.5 21.5t2 16h-71l18 123h69l9 57q13 76 47 123q64 90 197 90q80 0 153 -33l-50 -117q-38 23 -89 23q-60 0 -88 -45q-16 -24 -22 -65l-5 -33h172l-35 -123h-153q-7 -40 -10.5 -58.5t-20.5 -53
t-42 -52.5v-2q61 16 142 16h126l-18 -123h-452z" />
    <glyph glyph-name="currency" unicode="&#xa4;" horiz-adv-x="560" 
d="M100 55l-88 88l72 70q-30 52 -30 112q0 59 28 110l-71 69l88 88l69 -71q52 30 112 30q61 0 113 -30l66 69l87 -88l-68 -67q28 -53 28 -110q0 -61 -30 -113l70 -67l-88 -88l-68 70q-53 -28 -110 -28q-59 0 -110 28zM280 196q52 0 88 37.5t36 91.5t-36 91.5t-88 37.5
t-88 -37.5t-36 -91.5t36 -91.5t88 -37.5z" />
    <glyph glyph-name="yen" unicode="&#xa5;" horiz-adv-x="560" 
d="M134 0l23 104h-150l19 89h151l15 67h-151l20 89h109l-77 310h151l43 -268h2l155 268h163l-209 -310h111l-20 -89h-151l-15 -67h151l-20 -89h-151l-23 -104h-146z" />
    <glyph glyph-name="brokenbar" unicode="&#xa6;" horiz-adv-x="405" 
d="M128 -236v371h149v-371h-149zM128 409v371h149v-371h-149z" />
    <glyph glyph-name="section" unicode="&#xa7;" horiz-adv-x="560" 
d="M184 -164q-107 0 -194 47l53 116q68 -42 138 -42q100 0 100 71q0 24 -18.5 43t-46.5 31t-60 30t-60 38t-46.5 55.5t-18.5 82.5q0 49 26.5 90t66.5 64q-17 31 -17 75q0 93 66 139t165 46q104 0 173 -38l-25 -124q-68 42 -142 42q-41 0 -63.5 -16t-22.5 -45q0 -28 27 -49
t65 -37.5t76 -37.5t65 -61.5t27 -98.5q0 -97 -98 -154q15 -33 15 -75q0 -66 -38.5 -111t-93 -63t-119.5 -18zM168 333q0 -34 27.5 -58t82 -51.5t80.5 -47.5q24 24 24 56q0 33 -27 56.5t-83.5 52t-81.5 46.5q-22 -26 -22 -54z" />
    <glyph glyph-name="dieresis" unicode="&#xa8;" 
d="M103 532q-28 0 -46 17t-18 45q0 36 22.5 60.5t54.5 24.5q28 0 46 -17t18 -45q0 -36 -22.5 -60.5t-54.5 -24.5zM302 532q-28 0 -46 17t-18 45q0 36 22.5 60.5t54.5 24.5q28 0 46 -17t18 -45q0 -36 -22.5 -60.5t-54.5 -24.5z" />
    <glyph glyph-name="copyright" unicode="&#xa9;" horiz-adv-x="763" 
d="M383 -10q-147 0 -239 95.5t-92 241.5t92 241.5t239 95.5t239 -95.5t92 -241.5t-92 -241.5t-239 -95.5zM383 62q109 0 179.5 74t70.5 191t-70.5 191t-179.5 74t-179.5 -74t-70.5 -191t70.5 -191t179.5 -74zM391 124q-85 0 -137.5 55t-52.5 144q0 88 54.5 146.5t141.5 58.5
q62 0 103 -23v-80q-46 27 -100 27q-50 0 -81.5 -35t-31.5 -91q0 -58 30 -93t80 -35q46 0 87 24l28 -67q-58 -31 -121 -31z" />
    <glyph glyph-name="ordfeminine" unicode="&#xaa;" horiz-adv-x="360" 
d="M-27 127l19 84h324l-19 -84h-324zM114 263q-42 0 -66 25.5t-24 68.5q0 132 192 132h22v3q0 31 -50 31q-44 0 -96 -18l-17 80q64 26 136 26q140 0 140 -110q0 -30 -9 -64l-13 -48q-10 -35 -10 -66q0 -15 5 -40l-95 -20q-8 23 -10 47h-2q-44 -47 -103 -47zM155 351
q21 0 42 16.5t27 41.5l1 4h-14q-81 0 -81 -40q0 -22 25 -22z" />
    <glyph glyph-name="guillemotleft" unicode="&#xab;" horiz-adv-x="610" 
d="M295 374l-132 -140l84 -143l-104 -60l-135 216l200 204zM565 374l-132 -140l84 -143l-104 -60l-135 216l200 204z" />
    <glyph glyph-name="logicalnot" unicode="&#xac;" horiz-adv-x="569" 
d="M45 252v124h469v-310h-140v186h-329z" />
    <glyph glyph-name="registered" unicode="&#xae;" horiz-adv-x="570" 
d="M313 180q-105 0 -171.5 69t-66.5 174t66.5 174t171.5 69q102 0 172 -69.5t70 -173.5t-70 -173.5t-172 -69.5zM313 234q77 0 127.5 54.5t50.5 134.5t-50.5 134.5t-127.5 54.5t-127.5 -54.5t-50.5 -134.5t50.5 -134.5t127.5 -54.5zM283 294h-58v264h86q22 0 40 -5
q53 -15 53 -67q0 -29 -18.5 -47.5t-43.5 -24.5v-1q18 -8 77 -119h-66q-54 104 -64 104h-6v-104zM283 443h11q21 0 35 9t14 27q0 25 -21 31q-10 3 -27 3h-12v-70z" />
    <glyph glyph-name="macron" unicode="&#xaf;" 
d="M45 565l23 112h311l-23 -112h-311z" />
    <glyph glyph-name="degree" unicode="&#xb0;" horiz-adv-x="343" 
d="M206 353q-69 0 -112 43t-43 110t44 110t113 43t113 -43t44 -110t-45 -110t-114 -43zM208 441q26 0 43 18t17 46t-17 46t-43 18t-43 -18t-17 -46t17 -46t43 -18z" />
    <glyph glyph-name="plusminus" unicode="&#xb1;" horiz-adv-x="569" 
d="M47 0v124h469v-124h-469zM211 168v122h-164v124h164v122h140v-122h165v-124h-165v-122h-140z" />
    <glyph glyph-name="twosuperior" unicode="&#xb2;" horiz-adv-x="376" 
d="M47 401q8 48 29 87t46 62.5t53 43t50.5 31.5t37 25.5t14.5 26.5q0 25 -39 25q-50 0 -112 -26l-19 94q80 31 154 31q67 0 103.5 -30.5t36.5 -78.5q0 -41 -26.5 -75t-58 -51.5t-62 -36t-35.5 -30.5h161l-21 -98h-312z" />
    <glyph glyph-name="threesuperior" unicode="&#xb3;" horiz-adv-x="368" 
d="M55 420l35 86q48 -17 99 -17q61 0 61 40q0 30 -53 30h-66l16 82h42q84 0 84 39q0 26 -44 26q-41 0 -89 -14l-20 86q73 23 138 23q69 0 104 -27t35 -67q0 -79 -86 -102v-2q27 -4 45 -23t18 -51q0 -62 -48 -97.5t-139 -35.5q-72 0 -132 24z" />
    <glyph glyph-name="acute" unicode="&#xb4;" 
d="M131 531l75 147h161l-124 -147h-112z" />
    <glyph glyph-name="mu" unicode="&#xb5;" horiz-adv-x="608" 
d="M-66 -237l158 710h151l-58 -256q-6 -29 -6 -43q0 -57 58 -57q31 0 58.5 25.5t39.5 78.5l57 252h151l-68 -305q-2 -8 -2 -15q0 -27 32 -27q19 0 33 5v-122q-39 -17 -81 -17q-88 0 -100 72q-2 12 -2 18h-2q-53 -92 -135 -92q-49 0 -78 36h-2q-9 -65 -24 -132l-30 -131h-150
z" />
    <glyph glyph-name="paragraph" unicode="&#xb6;" horiz-adv-x="639" 
d="M144 -160l77 353q-79 0 -128 51.5t-49 130.5q0 124 100.5 204t243.5 80h250l-178 -819h-117l158 729h-82l-158 -729h-117z" />
    <glyph glyph-name="periodcentered" unicode="&#xb7;" horiz-adv-x="290" 
d="M117 167q-31 0 -51 20.5t-20 52.5q0 38 25.5 64.5t62.5 26.5q31 0 51.5 -21t20.5 -53q0 -37 -26 -63.5t-63 -26.5z" />
    <glyph glyph-name="cedilla" unicode="&#xb8;" 
d="M73 -198l28 62q20 -9 47 -9q51 0 51 32q0 26 -72 26l44 87h103l-24 -46q76 -7 76 -65q0 -47 -44.5 -74t-120.5 -27q-51 0 -88 14z" />
    <glyph glyph-name="onesuperior" unicode="&#xb9;" horiz-adv-x="363" 
d="M171 401l60 271q-51 -23 -123 -33v102q84 13 164 58h105l-88 -398h-118z" />
    <glyph glyph-name="ordmasculine" unicode="&#xba;" horiz-adv-x="384" 
d="M-24 127l19 84h341l-19 -84h-341zM190 263q-65 0 -108.5 36.5t-43.5 104.5q0 89 53 148t142 59q65 0 108.5 -36.5t43.5 -104.5q0 -89 -53 -148t-142 -59zM196 355q37 0 59 31.5t22 73.5q0 59 -50 59q-37 0 -59 -31.5t-22 -73.5q0 -59 50 -59z" />
    <glyph glyph-name="guillemotright" unicode="&#xbb;" horiz-adv-x="610" 
d="M257 108l132 140l-84 143l104 60l135 -216l-200 -204zM-13 108l132 140l-84 143l104 60l135 -216l-200 -204z" />
    <glyph glyph-name="onequarter" unicode="&#xbc;" horiz-adv-x="1000" 
d="M146 0l498 659h123l-498 -659h-123zM144 270l60 271q-51 -23 -123 -33v102q84 13 164 58h105l-88 -398h-118zM670 0l17 81h-156l-17 76l239 241h118l-52 -233h57l-18 -84h-57l-18 -81h-113zM705 163l6 25q13 51 20 73l-100 -100z" />
    <glyph glyph-name="onehalf" unicode="&#xbd;" horiz-adv-x="1000" 
d="M121 0l498 659h123l-498 -659h-123zM119 270l60 271q-51 -23 -123 -33v102q84 13 164 58h105l-88 -398h-118zM536 0q8 48 29 87t46 62.5t53 43t50.5 31.5t37 25.5t14.5 26.5q0 25 -39 25q-50 0 -112 -26l-19 94q80 31 154 31q67 0 103.5 -30.5t36.5 -78.5
q0 -41 -26.5 -75t-58 -51.5t-62 -36t-35.5 -30.5h161l-21 -98h-312z" />
    <glyph glyph-name="threequarters" unicode="&#xbe;" horiz-adv-x="1000" 
d="M184 0l498 659h123l-498 -659h-123zM708 0l17 81h-156l-17 76l239 241h118l-52 -233h57l-18 -84h-57l-18 -81h-113zM743 163l6 25q13 51 20 73l-100 -100zM44 287l35 86q48 -17 99 -17q61 0 61 40q0 30 -53 30h-66l16 82h42q84 0 84 39q0 26 -44 26q-41 0 -89 -14l-20 86
q73 23 138 23q69 0 104 -27t35 -67q0 -79 -86 -102v-2q27 -4 45 -23t18 -51q0 -62 -48 -97.5t-139 -35.5q-72 0 -132 24z" />
    <glyph glyph-name="questiondown" unicode="&#xbf;" horiz-adv-x="450" 
d="M156 -191q-82 0 -131.5 42t-49.5 107q0 55 36 103q22 29 68 63t83.5 68.5t52.5 75.5h101q0 -45 -19.5 -83t-47.5 -63.5t-55.5 -48t-47 -45.5t-19.5 -46q0 -46 60 -46q59 0 121 45l54 -105q-90 -67 -206 -67zM274 321q-31 0 -51.5 21t-20.5 53q0 37 26 63.5t63 26.5
q31 0 51 -20.5t20 -52.5q0 -38 -25.5 -64.5t-62.5 -26.5z" />
    <glyph glyph-name="Agrave" unicode="&#xc0;" horiz-adv-x="659" 
d="M-65 0l381 662h133l132 -662h-162l-27 157h-199l-86 -157h-172zM262 279h111l-17 127q-5 40 -6 54h-2q-14 -36 -23 -54zM348 696l-96 147h161l48 -147h-113z" />
    <glyph glyph-name="Aacute" unicode="&#xc1;" horiz-adv-x="659" 
d="M-65 0l381 662h133l132 -662h-162l-27 157h-199l-86 -157h-172zM262 279h111l-17 127q-5 40 -6 54h-2q-14 -36 -23 -54zM309 696l75 147h161l-124 -147h-112z" />
    <glyph glyph-name="Acircumflex" unicode="&#xc2;" horiz-adv-x="659" 
d="M-65 0l381 662h133l132 -662h-162l-27 157h-199l-86 -157h-172zM262 279h111l-17 127q-5 40 -6 54h-2q-14 -36 -23 -54zM229 696l121 147h107l87 -147h-109l-40 67l-51 -67h-115z" />
    <glyph glyph-name="Atilde" unicode="&#xc3;" horiz-adv-x="659" 
d="M-65 0l381 662h133l132 -662h-162l-27 157h-199l-86 -157h-172zM262 279h111l-17 127q-5 40 -6 54h-2q-14 -36 -23 -54zM217 715q5 68 35.5 103t73.5 35q33 0 71.5 -20.5t51.5 -20.5q23 0 28 35h97q-5 -68 -35.5 -103t-73.5 -35q-33 0 -71.5 20.5t-51.5 20.5
q-23 0 -28 -35h-97z" />
    <glyph glyph-name="Adieresis" unicode="&#xc4;" horiz-adv-x="659" 
d="M-65 0l381 662h133l132 -662h-162l-27 157h-199l-86 -157h-172zM262 279h111l-17 127q-5 40 -6 54h-2q-14 -36 -23 -54zM293 697q-28 0 -46 17t-18 45q0 36 22.5 60.5t54.5 24.5q28 0 46 -17t18 -45q0 -36 -22.5 -60.5t-54.5 -24.5zM492 697q-28 0 -46 17t-18 45
q0 36 22.5 60.5t54.5 24.5q28 0 46 -17t18 -45q0 -36 -22.5 -60.5t-54.5 -24.5z" />
    <glyph glyph-name="Aring" unicode="&#xc5;" horiz-adv-x="659" 
d="M-65 0l377 655q-45 21 -45 68q0 52 40 85t102 33q51 0 81.5 -21t30.5 -59q0 -73 -71 -104l131 -657h-162l-27 157h-199l-86 -157h-172zM262 279h111l-17 127q-5 40 -6 54h-2q-14 -36 -23 -54zM387 702q19 0 30.5 16t11.5 36q0 28 -28 28q-19 0 -30.5 -16t-11.5 -36
q0 -28 28 -28z" />
    <glyph glyph-name="AE" unicode="&#xc6;" horiz-adv-x="887" 
d="M-65 0l505 659h420l-34 -129h-208l-20 -133h207l-18 -129h-207l-20 -139h235l-18 -129h-389l23 157h-180l-120 -157h-176zM325 279h103l29 179h-3q-33 -53 -62 -91z" />
    <glyph glyph-name="Ccedilla" unicode="&#xc7;" horiz-adv-x="622" 
d="M155 -198l28 62q20 -9 47 -9q51 0 51 32q0 26 -72 26l44 88q-103 26 -155.5 102t-52.5 175q0 178 117.5 283t289.5 105q100 0 172 -30l-29 -129q-70 32 -144 32q-110 0 -176.5 -73.5t-66.5 -172.5q0 -79 44.5 -127.5t126.5 -48.5q68 0 139 32l28 -123q-81 -36 -196 -36
l-18 -36q76 -7 76 -65q0 -47 -44.5 -74t-120.5 -27q-51 0 -88 14z" />
    <glyph glyph-name="Egrave" unicode="&#xc8;" horiz-adv-x="517" 
d="M2 0l145 659h383l-49 -129h-207l-30 -133h206l-28 -129h-206l-31 -139h234l-28 -129h-389zM297 696l-96 147h161l48 -147h-113z" />
    <glyph glyph-name="Eacute" unicode="&#xc9;" horiz-adv-x="517" 
d="M2 0l145 659h383l-49 -129h-207l-30 -133h206l-28 -129h-206l-31 -139h234l-28 -129h-389zM268 696l75 147h161l-124 -147h-112z" />
    <glyph glyph-name="Ecircumflex" unicode="&#xca;" horiz-adv-x="517" 
d="M2 0l145 659h383l-49 -129h-207l-30 -133h206l-28 -129h-206l-31 -139h234l-28 -129h-389zM179 696l121 147h107l87 -147h-109l-40 67l-51 -67h-115z" />
    <glyph glyph-name="Edieresis" unicode="&#xcb;" horiz-adv-x="517" 
d="M2 0l145 659h383l-49 -129h-207l-30 -133h206l-28 -129h-206l-31 -139h234l-28 -129h-389zM248 697q-28 0 -46 17t-18 45q0 36 22.5 60.5t54.5 24.5q28 0 46 -17t18 -45q0 -36 -22.5 -60.5t-54.5 -24.5zM447 697q-28 0 -46 17t-18 45q0 36 22.5 60.5t54.5 24.5
q28 0 46 -17t18 -45q0 -36 -22.5 -60.5t-54.5 -24.5z" />
    <glyph glyph-name="Igrave" unicode="&#xcc;" horiz-adv-x="303" 
d="M2 0l145 659h155l-145 -659h-155zM197 696l-96 147h161l48 -147h-113z" />
    <glyph glyph-name="Iacute" unicode="&#xcd;" horiz-adv-x="303" 
d="M2 0l145 659h155l-145 -659h-155zM168 696l75 147h161l-124 -147h-112z" />
    <glyph glyph-name="Icircumflex" unicode="&#xce;" horiz-adv-x="303" 
d="M2 0l145 659h155l-145 -659h-155zM75 696l121 147h107l87 -147h-109l-40 67l-51 -67h-115z" />
    <glyph glyph-name="Idieresis" unicode="&#xcf;" horiz-adv-x="303" 
d="M2 0l145 659h155l-145 -659h-155zM139 697q-28 0 -46 17t-18 45q0 36 22.5 60.5t54.5 24.5q28 0 46 -17t18 -45q0 -36 -22.5 -60.5t-54.5 -24.5zM338 697q-28 0 -46 17t-18 45q0 36 22.5 60.5t54.5 24.5q28 0 46 -17t18 -45q0 -36 -22.5 -60.5t-54.5 -24.5z" />
    <glyph glyph-name="Eth" unicode="&#xd0;" horiz-adv-x="702" 
d="M2 0l60 274h-70l27 123h70l58 262h172q120 0 203 -38q141 -65 141 -238q0 -122 -62 -211.5t-167 -133.5q-90 -38 -202 -38h-230zM185 129h52q80 0 137 30q126 66 126 235q0 78 -59 111q-45 25 -121 25h-46l-30 -133h135l-27 -123h-135z" />
    <glyph glyph-name="Ntilde" unicode="&#xd1;" horiz-adv-x="785" 
d="M2 0l145 659h147l192 -339q19 -34 43 -84h2q9 45 17 81l75 342h155l-145 -659h-135l-201 355q-26 45 -43 82h-2q-4 -26 -15 -75l-80 -362h-155zM303 715q5 68 35.5 103t73.5 35q33 0 71.5 -20.5t51.5 -20.5q23 0 28 35h97q-5 -68 -35.5 -103t-73.5 -35q-33 0 -71.5 20.5
t-51.5 20.5q-23 0 -28 -35h-97z" />
    <glyph glyph-name="Ograve" unicode="&#xd2;" horiz-adv-x="756" 
d="M326 -10q-129 0 -205 73t-76 199q0 173 107 288.5t276 115.5q129 0 205 -73t76 -199q0 -173 -107 -288.5t-276 -115.5zM338 117q89 0 149 82.5t60 188.5q0 72 -34.5 111.5t-96.5 39.5q-89 0 -149 -82.5t-60 -188.5q0 -72 34.5 -111.5t96.5 -39.5zM405 696l-96 147h161
l48 -147h-113z" />
    <glyph glyph-name="Oacute" unicode="&#xd3;" horiz-adv-x="756" 
d="M326 -10q-129 0 -205 73t-76 199q0 173 107 288.5t276 115.5q129 0 205 -73t76 -199q0 -173 -107 -288.5t-276 -115.5zM338 117q89 0 149 82.5t60 188.5q0 72 -34.5 111.5t-96.5 39.5q-89 0 -149 -82.5t-60 -188.5q0 -72 34.5 -111.5t96.5 -39.5zM389 696l75 147h161
l-124 -147h-112z" />
    <glyph glyph-name="Ocircumflex" unicode="&#xd4;" horiz-adv-x="756" 
d="M326 -10q-129 0 -205 73t-76 199q0 173 107 288.5t276 115.5q129 0 205 -73t76 -199q0 -173 -107 -288.5t-276 -115.5zM338 117q89 0 149 82.5t60 188.5q0 72 -34.5 111.5t-96.5 39.5q-89 0 -149 -82.5t-60 -188.5q0 -72 34.5 -111.5t96.5 -39.5zM290 696l121 147h107
l87 -147h-109l-40 67l-51 -67h-115z" />
    <glyph glyph-name="Otilde" unicode="&#xd5;" horiz-adv-x="756" 
d="M326 -10q-129 0 -205 73t-76 199q0 173 107 288.5t276 115.5q129 0 205 -73t76 -199q0 -173 -107 -288.5t-276 -115.5zM338 117q89 0 149 82.5t60 188.5q0 72 -34.5 111.5t-96.5 39.5q-89 0 -149 -82.5t-60 -188.5q0 -72 34.5 -111.5t96.5 -39.5zM285 715q5 68 35.5 103
t73.5 35q33 0 71.5 -20.5t51.5 -20.5q23 0 28 35h97q-5 -68 -35.5 -103t-73.5 -35q-33 0 -71.5 20.5t-51.5 20.5q-23 0 -28 -35h-97z" />
    <glyph glyph-name="Odieresis" unicode="&#xd6;" horiz-adv-x="756" 
d="M326 -10q-129 0 -205 73t-76 199q0 173 107 288.5t276 115.5q129 0 205 -73t76 -199q0 -173 -107 -288.5t-276 -115.5zM338 117q89 0 149 82.5t60 188.5q0 72 -34.5 111.5t-96.5 39.5q-89 0 -149 -82.5t-60 -188.5q0 -72 34.5 -111.5t96.5 -39.5zM361 697q-28 0 -46 17
t-18 45q0 36 22.5 60.5t54.5 24.5q28 0 46 -17t18 -45q0 -36 -22.5 -60.5t-54.5 -24.5zM560 697q-28 0 -46 17t-18 45q0 36 22.5 60.5t54.5 24.5q28 0 46 -17t18 -45q0 -36 -22.5 -60.5t-54.5 -24.5z" />
    <glyph glyph-name="multiply" unicode="&#xd7;" horiz-adv-x="635" 
d="M139 -23l-88 88l180 180l-181 181l88 88l181 -181l179 179l87 -88l-178 -179l178 -178l-88 -88l-178 178z" />
    <glyph glyph-name="Oslash" unicode="&#xd8;" horiz-adv-x="756" 
d="M333 -10q-71 0 -132 24l-57 -71l-92 71l54 68q-62 73 -62 190q0 169 104 281.5t273 112.5q73 0 134 -25l52 65l92 -71l-50 -63q61 -73 61 -188q0 -169 -104 -281.5t-273 -112.5zM347 117q81 0 140.5 71t59.5 200q0 28 -6 50l-251 -313q27 -8 57 -8zM207 268q0 -29 6 -53
l252 314q-28 10 -58 10q-81 0 -140.5 -71t-59.5 -200z" />
    <glyph glyph-name="Ugrave" unicode="&#xd9;" horiz-adv-x="720" 
d="M320 -10q-128 0 -196 58.5t-68 152.5q0 44 13 101l78 357h155l-83 -372q-7 -32 -7 -61q0 -54 29 -81.5t81 -27.5q65 0 105 40q34 34 48 98l89 404h155l-90 -409q-28 -130 -95 -188q-84 -72 -214 -72zM397 696l-96 147h161l48 -147h-113z" />
    <glyph glyph-name="Uacute" unicode="&#xda;" horiz-adv-x="720" 
d="M320 -10q-128 0 -196 58.5t-68 152.5q0 44 13 101l78 357h155l-83 -372q-7 -32 -7 -61q0 -54 29 -81.5t81 -27.5q65 0 105 40q34 34 48 98l89 404h155l-90 -409q-28 -130 -95 -188q-84 -72 -214 -72zM380 696l75 147h161l-124 -147h-112z" />
    <glyph glyph-name="Ucircumflex" unicode="&#xdb;" horiz-adv-x="720" 
d="M320 -10q-128 0 -196 58.5t-68 152.5q0 44 13 101l78 357h155l-83 -372q-7 -32 -7 -61q0 -54 29 -81.5t81 -27.5q65 0 105 40q34 34 48 98l89 404h155l-90 -409q-28 -130 -95 -188q-84 -72 -214 -72zM283 696l121 147h107l87 -147h-109l-40 67l-51 -67h-115z" />
    <glyph glyph-name="Udieresis" unicode="&#xdc;" horiz-adv-x="720" 
d="M320 -10q-128 0 -196 58.5t-68 152.5q0 44 13 101l78 357h155l-83 -372q-7 -32 -7 -61q0 -54 29 -81.5t81 -27.5q65 0 105 40q34 34 48 98l89 404h155l-90 -409q-28 -130 -95 -188q-84 -72 -214 -72zM349 697q-28 0 -46 17t-18 45q0 36 22.5 60.5t54.5 24.5q28 0 46 -17
t18 -45q0 -36 -22.5 -60.5t-54.5 -24.5zM548 697q-28 0 -46 17t-18 45q0 36 22.5 60.5t54.5 24.5q28 0 46 -17t18 -45q0 -36 -22.5 -60.5t-54.5 -24.5z" />
    <glyph glyph-name="Yacute" unicode="&#xdd;" horiz-adv-x="599" 
d="M174 0l57 260l-154 399h156l94 -267h2l165 267h171l-281 -409l-55 -250h-155zM308 696l75 147h161l-124 -147h-112z" />
    <glyph glyph-name="Thorn" unicode="&#xde;" horiz-adv-x="571" 
d="M2 0l145 659h155l-23 -103h6q77 0 127 -22q111 -49 111 -168q0 -78 -37 -136t-111 -88q-73 -29 -169 -29h-24l-25 -113h-155zM209 236h21q52 0 87 22q51 32 51 97q0 48 -34 66q-24 12 -56 12h-26z" />
    <glyph glyph-name="germandbls" unicode="&#xdf;" horiz-adv-x="624" 
d="M-45 -141l139 628q20 89 66 141q71 80 203 80q93 0 154.5 -47.5t61.5 -138.5q0 -48 -15 -103q-107 -18 -107 -79q0 -21 17 -42.5t37.5 -38.5t37.5 -48.5t17 -70.5q0 -70 -54 -110t-135 -40q-101 0 -180 50l47 107q70 -41 122 -41q49 0 49 36q0 19 -17 39t-37.5 36
t-37.5 46t-17 67q0 56 33 95.5t91 51.5q4 16 4 31q0 70 -75 70q-93 0 -121 -125l-132 -594h-151z" />
    <glyph glyph-name="agrave" unicode="&#xe0;" horiz-adv-x="507" 
d="M120 -10q-62 0 -98.5 36.5t-36.5 94.5q0 76 49 122q70 64 222 64h37q1 5 1 11q0 27 -17 41t-60 14q-58 0 -132 -29l-20 105q91 36 184 36q197 0 197 -153q0 -42 -16 -104l-15 -58q-13 -54 -13 -89q0 -33 9 -63l-130 -28q-14 36 -18 78q-25 -35 -63 -56.5t-80 -21.5z
M167 106q35 0 67.5 25.5t42.5 66.5l3 12h-23q-89 0 -118 -32q-13 -14 -13 -35q0 -37 41 -37zM243 531l-96 147h161l48 -147h-113z" />
    <glyph glyph-name="aacute" unicode="&#xe1;" horiz-adv-x="507" 
d="M120 -10q-62 0 -98.5 36.5t-36.5 94.5q0 76 49 122q70 64 222 64h37q1 5 1 11q0 27 -17 41t-60 14q-58 0 -132 -29l-20 105q91 36 184 36q197 0 197 -153q0 -42 -16 -104l-15 -58q-13 -54 -13 -89q0 -33 9 -63l-130 -28q-14 36 -18 78q-25 -35 -63 -56.5t-80 -21.5z
M167 106q35 0 67.5 25.5t42.5 66.5l3 12h-23q-89 0 -118 -32q-13 -14 -13 -35q0 -37 41 -37zM214 531l75 147h161l-124 -147h-112z" />
    <glyph glyph-name="acircumflex" unicode="&#xe2;" horiz-adv-x="507" 
d="M120 -10q-62 0 -98.5 36.5t-36.5 94.5q0 76 49 122q70 64 222 64h37q1 5 1 11q0 27 -17 41t-60 14q-58 0 -132 -29l-20 105q91 36 184 36q197 0 197 -153q0 -42 -16 -104l-15 -58q-13 -54 -13 -89q0 -33 9 -63l-130 -28q-14 36 -18 78q-25 -35 -63 -56.5t-80 -21.5z
M167 106q35 0 67.5 25.5t42.5 66.5l3 12h-23q-89 0 -118 -32q-13 -14 -13 -35q0 -37 41 -37zM116 531l121 147h107l87 -147h-109l-40 67l-51 -67h-115z" />
    <glyph glyph-name="atilde" unicode="&#xe3;" horiz-adv-x="507" 
d="M120 -10q-62 0 -98.5 36.5t-36.5 94.5q0 76 49 122q70 64 222 64h37q1 5 1 11q0 27 -17 41t-60 14q-58 0 -132 -29l-20 105q91 36 184 36q197 0 197 -153q0 -42 -16 -104l-15 -58q-13 -54 -13 -89q0 -33 9 -63l-130 -28q-14 36 -18 78q-25 -35 -63 -56.5t-80 -21.5z
M167 106q35 0 67.5 25.5t42.5 66.5l3 12h-23q-89 0 -118 -32q-13 -14 -13 -35q0 -37 41 -37zM108 542q5 68 35.5 103t73.5 35q33 0 71.5 -20.5t51.5 -20.5q23 0 28 35h97q-5 -68 -35.5 -103t-73.5 -35q-33 0 -71.5 20.5t-51.5 20.5q-23 0 -28 -35h-97z" />
    <glyph glyph-name="adieresis" unicode="&#xe4;" horiz-adv-x="507" 
d="M120 -10q-62 0 -98.5 36.5t-36.5 94.5q0 76 49 122q70 64 222 64h37q1 5 1 11q0 27 -17 41t-60 14q-58 0 -132 -29l-20 105q91 36 184 36q197 0 197 -153q0 -42 -16 -104l-15 -58q-13 -54 -13 -89q0 -33 9 -63l-130 -28q-14 36 -18 78q-25 -35 -63 -56.5t-80 -21.5z
M167 106q35 0 67.5 25.5t42.5 66.5l3 12h-23q-89 0 -118 -32q-13 -14 -13 -35q0 -37 41 -37zM186 532q-28 0 -46 17t-18 45q0 36 22.5 60.5t54.5 24.5q28 0 46 -17t18 -45q0 -36 -22.5 -60.5t-54.5 -24.5zM385 532q-28 0 -46 17t-18 45q0 36 22.5 60.5t54.5 24.5
q28 0 46 -17t18 -45q0 -36 -22.5 -60.5t-54.5 -24.5z" />
    <glyph glyph-name="aring" unicode="&#xe5;" horiz-adv-x="507" 
d="M120 -10q-62 0 -98.5 36.5t-36.5 94.5q0 76 49 122q70 64 222 64h37q1 5 1 11q0 27 -17 41t-60 14q-58 0 -132 -29l-20 105q91 36 184 36q197 0 197 -153q0 -42 -16 -104l-15 -58q-13 -54 -13 -89q0 -33 9 -63l-130 -28q-14 36 -18 78q-25 -35 -63 -56.5t-80 -21.5z
M167 106q35 0 67.5 25.5t42.5 66.5l3 12h-23q-89 0 -118 -32q-13 -14 -13 -35q0 -37 41 -37zM281 521q-51 0 -81.5 21t-30.5 59q0 52 40 85t102 33q51 0 81.5 -21t30.5 -59q0 -52 -40 -85t-102 -33zM289 580q19 0 30.5 16t11.5 36q0 28 -28 28q-19 0 -30.5 -16t-11.5 -36
q0 -28 28 -28z" />
    <glyph glyph-name="ae" unicode="&#xe6;" horiz-adv-x="783" 
d="M132 -10q-63 0 -105 37.5t-42 98.5q0 171 271 171h37q1 5 1 17q0 59 -77 59q-58 0 -132 -29l-20 105q91 36 177 36q108 0 151 -65h2q68 65 159 65q86 0 134.5 -44t48.5 -118q0 -59 -22 -121l-289 -5v-10q0 -38 27.5 -59.5t67.5 -21.5q59 0 130 32l40 -105
q-83 -43 -176 -43q-131 0 -184 96h-2q-75 -96 -197 -96zM167 106q36 0 68 21.5t42 61.5l2 8h-21q-64 0 -98 -11.5t-34 -42.5q0 -37 41 -37zM444 297l146 2q4 12 4 24q0 24 -15 37t-39 13q-34 0 -60 -20.5t-36 -55.5z" />
    <glyph glyph-name="ccedilla" unicode="&#xe7;" horiz-adv-x="452" 
d="M45 -198l28 62q20 -9 47 -9q51 0 51 32q0 26 -72 26l44 89q-71 21 -106 74.5t-35 123.5q0 118 77 201.5t216 83.5q78 0 139 -28l-28 -119q-58 28 -107 28q-61 0 -104 -42t-43 -114q0 -101 102 -101q56 0 106 29l41 -105q-26 -17 -72 -29.5t-89 -13.5l-18 -36
q76 -7 76 -65q0 -47 -44.5 -74t-120.5 -27q-51 0 -88 14z" />
    <glyph glyph-name="egrave" unicode="&#xe8;" horiz-adv-x="503" 
d="M228 -10q-111 0 -168.5 57.5t-57.5 148.5q0 121 76 205t198 84q86 0 134.5 -44t48.5 -118q0 -50 -23 -127l-288 -5v-8q0 -38 27 -57.5t68 -19.5q59 0 130 32l40 -105q-83 -43 -185 -43zM165 291l145 2q6 17 6 30q0 24 -15 37t-39 13q-33 0 -60 -23t-37 -59zM250 531
l-96 147h161l48 -147h-113z" />
    <glyph glyph-name="eacute" unicode="&#xe9;" horiz-adv-x="503" 
d="M228 -10q-111 0 -168.5 57.5t-57.5 148.5q0 121 76 205t198 84q86 0 134.5 -44t48.5 -118q0 -50 -23 -127l-288 -5v-8q0 -38 27 -57.5t68 -19.5q59 0 130 32l40 -105q-83 -43 -185 -43zM165 291l145 2q6 17 6 30q0 24 -15 37t-39 13q-33 0 -60 -23t-37 -59zM230 531
l75 147h161l-124 -147h-112z" />
    <glyph glyph-name="ecircumflex" unicode="&#xea;" horiz-adv-x="503" 
d="M228 -10q-111 0 -168.5 57.5t-57.5 148.5q0 121 76 205t198 84q86 0 134.5 -44t48.5 -118q0 -50 -23 -127l-288 -5v-8q0 -38 27 -57.5t68 -19.5q59 0 130 32l40 -105q-83 -43 -185 -43zM165 291l145 2q6 17 6 30q0 24 -15 37t-39 13q-33 0 -60 -23t-37 -59zM134 531
l121 147h107l87 -147h-109l-40 67l-51 -67h-115z" />
    <glyph glyph-name="edieresis" unicode="&#xeb;" horiz-adv-x="503" 
d="M228 -10q-111 0 -168.5 57.5t-57.5 148.5q0 121 76 205t198 84q86 0 134.5 -44t48.5 -118q0 -50 -23 -127l-288 -5v-8q0 -38 27 -57.5t68 -19.5q59 0 130 32l40 -105q-83 -43 -185 -43zM165 291l145 2q6 17 6 30q0 24 -15 37t-39 13q-33 0 -60 -23t-37 -59zM202 532
q-28 0 -46 17t-18 45q0 36 22.5 60.5t54.5 24.5q28 0 46 -17t18 -45q0 -36 -22.5 -60.5t-54.5 -24.5zM401 532q-28 0 -46 17t-18 45q0 36 22.5 60.5t54.5 24.5q28 0 46 -17t18 -45q0 -36 -22.5 -60.5t-54.5 -24.5z" />
    <glyph glyph-name="igrave" unicode="&#xec;" horiz-adv-x="260" 
d="M137 531l-96 147h161l48 -147h-113zM-19 0l105 473h151l-105 -473h-151z" />
    <glyph glyph-name="iacute" unicode="&#xed;" horiz-adv-x="260" 
d="M100 531l75 147h161l-124 -147h-112zM-19 0l105 473h151l-105 -473h-151z" />
    <glyph glyph-name="icircumflex" unicode="&#xee;" horiz-adv-x="260" 
d="M-19 0l105 473h151l-105 -473h-151zM15 531l121 147h107l87 -147h-109l-40 67l-51 -67h-115z" />
    <glyph glyph-name="idieresis" unicode="&#xef;" horiz-adv-x="260" 
d="M76 532q-28 0 -46 17t-18 45q0 36 22.5 60.5t54.5 24.5q28 0 46 -17t18 -45q0 -36 -22.5 -60.5t-54.5 -24.5zM275 532q-28 0 -46 17t-18 45q0 36 22.5 60.5t54.5 24.5q28 0 46 -17t18 -45q0 -36 -22.5 -60.5t-54.5 -24.5zM-19 0l105 473h151l-105 -473h-151z" />
    <glyph glyph-name="eth" unicode="&#xf0;" horiz-adv-x="548" 
d="M212 -10q-94 1 -152 57t-58 150q0 117 70.5 196.5t172.5 79.5q89 0 136 -62h3q-1 36 -25.5 74t-74.5 65l-123 -61l-27 58l66 32q-60 12 -125 9l27 120q150 0 247 -55l112 55l27 -58l-82 -40q90 -87 90 -236q0 -182 -76.5 -283.5t-207.5 -100.5zM232 109q46 0 80 42.5
t34 109.5q0 49 -23.5 71t-56.5 22q-49 0 -81.5 -42.5t-32.5 -113.5q0 -89 80 -89z" />
    <glyph glyph-name="ntilde" unicode="&#xf1;" horiz-adv-x="558" 
d="M-19 0l105 473h116v-90h2q79 102 176 102q58 0 90 -31t32 -92q0 -31 -15 -99l-59 -263h-151l57 253q10 44 10 62q0 39 -36 39q-45 0 -82 -49t-57 -140l-37 -165h-151zM152 542q5 68 35.5 103t73.5 35q33 0 71.5 -20.5t51.5 -20.5q23 0 28 35h97q-5 -68 -35.5 -103
t-73.5 -35q-33 0 -71.5 20.5t-51.5 20.5q-23 0 -28 -35h-97z" />
    <glyph glyph-name="ograve" unicode="&#xf2;" horiz-adv-x="548" 
d="M221 -10q-102 0 -161.5 58.5t-59.5 154.5q0 118 77.5 200t195.5 82q102 0 161.5 -58.5t59.5 -154.5q0 -118 -77.5 -200t-195.5 -82zM225 109q47 0 83 45.5t36 116.5q0 47 -20.5 71t-54.5 24q-47 0 -83 -45.5t-36 -116.5q0 -47 20.5 -71t54.5 -24zM252 531l-96 147h161
l48 -147h-113z" />
    <glyph glyph-name="oacute" unicode="&#xf3;" horiz-adv-x="548" 
d="M221 -10q-102 0 -161.5 58.5t-59.5 154.5q0 118 77.5 200t195.5 82q102 0 161.5 -58.5t59.5 -154.5q0 -118 -77.5 -200t-195.5 -82zM225 109q47 0 83 45.5t36 116.5q0 47 -20.5 71t-54.5 24q-47 0 -83 -45.5t-36 -116.5q0 -47 20.5 -71t54.5 -24zM236 531l75 147h161
l-124 -147h-112z" />
    <glyph glyph-name="ocircumflex" unicode="&#xf4;" horiz-adv-x="548" 
d="M221 -10q-102 0 -161.5 58.5t-59.5 154.5q0 118 77.5 200t195.5 82q102 0 161.5 -58.5t59.5 -154.5q0 -118 -77.5 -200t-195.5 -82zM225 109q47 0 83 45.5t36 116.5q0 47 -20.5 71t-54.5 24q-47 0 -83 -45.5t-36 -116.5q0 -47 20.5 -71t54.5 -24zM141 531l121 147h107
l87 -147h-109l-40 67l-51 -67h-115z" />
    <glyph glyph-name="otilde" unicode="&#xf5;" horiz-adv-x="548" 
d="M221 -10q-102 0 -161.5 58.5t-59.5 154.5q0 118 77.5 200t195.5 82q102 0 161.5 -58.5t59.5 -154.5q0 -118 -77.5 -200t-195.5 -82zM225 109q47 0 83 45.5t36 116.5q0 47 -20.5 71t-54.5 24q-47 0 -83 -45.5t-36 -116.5q0 -47 20.5 -71t54.5 -24zM130 542q5 68 35.5 103
t73.5 35q33 0 71.5 -20.5t51.5 -20.5q23 0 28 35h97q-5 -68 -35.5 -103t-73.5 -35q-33 0 -71.5 20.5t-51.5 20.5q-23 0 -28 -35h-97z" />
    <glyph glyph-name="odieresis" unicode="&#xf6;" horiz-adv-x="548" 
d="M221 -10q-102 0 -161.5 58.5t-59.5 154.5q0 118 77.5 200t195.5 82q102 0 161.5 -58.5t59.5 -154.5q0 -118 -77.5 -200t-195.5 -82zM225 109q47 0 83 45.5t36 116.5q0 47 -20.5 71t-54.5 24q-47 0 -83 -45.5t-36 -116.5q0 -47 20.5 -71t54.5 -24zM201 532q-28 0 -46 17
t-18 45q0 36 22.5 60.5t54.5 24.5q28 0 46 -17t18 -45q0 -36 -22.5 -60.5t-54.5 -24.5zM400 532q-28 0 -46 17t-18 45q0 36 22.5 60.5t54.5 24.5q28 0 46 -17t18 -45q0 -36 -22.5 -60.5t-54.5 -24.5z" />
    <glyph glyph-name="divide" unicode="&#xf7;" horiz-adv-x="569" 
d="M277 2q-29 0 -50 21t-21 51q0 31 20.5 52t50.5 21t50.5 -21t20.5 -52q0 -30 -21 -51t-50 -21zM38 186v124h469v-124h-469zM277 349q-29 0 -50 20.5t-21 51.5t20.5 52t50.5 21t50.5 -21t20.5 -52t-21 -51.5t-50 -20.5z" />
    <glyph glyph-name="oslash" unicode="&#xf8;" horiz-adv-x="548" 
d="M64 -34l-53 46l40 47q-49 55 -49 144q0 118 77.5 200t195.5 82q71 0 121 -29l44 51l53 -46l-43 -50q46 -57 46 -139q0 -118 -77.5 -200t-195.5 -82q-64 0 -116 26zM227 106q47 0 85 47t38 118q0 11 -2 23l-156 -180q13 -8 35 -8zM148 204q0 -16 3 -31l160 185
q-19 11 -40 11q-47 0 -85 -47t-38 -118z" />
    <glyph glyph-name="ugrave" unicode="&#xf9;" horiz-adv-x="553" 
d="M147 -10q-55 0 -92 34.5t-37 101.5q0 37 14 103l54 244h151l-60 -266q-6 -26 -6 -41q0 -49 40 -49q33 0 62.5 29t45.5 98l51 229h151l-67 -303q-12 -58 -12 -89q0 -33 9 -63l-130 -28q-13 33 -17 78h-2q-70 -78 -155 -78zM262 531l-96 147h161l48 -147h-113z" />
    <glyph glyph-name="uacute" unicode="&#xfa;" horiz-adv-x="553" 
d="M147 -10q-55 0 -92 34.5t-37 101.5q0 37 14 103l54 244h151l-60 -266q-6 -26 -6 -41q0 -49 40 -49q33 0 62.5 29t45.5 98l51 229h151l-67 -303q-12 -58 -12 -89q0 -33 9 -63l-130 -28q-13 33 -17 78h-2q-70 -78 -155 -78zM232 531l75 147h161l-124 -147h-112z" />
    <glyph glyph-name="ucircumflex" unicode="&#xfb;" horiz-adv-x="553" 
d="M147 -10q-55 0 -92 34.5t-37 101.5q0 37 14 103l54 244h151l-60 -266q-6 -26 -6 -41q0 -49 40 -49q33 0 62.5 29t45.5 98l51 229h151l-67 -303q-12 -58 -12 -89q0 -33 9 -63l-130 -28q-13 33 -17 78h-2q-70 -78 -155 -78zM156 531l121 147h107l87 -147h-109l-40 67
l-51 -67h-115z" />
    <glyph glyph-name="udieresis" unicode="&#xfc;" horiz-adv-x="553" 
d="M147 -10q-55 0 -92 34.5t-37 101.5q0 37 14 103l54 244h151l-60 -266q-6 -26 -6 -41q0 -49 40 -49q33 0 62.5 29t45.5 98l51 229h151l-67 -303q-12 -58 -12 -89q0 -33 9 -63l-130 -28q-13 33 -17 78h-2q-70 -78 -155 -78zM217 532q-28 0 -46 17t-18 45q0 36 22.5 60.5
t54.5 24.5q28 0 46 -17t18 -45q0 -36 -22.5 -60.5t-54.5 -24.5zM416 532q-28 0 -46 17t-18 45q0 36 22.5 60.5t54.5 24.5q28 0 46 -17t18 -45q0 -36 -22.5 -60.5t-54.5 -24.5z" />
    <glyph glyph-name="yacute" unicode="&#xfd;" horiz-adv-x="522" 
d="M-120 -211l54 110q35 -17 69 -17q77 0 144 126l-115 465h145l38 -177q13 -63 28 -139h2q34 77 58 125l97 191h148l-256 -473q-69 -127 -133 -182t-164 -55q-71 0 -115 26zM231 531l75 147h161l-124 -147h-112z" />
    <glyph glyph-name="thorn" unicode="&#xfe;" horiz-adv-x="552" 
d="M-72 -237l209 945h151l-50 -223h10q121 0 185.5 -56t64.5 -153q0 -125 -76 -205.5t-195 -80.5q-50 0 -94 17l-54 -244h-151zM159 124q27 -11 56 -11q59 0 96 43.5t37 104.5q0 53 -29 77t-74 24q-19 0 -34 -3z" />
    <glyph glyph-name="ydieresis" unicode="&#xff;" horiz-adv-x="522" 
d="M-120 -211l54 110q35 -17 69 -17q77 0 144 126l-115 465h145l38 -177q13 -63 28 -139h2q34 77 58 125l97 191h148l-256 -473q-69 -127 -133 -182t-164 -55q-71 0 -115 26zM203 532q-28 0 -46 17t-18 45q0 36 22.5 60.5t54.5 24.5q28 0 46 -17t18 -45q0 -36 -22.5 -60.5
t-54.5 -24.5zM402 532q-28 0 -46 17t-18 45q0 36 22.5 60.5t54.5 24.5q28 0 46 -17t18 -45q0 -36 -22.5 -60.5t-54.5 -24.5z" />
    <glyph glyph-name="Amacron" unicode="&#x100;" horiz-adv-x="659" 
d="M-65 0l381 662h133l132 -662h-162l-27 157h-199l-86 -157h-172zM262 279h111l-17 127q-5 40 -6 54h-2q-14 -36 -23 -54zM228 696l23 112h311l-23 -112h-311z" />
    <glyph glyph-name="amacron" unicode="&#x101;" horiz-adv-x="507" 
d="M120 -10q-62 0 -98.5 36.5t-36.5 94.5q0 76 49 122q70 64 222 64h37q1 5 1 11q0 27 -17 41t-60 14q-58 0 -132 -29l-20 105q91 36 184 36q197 0 197 -153q0 -42 -16 -104l-15 -58q-13 -54 -13 -89q0 -33 9 -63l-130 -28q-14 36 -18 78q-25 -35 -63 -56.5t-80 -21.5z
M167 106q35 0 67.5 25.5t42.5 66.5l3 12h-23q-89 0 -118 -32q-13 -14 -13 -35q0 -37 41 -37zM128 565l23 112h311l-23 -112h-311z" />
    <glyph glyph-name="Abreve" unicode="&#x102;" horiz-adv-x="659" 
d="M-65 0l381 662h133l132 -662h-162l-27 157h-199l-86 -157h-172zM262 279h111l-17 127q-5 40 -6 54h-2q-14 -36 -23 -54zM389 686q-69 0 -107 40.5t-31 111.5h99q-2 -29 11 -46t38 -17t43.5 17t25.5 46h105q-15 -74 -64.5 -113t-119.5 -39z" />
    <glyph glyph-name="abreve" unicode="&#x103;" horiz-adv-x="507" 
d="M120 -10q-62 0 -98.5 36.5t-36.5 94.5q0 76 49 122q70 64 222 64h37q1 5 1 11q0 27 -17 41t-60 14q-58 0 -132 -29l-20 105q91 36 184 36q197 0 197 -153q0 -42 -16 -104l-15 -58q-13 -54 -13 -89q0 -33 9 -63l-130 -28q-14 36 -18 78q-25 -35 -63 -56.5t-80 -21.5z
M167 106q35 0 67.5 25.5t42.5 66.5l3 12h-23q-89 0 -118 -32q-13 -14 -13 -35q0 -37 41 -37zM276 538q-69 0 -107 40.5t-31 111.5h99q-2 -29 11 -46t38 -17t43.5 17t25.5 46h105q-15 -74 -64.5 -113t-119.5 -39z" />
    <glyph glyph-name="Aogonek" unicode="&#x104;" horiz-adv-x="659" 
d="M-65 0l381 662h133l132 -662q-55 -15 -98.5 -46t-43.5 -60q0 -26 32 -26q16 0 37 6l7 -77q-45 -12 -90 -12q-108 0 -108 80q0 76 102 135l-27 157h-199l-86 -157h-172zM262 279h111l-17 127q-5 40 -6 54h-2q-14 -36 -23 -54z" />
    <glyph glyph-name="aogonek" unicode="&#x105;" horiz-adv-x="507" 
d="M120 -10q-62 0 -98.5 36.5t-36.5 94.5q0 76 49 122q70 64 222 64h37q1 5 1 11q0 27 -17 41t-60 14q-58 0 -132 -29l-20 105q91 36 184 36q197 0 197 -153q0 -42 -16 -104l-15 -58q-13 -54 -13 -91q0 -43 9 -73q-55 -23 -93.5 -53.5t-38.5 -58.5q0 -26 32 -26q16 0 37 6
l7 -77q-45 -12 -90 -12q-108 0 -108 80q0 46 37.5 81.5t82.5 53.5q-13 42 -14 68q-25 -35 -63 -56.5t-80 -21.5zM167 106q35 0 67.5 25.5t42.5 66.5l3 12h-23q-89 0 -118 -32q-13 -14 -13 -35q0 -37 41 -37z" />
    <glyph glyph-name="Cacute" unicode="&#x106;" horiz-adv-x="622" 
d="M355 -10q-79 0 -140 23.5t-97.5 64.5t-54.5 91.5t-18 108.5q0 178 117.5 283t289.5 105q100 0 172 -30l-29 -129q-70 32 -144 32q-110 0 -176.5 -73.5t-66.5 -172.5q0 -79 44.5 -127.5t126.5 -48.5q68 0 139 32l28 -123q-81 -36 -191 -36zM349 696l75 147h161l-124 -147
h-112z" />
    <glyph glyph-name="cacute" unicode="&#x107;" horiz-adv-x="452" 
d="M234 -10q-117 0 -174.5 59.5t-57.5 150.5q0 118 77 201.5t216 83.5q78 0 139 -28l-28 -119q-58 28 -107 28q-61 0 -104 -42t-43 -114q0 -101 102 -101q56 0 106 29l41 -105q-27 -18 -75.5 -30.5t-91.5 -12.5zM217 531l75 147h161l-124 -147h-112z" />
    <glyph glyph-name="Ccircumflex" unicode="&#x108;" horiz-adv-x="622" 
d="M355 -10q-79 0 -140 23.5t-97.5 64.5t-54.5 91.5t-18 108.5q0 178 117.5 283t289.5 105q100 0 172 -30l-29 -129q-70 32 -144 32q-110 0 -176.5 -73.5t-66.5 -172.5q0 -79 44.5 -127.5t126.5 -48.5q68 0 139 32l28 -123q-81 -36 -191 -36zM260 696l121 147h107l87 -147
h-109l-40 67l-51 -67h-115z" />
    <glyph glyph-name="ccircumflex" unicode="&#x109;" horiz-adv-x="452" 
d="M234 -10q-117 0 -174.5 59.5t-57.5 150.5q0 118 77 201.5t216 83.5q78 0 139 -28l-28 -119q-58 28 -107 28q-61 0 -104 -42t-43 -114q0 -101 102 -101q56 0 106 29l41 -105q-27 -18 -75.5 -30.5t-91.5 -12.5zM134 531l121 147h107l87 -147h-109l-40 67l-51 -67h-115z" />
    <glyph glyph-name="Cdotaccent" unicode="&#x10a;" horiz-adv-x="622" 
d="M355 -10q-79 0 -140 23.5t-97.5 64.5t-54.5 91.5t-18 108.5q0 178 117.5 283t289.5 105q100 0 172 -30l-29 -129q-70 32 -144 32q-110 0 -176.5 -73.5t-66.5 -172.5q0 -79 44.5 -127.5t126.5 -48.5q68 0 139 32l28 -123q-81 -36 -191 -36zM421 697q-37 0 -60.5 23
t-23.5 56q0 42 28.5 68t67.5 26q37 0 60.5 -22.5t23.5 -55.5q0 -42 -28.5 -68.5t-67.5 -26.5z" />
    <glyph glyph-name="cdotaccent" unicode="&#x10b;" horiz-adv-x="452" 
d="M234 -10q-117 0 -174.5 59.5t-57.5 150.5q0 118 77 201.5t216 83.5q78 0 139 -28l-28 -119q-58 28 -107 28q-61 0 -104 -42t-43 -114q0 -101 102 -101q56 0 106 29l41 -105q-27 -18 -75.5 -30.5t-91.5 -12.5zM302 529q-37 0 -60.5 23t-23.5 56q0 42 28.5 68t67.5 26
q37 0 60.5 -22.5t23.5 -55.5q0 -42 -28.5 -68.5t-67.5 -26.5z" />
    <glyph glyph-name="Ccaron" unicode="&#x10c;" horiz-adv-x="622" 
d="M355 -10q-79 0 -140 23.5t-97.5 64.5t-54.5 91.5t-18 108.5q0 178 117.5 283t289.5 105q100 0 172 -30l-29 -129q-70 32 -144 32q-110 0 -176.5 -73.5t-66.5 -172.5q0 -79 44.5 -127.5t126.5 -48.5q68 0 139 32l28 -123q-81 -36 -191 -36zM367 696l-87 147h109l40 -67
l51 67h115l-121 -147h-107z" />
    <glyph glyph-name="ccaron" unicode="&#x10d;" horiz-adv-x="452" 
d="M234 -10q-117 0 -174.5 59.5t-57.5 150.5q0 118 77 201.5t216 83.5q78 0 139 -28l-28 -119q-58 28 -107 28q-61 0 -104 -42t-43 -114q0 -101 102 -101q56 0 106 29l41 -105q-27 -18 -75.5 -30.5t-91.5 -12.5zM241 531l-87 147h109l40 -67l51 67h115l-121 -147h-107z" />
    <glyph glyph-name="Dcaron" unicode="&#x10e;" horiz-adv-x="702" 
d="M2 0l145 659h172q120 0 203 -38q141 -65 141 -238q0 -122 -62 -211.5t-167 -133.5q-90 -38 -202 -38h-230zM185 129h52q80 0 137 30q126 66 126 235q0 78 -59 111q-45 25 -121 25h-46zM321 696l-87 147h109l40 -67l51 67h115l-121 -147h-107z" />
    <glyph glyph-name="dcaron" unicode="&#x10f;" horiz-adv-x="549" 
d="M245 -10q-114 0 -178.5 61.5t-64.5 159.5q0 122 78 198t202 76q50 0 91 -12l52 235h151l-151 -681q-90 -37 -180 -37zM248 113q28 0 47 8l52 232q-23 9 -53 9q-64 0 -103 -40.5t-39 -105.5q0 -47 26.5 -75t69.5 -28zM600 513l61 196h148l-95 -196h-114z" />
    <glyph glyph-name="Dcroat" unicode="&#x110;" horiz-adv-x="702" 
d="M2 0l60 274h-70l27 123h70l58 262h172q120 0 203 -38q141 -65 141 -238q0 -122 -62 -211.5t-167 -133.5q-90 -38 -202 -38h-230zM185 129h52q80 0 137 30q126 66 126 235q0 78 -59 111q-45 25 -121 25h-46l-30 -133h135l-27 -123h-135z" />
    <glyph glyph-name="dcroat" unicode="&#x111;" horiz-adv-x="549" 
d="M245 -10q-114 0 -178.5 61.5t-64.5 159.5q0 122 78 198t202 76q50 0 91 -12l15 68h-140l24 109h140l13 58h151l-13 -58h53l-24 -109h-53l-114 -514q-90 -37 -180 -37zM248 113q28 0 47 8l52 232q-23 9 -53 9q-64 0 -103 -40.5t-39 -105.5q0 -47 26.5 -75t69.5 -28z" />
    <glyph glyph-name="Emacron" unicode="&#x112;" horiz-adv-x="517" 
d="M2 0l145 659h383l-49 -129h-207l-30 -133h206l-28 -129h-206l-31 -139h234l-28 -129h-389zM187 696l23 112h311l-23 -112h-311z" />
    <glyph glyph-name="emacron" unicode="&#x113;" horiz-adv-x="503" 
d="M228 -10q-111 0 -168.5 57.5t-57.5 148.5q0 121 76 205t198 84q86 0 134.5 -44t48.5 -118q0 -50 -23 -127l-288 -5v-8q0 -38 27 -57.5t68 -19.5q59 0 130 32l40 -105q-83 -43 -185 -43zM165 291l145 2q6 17 6 30q0 24 -15 37t-39 13q-33 0 -60 -23t-37 -59zM137 565
l23 112h311l-23 -112h-311z" />
    <glyph glyph-name="Ebreve" unicode="&#x114;" horiz-adv-x="517" 
d="M2 0l145 659h383l-49 -129h-207l-30 -133h206l-28 -129h-206l-31 -139h234l-28 -129h-389zM336 686q-69 0 -107 40.5t-31 111.5h99q-2 -29 11 -46t38 -17t43.5 17t25.5 46h105q-15 -74 -64.5 -113t-119.5 -39z" />
    <glyph glyph-name="ebreve" unicode="&#x115;" horiz-adv-x="503" 
d="M228 -10q-111 0 -168.5 57.5t-57.5 148.5q0 121 76 205t198 84q86 0 134.5 -44t48.5 -118q0 -50 -23 -127l-288 -5v-8q0 -38 27 -57.5t68 -19.5q59 0 130 32l40 -105q-83 -43 -185 -43zM165 291l145 2q6 17 6 30q0 24 -15 37t-39 13q-33 0 -60 -23t-37 -59zM294 538
q-69 0 -107 40.5t-31 111.5h99q-2 -29 11 -46t38 -17t43.5 17t25.5 46h105q-15 -74 -64.5 -113t-119.5 -39z" />
    <glyph glyph-name="Edotaccent" unicode="&#x116;" horiz-adv-x="517" 
d="M2 0l145 659h383l-49 -129h-207l-30 -133h206l-28 -129h-206l-31 -139h234l-28 -129h-389zM340 697q-37 0 -60.5 23t-23.5 56q0 42 28.5 68t67.5 26q37 0 60.5 -22.5t23.5 -55.5q0 -42 -28.5 -68.5t-67.5 -26.5z" />
    <glyph glyph-name="edotaccent" unicode="&#x117;" horiz-adv-x="503" 
d="M228 -10q-111 0 -168.5 57.5t-57.5 148.5q0 121 76 205t198 84q86 0 134.5 -44t48.5 -118q0 -50 -23 -127l-288 -5v-8q0 -38 27 -57.5t68 -19.5q59 0 130 32l40 -105q-83 -43 -185 -43zM165 291l145 2q6 17 6 30q0 24 -15 37t-39 13q-33 0 -60 -23t-37 -59zM301 529
q-37 0 -60.5 23t-23.5 56q0 42 28.5 68t67.5 26q37 0 60.5 -22.5t23.5 -55.5q0 -42 -28.5 -68.5t-67.5 -26.5z" />
    <glyph glyph-name="Eogonek" unicode="&#x118;" horiz-adv-x="517" 
d="M2 0l145 659h383l-49 -129h-207l-30 -133h206l-28 -129h-206l-31 -139h234l-28 -129h-18q-126 -53 -126 -106q0 -26 32 -26q16 0 37 6l7 -77q-45 -12 -90 -12q-108 0 -108 80q0 75 101 135h-224z" />
    <glyph glyph-name="eogonek" unicode="&#x119;" horiz-adv-x="503" 
d="M225 -215q-108 0 -108 80q0 70 88 125v2q-100 6 -151.5 62t-51.5 142q0 121 76 205t198 84q86 0 134.5 -44t48.5 -118q0 -50 -23 -127l-288 -5v-8q0 -38 27 -57.5t68 -19.5q59 0 130 32l40 -105q-71 -31 -122.5 -69t-51.5 -70q0 -26 32 -26q16 0 37 6l7 -77
q-45 -12 -90 -12zM165 291l145 2q6 17 6 30q0 24 -15 37t-39 13q-33 0 -60 -23t-37 -59z" />
    <glyph glyph-name="Ecaron" unicode="&#x11a;" horiz-adv-x="517" 
d="M2 0l145 659h383l-49 -129h-207l-30 -133h206l-28 -129h-206l-31 -139h234l-28 -129h-389zM286 696l-87 147h109l40 -67l51 67h115l-121 -147h-107z" />
    <glyph glyph-name="ecaron" unicode="&#x11b;" horiz-adv-x="503" 
d="M228 -10q-111 0 -168.5 57.5t-57.5 148.5q0 121 76 205t198 84q86 0 134.5 -44t48.5 -118q0 -50 -23 -127l-288 -5v-8q0 -38 27 -57.5t68 -19.5q59 0 130 32l40 -105q-83 -43 -185 -43zM165 291l145 2q6 17 6 30q0 24 -15 37t-39 13q-33 0 -60 -23t-37 -59zM241 531
l-87 147h109l40 -67l51 67h115l-121 -147h-107z" />
    <glyph glyph-name="Gcircumflex" unicode="&#x11c;" horiz-adv-x="720" 
d="M370 -10q-164 0 -245 80.5t-81 211.5q0 73 27 141t77.5 122.5t132 87.5t180.5 33q131 0 224 -45l-28 -128q-81 46 -187 46q-67 0 -119.5 -22.5t-82.5 -59.5t-45.5 -78.5t-15.5 -84.5q0 -86 47 -131.5t129 -45.5q48 0 81 11l46 198h154l-65 -295q-95 -41 -229 -41z
M286 696l121 147h107l87 -147h-109l-40 67l-51 -67h-115z" />
    <glyph glyph-name="gcircumflex" unicode="&#x11d;" horiz-adv-x="526" 
d="M-44 -202l49 125q63 -30 120 -30q59 0 92.5 28t47.5 86l12 51h-2q-56 -68 -138 -68q-56 0 -95.5 41.5t-39.5 130.5q0 138 80.5 230.5t235.5 92.5q103 0 193 -36l-94 -424q-30 -137 -95 -199.5t-201 -62.5q-90 0 -165 35zM202 113q14 0 28 6t31.5 21.5t33.5 50t27 84.5
l17 80q-19 7 -49 7q-62 0 -100 -52.5t-38 -122.5q0 -74 50 -74zM167 531l121 147h107l87 -147h-109l-40 67l-51 -67h-115z" />
    <glyph glyph-name="Gbreve" unicode="&#x11e;" horiz-adv-x="720" 
d="M370 -10q-164 0 -245 80.5t-81 211.5q0 73 27 141t77.5 122.5t132 87.5t180.5 33q131 0 224 -45l-28 -128q-81 46 -187 46q-67 0 -119.5 -22.5t-82.5 -59.5t-45.5 -78.5t-15.5 -84.5q0 -86 47 -131.5t129 -45.5q48 0 81 11l46 198h154l-65 -295q-95 -41 -229 -41z
M443 686q-69 0 -107 40.5t-31 111.5h99q-2 -29 11 -46t38 -17t43.5 17t25.5 46h105q-15 -74 -64.5 -113t-119.5 -39z" />
    <glyph glyph-name="gbreve" unicode="&#x11f;" horiz-adv-x="526" 
d="M-44 -202l49 125q63 -30 120 -30q59 0 92.5 28t47.5 86l12 51h-2q-56 -68 -138 -68q-56 0 -95.5 41.5t-39.5 130.5q0 138 80.5 230.5t235.5 92.5q103 0 193 -36l-94 -424q-30 -137 -95 -199.5t-201 -62.5q-90 0 -165 35zM202 113q14 0 28 6t31.5 21.5t33.5 50t27 84.5
l17 80q-19 7 -49 7q-62 0 -100 -52.5t-38 -122.5q0 -74 50 -74zM330 538q-69 0 -107 40.5t-31 111.5h99q-2 -29 11 -46t38 -17t43.5 17t25.5 46h105q-15 -74 -64.5 -113t-119.5 -39z" />
    <glyph glyph-name="Gdotaccent" unicode="&#x120;" horiz-adv-x="720" 
d="M370 -10q-164 0 -245 80.5t-81 211.5q0 73 27 141t77.5 122.5t132 87.5t180.5 33q131 0 224 -45l-28 -128q-81 46 -187 46q-67 0 -119.5 -22.5t-82.5 -59.5t-45.5 -78.5t-15.5 -84.5q0 -86 47 -131.5t129 -45.5q48 0 81 11l46 198h154l-65 -295q-95 -41 -229 -41z
M447 697q-37 0 -60.5 23t-23.5 56q0 42 28.5 68t67.5 26q37 0 60.5 -22.5t23.5 -55.5q0 -42 -28.5 -68.5t-67.5 -26.5z" />
    <glyph glyph-name="gdotaccent" unicode="&#x121;" horiz-adv-x="526" 
d="M-44 -202l49 125q63 -30 120 -30q59 0 92.5 28t47.5 86l12 51h-2q-56 -68 -138 -68q-56 0 -95.5 41.5t-39.5 130.5q0 138 80.5 230.5t235.5 92.5q103 0 193 -36l-94 -424q-30 -137 -95 -199.5t-201 -62.5q-90 0 -165 35zM202 113q14 0 28 6t31.5 21.5t33.5 50t27 84.5
l17 80q-19 7 -49 7q-62 0 -100 -52.5t-38 -122.5q0 -74 50 -74zM329 529q-37 0 -60.5 23t-23.5 56q0 42 28.5 68t67.5 26q37 0 60.5 -22.5t23.5 -55.5q0 -42 -28.5 -68.5t-67.5 -26.5z" />
    <glyph glyph-name="Gcommaaccent" unicode="&#x122;" horiz-adv-x="720" 
d="M370 -10q-164 0 -245 80.5t-81 211.5q0 73 27 141t77.5 122.5t132 87.5t180.5 33q131 0 224 -45l-28 -128q-81 46 -187 46q-67 0 -119.5 -22.5t-82.5 -59.5t-45.5 -78.5t-15.5 -84.5q0 -86 47 -131.5t129 -45.5q48 0 81 11l46 198h154l-65 -295q-95 -41 -229 -41z
M228 -237l-27 94q81 11 81 56q0 13 -8 35h134q9 -26 9 -50q0 -121 -189 -135z" />
    <glyph glyph-name="gcommaaccent" unicode="&#x123;" horiz-adv-x="526" 
d="M246 531q-9 25 -9 50q0 121 189 135l27 -94q-81 -11 -81 -56q0 -13 8 -35h-134zM-44 -202l49 125q63 -30 120 -30q59 0 92.5 28t47.5 86l12 51h-2q-56 -68 -138 -68q-56 0 -95.5 41.5t-39.5 130.5q0 138 80.5 230.5t235.5 92.5q103 0 193 -36l-94 -424
q-30 -137 -95 -199.5t-201 -62.5q-90 0 -165 35zM202 113q14 0 28 6t31.5 21.5t33.5 50t27 84.5l17 80q-19 7 -49 7q-62 0 -100 -52.5t-38 -122.5q0 -74 50 -74z" />
    <glyph glyph-name="Hcircumflex" unicode="&#x124;" horiz-adv-x="750" 
d="M2 0l145 659h155l-57 -259h291l57 259h155l-145 -659h-155l59 270h-291l-59 -270h-155zM301 696l121 147h107l87 -147h-109l-40 67l-51 -67h-115z" />
    <glyph glyph-name="hcircumflex" unicode="&#x125;" horiz-adv-x="563" 
d="M-19 0l157 708h151l-54 -238q-12 -54 -26 -87h2q70 102 169 102q58 0 90 -31t32 -92q0 -31 -15 -99l-59 -263h-151l57 253q10 44 10 62q0 39 -36 39q-48 0 -89 -62q-32 -49 -50 -127l-37 -165h-151zM56 726l121 147h107l87 -147h-109l-40 67l-51 -67h-115z" />
    <glyph glyph-name="Hbar" unicode="&#x126;" horiz-adv-x="750" 
d="M2 0l105 477h-65l25 113h65l15 69h155l-15 -69h291l15 69h155l-15 -69h67l-25 -113h-67l-105 -477h-155l59 270h-291l-59 -270h-155zM245 400h291l17 77h-291z" />
    <glyph glyph-name="hbar" unicode="&#x127;" horiz-adv-x="561" 
d="M-19 0l118 534h-51l27 112h49l14 62h151l-14 -62h115l-27 -112h-114l-14 -64q-12 -54 -26 -87h2q70 102 169 102q58 0 90 -31t32 -92q0 -31 -15 -99l-59 -263h-151l57 253q10 44 10 62q0 39 -36 39q-42 0 -81 -51q-39 -52 -60 -146l-35 -157h-151z" />
    <glyph glyph-name="Itilde" unicode="&#x128;" horiz-adv-x="303" 
d="M2 0l145 659h155l-145 -659h-155zM64 715q5 68 35.5 103t73.5 35q33 0 71.5 -20.5t51.5 -20.5q23 0 28 35h97q-5 -68 -35.5 -103t-73.5 -35q-33 0 -71.5 20.5t-51.5 20.5q-23 0 -28 -35h-97z" />
    <glyph glyph-name="itilde" unicode="&#x129;" horiz-adv-x="260" 
d="M2 542q5 68 35.5 103t73.5 35q33 0 71.5 -20.5t51.5 -20.5q23 0 28 35h97q-5 -68 -35.5 -103t-73.5 -35q-33 0 -71.5 20.5t-51.5 20.5q-23 0 -28 -35h-97zM-19 0l105 473h151l-105 -473h-151z" />
    <glyph glyph-name="imacron" unicode="&#x12b;" horiz-adv-x="260" 
d="M22 565l23 112h311l-23 -112h-311zM-19 0l105 473h151l-105 -473h-151z" />
    <glyph glyph-name="Ibreve" unicode="&#x12c;" horiz-adv-x="303" 
d="M2 0l145 659h155l-145 -659h-155zM235 686q-69 0 -107 40.5t-31 111.5h99q-2 -29 11 -46t38 -17t43.5 17t25.5 46h105q-15 -74 -64.5 -113t-119.5 -39z" />
    <glyph glyph-name="Iogonek" unicode="&#x12e;" horiz-adv-x="303" 
d="M2 0l145 659h155l-145 -659q-109 -46 -109 -106q0 -26 32 -26q16 0 37 6l7 -77q-45 -12 -90 -12q-108 0 -108 80q0 77 76 135z" />
    <glyph glyph-name="iogonek" unicode="&#x12f;" horiz-adv-x="260" 
d="M13 -215q-108 0 -108 80q0 77 76 135l105 473h151l-105 -473q-105 -50 -105 -106q0 -26 32 -26q16 0 37 6l7 -77q-45 -12 -90 -12zM182 529q-37 0 -60.5 23t-23.5 56q0 42 28.5 68t67.5 26q37 0 60.5 -22.5t23.5 -55.5q0 -42 -28.5 -68.5t-67.5 -26.5z" />
    <glyph glyph-name="Idotaccent" unicode="&#x130;" horiz-adv-x="303" 
d="M2 0l145 659h155l-145 -659h-155zM243 697q-37 0 -60.5 23t-23.5 56q0 42 28.5 68t67.5 26q37 0 60.5 -22.5t23.5 -55.5q0 -42 -28.5 -68.5t-67.5 -26.5z" />
    <glyph glyph-name="dotlessi" unicode="&#x131;" horiz-adv-x="260" 
d="M-19 0l105 473h151l-105 -473h-151z" />
    <glyph glyph-name="IJ" unicode="&#x132;" horiz-adv-x="645" 
d="M2 0l145 659h155l-145 -659h-155zM154 -164l43 118q29 -14 65 -14q50 0 71 40q12 25 21 65l135 614h155l-144 -658q-16 -69 -42 -106q-58 -82 -183 -82q-69 0 -121 23z" />
    <glyph glyph-name="ij" unicode="&#x133;" horiz-adv-x="525" 
d="M-19 0l105 473h151l-105 -473h-151zM182 529q-37 0 -60.5 23t-23.5 56q0 42 28.5 68t67.5 26q37 0 60.5 -22.5t23.5 -55.5q0 -42 -28.5 -68.5t-67.5 -26.5zM64 -217l46 120q26 -10 53 -10q60 0 76 76l112 504h151l-118 -533q-40 -177 -208 -177q-66 0 -112 20zM447 529
q-37 0 -60.5 23t-23.5 56q0 42 28.5 68t67.5 26q37 0 60.5 -22.5t23.5 -55.5q0 -42 -28.5 -68.5t-67.5 -26.5z" />
    <glyph glyph-name="Jcircumflex" unicode="&#x134;" horiz-adv-x="342" 
d="M-149 -164l43 118q29 -14 65 -14q50 0 71 40q12 25 21 65l135 614h155l-144 -658q-16 -69 -42 -106q-58 -82 -183 -82q-69 0 -121 23zM104 696l121 147h107l87 -147h-109l-40 67l-51 -67h-115z" />
    <glyph glyph-name="jcircumflex" unicode="&#x135;" horiz-adv-x="266" 
d="M-195 -217l41 108q26 -10 56 -10q59 0 76 79l114 513h151l-118 -534q-39 -176 -208 -176q-66 0 -112 20zM11 531l121 147h107l87 -147h-109l-40 67l-51 -67h-115z" />
    <glyph glyph-name="Kcommaaccent" unicode="&#x136;" horiz-adv-x="622" 
d="M2 0l145 659h155l-61 -278h2l259 278h188l-331 -346l203 -313h-183l-162 265h-2l-58 -265h-155zM110 -237l-27 94q81 11 81 56q0 13 -8 35h134q9 -26 9 -50q0 -121 -189 -135z" />
    <glyph glyph-name="kcommaaccent" unicode="&#x137;" horiz-adv-x="520" 
d="M-19 0l157 708h151l-88 -392h2l167 157h180l-238 -220l140 -253h-168l-105 204h-2l-45 -204h-151zM69 -237l-27 94q81 11 81 56q0 13 -8 35h134q9 -25 9 -50q0 -121 -189 -135z" />
    <glyph glyph-name="Lacute" unicode="&#x139;" horiz-adv-x="468" 
d="M2 0l145 659h155l-117 -530h224l-30 -129h-377zM173 696l75 147h161l-124 -147h-112z" />
    <glyph glyph-name="lacute" unicode="&#x13a;" horiz-adv-x="319" 
d="M146 732l65 127h154l-107 -127h-112zM148 -8q-60 0 -98 32t-38 90q0 25 8 62l118 532h151l-117 -523q-5 -25 -5 -35q0 -28 32 -28q20 0 36 5v-120q-43 -15 -87 -15z" />
    <glyph glyph-name="Lcommaaccent" unicode="&#x13b;" horiz-adv-x="468" 
d="M2 0l145 659h155l-117 -530h224l-30 -129h-377zM40 -237l-27 94q81 11 81 56q0 13 -8 35h134q9 -25 9 -50q0 -121 -189 -135z" />
    <glyph glyph-name="lcommaaccent" unicode="&#x13c;" horiz-adv-x="319" 
d="M148 -8q-60 0 -98 32t-38 90q0 25 8 62l118 532h151l-117 -523q-5 -25 -5 -35q0 -28 32 -28q20 0 36 5v-120q-43 -15 -87 -15zM-28 -237l-27 94q81 11 81 56q0 13 -8 35h134q9 -25 9 -50q0 -121 -189 -135z" />
    <glyph glyph-name="Lcaron" unicode="&#x13d;" horiz-adv-x="468" 
d="M2 0l145 659h155l-117 -530h224l-30 -129h-377zM352 513l61 196h148l-95 -196h-114z" />
    <glyph glyph-name="lcaron" unicode="&#x13e;" horiz-adv-x="319" 
d="M148 -8q-60 0 -98 32t-38 90q0 25 8 62l118 532h151l-117 -523q-5 -25 -5 -35q0 -28 32 -28q20 0 36 5v-120q-43 -15 -87 -15zM305 513l61 196h148l-95 -196h-114z" />
    <glyph glyph-name="Ldot" unicode="&#x13f;" horiz-adv-x="468" 
d="M2 0l145 659h155l-117 -530h224l-30 -129h-377zM378 254q-31 0 -51 20.5t-20 52.5q0 38 25.5 64.5t62.5 26.5q31 0 51.5 -21t20.5 -53q0 -37 -26 -63.5t-63 -26.5z" />
    <glyph glyph-name="ldot" unicode="&#x140;" horiz-adv-x="385" 
d="M148 -8q-60 0 -98 32t-38 90q0 25 8 62l118 532h151l-117 -523q-5 -25 -5 -35q0 -28 32 -28q20 0 36 5v-120q-43 -15 -87 -15zM316 265q-31 0 -51 20.5t-20 52.5q0 38 25.5 64.5t62.5 26.5q31 0 51.5 -21t20.5 -53q0 -37 -26 -63.5t-63 -26.5z" />
    <glyph glyph-name="Lslash" unicode="&#x141;" horiz-adv-x="478" 
d="M12 0l45 204l-63 -34l31 141l63 33l69 315h155l-49 -223l138 72l-31 -141l-138 -72l-37 -166h224l-30 -129h-377z" />
    <glyph glyph-name="lslash" unicode="&#x142;" horiz-adv-x="336" 
d="M165 -8q-60 0 -98 32t-38 90q0 25 8 62l14 66l-56 -29l31 141l57 29l72 325h151l-53 -236l62 32l-31 -141l-63 -33l-32 -145q-5 -25 -5 -35q0 -28 32 -28q20 0 36 5v-120q-44 -15 -87 -15z" />
    <glyph glyph-name="Nacute" unicode="&#x143;" horiz-adv-x="785" 
d="M2 0l145 659h147l192 -339q19 -34 43 -84h2q9 45 17 81l75 342h155l-145 -659h-135l-201 355q-26 45 -43 82h-2q-4 -26 -15 -75l-80 -362h-155zM407 696l75 147h161l-124 -147h-112z" />
    <glyph glyph-name="nacute" unicode="&#x144;" horiz-adv-x="558" 
d="M-19 0l105 473h116v-90h2q79 102 176 102q58 0 90 -31t32 -92q0 -31 -15 -99l-59 -263h-151l57 253q10 44 10 62q0 39 -36 39q-45 0 -82 -49t-57 -140l-37 -165h-151zM248 531l75 147h161l-124 -147h-112z" />
    <glyph glyph-name="Ncommaaccent" unicode="&#x145;" horiz-adv-x="785" 
d="M2 0l145 659h147l192 -339q19 -34 43 -84h2q9 45 17 81l75 342h155l-145 -659h-135l-201 355q-26 45 -43 82h-2q-4 -26 -15 -75l-80 -362h-155zM208 -237l-27 94q81 11 81 56q0 13 -8 35h134q9 -26 9 -50q0 -121 -189 -135z" />
    <glyph glyph-name="ncommaaccent" unicode="&#x146;" horiz-adv-x="558" 
d="M-19 0l105 473h116v-90h2q79 102 176 102q58 0 90 -31t32 -92q0 -31 -15 -99l-59 -263h-151l57 253q10 44 10 62q0 39 -36 39q-45 0 -82 -49t-57 -140l-37 -165h-151zM70 -237l-27 94q81 11 81 56q0 13 -8 35h134q9 -25 9 -50q0 -121 -189 -135z" />
    <glyph glyph-name="Ncaron" unicode="&#x147;" horiz-adv-x="785" 
d="M2 0l145 659h147l192 -339q19 -34 43 -84h2q9 45 17 81l75 342h155l-145 -659h-135l-201 355q-26 45 -43 82h-2q-4 -26 -15 -75l-80 -362h-155zM419 696l-87 147h109l40 -67l51 67h115l-121 -147h-107z" />
    <glyph glyph-name="ncaron" unicode="&#x148;" horiz-adv-x="558" 
d="M-19 0l105 473h116v-90h2q79 102 176 102q58 0 90 -31t32 -92q0 -31 -15 -99l-59 -263h-151l57 253q10 44 10 62q0 39 -36 39q-45 0 -82 -49t-57 -140l-37 -165h-151zM257 531l-87 147h109l40 -67l51 67h115l-121 -147h-107z" />
    <glyph glyph-name="Eng" unicode="&#x14a;" horiz-adv-x="779" 
d="M2 0l145 659h147l192 -338q19 -34 43 -84h2q9 45 17 81l75 341h155l-151 -686q-39 -176 -222 -176q-69 0 -121 23l43 118q29 -14 65 -14t56 20t33 73l2 8l-187 326q-26 45 -43 82h-2q-4 -26 -15 -75l-79 -358h-155z" />
    <glyph glyph-name="eng" unicode="&#x14b;" horiz-adv-x="561" 
d="M-19 0l105 473h116v-90h2q79 102 176 102q58 0 90 -31t32 -92q0 -31 -15 -99l-63 -281q-40 -177 -207 -177q-66 0 -112 20l46 120q26 -10 53 -10q60 0 76 76l54 242q10 44 10 62q0 39 -36 39q-48 0 -87 -56q-33 -49 -52 -133l-37 -165h-151z" />
    <glyph glyph-name="Omacron" unicode="&#x14c;" horiz-adv-x="756" 
d="M326 -10q-129 0 -205 73t-76 199q0 173 107 288.5t276 115.5q129 0 205 -73t76 -199q0 -173 -107 -288.5t-276 -115.5zM338 117q89 0 149 82.5t60 188.5q0 72 -34.5 111.5t-96.5 39.5q-89 0 -149 -82.5t-60 -188.5q0 -72 34.5 -111.5t96.5 -39.5zM296 696l23 112h311
l-23 -112h-311z" />
    <glyph glyph-name="omacron" unicode="&#x14d;" horiz-adv-x="548" 
d="M221 -10q-102 0 -161.5 58.5t-59.5 154.5q0 118 77.5 200t195.5 82q102 0 161.5 -58.5t59.5 -154.5q0 -118 -77.5 -200t-195.5 -82zM225 109q47 0 83 45.5t36 116.5q0 47 -20.5 71t-54.5 24q-47 0 -83 -45.5t-36 -116.5q0 -47 20.5 -71t54.5 -24zM140 565l23 112h311
l-23 -112h-311z" />
    <glyph glyph-name="Obreve" unicode="&#x14e;" horiz-adv-x="756" 
d="M326 -10q-129 0 -205 73t-76 199q0 173 107 288.5t276 115.5q129 0 205 -73t76 -199q0 -173 -107 -288.5t-276 -115.5zM338 117q89 0 149 82.5t60 188.5q0 72 -34.5 111.5t-96.5 39.5q-89 0 -149 -82.5t-60 -188.5q0 -72 34.5 -111.5t96.5 -39.5zM441 686
q-69 0 -107 40.5t-31 111.5h99q-2 -29 11 -46t38 -17t43.5 17t25.5 46h105q-15 -74 -64.5 -113t-119.5 -39z" />
    <glyph glyph-name="obreve" unicode="&#x14f;" horiz-adv-x="548" 
d="M221 -10q-102 0 -161.5 58.5t-59.5 154.5q0 118 77.5 200t195.5 82q102 0 161.5 -58.5t59.5 -154.5q0 -118 -77.5 -200t-195.5 -82zM225 109q47 0 83 45.5t36 116.5q0 47 -20.5 71t-54.5 24q-47 0 -83 -45.5t-36 -116.5q0 -47 20.5 -71t54.5 -24zM295 538
q-69 0 -107 40.5t-31 111.5h99q-2 -29 11 -46t38 -17t43.5 17t25.5 46h105q-15 -74 -64.5 -113t-119.5 -39z" />
    <glyph glyph-name="Ohungarumlaut" unicode="&#x150;" horiz-adv-x="756" 
d="M326 -10q-129 0 -205 73t-76 199q0 173 107 288.5t276 115.5q129 0 205 -73t76 -199q0 -173 -107 -288.5t-276 -115.5zM338 117q89 0 149 82.5t60 188.5q0 72 -34.5 111.5t-96.5 39.5q-89 0 -149 -82.5t-60 -188.5q0 -72 34.5 -111.5t96.5 -39.5zM297 696l75 147h161
l-124 -147h-112zM485 696l75 147h161l-124 -147h-112z" />
    <glyph glyph-name="ohungarumlaut" unicode="&#x151;" horiz-adv-x="548" 
d="M221 -10q-102 0 -161.5 58.5t-59.5 154.5q0 118 77.5 200t195.5 82q102 0 161.5 -58.5t59.5 -154.5q0 -118 -77.5 -200t-195.5 -82zM225 109q47 0 83 45.5t36 116.5q0 47 -20.5 71t-54.5 24q-47 0 -83 -45.5t-36 -116.5q0 -47 20.5 -71t54.5 -24zM148 531l75 147h161
l-124 -147h-112zM336 531l75 147h161l-124 -147h-112z" />
    <glyph glyph-name="OE" unicode="&#x152;" horiz-adv-x="906" 
d="M44 272q0 171 108.5 282.5t294.5 111.5q24 0 85 -3.5t83 -3.5h304l-49 -129h-207l-30 -133h206l-28 -129h-206l-31 -139h234l-28 -129h-279q-27 0 -83 -5t-87 -5q-135 0 -211 76.5t-76 205.5zM207 268q0 -73 36 -112t104 -39q35 0 72 9l88 401q-36 12 -82 12
q-97 0 -157.5 -78t-60.5 -193z" />
    <glyph glyph-name="oe" unicode="&#x153;" horiz-adv-x="843" 
d="M212 -10q-96 0 -153 59t-57 154q0 118 75 200t189 82q108 0 163 -83h2q31 38 80.5 60.5t108.5 22.5q82 0 129.5 -44t47.5 -118q0 -50 -23 -127l-288 -5v-8q0 -38 27 -57.5t68 -19.5q59 0 130 32l40 -105q-83 -43 -185 -43q-117 0 -168 83h-2q-76 -83 -184 -83zM227 109
q47 0 83 45.5t36 116.5q0 47 -20.5 71t-54.5 24q-47 0 -83 -45.5t-36 -116.5q0 -47 20.5 -71t54.5 -24zM503 291l145 2q6 17 6 30q0 24 -15 37t-39 13q-33 0 -60 -23t-37 -59z" />
    <glyph glyph-name="Racute" unicode="&#x154;" horiz-adv-x="596" 
d="M2 0l145 659h176q123 0 179 -48t56 -129q0 -80 -47 -130.5t-118 -68.5v-3q16 -26 38 -74l90 -206h-165l-68 173q-23 56 -34 68h-44l-53 -241h-155zM237 364h38q56 0 92 27.5t36 75.5q0 69 -89 69h-39zM274 696l75 147h161l-124 -147h-112z" />
    <glyph glyph-name="racute" unicode="&#x155;" horiz-adv-x="394" 
d="M-19 0l105 473h116v-90h2q26 48 54.5 75t70.5 27t79 -31l-64 -120q-26 17 -51 17q-84 0 -124 -185l-36 -166h-152zM189 531l75 147h161l-124 -147h-112z" />
    <glyph glyph-name="Rcommaaccent" unicode="&#x156;" horiz-adv-x="596" 
d="M2 0l145 659h176q123 0 179 -48t56 -129q0 -80 -47 -130.5t-118 -68.5v-3q16 -26 38 -74l90 -206h-165l-68 173q-23 56 -34 68h-44l-53 -241h-155zM237 364h38q56 0 92 27.5t36 75.5q0 69 -89 69h-39zM115 -237l-27 94q81 11 81 56q0 13 -8 35h134q9 -26 9 -50
q0 -121 -189 -135z" />
    <glyph glyph-name="rcommaaccent" unicode="&#x157;" horiz-adv-x="394" 
d="M-19 0l105 473h116v-90h2q26 48 54.5 75t70.5 27t79 -31l-64 -120q-26 17 -51 17q-84 0 -124 -185l-36 -166h-152zM-56 -237l-27 94q81 11 81 56q0 13 -8 35h134q9 -26 9 -50q0 -121 -189 -135z" />
    <glyph glyph-name="Rcaron" unicode="&#x158;" horiz-adv-x="596" 
d="M2 0l145 659h176q123 0 179 -48t56 -129q0 -80 -47 -130.5t-118 -68.5v-3q16 -26 38 -74l90 -206h-165l-68 173q-23 56 -34 68h-44l-53 -241h-155zM237 364h38q56 0 92 27.5t36 75.5q0 69 -89 69h-39zM285 696l-87 147h109l40 -67l51 67h115l-121 -147h-107z" />
    <glyph glyph-name="rcaron" unicode="&#x159;" horiz-adv-x="394" 
d="M-19 0l105 473h116v-90h2q26 48 54.5 75t70.5 27t79 -31l-64 -120q-26 17 -51 17q-84 0 -124 -185l-36 -166h-152zM202 531l-87 147h109l40 -67l51 67h115l-121 -147h-107z" />
    <glyph glyph-name="Sacute" unicode="&#x15a;" horiz-adv-x="505" 
d="M-25 41l62 120q74 -44 143 -44q43 0 73.5 16t30.5 52q0 28 -22.5 50.5t-54.5 40.5t-63.5 39t-54 57t-22.5 84q0 90 64.5 150t180.5 60q104 0 180 -38l-27 -130q-69 41 -149 41q-44 0 -65.5 -17.5t-21.5 -42.5q0 -23 16 -42.5t40.5 -33.5t52.5 -33t52.5 -39t40.5 -52.5
t16 -73.5q0 -101 -73.5 -158t-189.5 -57t-209 51zM257 696l75 147h161l-124 -147h-112z" />
    <glyph glyph-name="sacute" unicode="&#x15b;" 
d="M-42 40l47 107q68 -41 129 -41q57 0 57 31q0 14 -17 27t-41.5 26t-48.5 30t-41 47t-17 69q0 64 48 106.5t137 42.5q88 0 159 -30l-24 -118q-70 32 -127 32q-42 0 -42 -29q0 -19 26 -38t56.5 -34t56.5 -49t26 -79q0 -73 -54.5 -111.5t-142.5 -38.5q-102 0 -187 50z
M169 531l75 147h161l-124 -147h-112z" />
    <glyph glyph-name="Scircumflex" unicode="&#x15c;" horiz-adv-x="505" 
d="M-25 41l62 120q74 -44 143 -44q43 0 73.5 16t30.5 52q0 28 -22.5 50.5t-54.5 40.5t-63.5 39t-54 57t-22.5 84q0 90 64.5 150t180.5 60q104 0 180 -38l-27 -130q-69 41 -149 41q-44 0 -65.5 -17.5t-21.5 -42.5q0 -23 16 -42.5t40.5 -33.5t52.5 -33t52.5 -39t40.5 -52.5
t16 -73.5q0 -101 -73.5 -158t-189.5 -57t-209 51zM168 696l121 147h107l87 -147h-109l-40 67l-51 -67h-115z" />
    <glyph glyph-name="scircumflex" unicode="&#x15d;" 
d="M-42 40l47 107q68 -41 129 -41q57 0 57 31q0 14 -17 27t-41.5 26t-48.5 30t-41 47t-17 69q0 64 48 106.5t137 42.5q88 0 159 -30l-24 -118q-70 32 -127 32q-42 0 -42 -29q0 -19 26 -38t56.5 -34t56.5 -49t26 -79q0 -73 -54.5 -111.5t-142.5 -38.5q-102 0 -187 50zM75 531
l121 147h107l87 -147h-109l-40 67l-51 -67h-115z" />
    <glyph glyph-name="Scedilla" unicode="&#x15e;" horiz-adv-x="505" 
d="M37 -198l28 62q20 -9 47 -9q51 0 51 32q0 26 -72 26l40 80q-83 8 -156 48l62 120q74 -44 143 -44q43 0 73.5 16t30.5 52q0 28 -22.5 50.5t-54.5 40.5t-63.5 39t-54 57t-22.5 84q0 90 64.5 150t180.5 60q104 0 180 -38l-27 -130q-69 41 -149 41q-44 0 -65.5 -17.5
t-21.5 -42.5q0 -23 16 -42.5t40.5 -33.5t52.5 -33t52.5 -39t40.5 -52.5t16 -73.5q0 -90 -58.5 -145t-154.5 -67l-20 -39q76 -7 76 -65q0 -47 -44.5 -74t-120.5 -27q-51 0 -88 14z" />
    <glyph glyph-name="scedilla" unicode="&#x15f;" 
d="M-22 -198l28 62q20 -9 47 -9q51 0 51 32q0 26 -72 26l42 84q-60 10 -116 43l47 107q68 -41 129 -41q57 0 57 31q0 14 -17 27t-41.5 26t-48.5 30t-41 47t-17 69q0 64 48 106.5t137 42.5q88 0 159 -30l-24 -118q-70 32 -127 32q-42 0 -42 -29q0 -19 26 -38t56.5 -34
t56.5 -49t26 -79q0 -66 -46 -104t-122 -44l-19 -38q76 -7 76 -65q0 -47 -44.5 -74t-120.5 -27q-51 0 -88 14z" />
    <glyph glyph-name="Scaron" unicode="&#x160;" horiz-adv-x="505" 
d="M-25 41l62 120q74 -44 143 -44q43 0 73.5 16t30.5 52q0 28 -22.5 50.5t-54.5 40.5t-63.5 39t-54 57t-22.5 84q0 90 64.5 150t180.5 60q104 0 180 -38l-27 -130q-69 41 -149 41q-44 0 -65.5 -17.5t-21.5 -42.5q0 -23 16 -42.5t40.5 -33.5t52.5 -33t52.5 -39t40.5 -52.5
t16 -73.5q0 -101 -73.5 -158t-189.5 -57t-209 51zM266 696l-87 147h109l40 -67l51 67h115l-121 -147h-107z" />
    <glyph glyph-name="scaron" unicode="&#x161;" 
d="M-42 40l47 107q68 -41 129 -41q57 0 57 31q0 14 -17 27t-41.5 26t-48.5 30t-41 47t-17 69q0 64 48 106.5t137 42.5q88 0 159 -30l-24 -118q-70 32 -127 32q-42 0 -42 -29q0 -19 26 -38t56.5 -34t56.5 -49t26 -79q0 -73 -54.5 -111.5t-142.5 -38.5q-102 0 -187 50z
M181 531l-87 147h109l40 -67l51 67h115l-121 -147h-107z" />
    <glyph glyph-name="Tcommaaccent" unicode="&#x162;" horiz-adv-x="562" 
d="M130 0l117 530h-195l28 129h550l-56 -129h-172l-117 -530h-155zM81 -237l-27 94q81 11 81 56q0 13 -8 35h134q9 -25 9 -50q0 -121 -189 -135z" />
    <glyph glyph-name="tcommaaccent" unicode="&#x163;" horiz-adv-x="398" 
d="M184 -10q-144 0 -144 118q0 29 10 73l39 176h-86l26 116h85l25 110l159 38l-33 -148h127l-46 -116h-107l-43 -194q-3 -12 -3 -23q0 -31 33 -31q35 0 81 23l35 -106q-80 -36 -158 -36zM4 -237l-27 94q81 11 81 56q0 13 -8 35h134q9 -25 9 -50q0 -121 -189 -135z" />
    <glyph glyph-name="Tcaron" unicode="&#x164;" horiz-adv-x="562" 
d="M130 0l117 530h-195l28 129h550l-56 -129h-172l-117 -530h-155zM309 696l-87 147h109l40 -67l51 67h115l-121 -147h-107z" />
    <glyph glyph-name="tcaron" unicode="&#x165;" horiz-adv-x="398" 
d="M184 -10q-144 0 -144 118q0 29 10 73l39 176h-86l26 116h85l25 110l159 38l-33 -148h127l-46 -116h-107l-43 -194q-3 -12 -3 -23q0 -31 33 -31q35 0 81 23l35 -106q-80 -36 -158 -36zM339 513l61 196h148l-95 -196h-114z" />
    <glyph glyph-name="Tbar" unicode="&#x166;" horiz-adv-x="562" 
d="M130 0l52 237h-121l28 123h120l38 170h-195l28 129h550l-56 -129h-172l-38 -170h124l-28 -123h-123l-52 -237h-155z" />
    <glyph glyph-name="tbar" unicode="&#x167;" horiz-adv-x="398" 
d="M184 -10q-144 0 -144 118q0 29 7 61l2 10h-84l26 112h83l15 66h-86l26 116h85l25 110l159 38l-33 -148h127l-46 -116h-107l-15 -66h96l-26 -112h-94l-2 -8q-5 -20 -5 -31q0 -31 33 -31q35 0 81 23l35 -106q-80 -36 -158 -36z" />
    <glyph glyph-name="Utilde" unicode="&#x168;" horiz-adv-x="720" 
d="M320 -10q-128 0 -196 58.5t-68 152.5q0 44 13 101l78 357h155l-83 -372q-7 -32 -7 -61q0 -54 29 -81.5t81 -27.5q65 0 105 40q34 34 48 98l89 404h155l-90 -409q-28 -130 -95 -188q-84 -72 -214 -72zM273 715q5 68 35.5 103t73.5 35q33 0 71.5 -20.5t51.5 -20.5
q23 0 28 35h97q-5 -68 -35.5 -103t-73.5 -35q-33 0 -71.5 20.5t-51.5 20.5q-23 0 -28 -35h-97z" />
    <glyph glyph-name="utilde" unicode="&#x169;" horiz-adv-x="553" 
d="M147 -10q-55 0 -92 34.5t-37 101.5q0 37 14 103l54 244h151l-60 -266q-6 -26 -6 -41q0 -49 40 -49q33 0 62.5 29t45.5 98l51 229h151l-67 -303q-12 -58 -12 -89q0 -33 9 -63l-130 -28q-13 33 -17 78h-2q-70 -78 -155 -78zM147 542q5 68 35.5 103t73.5 35q33 0 71.5 -20.5
t51.5 -20.5q23 0 28 35h97q-5 -68 -35.5 -103t-73.5 -35q-33 0 -71.5 20.5t-51.5 20.5q-23 0 -28 -35h-97z" />
    <glyph glyph-name="Umacron" unicode="&#x16a;" horiz-adv-x="720" 
d="M320 -10q-128 0 -196 58.5t-68 152.5q0 44 13 101l78 357h155l-83 -372q-7 -32 -7 -61q0 -54 29 -81.5t81 -27.5q65 0 105 40q34 34 48 98l89 404h155l-90 -409q-28 -130 -95 -188q-84 -72 -214 -72zM284 696l23 112h311l-23 -112h-311z" />
    <glyph glyph-name="umacron" unicode="&#x16b;" horiz-adv-x="553" 
d="M147 -10q-55 0 -92 34.5t-37 101.5q0 37 14 103l54 244h151l-60 -266q-6 -26 -6 -41q0 -49 40 -49q33 0 62.5 29t45.5 98l51 229h151l-67 -303q-12 -58 -12 -89q0 -33 9 -63l-130 -28q-13 33 -17 78h-2q-70 -78 -155 -78zM161 565l23 112h311l-23 -112h-311z" />
    <glyph glyph-name="Ubreve" unicode="&#x16c;" horiz-adv-x="720" 
d="M320 -10q-128 0 -196 58.5t-68 152.5q0 44 13 101l78 357h155l-83 -372q-7 -32 -7 -61q0 -54 29 -81.5t81 -27.5q65 0 105 40q34 34 48 98l89 404h155l-90 -409q-28 -130 -95 -188q-84 -72 -214 -72zM433 686q-69 0 -107 40.5t-31 111.5h99q-2 -29 11 -46t38 -17t43.5 17
t25.5 46h105q-15 -74 -64.5 -113t-119.5 -39z" />
    <glyph glyph-name="ubreve" unicode="&#x16d;" horiz-adv-x="553" 
d="M147 -10q-55 0 -92 34.5t-37 101.5q0 37 14 103l54 244h151l-60 -266q-6 -26 -6 -41q0 -49 40 -49q33 0 62.5 29t45.5 98l51 229h151l-67 -303q-12 -58 -12 -89q0 -33 9 -63l-130 -28q-13 33 -17 78h-2q-70 -78 -155 -78zM314 538q-69 0 -107 40.5t-31 111.5h99
q-2 -29 11 -46t38 -17t43.5 17t25.5 46h105q-15 -74 -64.5 -113t-119.5 -39z" />
    <glyph glyph-name="Uring" unicode="&#x16e;" horiz-adv-x="720" 
d="M320 -10q-128 0 -196 58.5t-68 152.5q0 44 13 101l78 357h155l-83 -372q-7 -32 -7 -61q0 -54 29 -81.5t81 -27.5q65 0 105 40q34 34 48 98l89 404h155l-90 -409q-28 -130 -95 -188q-84 -72 -214 -72zM433 653q-51 0 -81.5 21t-30.5 59q0 52 40 85t102 33q51 0 81.5 -21
t30.5 -59q0 -52 -40 -85t-102 -33zM441 712q19 0 30.5 16t11.5 36q0 28 -28 28q-19 0 -30.5 -16t-11.5 -36q0 -28 28 -28z" />
    <glyph glyph-name="uring" unicode="&#x16f;" horiz-adv-x="553" 
d="M147 -10q-55 0 -92 34.5t-37 101.5q0 37 14 103l54 244h151l-60 -266q-6 -26 -6 -41q0 -49 40 -49q33 0 62.5 29t45.5 98l51 229h151l-67 -303q-12 -58 -12 -89q0 -33 9 -63l-130 -28q-13 33 -17 78h-2q-70 -78 -155 -78zM310 521q-51 0 -81.5 21t-30.5 59q0 52 40 85
t102 33q51 0 81.5 -21t30.5 -59q0 -52 -40 -85t-102 -33zM318 580q19 0 30.5 16t11.5 36q0 28 -28 28q-19 0 -30.5 -16t-11.5 -36q0 -28 28 -28z" />
    <glyph glyph-name="Uhungarumlaut" unicode="&#x170;" horiz-adv-x="720" 
d="M320 -10q-128 0 -196 58.5t-68 152.5q0 44 13 101l78 357h155l-83 -372q-7 -32 -7 -61q0 -54 29 -81.5t81 -27.5q65 0 105 40q34 34 48 98l89 404h155l-90 -409q-28 -130 -95 -188q-84 -72 -214 -72zM285 696l75 147h161l-124 -147h-112zM473 696l75 147h161l-124 -147
h-112z" />
    <glyph glyph-name="uhungarumlaut" unicode="&#x171;" horiz-adv-x="553" 
d="M147 -10q-55 0 -92 34.5t-37 101.5q0 37 14 103l54 244h151l-60 -266q-6 -26 -6 -41q0 -49 40 -49q33 0 62.5 29t45.5 98l51 229h151l-67 -303q-12 -58 -12 -89q0 -33 9 -63l-130 -28q-13 33 -17 78h-2q-70 -78 -155 -78zM161 531l75 147h161l-124 -147h-112zM349 531
l75 147h161l-124 -147h-112z" />
    <glyph glyph-name="Uogonek" unicode="&#x172;" horiz-adv-x="720" 
d="M270 -215q-108 0 -108 80q0 71 91 129v2q-88 12 -142.5 66t-54.5 139q0 44 13 101l78 357h155l-83 -372q-7 -32 -7 -61q0 -54 29 -81.5t81 -27.5q123 0 153 138l89 404h155l-90 -409q-23 -103 -71.5 -161.5t-135.5 -85.5q-52 -16 -95 -47t-43 -62q0 -26 32 -26q16 0 37 6
l7 -77q-45 -12 -90 -12z" />
    <glyph glyph-name="uogonek" unicode="&#x173;" horiz-adv-x="553" 
d="M306 -215q-108 0 -108 80q0 46 37 81.5t82 53.5q-11 38 -13 68h-2q-70 -78 -155 -78q-55 0 -92 34.5t-37 101.5q0 37 14 103l54 244h151l-60 -266q-6 -26 -6 -41q0 -49 40 -49q33 0 62.5 29t45.5 98l51 229h151l-67 -303q-12 -58 -12 -91q0 -43 9 -73q-55 -23 -93 -53.5
t-38 -58.5q0 -26 32 -26q16 0 37 6l7 -77q-45 -12 -90 -12z" />
    <glyph glyph-name="Wcircumflex" unicode="&#x174;" horiz-adv-x="933" 
d="M174 -5l-97 664h164l35 -299q11 -97 13 -143h2q22 54 59 126l106 203l-18 113h148l40 -301q12 -85 17 -141h2q16 53 51 130l138 312h165l-329 -664h-131l-36 225q-14 84 -18 120h-2q-17 -46 -55 -114l-126 -231h-128zM390 696l121 147h107l87 -147h-109l-40 67l-51 -67
h-115z" />
    <glyph glyph-name="wcircumflex" unicode="&#x175;" horiz-adv-x="737" 
d="M112 -3l-78 476h142l20 -162q9 -72 13 -120h2q17 43 50 108l89 174h93l23 -149q12 -75 17 -133h2q12 32 50 115l78 167h153l-259 -476h-105l-27 165q-6 39 -15 102h-2q-18 -38 -55 -105l-89 -162h-102zM251 531l121 147h107l87 -147h-109l-40 67l-51 -67h-115z" />
    <glyph glyph-name="Ycircumflex" unicode="&#x176;" horiz-adv-x="599" 
d="M174 0l57 260l-154 399h156l94 -267h2l165 267h171l-281 -409l-55 -250h-155zM215 696l121 147h107l87 -147h-109l-40 67l-51 -67h-115z" />
    <glyph glyph-name="ycircumflex" unicode="&#x177;" horiz-adv-x="522" 
d="M-120 -211l54 110q35 -17 69 -17q77 0 144 126l-115 465h145l38 -177q13 -63 28 -139h2q34 77 58 125l97 191h148l-256 -473q-69 -127 -133 -182t-164 -55q-71 0 -115 26zM142 531l121 147h107l87 -147h-109l-40 67l-51 -67h-115z" />
    <glyph glyph-name="Ydieresis" unicode="&#x178;" horiz-adv-x="599" 
d="M174 0l57 260l-154 399h156l94 -267h2l165 267h171l-281 -409l-55 -250h-155zM277 697q-28 0 -46 17t-18 45q0 36 22.5 60.5t54.5 24.5q28 0 46 -17t18 -45q0 -36 -22.5 -60.5t-54.5 -24.5zM476 697q-28 0 -46 17t-18 45q0 36 22.5 60.5t54.5 24.5q28 0 46 -17t18 -45
q0 -36 -22.5 -60.5t-54.5 -24.5z" />
    <glyph glyph-name="Zacute" unicode="&#x179;" horiz-adv-x="565" 
d="M-42 0l377 530h-240l-9 129h508l-372 -530h277l-29 -129h-512zM266 696l75 147h161l-124 -147h-112z" />
    <glyph glyph-name="zacute" unicode="&#x17a;" horiz-adv-x="448" 
d="M-58 0l255 357h-164l-12 116h419l-257 -357h203l-25 -116h-419zM177 531l75 147h161l-124 -147h-112z" />
    <glyph glyph-name="Zdotaccent" unicode="&#x17b;" horiz-adv-x="565" 
d="M-42 0l377 530h-240l-9 129h508l-372 -530h277l-29 -129h-512zM338 697q-37 0 -60.5 23t-23.5 56q0 42 28.5 68t67.5 26q37 0 60.5 -22.5t23.5 -55.5q0 -42 -28.5 -68.5t-67.5 -26.5z" />
    <glyph glyph-name="zdotaccent" unicode="&#x17c;" horiz-adv-x="448" 
d="M-58 0l255 357h-164l-12 116h419l-257 -357h203l-25 -116h-419zM248 529q-37 0 -60.5 23t-23.5 56q0 42 28.5 68t67.5 26q37 0 60.5 -22.5t23.5 -55.5q0 -42 -28.5 -68.5t-67.5 -26.5z" />
    <glyph glyph-name="Zcaron" unicode="&#x17d;" horiz-adv-x="565" 
d="M-42 0l377 530h-240l-9 129h508l-372 -530h277l-29 -129h-512zM284 696l-87 147h109l40 -67l51 67h115l-121 -147h-107z" />
    <glyph glyph-name="zcaron" unicode="&#x17e;" horiz-adv-x="448" 
d="M-58 0l255 357h-164l-12 116h419l-257 -357h203l-25 -116h-419zM193 531l-87 147h109l40 -67l51 67h115l-121 -147h-107z" />
    <glyph glyph-name="florin" unicode="&#x192;" horiz-adv-x="560" 
d="M-108 -131l53 119q33 -24 79 -24q72 0 92 86l54 235h-100l15 116h111l28 121q19 84 74.5 135t149.5 51q87 0 144 -39l-53 -119q-33 24 -79 24q-72 0 -92 -86l-20 -87h127l-40 -116h-113l-62 -269q-19 -84 -74.5 -135t-149.5 -51q-87 0 -144 39z" />
    <glyph glyph-name="Aringacute" unicode="&#x1fa;" horiz-adv-x="659" 
d="M-65 0l377 655q-45 21 -45 68q0 46 32 77.5t84 38.5l58 114h161l-112 -133q31 -23 31 -59q0 -73 -71 -104l131 -657h-162l-27 157h-199l-86 -157h-172zM262 279h111l-17 127q-5 40 -6 54h-2q-14 -36 -23 -54zM387 702q19 0 30.5 16t11.5 36q0 28 -28 28q-19 0 -30.5 -16
t-11.5 -36q0 -28 28 -28z" />
    <glyph glyph-name="aringacute" unicode="&#x1fb;" horiz-adv-x="507" 
d="M278 515q-51 0 -81.5 21t-30.5 59q0 45 30.5 76t79.5 39l67 133h161l-125 -145q41 -22 41 -65q0 -52 -40 -85t-102 -33zM286 574q19 0 30.5 16t11.5 36q0 28 -28 28q-19 0 -30.5 -16t-11.5 -36q0 -28 28 -28zM120 -10q-62 0 -98.5 36.5t-36.5 94.5q0 76 49 122
q70 64 222 64h37q1 5 1 11q0 27 -17 41t-60 14q-58 0 -132 -29l-20 105q91 36 184 36q197 0 197 -153q0 -42 -16 -104l-15 -58q-13 -54 -13 -89q0 -33 9 -63l-130 -28q-14 36 -18 78q-25 -35 -63 -56.5t-80 -21.5zM167 106q35 0 67.5 25.5t42.5 66.5l3 12h-23
q-89 0 -118 -32q-13 -14 -13 -35q0 -37 41 -37z" />
    <glyph glyph-name="AEacute" unicode="&#x1fc;" horiz-adv-x="887" 
d="M-65 0l505 659h420l-34 -129h-208l-20 -133h207l-18 -129h-207l-20 -139h235l-18 -129h-389l23 157h-180l-120 -157h-176zM325 279h103l29 179h-3q-33 -53 -62 -91zM519 696l75 147h161l-124 -147h-112z" />
    <glyph glyph-name="aeacute" unicode="&#x1fd;" horiz-adv-x="783" 
d="M132 -10q-63 0 -105 37.5t-42 98.5q0 171 271 171h37q1 5 1 17q0 59 -77 59q-58 0 -132 -29l-20 105q91 36 177 36q108 0 151 -65h2q68 65 159 65q86 0 134.5 -44t48.5 -118q0 -59 -22 -121l-289 -5v-10q0 -38 27.5 -59.5t67.5 -21.5q59 0 130 32l40 -105
q-83 -43 -176 -43q-131 0 -184 96h-2q-75 -96 -197 -96zM167 106q36 0 68 21.5t42 61.5l2 8h-21q-64 0 -98 -11.5t-34 -42.5q0 -37 41 -37zM444 297l146 2q4 12 4 24q0 24 -15 37t-39 13q-34 0 -60 -20.5t-36 -55.5zM361 531l75 147h161l-124 -147h-112z" />
    <glyph glyph-name="Oslashacute" unicode="&#x1fe;" horiz-adv-x="756" 
d="M333 -10q-71 0 -132 24l-57 -71l-92 71l54 68q-62 73 -62 190q0 169 104 281.5t273 112.5q73 0 134 -25l52 65l92 -71l-50 -63q61 -73 61 -188q0 -169 -104 -281.5t-273 -112.5zM347 117q81 0 140.5 71t59.5 200q0 28 -6 50l-251 -313q27 -8 57 -8zM207 268q0 -29 6 -53
l252 314q-28 10 -58 10q-81 0 -140.5 -71t-59.5 -200zM389 696l75 147h161l-124 -147h-112z" />
    <glyph glyph-name="oslashacute" unicode="&#x1ff;" horiz-adv-x="548" 
d="M238 531l75 147h161l-124 -147h-112zM64 -34l-53 46l40 47q-49 55 -49 144q0 118 77.5 200t195.5 82q71 0 121 -29l44 51l53 -46l-43 -50q46 -57 46 -139q0 -118 -77.5 -200t-195.5 -82q-64 0 -116 26zM227 106q47 0 85 47t38 118q0 11 -2 23l-156 -180q13 -8 35 -8z
M148 204q0 -16 3 -31l160 185q-19 11 -40 11q-47 0 -85 -47t-38 -118z" />
    <glyph glyph-name="Scommaaccent" unicode="&#x218;" horiz-adv-x="505" 
d="M-25 41l62 120q74 -44 143 -44q43 0 73.5 16t30.5 52q0 28 -22.5 50.5t-54.5 40.5t-63.5 39t-54 57t-22.5 84q0 90 64.5 150t180.5 60q104 0 180 -38l-27 -130q-69 41 -149 41q-44 0 -65.5 -17.5t-21.5 -42.5q0 -23 16 -42.5t40.5 -33.5t52.5 -33t52.5 -39t40.5 -52.5
t16 -73.5q0 -101 -73.5 -158t-189.5 -57t-209 51zM54 -237l-27 94q81 11 81 56q0 13 -8 35h134q9 -25 9 -50q0 -121 -189 -135z" />
    <glyph glyph-name="scommaaccent" unicode="&#x219;" 
d="M-42 40l47 107q68 -41 129 -41q57 0 57 31q0 14 -17 27t-41.5 26t-48.5 30t-41 47t-17 69q0 64 48 106.5t137 42.5q88 0 159 -30l-24 -118q-70 32 -127 32q-42 0 -42 -29q0 -19 26 -38t56.5 -34t56.5 -49t26 -79q0 -73 -54.5 -111.5t-142.5 -38.5q-102 0 -187 50zM3 -237
l-27 94q81 11 81 56q0 13 -8 35h134q9 -25 9 -50q0 -121 -189 -135z" />
    <glyph glyph-name="circumflex" unicode="&#x2c6;" 
d="M42 531l121 147h107l87 -147h-109l-40 67l-51 -67h-115z" />
    <glyph glyph-name="caron" unicode="&#x2c7;" 
d="M149 531l-87 147h109l40 -67l51 67h115l-121 -147h-107z" />
    <glyph glyph-name="breve" unicode="&#x2d8;" 
d="M203 538q-69 0 -107 40.5t-31 111.5h99q-2 -29 11 -46t38 -17t43.5 17t25.5 46h105q-15 -74 -64.5 -113t-119.5 -39z" />
    <glyph glyph-name="dotaccent" unicode="&#x2d9;" 
d="M202 529q-37 0 -60.5 23t-23.5 56q0 42 28.5 68t67.5 26q37 0 60.5 -22.5t23.5 -55.5q0 -42 -28.5 -68.5t-67.5 -26.5z" />
    <glyph glyph-name="ring" unicode="&#x2da;" 
d="M198 521q-51 0 -81.5 21t-30.5 59q0 52 40 85t102 33q51 0 81.5 -21t30.5 -59q0 -52 -40 -85t-102 -33zM206 580q19 0 30.5 16t11.5 36q0 28 -28 28q-19 0 -30.5 -16t-11.5 -36q0 -28 28 -28z" />
    <glyph glyph-name="ogonek" unicode="&#x2db;" 
d="M184 -215q-108 0 -108 80q0 48 32.5 82t91.5 66l124 -13q-126 -53 -126 -106q0 -26 32 -26q16 0 37 6l7 -77q-45 -12 -90 -12z" />
    <glyph glyph-name="tilde" unicode="&#x2dc;" 
d="M25 542q5 68 35.5 103t73.5 35q33 0 71.5 -20.5t51.5 -20.5q23 0 28 35h97q-5 -68 -35.5 -103t-73.5 -35q-33 0 -71.5 20.5t-51.5 20.5q-23 0 -28 -35h-97z" />
    <glyph glyph-name="hungarumlaut" unicode="&#x2dd;" 
d="M60 531l75 147h161l-124 -147h-112zM248 531l75 147h161l-124 -147h-112z" />
    <glyph glyph-name="uni0315" unicode="&#x315;" 
d="M155 513l61 196h148l-95 -196h-114z" />
    <glyph glyph-name="uni0326" unicode="&#x326;" 
d="M119 -237l-27 94q81 11 81 56q0 13 -8 35h134q9 -26 9 -50q0 -121 -189 -135z" />
    <glyph glyph-name="Alphatonos" unicode="&#x386;" horiz-adv-x="719" 
d="M32 473l72 186h147l-101 -186h-118zM-5 0l381 662h133l132 -662h-162l-27 157h-199l-86 -157h-172zM322 279h111l-17 127q-5 40 -6 54h-2q-14 -36 -23 -54z" />
    <glyph glyph-name="Epsilontonos" unicode="&#x388;" horiz-adv-x="679" 
d="M35 473l72 186h147l-101 -186h-118zM164 0l145 659h383l-49 -129h-207l-30 -133h206l-28 -129h-206l-31 -139h234l-28 -129h-389z" />
    <glyph glyph-name="Etatonos" unicode="&#x389;" horiz-adv-x="912" 
d="M35 473l72 186h147l-101 -186h-118zM164 0l145 659h155l-57 -259h291l57 259h155l-145 -659h-155l59 270h-291l-59 -270h-155z" />
    <glyph glyph-name="Iotatonos" unicode="&#x38a;" horiz-adv-x="466" 
d="M35 473l72 186h147l-101 -186h-118zM164 0l145 659h155l-145 -659h-155z" />
    <glyph glyph-name="Omicrontonos" unicode="&#x38c;" horiz-adv-x="885" 
d="M35 473l72 186h147l-101 -186h-118zM455 -10q-129 0 -205 73t-76 199q0 173 107 288.5t276 115.5q129 0 205 -73t76 -199q0 -173 -107 -288.5t-276 -115.5zM467 117q89 0 149 82.5t60 188.5q0 72 -34.5 111.5t-96.5 39.5q-89 0 -149 -82.5t-60 -188.5q0 -72 34.5 -111.5
t96.5 -39.5z" />
    <glyph glyph-name="Upsilontonos" unicode="&#x38e;" horiz-adv-x="832" 
d="M35 473l72 186h147l-101 -186h-118zM375 0l32 144q12 56 12 97q0 83 -35.5 181t-108.5 237h161q83 -156 90 -280h3q62 144 202 280h181q-106 -109 -164.5 -176.5t-113.5 -158.5t-73 -177l-32 -147h-154z" />
    <glyph glyph-name="Omegatonos" unicode="&#x38f;" horiz-adv-x="891" 
d="M35 473l72 186h147l-101 -186h-118zM133 0l27 129h50q26 0 64 -14l1 2q-83 95 -83 204q0 144 103.5 244.5t259.5 100.5q142 0 219.5 -68.5t77.5 -184.5q0 -81 -45 -157.5t-122 -137.5v-2q39 13 71 13h46l-27 -129h-272l21 101q162 130 162 301q0 63 -35.5 100t-96.5 37
q-87 0 -145.5 -66.5t-58.5 -186.5q0 -99 67 -185l-21 -101h-263z" />
    <glyph glyph-name="iotadieresistonos" unicode="&#x390;" horiz-adv-x="319" 
d="M153 -8q-65 0 -103 31.5t-38 90.5q0 25 8 62l66 297h151l-65 -288q-5 -25 -5 -33q0 -30 35 -30q19 0 42 7v-124q-38 -13 -91 -13zM133 531l44 147h98l-69 -147h-73zM62 538q-24 0 -40 16t-16 41q0 32 21 53.5t51 21.5q24 0 40 -16t16 -41q0 -32 -21 -53.5t-51 -21.5z
M320 538q-24 0 -40 16t-16 41q0 32 21 53.5t51 21.5q24 0 40 -16t16 -41q0 -32 -21 -53.5t-51 -21.5z" />
    <glyph glyph-name="Alpha" unicode="&#x391;" horiz-adv-x="659" 
d="M-65 0l381 662h133l132 -662h-162l-27 157h-199l-86 -157h-172zM262 279h111l-17 127q-5 40 -6 54h-2q-14 -36 -23 -54z" />
    <glyph glyph-name="Beta" unicode="&#x392;" horiz-adv-x="589" 
d="M2 0l145 659h193q101 0 150 -40.5t49 -109.5q0 -104 -100 -158v-2q37 -9 64 -40t27 -80q0 -96 -77 -162.5t-217 -66.5h-234zM243 395h51q40 0 66.5 23t26.5 64q0 52 -68 52h-45zM184 124h68q58 0 92 23.5t34 66.5q0 57 -81 57h-81z" />
    <glyph glyph-name="Gamma" unicode="&#x393;" horiz-adv-x="473" 
d="M2 0l145 659h396l-56 -129h-213l-116 -530h-156z" />
    <glyph glyph-name="Epsilon" unicode="&#x395;" horiz-adv-x="517" 
d="M2 0l145 659h383l-49 -129h-207l-30 -133h206l-28 -129h-206l-31 -139h234l-28 -129h-389z" />
    <glyph glyph-name="Zeta" unicode="&#x396;" horiz-adv-x="565" 
d="M-42 0l377 530h-240l-9 129h508l-372 -530h277l-29 -129h-512z" />
    <glyph glyph-name="Eta" unicode="&#x397;" horiz-adv-x="750" 
d="M2 0l145 659h155l-57 -259h291l57 259h155l-145 -659h-155l59 270h-291l-59 -270h-155z" />
    <glyph glyph-name="Theta" unicode="&#x398;" horiz-adv-x="764" 
d="M330 -10q-130 0 -207.5 73.5t-77.5 198.5q0 173 109 288.5t278 115.5q130 0 207.5 -73.5t77.5 -198.5q0 -173 -109 -288.5t-278 -115.5zM342 117q89 0 151 83t62 188q0 72 -36 111.5t-99 39.5q-89 0 -151 -83t-62 -188q0 -72 36 -111.5t99 -39.5zM254 270l26 120h226
l-26 -120h-226z" />
    <glyph glyph-name="Iota" unicode="&#x399;" horiz-adv-x="303" 
d="M2 0l145 659h155l-145 -659h-155z" />
    <glyph glyph-name="Kappa" unicode="&#x39a;" horiz-adv-x="622" 
d="M2 0l145 659h155l-61 -278h2l259 278h188l-331 -346l203 -313h-183l-162 265h-2l-58 -265h-155z" />
    <glyph glyph-name="Lambda" unicode="&#x39b;" horiz-adv-x="663" 
d="M-65 0l378 662h139l133 -662h-164l-58 374q-7 49 -11 86h-2q-11 -29 -41 -86l-200 -374h-174z" />
    <glyph glyph-name="Mu" unicode="&#x39c;" horiz-adv-x="841" 
d="M2 0l145 659h141l92 -221q36 -88 41 -105h2q22 35 72 96l185 230h160l-145 -659h-155l69 312q21 89 22 93h-3q-20 -29 -59 -75l-147 -180h-69l-76 178q-20 46 -30 77h-4q-2 -30 -30 -155l-56 -250h-155z" />
    <glyph glyph-name="Nu" unicode="&#x39d;" horiz-adv-x="779" 
d="M2 0l145 659h147l192 -339q19 -34 43 -84h2q9 45 17 81l75 342h155l-145 -659h-135l-201 355q-26 45 -43 82h-2q-4 -26 -15 -75l-80 -362h-155z" />
    <glyph glyph-name="Xi" unicode="&#x39e;" horiz-adv-x="558" 
d="M-35 0l28 129h484l-28 -129h-484zM83 271l29 129h346l-29 -129h-346zM89 530l28 129h466l-56 -129h-438z" />
    <glyph glyph-name="Omicron" unicode="&#x39f;" horiz-adv-x="756" 
d="M326 -10q-129 0 -205 73t-76 199q0 173 107 288.5t276 115.5q129 0 205 -73t76 -199q0 -173 -107 -288.5t-276 -115.5zM338 117q89 0 149 82.5t60 188.5q0 72 -34.5 111.5t-96.5 39.5q-89 0 -149 -82.5t-60 -188.5q0 -72 34.5 -111.5t96.5 -39.5z" />
    <glyph glyph-name="Pi" unicode="&#x3a0;" horiz-adv-x="723" 
d="M4 0l146 659h567l-145 -659h-155l117 529h-258l-117 -529h-155z" />
    <glyph glyph-name="Rho" unicode="&#x3a1;" horiz-adv-x="576" 
d="M2 0l145 659h161q77 0 127 -22q111 -49 111 -168q0 -78 -37 -136t-111 -88q-72 -29 -169 -29h-24l-48 -216h-155zM232 339h21q52 0 87 22q51 32 51 97q0 48 -34 66q-24 12 -56 12h-26z" />
    <glyph glyph-name="Sigma" unicode="&#x3a3;" horiz-adv-x="583" 
d="M-41 0l261 359l-118 300h493l-56 -129h-233l72 -185l-159 -216h282l-28 -129h-514z" />
    <glyph glyph-name="Tau" unicode="&#x3a4;" horiz-adv-x="562" 
d="M130 0l117 530h-195l28 129h550l-56 -129h-172l-117 -530h-155z" />
    <glyph glyph-name="Upsilon" unicode="&#x3a5;" horiz-adv-x="622" 
d="M165 0l32 144q12 55 12 97q0 83 -35.5 181t-108.5 237h161q83 -156 90 -280h3q62 144 202 280h181q-106 -109 -164.5 -176.5t-113.5 -158.5t-73 -177l-32 -147h-154z" />
    <glyph glyph-name="Phi" unicode="&#x3a6;" horiz-adv-x="824" 
d="M256 -20l13 59q-104 16 -165 80t-61 164q0 141 99 235t254 100l12 56h151l-13 -57q104 -16 166.5 -80t62.5 -164q0 -142 -100 -236.5t-256 -99.5l-12 -57h-151zM298 171l69 317q-78 -8 -123 -66.5t-45 -131.5q0 -98 99 -119zM448 167q78 6 124.5 65.5t46.5 133.5
q0 99 -102 119z" />
    <glyph glyph-name="Chi" unicode="&#x3a7;" horiz-adv-x="622" 
d="M-69 0l291 341l-152 318h162l95 -199l169 199h180l-282 -330l160 -329h-163l-101 209l-181 -209h-178z" />
    <glyph glyph-name="Psi" unicode="&#x3a8;" horiz-adv-x="808" 
d="M245 0l43 195q-193 25 -193 213q0 94 45 251h150q-1 -4 -8.5 -31t-9.5 -35t-8 -31.5t-8 -35.5t-5.5 -31t-4.5 -34.5t-1 -30.5q0 -96 73 -99l72 328h155l-73 -329q30 1 53 11.5t40.5 33t29.5 47.5t22 66.5t16.5 78t14.5 92.5h150q-13 -118 -34 -196.5t-60.5 -141.5
t-103.5 -94t-158 -35l-42 -192h-155z" />
    <glyph glyph-name="uni03A9" unicode="&#x3a9;" horiz-adv-x="747" 
d="M-11 0l27 129h50q26 0 64 -14l1 2q-83 95 -83 204q0 144 103.5 244.5t259.5 100.5q142 0 219.5 -68.5t77.5 -184.5q0 -81 -45 -157.5t-122 -137.5v-2q39 13 71 13h46l-27 -129h-272l21 101q162 130 162 301q0 63 -35.5 100t-96.5 37q-87 0 -145.5 -66.5t-58.5 -186.5
q0 -99 67 -185l-21 -101h-263z" />
    <glyph glyph-name="Iotadieresis" unicode="&#x3aa;" horiz-adv-x="303" 
d="M2 0l145 659h155l-145 -659h-155zM139 697q-28 0 -46 17t-18 45q0 36 22.5 60.5t54.5 24.5q28 0 46 -17t18 -45q0 -36 -22.5 -60.5t-54.5 -24.5zM338 697q-28 0 -46 17t-18 45q0 36 22.5 60.5t54.5 24.5q28 0 46 -17t18 -45q0 -36 -22.5 -60.5t-54.5 -24.5z" />
    <glyph glyph-name="Upsilondieresis" unicode="&#x3ab;" horiz-adv-x="622" 
d="M165 0l32 144q12 55 12 97q0 83 -35.5 181t-108.5 237h161q83 -156 90 -280h3q62 144 202 280h181q-106 -109 -164.5 -176.5t-113.5 -158.5t-73 -177l-32 -147h-154zM281 697q-28 0 -46 17t-18 45q0 36 22.5 60.5t54.5 24.5q28 0 46 -17t18 -45q0 -36 -22.5 -60.5
t-54.5 -24.5zM480 697q-28 0 -46 17t-18 45q0 36 22.5 60.5t54.5 24.5q28 0 46 -17t18 -45q0 -36 -22.5 -60.5t-54.5 -24.5z" />
    <glyph glyph-name="alphatonos" unicode="&#x3ac;" horiz-adv-x="600" 
d="M155 -10q-69 0 -111 48.5t-42 142.5q0 116 69 210t179 94q61 0 98.5 -33.5t44.5 -89.5h2q23 61 62 121l111 -69q-67 -94 -137 -191q2 -97 66 -97q16 0 29 5v-129q-26 -7 -56 -7q-55 0 -88 31.5t-40 92.5h-2q-27 -61 -75.5 -95t-109.5 -34zM197 112q25 0 48.5 23t37.5 48
t32 65q-4 39 -8 60t-16.5 38t-34.5 17q-40 0 -71.5 -60t-31.5 -120q0 -71 44 -71zM341 531h-114l85 167h158z" />
    <glyph glyph-name="epsilontonos" unicode="&#x3ad;" horiz-adv-x="477" 
d="M319 531h-114l85 167h158zM178 -10q-98 0 -147 36.5t-49 98.5q0 90 95 122l1 2q-48 29 -48 84q0 71 65.5 111.5t163.5 40.5q89 0 179 -28l-25 -113q-78 29 -155 29q-82 0 -82 -45q0 -37 92 -37q37 0 73 3l-23 -104q-33 4 -87 4q-99 0 -99 -50q0 -42 71 -42q79 0 171 39
l25 -104q-100 -47 -221 -47z" />
    <glyph glyph-name="etatonos" unicode="&#x3ae;" horiz-adv-x="585" 
d="M5 0l70 314q2 10 2 15q0 22 -25 22q-14 0 -29 -5v120q47 19 95 19q47 0 77.5 -22.5t30.5 -75.5v-4h2q79 102 176 102q58 0 90 -31t32 -92q0 -31 -15 -99l-112 -500h-151l110 490q10 44 10 62q0 39 -36 39q-45 0 -82 -49t-57 -140l-37 -165h-151zM391 531h-114l85 167h158
z" />
    <glyph glyph-name="iotatonos" unicode="&#x3af;" horiz-adv-x="319" 
d="M153 -8q-65 0 -103 31.5t-38 90.5q0 25 8 62l66 297h151l-65 -288q-5 -25 -5 -33q0 -30 35 -30q19 0 42 7v-124q-38 -13 -91 -13zM220 531h-114l85 167h158z" />
    <glyph glyph-name="upsilondieresistonos" unicode="&#x3b0;" horiz-adv-x="569" 
d="M227 -10q-98 0 -154 47.5t-56 126.5q0 40 17.5 94t17.5 69q0 23 -23 23q-9 0 -20 -3v120q46 18 87 18q48 0 78.5 -29.5t30.5 -80.5q0 -34 -19 -98.5t-19 -90.5q0 -36 19.5 -56.5t55.5 -20.5q61 0 94 59t33 152q0 95 -32 153h143q37 -66 37 -165q0 -64 -17 -119.5
t-51 -101t-91 -71.5t-131 -26zM233 531l44 147h98l-69 -147h-73zM162 538q-24 0 -40 16t-16 41q0 32 21 53.5t51 21.5q24 0 40 -16t16 -41q0 -32 -21 -53.5t-51 -21.5zM420 538q-24 0 -40 16t-16 41q0 32 21 53.5t51 21.5q24 0 40 -16t16 -41q0 -32 -21 -53.5t-51 -21.5z
" />
    <glyph glyph-name="alpha" unicode="&#x3b1;" horiz-adv-x="600" 
d="M155 -10q-69 0 -111 48.5t-42 142.5q0 116 69 210t179 94q61 0 98.5 -33.5t44.5 -89.5h2q23 61 62 121l111 -69q-67 -94 -137 -191q2 -97 66 -97q16 0 29 5v-129q-26 -7 -56 -7q-55 0 -88 31.5t-40 92.5h-2q-27 -61 -75.5 -95t-109.5 -34zM197 112q25 0 48.5 23t37.5 48
t32 65q-4 39 -8 60t-16.5 38t-34.5 17q-40 0 -71.5 -60t-31.5 -120q0 -71 44 -71z" />
    <glyph glyph-name="beta" unicode="&#x3b2;" horiz-adv-x="531" 
d="M215 -10q-213 0 -213 239q0 82 24.5 166t68.5 154t113 114.5t150 44.5q72 0 120.5 -37.5t48.5 -107.5q0 -56 -33.5 -107.5t-102.5 -85.5v-2q44 -7 65 -40t21 -78q0 -110 -72.5 -185t-189.5 -75zM227 109q42 0 71 35t29 92q0 59 -49 59q-22 0 -126 -34q-2 -24 -2 -35
q0 -117 77 -117zM174 382q203 56 203 169q0 38 -37 38q-46 0 -94 -61t-72 -146z" />
    <glyph glyph-name="gamma" unicode="&#x3b3;" horiz-adv-x="585" 
d="M58 -237q21 101 47 183q36 158 36 270q0 22 -3 43.5t-10.5 46.5t-25.5 40.5t-43 15.5q-23 0 -44 -7v120q41 10 79 10q84 0 128 -52t44 -137q0 -61 -13 -134h3q48 117 96.5 192t117.5 133l94 -110q-160 -141 -268 -353q-41 -82 -64 -184l-17 -77h-157z" />
    <glyph glyph-name="delta" unicode="&#x3b4;" horiz-adv-x="561" 
d="M237 -10q-110 1 -172.5 57.5t-62.5 145.5q0 87 49.5 148t127.5 90v2q-58 60 -58 124q0 69 49.5 110t133.5 41q60 0 131.5 -19.5t116.5 -43.5l-52 -117q-116 59 -184 59q-45 0 -45 -33q0 -19 23 -43t56 -51.5t66 -60t56 -80t23 -99.5q0 -99 -71.5 -165t-186.5 -65z
M237 109q48 -1 78 34t30 84q0 63 -71 123q-56 -22 -89 -63.5t-33 -91.5q0 -38 22.5 -61.5t62.5 -24.5z" />
    <glyph glyph-name="epsilon" unicode="&#x3b5;" horiz-adv-x="477" 
d="M178 -10q-98 0 -147 36.5t-49 98.5q0 90 95 122l1 2q-48 29 -48 84q0 71 65.5 111.5t163.5 40.5q89 0 179 -28l-25 -113q-78 29 -155 29q-82 0 -82 -45q0 -37 92 -37q37 0 73 3l-23 -104q-33 4 -87 4q-99 0 -99 -50q0 -42 71 -42q79 0 171 39l25 -104q-100 -47 -221 -47z
" />
    <glyph glyph-name="zeta" unicode="&#x3b6;" horiz-adv-x="464" 
d="M259 -199l-102 75q73 65 73 99q0 16 -17 29.5t-42 23t-55 25.5t-55 35t-42 51.5t-17 74.5q0 119 88 219.5t237 167.5v3q-134 -38 -228 -43l-12 119q136 0 407 28v-83q-339 -196 -339 -374q0 -38 24 -64.5t58 -42.5t68 -31.5t58 -41.5t24 -63q0 -97 -128 -207z" />
    <glyph glyph-name="eta" unicode="&#x3b7;" horiz-adv-x="585" 
d="M5 0l70 314q2 10 2 15q0 22 -25 22q-14 0 -29 -5v120q47 19 95 19q47 0 77.5 -22.5t30.5 -75.5v-4h2q79 102 176 102q58 0 90 -31t32 -92q0 -31 -15 -99l-112 -500h-151l110 490q10 44 10 62q0 39 -36 39q-45 0 -82 -49t-57 -140l-37 -165h-151z" />
    <glyph glyph-name="theta" unicode="&#x3b8;" horiz-adv-x="581" 
d="M204 -10q-93 0 -143.5 39t-50.5 99q0 30 14 77.5t14 79.5q0 27 -7 54h140q9 -23 9 -53q0 -28 -12 -68t-12 -59q0 -50 63 -50q118 0 156 200q-276 42 -276 210q0 82 55 135.5t148 53.5q116 0 176.5 -75t60.5 -203q0 -79 -17 -152t-54 -140t-105 -107.5t-159 -40.5z
M244 528q0 -79 145 -102q1 7 1 17q0 69 -24 107.5t-62 38.5q-26 0 -43 -16.5t-17 -44.5z" />
    <glyph glyph-name="iota" unicode="&#x3b9;" horiz-adv-x="319" 
d="M153 -8q-65 0 -103 31.5t-38 90.5q0 25 8 62l66 297h151l-65 -288q-5 -25 -5 -33q0 -30 35 -30q19 0 42 7v-124q-38 -13 -91 -13z" />
    <glyph glyph-name="kappa" unicode="&#x3ba;" horiz-adv-x="585" 
d="M-19 0l105 473h151l-33 -146q-2 -7 -4.5 -18t-5 -21t-5.5 -21l2 -1q94 129 334 221l57 -123q-122 -45 -216 -102l132 -262h-172l-81 177q-89 -70 -101 -124l-12 -53h-151z" />
    <glyph glyph-name="lambda" unicode="&#x3bb;" horiz-adv-x="537" 
d="M-59 0l304 497q-7 50 -25 69t-50 19q-30 0 -61 -14l-29 113q59 24 116 24q92 0 139.5 -62.5t55.5 -208.5q16 -287 90 -437h-157q-44 104 -51 304h-2l-164 -304h-166z" />
    <glyph glyph-name="uni03BC" unicode="&#x3bc;" horiz-adv-x="608" 
d="M-66 -237l158 710h151l-58 -256q-6 -29 -6 -43q0 -57 58 -57q31 0 58.5 25.5t39.5 78.5l57 252h151l-68 -305q-2 -8 -2 -15q0 -27 32 -27q19 0 33 5v-122q-39 -17 -81 -17q-88 0 -100 72q-2 12 -2 18h-2q-53 -92 -135 -92q-49 0 -78 36h-2q-9 -65 -24 -132l-30 -131h-150
z" />
    <glyph glyph-name="nu" unicode="&#x3bd;" horiz-adv-x="520" 
d="M81 -3l-66 476h151l32 -316h2q129 106 129 250q0 33 -6 66h154q5 -32 5 -55q0 -86 -37.5 -161.5t-97.5 -134t-156 -125.5h-110z" />
    <glyph glyph-name="xi" unicode="&#x3be;" horiz-adv-x="485" 
d="M172 -124q73 56 73 88q0 19 -25.5 31.5t-61.5 22.5t-72 24t-61.5 45.5t-25.5 77.5q0 57 39 105.5t110 69.5v2q-75 24 -75 84q0 46 52 91.5t151 83.5v3q-112 -27 -184 -32l-12 119q254 0 418 17v-83q-134 -38 -201.5 -88t-67.5 -91q0 -49 103 -49q48 0 84 4l-19 -119
q-32 5 -87 5q-65 0 -111.5 -23t-46.5 -64q0 -27 26 -43.5t63 -25.5t73.5 -21t62.5 -39t26 -69q0 -101 -129 -201z" />
    <glyph glyph-name="omicron" unicode="&#x3bf;" horiz-adv-x="548" 
d="M223 -10q-102 0 -161.5 58.5t-59.5 154.5q0 118 77.5 200t195.5 82q102 0 161.5 -58.5t59.5 -154.5q0 -118 -77.5 -200t-195.5 -82zM227 109q47 0 83 45.5t36 116.5q0 47 -20.5 71t-54.5 24q-47 0 -83 -45.5t-36 -116.5q0 -47 20.5 -71t54.5 -24z" />
    <glyph glyph-name="pi" unicode="&#x3c0;" horiz-adv-x="639" 
d="M30 0l79 357h-92l26 116h617l-46 -116h-92l-43 -194q-2 -12 -2 -16q0 -21 27 -21q15 0 30 5v-124q-42 -15 -98 -15q-117 0 -117 98q0 31 11 84l41 183h-111l-79 -357h-151z" />
    <glyph glyph-name="rho" unicode="&#x3c1;" horiz-adv-x="563" 
d="M-72 -237l110 508q46 214 246 214q106 0 166.5 -56t60.5 -154q0 -124 -77 -204.5t-194 -80.5q-68 0 -105 23h-2l-55 -250h-150zM232 111q62 0 95.5 46t33.5 114q0 93 -79 93q-42 0 -62.5 -30t-35.5 -95l-25 -110q29 -18 73 -18z" />
    <glyph glyph-name="sigmafinal" unicode="&#x3c2;" horiz-adv-x="466" 
d="M128 -124q26 25 36 36t21 27.5t11 30.5q0 21 -20 38t-48.5 31.5t-57 34t-48.5 56t-20 86.5q0 130 85.5 200.5t201.5 68.5q90 -2 143 -28l-28 -119q-53 28 -115 28q-65 0 -101 -40.5t-36 -96.5q0 -33 20 -56.5t49 -39t58 -32t49 -44t20 -64.5q0 -90 -118 -192z" />
    <glyph glyph-name="sigma" unicode="&#x3c3;" horiz-adv-x="584" 
d="M212 -10q-96 0 -153 54t-57 145q0 128 77 206t195 78h330l-47 -120h-42q-47 0 -75 6v-2q28 -56 28 -115q0 -105 -68.5 -178.5t-187.5 -73.5zM222 109q48 0 73.5 45.5t25.5 117.5q0 46 -15 83h-11q-69 0 -106.5 -48t-37.5 -116q0 -39 18.5 -60.5t52.5 -21.5z" />
    <glyph glyph-name="tau" unicode="&#x3c4;" horiz-adv-x="491" 
d="M242 -10q-147 0 -147 118q0 29 10 73l39 176h-127l26 116h458l-46 -116h-161l-43 -194q-3 -12 -3 -23q0 -31 37 -31t83 23l35 -106q-80 -36 -161 -36z" />
    <glyph glyph-name="upsilon" unicode="&#x3c5;" horiz-adv-x="569" 
d="M227 -10q-98 0 -154 47.5t-56 126.5q0 40 17.5 94t17.5 69q0 23 -23 23q-9 0 -20 -3v120q46 18 87 18q48 0 78.5 -29.5t30.5 -80.5q0 -34 -19 -98.5t-19 -90.5q0 -36 19.5 -56.5t55.5 -20.5q61 0 94 59t33 152q0 95 -32 153h143q37 -66 37 -165q0 -64 -17 -119.5
t-51 -101t-91 -71.5t-131 -26z" />
    <glyph glyph-name="phi" unicode="&#x3c6;" horiz-adv-x="716" 
d="M143 -237l51 232q-192 39 -192 210q0 75 32.5 149.5t82.5 128.5l136 -28q-105 -124 -105 -244q0 -85 72 -99l42 192q18 85 64 133t134 48q98 0 151 -52.5t53 -135.5q0 -123 -92.5 -212t-230.5 -95l-50 -227h-148zM368 110q57 5 102.5 59.5t45.5 130.5q0 29 -14.5 47
t-36.5 18q-41 0 -53 -58z" />
    <glyph glyph-name="chi" unicode="&#x3c7;" horiz-adv-x="579" 
d="M-120 -237l286 390q-20 127 -37 167.5t-58 40.5q-17 0 -32 -5v118q33 10 69 10q75 0 112 -50.5t54 -162.5h2l138 202h160l-267 -365q23 -143 38.5 -184.5t57.5 -41.5q17 0 32 5v-118q-33 -10 -69 -10q-76 0 -114 53.5t-54 175.5h-2l-156 -225h-160z" />
    <glyph glyph-name="psi" unicode="&#x3c8;" horiz-adv-x="765" 
d="M167 -237l50 228q-100 8 -155 53.5t-55 121.5q0 42 22 117t22 132q0 29 -8 58h145q13 -34 13 -76q0 -45 -20.5 -110.5t-20.5 -93.5q0 -78 83 -86l133 601h149l-132 -601q79 9 125.5 72.5t46.5 159.5q0 78 -28 134h143q33 -64 33 -154q0 -137 -91.5 -230t-254.5 -99
l-50 -227h-150z" />
    <glyph glyph-name="omega" unicode="&#x3c9;" horiz-adv-x="788" 
d="M167 -10q-79 0 -122 50t-43 135q0 88 43 168.5t111 139.5l137 -28q-146 -153 -146 -272q0 -28 13.5 -48.5t41.5 -20.5t49 20t32 47t18 65t9 62.5t3 50.5h159q-33 -80 -33 -156q0 -37 15 -63t46 -26q42 0 67 45.5t25 111.5q0 87 -45 184l138 28q51 -92 51 -213
q0 -124 -63.5 -202t-168.5 -78q-64 0 -104 35.5t-46 97.5h-2q-23 -61 -72.5 -97t-112.5 -36z" />
    <glyph glyph-name="iotadieresis" unicode="&#x3ca;" horiz-adv-x="319" 
d="M153 -8q-65 0 -103 31.5t-38 90.5q0 25 8 62l66 297h151l-65 -288q-5 -25 -5 -33q0 -30 35 -30q19 0 42 7v-124q-38 -13 -91 -13zM83 532q-28 0 -46 17t-18 45q0 36 22.5 60.5t54.5 24.5q28 0 46 -17t18 -45q0 -36 -22.5 -60.5t-54.5 -24.5zM282 532q-28 0 -46 17t-18 45
q0 36 22.5 60.5t54.5 24.5q28 0 46 -17t18 -45q0 -36 -22.5 -60.5t-54.5 -24.5z" />
    <glyph glyph-name="upsilondieresis" unicode="&#x3cb;" horiz-adv-x="569" 
d="M227 -10q-98 0 -154 47.5t-56 126.5q0 40 17.5 94t17.5 69q0 23 -23 23q-9 0 -20 -3v120q46 18 87 18q48 0 78.5 -29.5t30.5 -80.5q0 -34 -19 -98.5t-19 -90.5q0 -36 19.5 -56.5t55.5 -20.5q61 0 94 59t33 152q0 95 -32 153h143q37 -66 37 -165q0 -64 -17 -119.5
t-51 -101t-91 -71.5t-131 -26zM186 532q-28 0 -46 17t-18 45q0 36 22.5 60.5t54.5 24.5q28 0 46 -17t18 -45q0 -36 -22.5 -60.5t-54.5 -24.5zM385 532q-28 0 -46 17t-18 45q0 36 22.5 60.5t54.5 24.5q28 0 46 -17t18 -45q0 -36 -22.5 -60.5t-54.5 -24.5z" />
    <glyph glyph-name="omicrontonos" unicode="&#x3cc;" horiz-adv-x="548" 
d="M223 -10q-102 0 -161.5 58.5t-59.5 154.5q0 118 77.5 200t195.5 82q102 0 161.5 -58.5t59.5 -154.5q0 -118 -77.5 -200t-195.5 -82zM227 109q47 0 83 45.5t36 116.5q0 47 -20.5 71t-54.5 24q-47 0 -83 -45.5t-36 -116.5q0 -47 20.5 -71t54.5 -24zM345 531h-114l85 167
h158z" />
    <glyph glyph-name="upsilontonos" unicode="&#x3cd;" horiz-adv-x="569" 
d="M323 531h-114l85 167h158zM227 -10q-98 0 -154 47.5t-56 126.5q0 40 17.5 94t17.5 69q0 23 -23 23q-9 0 -20 -3v120q46 18 87 18q48 0 78.5 -29.5t30.5 -80.5q0 -34 -19 -98.5t-19 -90.5q0 -36 19.5 -56.5t55.5 -20.5q61 0 94 59t33 152q0 95 -32 153h143q37 -66 37 -165
q0 -64 -17 -119.5t-51 -101t-91 -71.5t-131 -26z" />
    <glyph glyph-name="omegatonos" unicode="&#x3ce;" horiz-adv-x="788" 
d="M167 -10q-79 0 -122 50t-43 135q0 88 43 168.5t111 139.5l137 -28q-146 -153 -146 -272q0 -28 13.5 -48.5t41.5 -20.5t49 20t32 47t18 65t9 62.5t3 50.5h159q-33 -80 -33 -156q0 -37 15 -63t46 -26q42 0 67 45.5t25 111.5q0 87 -45 184l138 28q51 -92 51 -213
q0 -124 -63.5 -202t-168.5 -78q-64 0 -104 35.5t-46 97.5h-2q-23 -61 -72.5 -97t-112.5 -36zM465 531h-114l85 167h158z" />
    <glyph glyph-name="uni0400" unicode="&#x400;" horiz-adv-x="517" 
d="M2 0l145 659h383l-49 -129h-207l-30 -133h206l-28 -129h-206l-31 -139h234l-28 -129h-389zM297 696l-96 147h161l48 -147h-113z" />
    <glyph glyph-name="afii10023" unicode="&#x401;" horiz-adv-x="517" 
d="M2 0l145 659h383l-49 -129h-207l-30 -133h206l-28 -129h-206l-31 -139h234l-28 -129h-389zM248 697q-28 0 -46 17t-18 45q0 36 22.5 60.5t54.5 24.5q28 0 46 -17t18 -45q0 -36 -22.5 -60.5t-54.5 -24.5zM447 697q-28 0 -46 17t-18 45q0 36 22.5 60.5t54.5 24.5
q28 0 46 -17t18 -45q0 -36 -22.5 -60.5t-54.5 -24.5z" />
    <glyph glyph-name="afii10051" unicode="&#x402;" horiz-adv-x="741" 
d="M126 0l118 536h-194l27 123h573l-47 -123h-204l-28 -129q32 2 47 2q120 0 189 -55t69 -142q0 -96 -57.5 -158t-165.5 -62q-63 0 -111 21l44 116q21 -11 52 -11q42 0 64 22.5t22 62.5q0 79 -129 79q-19 0 -53 -4l-61 -278h-155z" />
    <glyph glyph-name="afii10052" unicode="&#x403;" horiz-adv-x="527" 
d="M2 0l145 659h396l-56 -129h-213l-116 -530h-156zM288 696l75 147h161l-124 -147h-112z" />
    <glyph glyph-name="afii10053" unicode="&#x404;" horiz-adv-x="635" 
d="M351 -10q-158 0 -232 78.5t-74 200.5q0 183 107.5 290t284.5 107q112 0 183 -30l-28 -126q-77 31 -159 31q-81 0 -136.5 -41.5t-78.5 -107.5h285l-25 -121h-275v-2q1 -68 43.5 -111t119.5 -43q73 0 148 34l28 -123q-81 -36 -191 -36z" />
    <glyph glyph-name="afii10054" unicode="&#x405;" horiz-adv-x="505" 
d="M-25 41l62 120q74 -44 143 -44q43 0 73.5 16t30.5 52q0 28 -22.5 50.5t-54.5 40.5t-63.5 39t-54 57t-22.5 84q0 90 64.5 150t180.5 60q104 0 180 -38l-27 -130q-69 41 -149 41q-44 0 -65.5 -17.5t-21.5 -42.5q0 -23 16 -42.5t40.5 -33.5t52.5 -33t52.5 -39t40.5 -52.5
t16 -73.5q0 -101 -73.5 -158t-189.5 -57t-209 51z" />
    <glyph glyph-name="afii10055" unicode="&#x406;" horiz-adv-x="304" 
d="M2 0l145 659h155l-145 -659h-155z" />
    <glyph glyph-name="afii10056" unicode="&#x407;" horiz-adv-x="303" 
d="M2 0l145 659h155l-145 -659h-155zM139 697q-28 0 -46 17t-18 45q0 36 22.5 60.5t54.5 24.5q28 0 46 -17t18 -45q0 -36 -22.5 -60.5t-54.5 -24.5zM338 697q-28 0 -46 17t-18 45q0 36 22.5 60.5t54.5 24.5q28 0 46 -17t18 -45q0 -36 -22.5 -60.5t-54.5 -24.5z" />
    <glyph glyph-name="afii10057" unicode="&#x408;" horiz-adv-x="343" 
d="M-149 -164l43 118q29 -14 65 -14q50 0 71 40q12 25 21 65l135 614h155l-144 -658q-16 -69 -42 -106q-58 -82 -183 -82q-69 0 -121 23z" />
    <glyph glyph-name="afii10058" unicode="&#x409;" horiz-adv-x="957" 
d="M-45 3l30 137q13 -3 24 -3q38 0 72 32q52 50 98.5 170.5t101.5 319.5h387l-50 -227h16q103 0 157 -27q96 -48 96 -151q0 -120 -77.5 -187t-219.5 -67h-222l118 536h-93q-61 -205 -106.5 -313.5t-100.5 -163.5q-65 -64 -167 -64q-36 0 -64 8zM550 125h48q63 0 100 28.5
t37 85.5q0 39 -34 57q-24 12 -72 12h-38z" />
    <glyph glyph-name="afii10059" unicode="&#x40a;" horiz-adv-x="1005" 
d="M2 0l145 659h155l-57 -259h259l57 259h155l-50 -227h16q103 0 157 -27q96 -48 96 -151q0 -120 -77.5 -187t-219.5 -67h-222l59 270h-259l-59 -270h-155zM598 125h48q63 0 100 28.5t37 85.5q0 39 -34 57q-24 12 -72 12h-38z" />
    <glyph glyph-name="afii10060" unicode="&#x40b;" horiz-adv-x="794" 
d="M130 0l118 536h-195l27 123h582l-47 -123h-212l-29 -134q54 8 99 8q115 0 170.5 -47t55.5 -128q0 -29 -9 -70l-37 -165h-155l35 154q9 37 9 61q0 36 -25 52t-82 16q-40 0 -90 -10l-60 -273h-155z" />
    <glyph glyph-name="afii10061" unicode="&#x40c;" horiz-adv-x="654" 
d="M337 696l75 147h161l-124 -147h-112zM2 0l145 659h155l-58 -263h59q40 0 64 33t48.5 91t47.5 87q47 59 130 59q47 0 87 -14l-28 -131q-21 9 -40 9q-25 0 -46 -24q-12 -15 -31.5 -56.5t-43.5 -73t-59 -42.5v-2q37 -13 53 -69l74 -263h-175l-40 209q-13 64 -40 64h-87
l-60 -273h-155z" />
    <glyph glyph-name="uni040D" unicode="&#x40d;" horiz-adv-x="768" 
d="M2 0l146 659h154l-77 -347q-8 -39 -18 -73h2q34 37 97 104l302 316h158l-145 -659h-155l78 358q5 22 15 60h-2q-48 -55 -92 -100l-306 -318h-157zM405 696l-96 147h161l48 -147h-113z" />
    <glyph glyph-name="afii10062" unicode="&#x40e;" horiz-adv-x="618" 
d="M30 3l28 122q24 -8 47 -8q36 0 62.5 19t51.5 60l-143 463h164l81 -314h2l191 314h169l-334 -515q-55 -86 -105.5 -120t-127.5 -34q-46 0 -86 13zM196 839l115 26q10 -81 69 -81q66 0 123 109l106 -49q-45 -90 -101.5 -130t-136.5 -40q-72 0 -120.5 42.5t-54.5 122.5z" />
    <glyph glyph-name="afii10145" unicode="&#x40f;" horiz-adv-x="720" 
d="M2 0l145 659h155l-115 -523h261l115 523h155l-146 -659h-202l-41 -190h-145l42 190h-224z" />
    <glyph glyph-name="afii10017" unicode="&#x410;" horiz-adv-x="659" 
d="M-65 0l381 662h133l132 -662h-162l-27 157h-199l-86 -157h-172zM262 279h111l-17 127q-5 40 -6 54h-2q-14 -36 -23 -54z" />
    <glyph glyph-name="afii10018" unicode="&#x411;" horiz-adv-x="598" 
d="M2 0l145 659h432l-47 -123h-257l-26 -120h34q104 0 163 -31q85 -45 85 -146q0 -106 -79.5 -172.5t-217.5 -66.5h-232zM184 125h58q76 0 106.5 33.5t30.5 70.5q0 31 -21 47q-23 16 -85 16h-52z" />
    <glyph glyph-name="afii10019" unicode="&#x412;" horiz-adv-x="589" 
d="M2 0l145 659h193q101 0 150 -40.5t49 -109.5q0 -104 -100 -158v-2q37 -9 64 -40t27 -80q0 -96 -77 -162.5t-217 -66.5h-234zM243 395h51q40 0 66.5 23t26.5 64q0 52 -68 52h-45zM184 124h68q58 0 92 23.5t34 66.5q0 57 -81 57h-81z" />
    <glyph glyph-name="afii10020" unicode="&#x413;" horiz-adv-x="473" 
d="M2 0l145 659h396l-56 -129h-213l-116 -530h-156z" />
    <glyph glyph-name="afii10021" unicode="&#x414;" horiz-adv-x="731" 
d="M-85 -190l70 320h37q94 98 155 222.5t112 306.5h387l-117 -529h98l-71 -320h-154l42 190h-362l-42 -190h-155zM405 130l89 406h-100q-38 -130 -83 -226.5t-112 -177.5v-2h206z" />
    <glyph glyph-name="afii10022" unicode="&#x415;" horiz-adv-x="517" 
d="M2 0l145 659h383l-49 -129h-207l-30 -133h206l-28 -129h-206l-31 -139h234l-28 -129h-389z" />
    <glyph glyph-name="afii10024" unicode="&#x416;" horiz-adv-x="985" 
d="M-35 0l150 255q14 23 25 38.5t31 32.5t42 23v2q-21 18 -30.5 79t-18.5 77q-14 24 -43 24q-20 0 -38 -8l27 129q40 14 80 14q62 0 90 -40q17 -25 24.5 -69t8.5 -79t15 -61.5t46 -26.5h45l59 269h149l-59 -269h46q39 0 65 33t52.5 92.5t47.5 87.5q48 63 134 63q46 0 82 -14
l-28 -130q-19 9 -39 9q-27 0 -46 -24q-12 -15 -32.5 -54.5t-44.5 -71t-56 -45.5v-2q37 -13 53 -70l78 -264h-169l-46 209q-6 28 -16.5 42t-17.5 16t-19 2h-68l-59 -269h-149l59 269h-77q-19 0 -34 -11.5t-36 -48.5l-112 -209h-171z" />
    <glyph glyph-name="afii10025" unicode="&#x417;" horiz-adv-x="570" 
d="M219 -10q-125 0 -212 46l28 124q84 -43 172 -43q57 0 93 21t36 67q0 36 -32.5 52.5t-103.5 16.5q-47 0 -77 -1l27 121q25 -2 65 -2q153 0 153 85q0 62 -102 62q-75 0 -154 -32l-23 115q109 44 210 44q96 0 160 -43.5t64 -121.5q0 -59 -35 -101.5t-99 -64.5v-2
q106 -38 106 -140q0 -93 -72.5 -148t-203.5 -55z" />
    <glyph glyph-name="afii10026" unicode="&#x418;" horiz-adv-x="768" 
d="M2 0l146 659h154l-77 -347q-8 -39 -18 -73h2q34 37 97 104l302 316h158l-145 -659h-155l78 358q5 22 15 60h-2q-48 -55 -92 -100l-306 -318h-157z" />
    <glyph glyph-name="afii10027" unicode="&#x419;" horiz-adv-x="768" 
d="M2 0l146 659h154l-77 -347q-8 -39 -18 -73h2q34 37 97 104l302 316h158l-145 -659h-155l78 358q5 22 15 60h-2q-48 -55 -92 -100l-306 -318h-157zM274 839l115 26q10 -81 69 -81q66 0 123 109l106 -49q-45 -90 -101.5 -130t-136.5 -40q-72 0 -120.5 42.5t-54.5 122.5z
" />
    <glyph glyph-name="afii10028" unicode="&#x41a;" horiz-adv-x="670" 
d="M2 0l145 659h155l-58 -263h59q40 0 64 33t48.5 91t47.5 87q47 59 130 59q47 0 87 -14l-28 -131q-21 9 -40 9q-25 0 -46 -24q-12 -15 -31.5 -56.5t-43.5 -73t-59 -42.5v-2q37 -13 53 -69l74 -263h-175l-40 209q-13 64 -40 64h-87l-60 -273h-155z" />
    <glyph glyph-name="afii10029" unicode="&#x41b;" horiz-adv-x="679" 
d="M-45 3l30 137q13 -3 24 -3q38 0 72 32q52 50 98.5 170.5t101.5 319.5h396l-145 -659h-155l118 536h-102q-61 -205 -106.5 -313.5t-100.5 -163.5q-65 -64 -167 -64q-36 0 -64 8z" />
    <glyph glyph-name="afii10030" unicode="&#x41c;" horiz-adv-x="842" 
d="M2 0l145 659h141l92 -221q36 -88 41 -105h2q22 35 72 96l185 230h160l-145 -659h-155l69 312q21 89 22 93h-3q-20 -29 -59 -75l-147 -180h-69l-76 178q-20 46 -30 77h-4q-2 -30 -30 -155l-56 -250h-155z" />
    <glyph glyph-name="afii10031" unicode="&#x41d;" horiz-adv-x="750" 
d="M2 0l145 659h155l-57 -259h291l57 259h155l-145 -659h-155l59 270h-291l-59 -270h-155z" />
    <glyph glyph-name="afii10032" unicode="&#x41e;" horiz-adv-x="756" 
d="M326 -10q-129 0 -205 73t-76 199q0 173 107 288.5t276 115.5q129 0 205 -73t76 -199q0 -173 -107 -288.5t-276 -115.5zM338 117q89 0 149 82.5t60 188.5q0 72 -34.5 111.5t-96.5 39.5q-89 0 -149 -82.5t-60 -188.5q0 -72 34.5 -111.5t96.5 -39.5z" />
    <glyph glyph-name="afii10033" unicode="&#x41f;" horiz-adv-x="717" 
d="M2 0l146 659h567l-145 -659h-155l117 529h-258l-117 -529h-155z" />
    <glyph glyph-name="afii10034" unicode="&#x420;" horiz-adv-x="576" 
d="M2 0l145 659h161q77 0 127 -22q111 -49 111 -168q0 -78 -37 -136t-111 -88q-72 -29 -169 -29h-24l-48 -216h-155zM232 339h21q52 0 87 22q51 32 51 97q0 48 -34 66q-24 12 -56 12h-26z" />
    <glyph glyph-name="afii10035" unicode="&#x421;" horiz-adv-x="622" 
d="M355 -10q-79 0 -140 23.5t-97.5 64.5t-54.5 91.5t-18 108.5q0 178 117.5 283t289.5 105q100 0 172 -30l-29 -129q-70 32 -144 32q-110 0 -176.5 -73.5t-66.5 -172.5q0 -79 44.5 -127.5t126.5 -48.5q68 0 139 32l28 -123q-81 -36 -191 -36z" />
    <glyph glyph-name="afii10036" unicode="&#x422;" horiz-adv-x="562" 
d="M130 0l117 530h-195l28 129h550l-56 -129h-172l-117 -530h-155z" />
    <glyph glyph-name="afii10037" unicode="&#x423;" horiz-adv-x="618" 
d="M30 3l28 122q24 -8 47 -8q36 0 62.5 19t51.5 60l-143 463h164l81 -314h2l191 314h169l-334 -515q-55 -86 -105.5 -120t-127.5 -34q-46 0 -86 13z" />
    <glyph glyph-name="afii10038" unicode="&#x424;" horiz-adv-x="788" 
d="M236 -18l21 95q-105 16 -159.5 68t-54.5 139q0 126 84.5 213.5t243.5 97.5l18 79h155l-19 -84q108 -15 164 -68t56 -140q0 -128 -86.5 -215.5t-248.5 -96.5l-19 -88h-155zM439 200q70 13 111 58.5t41 111.5q0 80 -93 95zM284 201l58 263q-67 -13 -106 -58.5t-39 -109.5
q0 -79 87 -95z" />
    <glyph glyph-name="afii10039" unicode="&#x425;" horiz-adv-x="622" 
d="M-69 0l291 341l-152 318h162l95 -199l169 199h180l-282 -330l160 -329h-163l-101 209l-181 -209h-178z" />
    <glyph glyph-name="afii10040" unicode="&#x426;" horiz-adv-x="746" 
d="M2 0l145 659h155l-116 -529h233l117 529h155l-116 -529h101l-71 -320h-151l41 190h-493z" />
    <glyph glyph-name="afii10041" unicode="&#x427;" horiz-adv-x="670" 
d="M368 0l56 257q-54 -8 -103 -8q-115 0 -170.5 47t-55.5 128q0 30 9 70l37 165h155l-35 -154q-9 -38 -9 -61q0 -36 25 -52t82 -16q44 0 94 10l60 273h155l-145 -659h-155z" />
    <glyph glyph-name="afii10042" unicode="&#x428;" horiz-adv-x="948" 
d="M2 0l145 659h155l-117 -529h167l117 529h155l-117 -529h167l117 529h155l-145 -659h-799z" />
    <glyph glyph-name="afii10043" unicode="&#x429;" horiz-adv-x="1001" 
d="M2 0l145 659h155l-117 -529h167l117 529h155l-117 -529h167l117 529h155l-116 -529h101l-71 -320h-151l41 190h-748z" />
    <glyph glyph-name="afii10044" unicode="&#x42a;" horiz-adv-x="755" 
d="M166 0l118 536h-205l-9 123h396l-50 -227h16q103 0 157 -27q96 -48 96 -151q0 -120 -77.5 -187t-219.5 -67h-222zM348 125h48q63 0 100 28.5t37 85.5q0 39 -34 57q-24 12 -72 12h-38z" />
    <glyph glyph-name="afii10045" unicode="&#x42b;" horiz-adv-x="840" 
d="M2 0l145 659h154l-49 -227h8q103 0 157 -27q96 -48 96 -151q0 -120 -77.5 -187t-219.5 -67h-214zM184 125h40q63 0 100 28.5t37 85.5q0 39 -34 57q-24 12 -72 12h-30zM538 0l145 659h155l-145 -659h-155z" />
    <glyph glyph-name="afii10046" unicode="&#x42c;" horiz-adv-x="601" 
d="M2 0l145 659h155l-50 -227h26q103 0 157 -27q96 -48 96 -151q0 -120 -77.5 -187t-219.5 -67h-232zM184 125h58q63 0 100 28.5t37 85.5q0 39 -34 57q-24 12 -72 12h-48z" />
    <glyph glyph-name="afii10047" unicode="&#x42d;" horiz-adv-x="628" 
d="M15 35l27 126q90 -46 176 -46q74 0 125.5 41t70.5 115h-290l25 121h275q-5 72 -49 110.5t-117 38.5q-75 0 -149 -33l-24 115q104 43 207 43q137 0 213 -79t76 -211q0 -177 -98 -281.5t-266 -104.5q-117 0 -202 45z" />
    <glyph glyph-name="afii10048" unicode="&#x42e;" horiz-adv-x="1060" 
d="M2 0l145 659h155l-57 -259h143q38 120 131.5 193t221.5 73q123 0 197.5 -71.5t74.5 -192.5q0 -177 -104.5 -294.5t-269.5 -117.5q-123 0 -197.5 71.5t-74.5 192.5v16h-151l-59 -270h-155zM651 117q88 0 144 82t56 189q0 72 -33 111.5t-89 39.5q-88 0 -144 -82t-56 -189
q0 -72 32.5 -111.5t89.5 -39.5z" />
    <glyph glyph-name="afii10049" unicode="&#x42f;" horiz-adv-x="637" 
d="M-35 0l144 226q39 61 82 79v2q-39 19 -60.5 55t-21.5 79q0 98 75 158t189 60h262l-145 -659h-155l53 241h-77q-35 0 -71 -64l-102 -177h-173zM353 364h62l38 172h-75q-47 0 -79.5 -26t-32.5 -73q0 -34 22 -53.5t65 -19.5z" />
    <glyph glyph-name="afii10065" unicode="&#x430;" horiz-adv-x="507" 
d="M120 -10q-62 0 -98.5 36.5t-36.5 94.5q0 76 49 122q70 64 222 64h37q1 5 1 11q0 27 -17 41t-60 14q-58 0 -132 -29l-20 105q91 36 184 36q197 0 197 -153q0 -42 -16 -104l-15 -58q-13 -54 -13 -89q0 -33 9 -63l-130 -28q-14 36 -18 78q-25 -35 -63 -56.5t-80 -21.5z
M167 106q35 0 67.5 25.5t42.5 66.5l3 12h-23q-89 0 -118 -32q-13 -14 -13 -35q0 -37 41 -37z" />
    <glyph glyph-name="afii10066" unicode="&#x431;" horiz-adv-x="552" 
d="M230 -10q-97 0 -156 60t-59 181q0 106 36 211t85 153q51 50 111.5 66.5t257.5 44.5l23 -129q-25 -4 -61 -9t-53 -8t-43 -7t-38.5 -6.5t-30 -6.5t-26.5 -8t-20.5 -9t-19 -11t-14.5 -13q-39 -40 -60 -124h2q31 41 76 62.5t88 21.5q80 0 124 -54.5t44 -132.5
q0 -111 -77 -196.5t-189 -85.5zM237 109q49 0 79 43.5t30 104.5q0 88 -69 88q-50 0 -81.5 -48t-31.5 -108q0 -38 18.5 -59t54.5 -21z" />
    <glyph glyph-name="afii10067" unicode="&#x432;" horiz-adv-x="509" 
d="M-17 26l95 432q86 27 186 27q103 0 151.5 -36t48.5 -91q0 -91 -108 -116v-2q76 -24 76 -92q0 -74 -64 -116t-194 -42q-49 0 -104 9.5t-87 26.5zM146 100q16 -6 46 -6q46 0 67.5 16t21.5 41q0 41 -63 41h-51zM187 286h38q48 0 68.5 16t20.5 39q0 40 -59 40q-23 0 -48 -5z
" />
    <glyph glyph-name="afii10068" unicode="&#x433;" horiz-adv-x="439" 
d="M171 -10q-84 0 -135 36t-51 104q0 40 19.5 70t48 46t62.5 29t62.5 20.5t48 19.5t19.5 28q0 26 -51 26t-115 -21l-32 107q84 30 170 30q87 0 133 -38t46 -99q0 -40 -19.5 -71t-48 -47t-62.5 -29t-62.5 -20.5t-48 -18.5t-19.5 -25q0 -31 50 -31q70 0 136 35l43 -105
q-90 -46 -194 -46z" />
    <glyph glyph-name="afii10069" unicode="&#x434;" horiz-adv-x="534" 
d="M208 -10q-90 0 -148 54t-58 152q0 114 70 188.5t175 74.5q59 0 103 -19h2q-4 72 -38.5 106t-100.5 34q-41 0 -101 -15l-26 123q62 20 133 20q136 0 207 -83t71 -224q0 -112 -30.5 -203t-97.5 -149.5t-161 -58.5zM218 109q51 0 84.5 59t44.5 156q-38 21 -80 21
q-54 0 -85 -47.5t-31 -105.5q0 -83 67 -83z" />
    <glyph glyph-name="afii10070" unicode="&#x435;" horiz-adv-x="503" 
d="M228 -10q-111 0 -168.5 57.5t-57.5 148.5q0 121 76 205t198 84q86 0 134.5 -44t48.5 -118q0 -50 -23 -127l-288 -5v-8q0 -38 27 -57.5t68 -19.5q59 0 130 32l40 -105q-83 -43 -185 -43zM165 291l145 2q6 17 6 30q0 24 -15 37t-39 13q-33 0 -60 -23t-37 -59z" />
    <glyph glyph-name="afii10072" unicode="&#x436;" horiz-adv-x="797" 
d="M-48 6l33 123q13 -6 27 -6q17 0 29 13q5 6 24 35t40 48t49 28v2q-29 20 -39 51l-51 173h154l30 -135q10 -41 31 -41h38l37 176h146l-37 -176h28q27 0 46.5 24.5t40.5 65.5t40 61q34 37 94 37q39 0 74 -11l-30 -123q-12 6 -24 6q-15 0 -27 -13q-6 -7 -24.5 -33.5t-36 -44
t-39.5 -26.5v-2q27 -17 40 -54l60 -184h-153l-38 145q-11 41 -30 41h-42l-39 -186h-146l38 186h-36q-20 0 -37 -17.5t-29 -40.5t-31 -52.5t-40 -47.5q-38 -33 -103 -33q-39 0 -67 11z" />
    <glyph glyph-name="afii10073" unicode="&#x437;" horiz-adv-x="451" 
d="M148 -10q-98 0 -174 37l27 105q66 -31 138 -31q37 0 65 11.5t28 38.5q0 43 -97 43q-34 0 -68 -2l23 101q29 -2 72 -2q94 0 94 45q0 37 -70 37q-53 0 -115 -22l-30 101q76 33 173 33q82 0 133 -32.5t51 -96.5q0 -38 -24 -68.5t-61 -45.5v-2q64 -31 64 -95
q0 -73 -62.5 -114t-166.5 -41z" />
    <glyph glyph-name="afii10074" unicode="&#x438;" horiz-adv-x="553" 
d="M147 -10q-55 0 -92 34.5t-37 101.5q0 37 14 103l54 244h151l-60 -266q-6 -26 -6 -41q0 -49 40 -49q33 0 62.5 29t45.5 98l51 229h151l-67 -303q-12 -58 -12 -89q0 -33 9 -63l-130 -28q-13 33 -17 78h-2q-70 -78 -155 -78z" />
    <glyph glyph-name="afii10075" unicode="&#x439;" horiz-adv-x="553" 
d="M147 -10q-55 0 -92 34.5t-37 101.5q0 37 14 103l54 244h151l-60 -266q-6 -26 -6 -41q0 -49 40 -49q33 0 62.5 29t45.5 98l51 229h151l-67 -303q-12 -58 -12 -89q0 -33 9 -63l-130 -28q-13 33 -17 78h-2q-70 -78 -155 -78zM131 699l112 26q10 -81 65 -81q35 0 62.5 26
t57.5 83l102 -49q-48 -90 -99 -128t-129 -38q-72 0 -118 40.5t-53 120.5z" />
    <glyph glyph-name="afii10076" unicode="&#x43a;" horiz-adv-x="527" 
d="M-22 0l105 473h151l-39 -175h34q27 0 45 24t37 65t38 62q31 36 94 36q34 0 76 -12l-30 -123q-12 6 -26 6q-15 0 -27 -13q-7 -8 -24 -33.5t-34.5 -43t-39.5 -26.5v-2q29 -16 40 -54l56 -184h-153l-29 145q-8 40 -30 40h-52l-41 -185h-151z" />
    <glyph glyph-name="afii10077" unicode="&#x43b;" horiz-adv-x="576" 
d="M-60 6l31 123q12 -4 25 -4q31 0 48 30q12 20 29.5 70.5t42 100.5t57.5 88q64 71 189 71q80 0 154 -19l-64 -282q-11 -52 -11 -82q0 -36 16 -82l-144 -30q-23 47 -23 101q0 39 11 89l41 180h-7q-38 0 -63 -37q-22 -33 -62.5 -139.5t-70.5 -140.5q-42 -48 -124 -48
q-42 0 -75 11z" />
    <glyph glyph-name="afii10078" unicode="&#x43c;" horiz-adv-x="692" 
d="M-60 3l30 124q12 -4 27 -4q37 0 58 40q31 59 78 310h116q47 -99 89 -218h3q18 28 58 73l126 145h142l-64 -289q-11 -52 -11 -90q0 -37 9 -74l-145 -30q-15 44 -15 91q0 58 28 160h-3q-4 -5 -53 -64l-76 -87h-61q-28 83 -58 154h-2q-18 -87 -35.5 -135.5t-50.5 -77.5
q-43 -38 -118 -38q-39 0 -72 10z" />
    <glyph glyph-name="afii10079" unicode="&#x43d;" horiz-adv-x="563" 
d="M-22 0l105 473h151l-35 -157h153l35 157h151l-105 -473h-151l40 183h-153l-40 -183h-151z" />
    <glyph glyph-name="afii10080" unicode="&#x43e;" horiz-adv-x="548" 
d="M223 -10q-102 0 -161.5 58.5t-59.5 154.5q0 118 77.5 200t195.5 82q102 0 161.5 -58.5t59.5 -154.5q0 -118 -77.5 -200t-195.5 -82zM227 109q47 0 83 45.5t36 116.5q0 47 -20.5 71t-54.5 24q-47 0 -83 -45.5t-36 -116.5q0 -47 20.5 -71t54.5 -24z" />
    <glyph glyph-name="afii10081" unicode="&#x43f;" horiz-adv-x="561" 
d="M-19 0l105 473h116v-90h2q79 102 176 102q58 0 90 -31t32 -92q0 -31 -15 -99l-59 -263h-151l57 253q10 44 10 62q0 39 -36 39q-45 0 -82 -49t-57 -140l-37 -165h-151z" />
    <glyph glyph-name="afii10082" unicode="&#x440;" horiz-adv-x="550" 
d="M-72 -237l154 695q86 27 166 27q121 0 185.5 -56t64.5 -153q0 -125 -76 -205.5t-195 -80.5q-50 0 -94 17l-54 -244h-151zM159 124q27 -11 56 -11q59 0 96 43.5t37 104.5q0 53 -29 77t-74 24q-19 0 -34 -3z" />
    <glyph glyph-name="afii10083" unicode="&#x441;" horiz-adv-x="452" 
d="M234 -10q-117 0 -174.5 59.5t-57.5 150.5q0 118 77 201.5t216 83.5q78 0 139 -28l-28 -119q-58 28 -107 28q-61 0 -104 -42t-43 -114q0 -101 102 -101q56 0 106 29l41 -105q-27 -18 -75.5 -30.5t-91.5 -12.5z" />
    <glyph glyph-name="afii10084" unicode="&#x442;" horiz-adv-x="841" 
d="M-22 0l105 473h116v-90h2q33 42 80.5 72t99.5 30q104 0 107 -103h2q33 42 82 72.5t102 30.5q52 0 82 -26.5t31 -74.5q1 -37 -15 -110l-61 -274h-151l63 280q6 26 6 42q0 32 -29 32q-45 0 -85 -51q-38 -49 -57 -134l-38 -169h-151l63 280q6 26 6 43q0 31 -29 31
q-46 0 -86 -52q-38 -50 -56 -133l-38 -169h-151z" />
    <glyph glyph-name="afii10085" unicode="&#x443;" horiz-adv-x="522" 
d="M-120 -211l54 110q35 -17 69 -17q77 0 144 126l-115 465h145l38 -177q13 -63 28 -139h2q34 77 58 125l97 191h148l-256 -473q-69 -127 -133 -182t-164 -55q-71 0 -115 26z" />
    <glyph glyph-name="afii10086" unicode="&#x444;" horiz-adv-x="759" 
d="M71 -220l42 120q17 -7 36 -7q39 0 57 35q11 20 32 104l-2 1q-42 -43 -104 -43q-61 0 -95.5 45.5t-34.5 126.5q0 135 73.5 229t185.5 94q36 0 73 -10l11 53q18 86 68.5 133t128.5 47q50 0 92 -17l-42 -120q-18 7 -36 7q-28 0 -44 -15.5t-26 -52.5q-3 -10 -7.5 -33.5
t-7.5 -33.5l2 -1q42 43 104 43q61 0 95.5 -45.5t34.5 -126.5q0 -135 -73.5 -229t-185.5 -94q-36 0 -73 10q-15 -57 -22.5 -82.5t-25.5 -60t-42 -53.5q-50 -41 -124 -41q-52 0 -90 17zM198 112q26 0 46.5 24.5t27.5 58.5l36 165q-15 5 -36 5q-56 0 -88 -58t-32 -133
q0 -62 46 -62zM437 110q56 0 88 58t32 133q0 62 -46 62q-26 0 -46.5 -24.5t-27.5 -58.5l-36 -165q15 -5 36 -5z" />
    <glyph glyph-name="afii10087" unicode="&#x445;" horiz-adv-x="520" 
d="M-77 0l233 245l-140 228h153l82 -135l124 135h164l-225 -240l142 -233h-153l-85 140l-131 -140h-164z" />
    <glyph glyph-name="afii10088" unicode="&#x446;" horiz-adv-x="615" 
d="M147 -10q-55 0 -92 34.5t-37 101.5q0 37 14 103l54 244h151l-60 -266q-6 -26 -6 -41q0 -49 40 -49q33 0 62.5 29t45.5 98l51 229h151l-45 -203q-18 -84 -18 -113q0 -34 15.5 -42.5t66.5 -2.5l-60 -283h-132l34 170q-54 18 -71 75h-2q-74 -84 -162 -84z" />
    <glyph glyph-name="afii10089" unicode="&#x447;" horiz-adv-x="547" 
d="M266 0l23 105q8 37 19 76h-2q-56 -28 -126 -28q-65 0 -100 32.5t-35 89.5q0 38 12 89l25 109h151l-28 -120q-6 -27 -6 -40q0 -41 47 -41q34 0 59.5 13.5t28.5 27.5l37 160h151l-106 -473h-150z" />
    <glyph glyph-name="afii10090" unicode="&#x448;" horiz-adv-x="801" 
d="M131 -10q-53 0 -83 34t-30 98q0 41 14 107l54 244h151l-60 -266q-6 -28 -6 -45q0 -45 33 -45q32 0 59 37t39 92l50 227h151l-60 -266q-6 -28 -6 -45q0 -45 33 -45q32 0 58.5 36t38.5 91l51 229h151l-67 -303q-12 -58 -12 -89q0 -33 9 -63l-130 -28q-12 31 -17 84h-2
q-69 -84 -153 -84q-39 0 -69 20.5t-37 67.5h-2q-68 -88 -158 -88z" />
    <glyph glyph-name="afii10091" unicode="&#x449;" horiz-adv-x="863" 
d="M131 -10q-53 0 -83 34t-30 98q0 41 14 107l54 244h151l-60 -266q-6 -28 -6 -45q0 -45 33 -45q32 0 59 37t39 92l50 227h151l-60 -266q-6 -28 -6 -45q0 -45 33 -45q32 0 58.5 36t38.5 91l51 229h151l-45 -203q-18 -84 -18 -113q0 -34 15.5 -42.5t66.5 -2.5l-60 -283h-132
l34 170q-54 18 -71 75h-2q-73 -84 -160 -84q-39 0 -69 20.5t-37 67.5h-2q-68 -88 -158 -88z" />
    <glyph glyph-name="afii10092" unicode="&#x44a;" horiz-adv-x="642" 
d="M117 26l70 323h-142l-13 124h334l-35 -159q32 5 60 5q84 0 132 -38.5t48 -100.5q0 -89 -74 -139.5t-188 -50.5q-125 0 -192 36zM283 109q17 -6 45 -6q40 0 66 16t26 45q0 44 -72 44q-23 0 -43 -4z" />
    <glyph glyph-name="afii10093" unicode="&#x44b;" horiz-adv-x="734" 
d="M-10 26l98 447h151l-35 -159q28 5 53 5q81 0 129 -38.5t48 -100.5q0 -91 -71.5 -140.5t-192.5 -49.5q-112 0 -180 36zM156 109q16 -6 42 -6q38 0 61.5 15.5t23.5 45.5q0 44 -65 44q-22 0 -40 -4zM453 0l105 473h151l-105 -473h-151z" />
    <glyph glyph-name="afii10094" unicode="&#x44c;" horiz-adv-x="515" 
d="M-10 26l98 447h151l-35 -159q32 5 60 5q84 0 132 -38.5t48 -100.5q0 -89 -74 -139.5t-188 -50.5q-124 0 -192 36zM156 109q16 -6 45 -6q40 0 66 16t26 45q0 44 -72 44q-23 0 -43 -4z" />
    <glyph glyph-name="afii10095" unicode="&#x44d;" horiz-adv-x="480" 
d="M-5 27l27 105q56 -33 126 -33q101 0 131 91h-178l23 100h162q-14 83 -104 83q-46 0 -104 -27l-30 100q71 39 154 39q110 0 168 -62t58 -165q0 -122 -72.5 -195t-196.5 -73q-92 0 -164 37z" />
    <glyph glyph-name="afii10096" unicode="&#x44e;" horiz-adv-x="782" 
d="M-22 0l105 473h151l-36 -161h81q29 78 93.5 125.5t149.5 47.5q95 0 152.5 -55t57.5 -150q0 -123 -74.5 -206.5t-189.5 -83.5q-85 0 -140 44.5t-66 123.5q-2 14 -2 21h-92l-39 -179h-151zM477 109q44 0 74.5 46.5t30.5 122.5q0 88 -69 88q-44 0 -74.5 -46.5t-30.5 -122.5
q0 -88 69 -88z" />
    <glyph glyph-name="afii10097" unicode="&#x44f;" horiz-adv-x="506" 
d="M-51 6l33 124q14 -6 27 -6q15 0 27 13q5 6 17.5 23.5t24 29.5t27.5 20v2q-61 28 -61 104t61.5 122.5t172.5 46.5q100 0 205 -32l-101 -453h-150l35 156h-33q-24 0 -37 -19t-30.5 -53t-43.5 -56q-38 -33 -107 -33q-39 0 -67 11zM243 260h46l26 114q-23 6 -47 6
q-36 0 -57.5 -20.5t-21.5 -51.5q0 -48 54 -48z" />
    <glyph glyph-name="uni0450" unicode="&#x450;" horiz-adv-x="503" 
d="M228 -10q-111 0 -168.5 57.5t-57.5 148.5q0 121 76 205t198 84q86 0 134.5 -44t48.5 -118q0 -50 -23 -127l-288 -5v-8q0 -38 27 -57.5t68 -19.5q59 0 130 32l40 -105q-83 -43 -185 -43zM165 291l145 2q6 17 6 30q0 24 -15 37t-39 13q-33 0 -60 -23t-37 -59zM259 531
l-96 147h161l48 -147h-113z" />
    <glyph glyph-name="afii10071" unicode="&#x451;" horiz-adv-x="503" 
d="M228 -10q-111 0 -168.5 57.5t-57.5 148.5q0 121 76 205t198 84q86 0 134.5 -44t48.5 -118q0 -50 -23 -127l-288 -5v-8q0 -38 27 -57.5t68 -19.5q59 0 130 32l40 -105q-83 -43 -185 -43zM165 291l145 2q6 17 6 30q0 24 -15 37t-39 13q-33 0 -60 -23t-37 -59zM202 532
q-28 0 -46 17t-18 45q0 36 22.5 60.5t54.5 24.5q28 0 46 -17t18 -45q0 -36 -22.5 -60.5t-54.5 -24.5zM401 532q-28 0 -46 17t-18 45q0 36 22.5 60.5t54.5 24.5q28 0 46 -17t18 -45q0 -36 -22.5 -60.5t-54.5 -24.5z" />
    <glyph glyph-name="afii10099" unicode="&#x452;" horiz-adv-x="574" 
d="M-22 0l118 534h-51l27 112h49l14 62h151l-14 -62h133l-27 -112h-132l-18 -85q-9 -43 -27 -87h2q70 102 165 102q69 0 104.5 -57.5t35.5 -142.5q0 -91 -30 -176t-97 -155.5t-161 -98.5l-49 117q80 26 130.5 110t50.5 183q0 90 -53 90q-41 0 -81 -52q-38 -50 -58 -141
l-31 -141h-151z" />
    <glyph glyph-name="afii10100" unicode="&#x453;" horiz-adv-x="439" 
d="M184 531l75 147h161l-124 -147h-112zM171 -10q-84 0 -135 36t-51 104q0 40 19.5 70t48 46t62.5 29t62.5 20.5t48 19.5t19.5 28q0 26 -51 26t-115 -21l-32 107q84 30 170 30q87 0 133 -38t46 -99q0 -40 -19.5 -71t-48 -47t-62.5 -29t-62.5 -20.5t-48 -18.5t-19.5 -25
q0 -31 50 -31q70 0 136 35l43 -105q-90 -46 -194 -46z" />
    <glyph glyph-name="afii10101" unicode="&#x454;" horiz-adv-x="467" 
d="M232 -10q-114 0 -172 60t-58 154q0 76 29 138t94.5 102.5t159.5 40.5q76 0 137 -28l-28 -112q-47 28 -101 28q-99 0 -132 -83h185l-21 -100h-176v-2q1 -41 26 -65t71 -24q52 0 102 29l41 -97q-62 -41 -157 -41z" />
    <glyph glyph-name="afii10102" unicode="&#x455;" 
d="M-42 40l47 107q68 -41 129 -41q57 0 57 31q0 14 -17 27t-41.5 26t-48.5 30t-41 47t-17 69q0 64 48 106.5t137 42.5q88 0 159 -30l-24 -118q-70 32 -127 32q-42 0 -42 -29q0 -19 26 -38t56.5 -34t56.5 -49t26 -79q0 -73 -54.5 -111.5t-142.5 -38.5q-102 0 -187 50z" />
    <glyph glyph-name="afii10103" unicode="&#x456;" horiz-adv-x="257" 
d="M-22 0l105 473h151l-105 -473h-151zM179 529q-37 0 -60.5 23t-23.5 56q0 42 28.5 68t67.5 26q37 0 60.5 -22.5t23.5 -55.5q0 -42 -28.5 -68.5t-67.5 -26.5z" />
    <glyph glyph-name="afii10104" unicode="&#x457;" horiz-adv-x="257" 
d="M73 532q-28 0 -46 17t-18 45q0 36 22.5 60.5t54.5 24.5q28 0 46 -17t18 -45q0 -36 -22.5 -60.5t-54.5 -24.5zM272 532q-28 0 -46 17t-18 45q0 36 22.5 60.5t54.5 24.5q28 0 46 -17t18 -45q0 -36 -22.5 -60.5t-54.5 -24.5zM-22 0l105 473h151l-105 -473h-151z" />
    <glyph glyph-name="afii10105" unicode="&#x458;" horiz-adv-x="266" 
d="M-195 -217l46 120q26 -10 53 -10q60 0 76 76l112 504h151l-118 -533q-40 -177 -208 -177q-66 0 -112 20zM188 529q-37 0 -60.5 23t-23.5 56q0 42 28.5 68t67.5 26q37 0 60.5 -22.5t23.5 -55.5q0 -42 -28.5 -68.5t-67.5 -26.5z" />
    <glyph glyph-name="afii10106" unicode="&#x459;" horiz-adv-x="778" 
d="M-60 6l31 123q12 -4 25 -4q31 0 48 30q12 20 29.5 70.5t42 100.5t57.5 88q64 71 189 71q77 0 151 -19l-34 -151q27 3 48 3q83 0 131.5 -38t48.5 -100q0 -91 -70 -140.5t-190 -49.5q-111 0 -179 36l74 334h-7q-38 0 -63 -37q-22 -33 -62.5 -139.5t-70.5 -140.5
q-42 -48 -124 -48q-42 0 -75 11zM431 109q17 -6 42 -6q37 0 61 17.5t24 45.5q0 42 -64 42q-23 0 -41 -4z" />
    <glyph glyph-name="afii10107" unicode="&#x45a;" horiz-adv-x="796" 
d="M-22 0l105 473h151l-35 -157h147l35 157h151l-35 -159q36 4 48 4q83 0 131.5 -38t48.5 -100q0 -91 -70.5 -140.5t-191.5 -49.5q-113 0 -180 36l34 157h-148l-40 -183h-151zM449 109q16 -6 42 -6q37 0 61 17.5t24 45.5q0 42 -64 42q-23 0 -41 -4z" />
    <glyph glyph-name="afii10108" unicode="&#x45b;" horiz-adv-x="557" 
d="M-22 0l118 534h-51l27 112h49l14 62h151l-14 -62h123l-27 -112h-122l-18 -85q-9 -43 -27 -87h2q70 102 169 102q59 0 92.5 -30t33.5 -88q0 -25 -18 -104l-55 -242h-151l52 233q10 44 10 62q0 39 -36 39q-42 0 -81 -51q-39 -52 -60 -146l-30 -137h-151z" />
    <glyph glyph-name="afii10109" unicode="&#x45c;" horiz-adv-x="527" 
d="M251 531l75 147h161l-124 -147h-112zM-22 0l105 473h151l-39 -175h34q27 0 45 24t37 65t38 62q31 36 94 36q34 0 76 -12l-30 -123q-12 6 -26 6q-15 0 -27 -13q-7 -8 -24 -33.5t-34.5 -43t-39.5 -26.5v-2q29 -16 40 -54l56 -184h-153l-29 145q-8 40 -30 40h-52l-41 -185
h-151z" />
    <glyph glyph-name="uni045D" unicode="&#x45d;" horiz-adv-x="553" 
d="M147 -10q-55 0 -92 34.5t-37 101.5q0 37 14 103l54 244h151l-60 -266q-6 -26 -6 -41q0 -49 40 -49q33 0 62.5 29t45.5 98l51 229h151l-67 -303q-12 -58 -12 -89q0 -33 9 -63l-130 -28q-13 33 -17 78h-2q-70 -78 -155 -78zM262 531l-96 147h161l48 -147h-113z" />
    <glyph glyph-name="afii10110" unicode="&#x45e;" horiz-adv-x="522" 
d="M-120 -211l54 110q35 -17 69 -17q77 0 144 126l-115 465h145l38 -177q13 -63 28 -139h2q34 77 58 125l97 191h148l-256 -473q-69 -127 -133 -182t-164 -55q-71 0 -115 26zM119 699l112 26q10 -81 65 -81q35 0 62.5 26t57.5 83l102 -49q-48 -90 -99 -128t-129 -38
q-72 0 -118 40.5t-53 120.5z" />
    <glyph glyph-name="afii10193" unicode="&#x45f;" horiz-adv-x="553" 
d="M99 -210l56 165h113l-33 -165h-136zM147 -10q-55 0 -92 34.5t-37 101.5q0 37 14 103l54 244h151l-60 -266q-6 -26 -6 -41q0 -49 40 -49q33 0 62.5 29t45.5 98l51 229h151l-67 -303q-12 -58 -12 -89q0 -33 9 -63l-130 -28q-13 33 -17 78h-2q-70 -78 -155 -78z" />
    <glyph glyph-name="afii10146" unicode="&#x462;" horiz-adv-x="660" 
d="M61 0l111 507h-127l27 123h127l18 78h155l-17 -78h170l-47 -123h-150l-22 -99h45q97 0 151 -28q88 -45 88 -145q0 -106 -79.5 -170.5t-217.5 -64.5h-232zM243 125h58q77 0 107 31.5t30 65.5q0 38 -29 51q-25 11 -77 11h-53z" />
    <glyph glyph-name="afii10194" unicode="&#x463;" horiz-adv-x="574" 
d="M49 26l75 339h-130l25 108h128l31 138h151l-31 -138h164l-45 -108h-143l-14 -66q34 6 66 6q86 0 131.5 -36.5t45.5 -96.5q0 -86 -74 -134t-188 -48q-120 0 -192 36zM214 104q19 -7 46 -7q40 0 66 15.5t26 43.5q0 42 -68 42q-20 0 -50 -5z" />
    <glyph glyph-name="afii10147" unicode="&#x472;" horiz-adv-x="764" 
d="M327 -10q-133 0 -207.5 70.5t-74.5 193.5q0 178 106.5 295t283.5 117q133 0 207.5 -70.5t74.5 -193.5q0 -178 -106.5 -295t-283.5 -117zM339 115q73 0 125 42.5t75 113.5h-333q-1 -9 -1 -21q0 -65 34 -100t100 -35zM227 399h329v6q0 136 -133 136q-69 0 -119.5 -38.5
t-76.5 -103.5z" />
    <glyph glyph-name="afii10195" unicode="&#x473;" horiz-adv-x="550" 
d="M224 -10q-104 0 -163 56.5t-58 156.5q1 126 77 204t196 78q104 0 163 -56.5t58 -156.5q-1 -126 -77 -204t-196 -78zM228 103q35 0 64 22.5t44 63.5h-185v-6q0 -39 20.5 -59.5t56.5 -20.5zM164 287h185v5q0 39 -20.5 59.5t-56.5 20.5q-35 0 -64 -22.5t-44 -62.5z" />
    <glyph glyph-name="afii10148" unicode="&#x474;" horiz-adv-x="707" 
d="M219 -5l-129 664h160l53 -310q15 -84 20 -149h2q77 218 135 325q42 77 89.5 109t118.5 32q47 0 94 -14l-28 -132q-17 7 -40 7q-33 0 -57 -24t-51 -72q-75 -135 -199 -436h-168z" />
    <glyph glyph-name="afii10196" unicode="&#x475;" horiz-adv-x="516" 
d="M137 -3l-105 476h148l23 -146q12 -80 18 -144h2q44 164 86 227q50 75 141 75q47 0 86 -14l-30 -121q-14 7 -31 7q-37 0 -72 -62q-53 -92 -130 -298h-136z" />
    <glyph glyph-name="afii10050" unicode="&#x490;" horiz-adv-x="551" 
d="M2 0l145 659h295l30 139l149 41l-64 -303h-282l-118 -536h-155z" />
    <glyph glyph-name="afii10098" unicode="&#x491;" horiz-adv-x="444" 
d="M-22 0l105 473h232l33 132l140 39l-67 -302h-217l-75 -342h-151z" />
    <glyph glyph-name="Wgrave" unicode="&#x1e80;" horiz-adv-x="933" 
d="M174 -5l-97 664h164l35 -299q11 -97 13 -143h2q22 54 59 126l106 203l-18 113h148l40 -301q12 -85 17 -141h2q16 53 51 130l138 312h165l-329 -664h-131l-36 225q-14 84 -18 120h-2q-17 -46 -55 -114l-126 -231h-128zM491 696l-96 147h161l48 -147h-113z" />
    <glyph glyph-name="wgrave" unicode="&#x1e81;" horiz-adv-x="737" 
d="M112 -3l-78 476h142l20 -162q9 -72 13 -120h2q17 43 50 108l89 174h93l23 -149q12 -75 17 -133h2q12 32 50 115l78 167h153l-259 -476h-105l-27 165q-6 39 -15 102h-2q-18 -38 -55 -105l-89 -162h-102zM369 531l-96 147h161l48 -147h-113z" />
    <glyph glyph-name="Wacute" unicode="&#x1e82;" horiz-adv-x="933" 
d="M174 -5l-97 664h164l35 -299q11 -97 13 -143h2q22 54 59 126l106 203l-18 113h148l40 -301q12 -85 17 -141h2q16 53 51 130l138 312h165l-329 -664h-131l-36 225q-14 84 -18 120h-2q-17 -46 -55 -114l-126 -231h-128zM479 696l75 147h161l-124 -147h-112z" />
    <glyph glyph-name="wacute" unicode="&#x1e83;" horiz-adv-x="737" 
d="M112 -3l-78 476h142l20 -162q9 -72 13 -120h2q17 43 50 108l89 174h93l23 -149q12 -75 17 -133h2q12 32 50 115l78 167h153l-259 -476h-105l-27 165q-6 39 -15 102h-2q-18 -38 -55 -105l-89 -162h-102zM340 531l75 147h161l-124 -147h-112z" />
    <glyph glyph-name="Wdieresis" unicode="&#x1e84;" horiz-adv-x="933" 
d="M174 -5l-97 664h164l35 -299q11 -97 13 -143h2q22 54 59 126l106 203l-18 113h148l40 -301q12 -85 17 -141h2q16 53 51 130l138 312h165l-329 -664h-131l-36 225q-14 84 -18 120h-2q-17 -46 -55 -114l-126 -231h-128zM451 697q-28 0 -46 17t-18 45q0 36 22.5 60.5
t54.5 24.5q28 0 46 -17t18 -45q0 -36 -22.5 -60.5t-54.5 -24.5zM650 697q-28 0 -46 17t-18 45q0 36 22.5 60.5t54.5 24.5q28 0 46 -17t18 -45q0 -36 -22.5 -60.5t-54.5 -24.5z" />
    <glyph glyph-name="wdieresis" unicode="&#x1e85;" horiz-adv-x="737" 
d="M112 -3l-78 476h142l20 -162q9 -72 13 -120h2q17 43 50 108l89 174h93l23 -149q12 -75 17 -133h2q12 32 50 115l78 167h153l-259 -476h-105l-27 165q-6 39 -15 102h-2q-18 -38 -55 -105l-89 -162h-102zM312 532q-28 0 -46 17t-18 45q0 36 22.5 60.5t54.5 24.5
q28 0 46 -17t18 -45q0 -36 -22.5 -60.5t-54.5 -24.5zM511 532q-28 0 -46 17t-18 45q0 36 22.5 60.5t54.5 24.5q28 0 46 -17t18 -45q0 -36 -22.5 -60.5t-54.5 -24.5z" />
    <glyph glyph-name="Ygrave" unicode="&#x1ef2;" horiz-adv-x="599" 
d="M174 0l57 260l-154 399h156l94 -267h2l165 267h171l-281 -409l-55 -250h-155zM330 696l-96 147h161l48 -147h-113z" />
    <glyph glyph-name="ygrave" unicode="&#x1ef3;" horiz-adv-x="522" 
d="M-120 -211l54 110q35 -17 69 -17q77 0 144 126l-115 465h145l38 -177q13 -63 28 -139h2q34 77 58 125l97 191h148l-256 -473q-69 -127 -133 -182t-164 -55q-71 0 -115 26zM260 531l-96 147h161l48 -147h-113z" />
    <glyph glyph-name="endash" unicode="&#x2013;" horiz-adv-x="450" 
d="M0 196v107h450v-107h-450z" />
    <glyph glyph-name="emdash" unicode="&#x2014;" horiz-adv-x="800" 
d="M0 196v107h800v-107h-800z" />
    <glyph glyph-name="quoteleft" unicode="&#x2018;" horiz-adv-x="210" 
d="M98 422q-19 51 -19 102q0 100 62 195l95 -28q-25 -65 -25 -123q0 -44 17 -105z" />
    <glyph glyph-name="quoteright" unicode="&#x2019;" horiz-adv-x="210" 
d="M74 450q25 65 25 123q0 44 -17 105l130 41q19 -51 19 -102q0 -100 -62 -195z" />
    <glyph glyph-name="quotesinglbase" unicode="&#x201a;" horiz-adv-x="210" 
d="M-49 -150q25 65 25 123q0 44 -17 105l130 41q19 -51 19 -102q0 -100 -62 -195z" />
    <glyph glyph-name="quotedblleft" unicode="&#x201c;" horiz-adv-x="441" 
d="M98 422q-19 51 -19 102q0 100 62 195l95 -28q-25 -65 -25 -123q0 -44 17 -105zM329 422q-19 51 -19 102q0 100 62 195l95 -28q-25 -65 -25 -123q0 -44 17 -105z" />
    <glyph glyph-name="quotedblright" unicode="&#x201d;" horiz-adv-x="441" 
d="M400 422l-95 28q25 65 25 123q0 44 -17 105l130 41q19 -51 19 -102q0 -100 -62 -195zM169 422l-95 28q25 65 25 123q0 44 -17 105l130 41q19 -51 19 -102q0 -100 -62 -195z" />
    <glyph glyph-name="quotedblbase" unicode="&#x201e;" horiz-adv-x="441" 
d="M277 -178l-95 28q25 65 25 123q0 44 -17 105l130 41q19 -51 19 -102q0 -100 -62 -195zM46 -178l-95 28q25 65 25 123q0 44 -17 105l130 41q19 -51 19 -102q0 -100 -62 -195z" />
    <glyph glyph-name="dagger" unicode="&#x2020;" horiz-adv-x="508" 
d="M91 -52l26 124q18 86 44 182.5t29 112.5q-14 0 -73.5 -7t-84.5 -6l32 152q23 -1 78.5 -9.5t71.5 -9.5q5 20 11 77.5t11 79.5h154q-5 -20 -24.5 -78t-23.5 -79q9 0 70.5 8t86.5 7l-32 -152q-23 1 -78 9t-71 8q-7 -28 -19 -99t-22 -120l-42 -200h-144z" />
    <glyph glyph-name="daggerdbl" unicode="&#x2021;" horiz-adv-x="507" 
d="M89 -52q4 23 22.5 81.5t22.5 75.5q-9 0 -70.5 -8t-86.5 -7l32 152q23 -1 77.5 -8.5t71.5 -8.5q2 10 6.5 33.5t7.5 36.5q3 12 9.5 37t8.5 35q-14 0 -73.5 -7t-84.5 -6l32 152q23 -1 78.5 -9.5t71.5 -9.5q5 20 11 78.5t10 78.5h153q-4 -21 -23.5 -79t-23.5 -78q9 0 70.5 8
t86.5 7l-32 -152q-23 1 -77.5 8.5t-71.5 8.5q-3 -11 -12 -64q-3 -15 -6.5 -29.5t-7.5 -28.5t-6 -20q14 0 73.5 7t84.5 6l-32 -152q-23 1 -78.5 9.5t-71.5 9.5q-4 -17 -7.5 -45t-7 -64t-4.5 -48h-153z" />
    <glyph glyph-name="bullet" unicode="&#x2022;" horiz-adv-x="357" 
d="M173 180q-56 0 -94.5 40t-38.5 97q0 59 38 99t95 40t95.5 -40t38.5 -99q0 -57 -38.5 -97t-95.5 -40z" />
    <glyph glyph-name="ellipsis" unicode="&#x2026;" horiz-adv-x="895" 
d="M84 -10q-31 0 -51 20.5t-20 52.5q0 38 25.5 64.5t62.5 26.5q31 0 51.5 -21t20.5 -53q0 -37 -26 -63.5t-63 -26.5zM385 -10q-31 0 -51 20.5t-20 52.5q0 38 25.5 64.5t62.5 26.5q31 0 51.5 -21t20.5 -53q0 -37 -26 -63.5t-63 -26.5zM689 -10q-31 0 -51 20.5t-20 52.5
q0 38 25.5 64.5t62.5 26.5q31 0 51.5 -21t20.5 -53q0 -37 -26 -63.5t-63 -26.5z" />
    <glyph glyph-name="perthousand" unicode="&#x2030;" horiz-adv-x="1307" 
d="M148 0l498 659h123l-498 -659h-123zM210 308q-74 0 -110.5 40.5t-36.5 103.5q0 91 52.5 152.5t146.5 61.5q74 0 110.5 -40.5t36.5 -103.5q0 -91 -52.5 -152.5t-146.5 -61.5zM221 394q37 0 54.5 45.5t17.5 87.5q0 53 -42 53q-37 0 -54.5 -45.5t-17.5 -87.5q0 -53 42 -53z
M654 -10q-74 0 -110.5 40.5t-36.5 103.5q0 91 52.5 152.5t146.5 61.5q74 0 110.5 -40.5t36.5 -103.5q0 -91 -52.5 -152.5t-146.5 -61.5zM665 76q37 0 54.5 45.5t17.5 87.5q0 53 -42 53q-37 0 -54.5 -45.5t-17.5 -87.5q0 -53 42 -53zM1042 -10q-74 0 -110.5 40.5t-36.5 103.5
q0 91 52.5 152.5t146.5 61.5q74 0 110.5 -40.5t36.5 -103.5q0 -91 -52.5 -152.5t-146.5 -61.5zM1053 76q37 0 54.5 45.5t17.5 87.5q0 53 -42 53q-37 0 -54.5 -45.5t-17.5 -87.5q0 -53 42 -53z" />
    <glyph glyph-name="guilsinglleft" unicode="&#x2039;" horiz-adv-x="340" 
d="M295 374l-132 -140l84 -143l-104 -60l-135 216l200 204z" />
    <glyph glyph-name="guilsinglright" unicode="&#x203a;" horiz-adv-x="340" 
d="M-13 108l132 140l-84 143l104 60l135 -216l-200 -204z" />
    <glyph glyph-name="fraction" unicode="&#x2044;" horiz-adv-x="200" 
d="M-209 0l498 659h123l-498 -659h-123z" />
    <glyph glyph-name="zerosuperior" unicode="&#x2070;" 
d="M228 396q-75 0 -111 44.5t-36 114.5q0 106 53.5 176t142.5 70q75 0 111 -44.5t36 -114.5q0 -106 -53.5 -176t-142.5 -70zM233 489q34 0 51.5 59.5t17.5 104.5q0 55 -30 55q-34 0 -51.5 -59.5t-17.5 -104.5q0 -55 30 -55z" />
    <glyph glyph-name="foursuperior" unicode="&#x2074;" 
d="M225 401l17 81h-156l-17 76l239 241h118l-52 -233h57l-18 -84h-57l-18 -81h-113zM260 564l6 25q13 51 20 73l-100 -100z" />
    <glyph glyph-name="fivesuperior" unicode="&#x2075;" horiz-adv-x="376" 
d="M49 419l33 87q45 -17 94 -17q72 0 72 45q0 22 -26 30q-13 4 -39 4h-75l47 225h275l-30 -98h-152l-11 -47h7q32 0 53 -7q75 -26 75 -98q0 -68 -52.5 -107.5t-144.5 -39.5q-69 0 -126 23z" />
    <glyph glyph-name="sixsuperior" unicode="&#x2076;" horiz-adv-x="395" 
d="M235 396q-70 0 -115.5 39t-45.5 113q0 109 69 181t173 72q62 0 113 -24l-32 -88q-42 19 -80 19q-31 0 -60 -15.5t-45 -44.5l2 -1q34 15 69 15q51 0 86 -31.5t35 -81.5q0 -73 -47.5 -113t-121.5 -40zM239 486q22 0 35 13t13 33q0 17 -11.5 28.5t-29.5 11.5
q-22 0 -35.5 -12t-13.5 -33q0 -17 11.5 -29t30.5 -12z" />
    <glyph glyph-name="sevensuperior" unicode="&#x2077;" horiz-adv-x="335" 
d="M73 401q52 167 172 294h-152l-13 98h315v-61q-133 -147 -186 -331h-136z" />
    <glyph glyph-name="eightsuperior" unicode="&#x2078;" 
d="M231 396q-76 0 -117 27.5t-41 77.5q0 37 22 64t58 41v2q-42 34 -42 79q0 50 44.5 82t119.5 32q72 0 110.5 -29.5t38.5 -74.5q0 -62 -67 -92v-2q51 -25 51 -84t-49.5 -91t-127.5 -32zM236 489q50 0 50 35q0 26 -48 41q-44 -19 -44 -44q0 -32 42 -32zM264 642q38 12 38 41
q0 13 -9.5 20.5t-22.5 7.5q-16 0 -26.5 -8.5t-10.5 -23.5q0 -27 31 -37z" />
    <glyph glyph-name="ninesuperior" unicode="&#x2079;" horiz-adv-x="392" 
d="M59 418l35 88q31 -17 76 -17q78 0 107 58l-2 1q-29 -13 -66 -13q-53 0 -89.5 30.5t-36.5 86.5q0 66 45 107.5t118 41.5q72 0 119 -40.5t47 -124.5q0 -105 -61.5 -172.5t-176.5 -67.5q-74 0 -115 22zM243 623q24 0 45 13q1 6 1 17q0 29 -13 43.5t-32 14.5t-31.5 -13
t-12.5 -33q0 -42 43 -42z" />
    <glyph glyph-name="plussuperior" unicode="&#x207a;" horiz-adv-x="389" 
d="M198 434v118h-106v88h106v114h97v-114h106v-88h-106v-118h-97z" />
    <glyph glyph-name="minussuperior" unicode="&#x207b;" horiz-adv-x="389" 
d="M92 552v88h309v-88h-309z" />
    <glyph glyph-name="equalsuperior" unicode="&#x207c;" horiz-adv-x="389" 
d="M92 481v88h309v-88h-309zM92 623v88h309v-88h-309z" />
    <glyph glyph-name="parenleftsuperior" unicode="&#x207d;" horiz-adv-x="222" 
d="M131 356q-26 28 -43 76.5t-17 99.5q0 178 155 303l63 -64q-106 -106 -106 -236q0 -80 28 -126z" />
    <glyph glyph-name="parenrightsuperior" unicode="&#x207e;" horiz-adv-x="222" 
d="M84 356l-63 64q106 106 106 236q0 80 -28 126l80 53q26 -28 43 -76.5t17 -99.5q0 -178 -155 -303z" />
    <glyph glyph-name="n.superior" unicode="&#x207f;" horiz-adv-x="391" 
d="M19 270l73 332h86v-55h2q54 64 120 64q41 0 65.5 -22.5t24.5 -66.5q0 -21 -7 -54l-44 -198h-113l43 198q3 15 3 24q0 21 -21 21q-22 0 -50.5 -30t-43.5 -97l-25 -116h-113z" />
    <glyph glyph-name="zeroinferior" unicode="&#x2080;" 
d="M112 -185q-75 0 -111 44.5t-36 114.5q0 106 53.5 176t142.5 70q75 0 111 -44.5t36 -114.5q0 -106 -53.5 -176t-142.5 -70zM117 -92q34 0 51.5 59.5t17.5 104.5q0 55 -30 55q-34 0 -51.5 -59.5t-17.5 -104.5q0 -55 30 -55z" />
    <glyph glyph-name="oneinferior" unicode="&#x2081;" horiz-adv-x="363" 
d="M55 -180l60 271q-51 -23 -123 -33v102q84 13 164 58h105l-88 -398h-118z" />
    <glyph glyph-name="twoinferior" unicode="&#x2082;" horiz-adv-x="376" 
d="M-69 -180q8 48 29 87t46 62.5t53 43t50.5 31.5t37 25.5t14.5 26.5q0 25 -39 25q-50 0 -112 -26l-19 94q80 31 154 31q67 0 103.5 -30.5t36.5 -78.5q0 -41 -26.5 -75t-58 -51.5t-62 -36t-35.5 -30.5h161l-21 -98h-312z" />
    <glyph glyph-name="threeinferior" unicode="&#x2083;" horiz-adv-x="368" 
d="M-61 -161l35 86q48 -17 99 -17q61 0 61 40q0 30 -53 30h-66l16 82h42q84 0 84 39q0 26 -44 26q-41 0 -89 -14l-20 86q73 23 138 23q69 0 104 -27t35 -67q0 -79 -86 -102v-2q27 -4 45 -23t18 -51q0 -62 -48 -97.5t-139 -35.5q-72 0 -132 24z" />
    <glyph glyph-name="fourinferior" unicode="&#x2084;" 
d="M109 -180l17 81h-156l-17 76l239 241h118l-52 -233h57l-18 -84h-57l-18 -81h-113zM144 -17l6 25q13 51 20 73l-100 -100z" />
    <glyph glyph-name="fiveinferior" unicode="&#x2085;" horiz-adv-x="376" 
d="M-67 -162l33 87q45 -17 94 -17q72 0 72 45q0 22 -26 30q-13 4 -39 4h-75l47 225h275l-30 -98h-152l-11 -47h7q32 0 53 -7q75 -26 75 -98q0 -68 -52.5 -107.5t-144.5 -39.5q-69 0 -126 23z" />
    <glyph glyph-name="sixinferior" unicode="&#x2086;" horiz-adv-x="395" 
d="M119 -185q-70 0 -115.5 39t-45.5 113q0 109 69 181t173 72q62 0 113 -24l-32 -88q-42 19 -80 19q-31 0 -60 -15.5t-45 -44.5l2 -1q34 15 69 15q51 0 86 -31.5t35 -81.5q0 -73 -47.5 -113t-121.5 -40zM123 -95q22 0 35 13t13 33q0 17 -11.5 28.5t-29.5 11.5
q-22 0 -35.5 -12t-13.5 -33q0 -18 11.5 -29.5t30.5 -11.5z" />
    <glyph glyph-name="seveninferior" unicode="&#x2087;" horiz-adv-x="335" 
d="M-43 -180q52 167 172 294h-152l-13 98h315v-61q-133 -147 -186 -331h-136z" />
    <glyph glyph-name="eightinferior" unicode="&#x2088;" 
d="M115 -185q-76 0 -117 27.5t-41 77.5q0 37 22 64t58 41v2q-42 34 -42 79q0 50 44.5 82t119.5 32q72 0 110.5 -29.5t38.5 -74.5q0 -62 -67 -92v-2q51 -25 51 -84t-49.5 -91t-127.5 -32zM120 -92q50 0 50 35q0 26 -48 41q-44 -19 -44 -44q0 -32 42 -32zM148 61q38 12 38 41
q0 13 -9.5 20.5t-22.5 7.5q-16 0 -26.5 -8.5t-10.5 -23.5q0 -27 31 -37z" />
    <glyph glyph-name="nineinferior" unicode="&#x2089;" horiz-adv-x="392" 
d="M-57 -163l35 88q31 -17 76 -17q78 0 107 58l-2 1q-29 -13 -66 -13q-53 0 -89.5 30.5t-36.5 86.5q0 66 45 107.5t118 41.5q72 0 119 -40.5t47 -124.5q0 -105 -61.5 -172.5t-176.5 -67.5q-74 0 -115 22zM127 42q24 0 45 13q1 6 1 17q0 29 -13 43.5t-32 14.5t-31.5 -13
t-12.5 -33q0 -42 43 -42z" />
    <glyph glyph-name="parenleftinferior" unicode="&#x208d;" horiz-adv-x="222" 
d="M15 -225q-26 28 -43 76.5t-17 99.5q0 178 155 303l63 -64q-106 -106 -106 -236q0 -80 28 -126z" />
    <glyph glyph-name="parenrightinferior" unicode="&#x208e;" horiz-adv-x="222" 
d="M-32 -225l-63 64q106 106 106 236q0 80 -28 126l80 53q26 -28 43 -76.5t17 -99.5q0 -178 -155 -303z" />
    <glyph glyph-name="Euro" unicode="&#x20ac;" horiz-adv-x="560" 
d="M31 205l9 89h55v2q0 31 5 66h-55l10 89h69q39 102 122 158.5t182 56.5q86 0 147 -31l-25 -129q-53 30 -112 30q-93 0 -143 -85h196l-26 -89h-202q-6 -34 -6 -60v-8h201l-26 -89h-167q21 -85 106 -85q52 0 104 26l26 -120q-60 -36 -152 -36q-104 0 -167.5 55.5
t-80.5 159.5h-70z" />
    <glyph glyph-name="afii61289" unicode="&#x2113;" horiz-adv-x="525" 
d="M263 -10q-85 0 -131.5 41t-46.5 119v9q-38 -11 -65 -17l-20 128q52 10 99 24l29 140q48 232 233 232q70 0 112.5 -37.5t42.5 -102.5q0 -200 -287 -318v-13q0 -40 16.5 -56t51.5 -16q55 0 117 39l49 -119q-97 -53 -200 -53zM263 368q106 68 106 152q0 28 -22 28
q-43 0 -74 -137z" />
    <glyph glyph-name="afii61352" unicode="&#x2116;" horiz-adv-x="1073" 
d="M2 0l145 659h144l120 -311q17 -45 25 -80h2q5 50 14 92l66 299h155l-145 -659h-135l-126 322q-20 52 -26 80h-2q-5 -50 -14 -92l-68 -310h-155zM632 127l19 84h341l-19 -84h-341zM846 263q-65 0 -108.5 36.5t-43.5 104.5q0 89 53 148t142 59q65 0 108.5 -36.5
t43.5 -104.5q0 -89 -53 -148t-142 -59zM852 355q37 0 59 31.5t22 73.5q0 59 -50 59q-37 0 -59 -31.5t-22 -73.5q0 -59 50 -59z" />
    <glyph glyph-name="uni2117" unicode="&#x2117;" horiz-adv-x="763" 
d="M383 -10q-147 0 -239 95.5t-92 241.5t92 241.5t239 95.5t239 -95.5t92 -241.5t-92 -241.5t-239 -95.5zM383 62q109 0 179.5 74t70.5 191t-70.5 191t-179.5 74t-179.5 -74t-70.5 -191t70.5 -191t179.5 -74zM358 129h-86v393h112q79 0 119.5 -36.5t40.5 -101.5
q0 -60 -39 -97t-116 -37h-31v-121zM358 327h34q36 0 51 17t15 41t-13 42.5t-44 18.5h-43v-119z" />
    <glyph glyph-name="trademark" unicode="&#x2122;" horiz-adv-x="894" 
d="M168 264v296h-113v99h366l-23 -99h-107v-296h-123zM439 264v395h105l75 -101q26 -36 45 -70h3q19 34 41 66l73 105h113v-395h-123v145q0 44 2 64h-2q-15 -28 -33 -53l-46 -63h-52l-45 63q-22 33 -33 53h-2q2 -20 2 -64v-145h-123z" />
    <glyph glyph-name="estimated" unicode="&#x212e;" horiz-adv-x="754" 
d="M376 -10q-146 0 -248.5 84.5t-102.5 226.5q0 143 103 226.5t252 83.5q86 0 154.5 -28t110.5 -74.5t63.5 -104t19.5 -119.5h-556v-160q32 -46 88 -71.5t121 -25.5q134 0 209 91h90q-103 -129 -304 -129zM172 324h414v152q-68 97 -206 97q-139 0 -208 -97v-152z" />
    <glyph glyph-name="onethird" unicode="&#x2153;" horiz-adv-x="1000" 
d="M136 0l498 659h123l-498 -659h-123zM132 270l60 271q-51 -23 -123 -33v102q84 13 164 58h105l-88 -398h-118zM548 15l35 86q48 -17 99 -17q61 0 61 40q0 30 -53 30h-66l16 82h42q84 0 84 39q0 26 -44 26q-41 0 -89 -14l-20 86q73 23 138 23q69 0 104 -27t35 -67
q0 -79 -86 -102v-2q27 -4 45 -23t18 -51q0 -62 -48 -97.5t-139 -35.5q-72 0 -132 24z" />
    <glyph glyph-name="twothirds" unicode="&#x2154;" horiz-adv-x="1000" 
d="M198 0l498 659h123l-498 -659h-123zM29 270q8 48 29 87t46 62.5t53 43t50.5 31.5t37 25.5t14.5 26.5q0 25 -39 25q-50 0 -112 -26l-19 94q80 31 154 31q67 0 103.5 -30.5t36.5 -78.5q0 -41 -26.5 -75t-58 -51.5t-62 -36t-35.5 -30.5h161l-21 -98h-312zM595 15l35 86
q48 -17 99 -17q61 0 61 40q0 30 -53 30h-66l16 82h42q84 0 84 39q0 26 -44 26q-41 0 -89 -14l-20 86q73 23 138 23q69 0 104 -27t35 -67q0 -79 -86 -102v-2q27 -4 45 -23t18 -51q0 -62 -48 -97.5t-139 -35.5q-72 0 -132 24z" />
    <glyph glyph-name="oneeighth" unicode="&#x215b;" horiz-adv-x="1000" 
d="M120 0l498 659h123l-498 -659h-123zM134 270l60 271q-51 -23 -123 -33v102q84 13 164 58h105l-88 -398h-118zM680 -9q-76 0 -117 27.5t-41 77.5q0 37 22 64t58 41v2q-42 34 -42 79q0 50 44.5 82t119.5 32q72 0 110.5 -29.5t38.5 -74.5q0 -62 -67 -92v-2q51 -25 51 -84
t-49.5 -91t-127.5 -32zM685 84q50 0 50 35q0 26 -48 41q-44 -19 -44 -44q0 -32 42 -32zM713 237q38 12 38 41q0 13 -9.5 20.5t-22.5 7.5q-16 0 -26.5 -8.5t-10.5 -23.5q0 -27 31 -37z" />
    <glyph glyph-name="threeeighths" unicode="&#x215c;" horiz-adv-x="1000" 
d="M160 0l498 659h123l-498 -659h-123zM714 -9q-76 0 -117 27.5t-41 77.5q0 37 22 64t58 41v2q-42 34 -42 79q0 50 44.5 82t119.5 32q72 0 110.5 -29.5t38.5 -74.5q0 -62 -67 -92v-2q51 -25 51 -84t-49.5 -91t-127.5 -32zM719 84q50 0 50 35q0 26 -48 41q-44 -19 -44 -44
q0 -32 42 -32zM747 237q38 12 38 41q0 13 -9.5 20.5t-22.5 7.5q-16 0 -26.5 -8.5t-10.5 -23.5q0 -27 31 -37zM37 287l35 86q48 -17 99 -17q61 0 61 40q0 30 -53 30h-66l16 82h42q84 0 84 39q0 26 -44 26q-41 0 -89 -14l-20 86q73 23 138 23q69 0 104 -27t35 -67
q0 -79 -86 -102v-2q27 -4 45 -23t18 -51q0 -62 -48 -97.5t-139 -35.5q-72 0 -132 24z" />
    <glyph glyph-name="fiveeighths" unicode="&#x215d;" horiz-adv-x="1000" 
d="M164 0l498 659h123l-498 -659h-123zM45 286l33 87q45 -17 94 -17q72 0 72 45q0 22 -26 30q-13 4 -39 4h-75l47 225h275l-30 -98h-152l-11 -47h7q32 0 53 -7q75 -26 75 -98q0 -68 -52.5 -107.5t-144.5 -39.5q-69 0 -126 23zM713 -9q-76 0 -117 27.5t-41 77.5q0 37 22 64
t58 41v2q-42 34 -42 79q0 50 44.5 82t119.5 32q72 0 110.5 -29.5t38.5 -74.5q0 -62 -67 -92v-2q51 -25 51 -84t-49.5 -91t-127.5 -32zM718 84q50 0 50 35q0 26 -48 41q-44 -19 -44 -44q0 -32 42 -32zM746 237q38 12 38 41q0 13 -9.5 20.5t-22.5 7.5q-16 0 -26.5 -8.5
t-10.5 -23.5q0 -27 31 -37z" />
    <glyph glyph-name="seveneighths" unicode="&#x215e;" horiz-adv-x="1000" 
d="M130 0l498 659h123l-498 -659h-123zM697 -9q-76 0 -117 27.5t-41 77.5q0 37 22 64t58 41v2q-42 34 -42 79q0 50 44.5 82t119.5 32q72 0 110.5 -29.5t38.5 -74.5q0 -62 -67 -92v-2q51 -25 51 -84t-49.5 -91t-127.5 -32zM702 84q50 0 50 35q0 26 -48 41q-44 -19 -44 -44
q0 -32 42 -32zM730 237q38 12 38 41q0 13 -9.5 20.5t-22.5 7.5q-16 0 -26.5 -8.5t-10.5 -23.5q0 -27 31 -37zM102 270q52 167 172 294h-152l-13 98h315v-61q-133 -147 -186 -331h-136z" />
    <glyph glyph-name="partialdiff" unicode="&#x2202;" horiz-adv-x="564" 
d="M228 -10q-95 0 -147 53t-49 143q4 119 76 189t172 70q49 0 93 -22l2 1q0 7 -2 21q-15 103 -118 103q-61 0 -127 -38l-47 103q94 53 196 53q106 0 177 -71t71 -204q0 -182 -80 -291.5t-217 -109.5zM246 109q53 0 83.5 53t40.5 142q-35 22 -73 22q-52 0 -82 -37t-33 -85
q-4 -42 12.5 -68.5t51.5 -26.5z" />
    <glyph glyph-name="Delta" unicode="&#x2206;" horiz-adv-x="659" 
d="M-49 0l363 662h133l127 -662h-623zM182 129h215l-38 259q-8 51 -9 72h-2q-11 -27 -33 -72z" />
    <glyph glyph-name="product" unicode="&#x220f;" horiz-adv-x="722" 
d="M-1 -180l159 716h-88l27 123h706l-50 -123h-94l-159 -716h-155l159 716h-191l-159 -716h-155z" />
    <glyph glyph-name="summation" unicode="&#x2211;" horiz-adv-x="633" 
d="M-63 -181l338 433l-167 407h603l-63 -123h-311l119 -305l-228 -289h306l-27 -123h-570z" />
    <glyph glyph-name="minus" unicode="&#x2212;" horiz-adv-x="569" 
d="M40 186v124h469v-124h-469z" />
    <glyph glyph-name="radical" unicode="&#x221a;" horiz-adv-x="719" 
d="M195 -122l-39 392l-108 -29l-29 122l265 75l14 -207q6 -88 6 -174h2q18 54 66 155l290 615h164l-471 -949h-160z" />
    <glyph glyph-name="infinity" unicode="&#x221e;" horiz-adv-x="768" 
d="M212 91q-86 0 -134 53t-48 131t48 131.5t134 53.5q93 0 172 -92q79 92 172 92q86 0 134 -53.5t48 -131.5t-48 -131t-134 -53q-94 0 -172 91q-80 -91 -172 -91zM230 224q38 0 81 51q-44 51 -81 51q-21 0 -35 -14t-14 -37t14 -37t35 -14zM538 224q21 0 35 14t14 37t-14 37
t-35 14q-37 0 -81 -51q43 -51 81 -51z" />
    <glyph glyph-name="integral" unicode="&#x222b;" horiz-adv-x="353" 
d="M-160 -203l50 116q36 -21 67 -21q30 0 46.5 17.5t24.5 57.5l110 548q13 70 48 115q58 78 162 78q71 0 129 -35l-50 -116q-36 21 -67 21q-30 0 -46.5 -17.5t-24.5 -57.5l-110 -548q-13 -70 -48 -115q-59 -78 -162 -78q-71 0 -129 35z" />
    <glyph glyph-name="approxequal" unicode="&#x2248;" horiz-adv-x="569" 
d="M90 46l-69 98q78 75 169 75q43 0 101 -27t93 -27q48 0 95 40l69 -98q-78 -75 -169 -75q-43 0 -101 27t-93 27q-48 0 -95 -40zM90 282l-69 98q78 75 169 75q43 0 101 -27t93 -27q48 0 95 40l69 -98q-78 -75 -169 -75q-43 0 -101 27t-93 27q-48 0 -95 -40z" />
    <glyph glyph-name="notequal" unicode="&#x2260;" horiz-adv-x="569" 
d="M88 -10l40 83h-78v124h138l48 100h-186v124h246l37 77h152l-37 -77h71v-124h-131l-48 -100h179v-124h-239l-40 -83h-152z" />
    <glyph glyph-name="lessequal" unicode="&#x2264;" horiz-adv-x="569" 
d="M50 0v124h469v-124h-469zM69 291v126l434 133v-123l-291 -72v-2l291 -73v-123z" />
    <glyph glyph-name="greaterequal" unicode="&#x2265;" horiz-adv-x="569" 
d="M50 0v124h469v-124h-469zM66 157v123l291 73v2l-291 72v123l434 -133v-126z" />
    <glyph glyph-name="lozenge" unicode="&#x25ca;" horiz-adv-x="468" 
d="M108 0l-79 289l187 289h128l79 -289l-187 -289h-128zM146 279l40 -164h2l118 184l-40 164h-2z" />
    <glyph glyph-name="Imacron" horiz-adv-x="303" 
d="M2 0l145 659h155l-145 -659h-155zM74 696l23 112h311l-23 -112h-311z" />
    <glyph glyph-name="ibreve" horiz-adv-x="260" 
d="M180 538q-69 0 -107 40.5t-31 111.5h99q-2 -29 11 -46t38 -17t43.5 17t25.5 46h105q-15 -74 -64.5 -113t-119.5 -39zM-19 0l105 473h151l-105 -473h-151z" />
    <glyph glyph-name="zero.numr" 
d="M204 263q-75 0 -111 44.5t-36 114.5q0 106 53.5 176t142.5 70q75 0 111 -44.5t36 -114.5q0 -106 -53.5 -176t-142.5 -70zM209 356q34 0 51.5 59.5t17.5 104.5q0 55 -30 55q-34 0 -51.5 -59.5t-17.5 -104.5q0 -55 30 -55z" />
    <glyph glyph-name="Adieresis.small" horiz-adv-x="593" 
d="M-61 0l320 534h136l121 -534h-152l-16 92h-199l-53 -92h-157zM214 205h114l-13 73q-7 39 -12 84h-2q-8 -18 -37 -71zM236 567q-28 0 -46 17t-18 45q0 36 22.5 60.5t54.5 24.5q28 0 46 -17t18 -45q0 -36 -22.5 -60.5t-54.5 -24.5zM435 567q-28 0 -46 17t-18 45
q0 36 22.5 60.5t54.5 24.5q28 0 46 -17t18 -45q0 -36 -22.5 -60.5t-54.5 -24.5z" />
    <glyph glyph-name="Atilde.small" horiz-adv-x="593" 
d="M164 577q5 68 35.5 103t73.5 35q33 0 71.5 -20.5t51.5 -20.5q23 0 28 35h97q-5 -68 -35.5 -103t-73.5 -35q-33 0 -71.5 20.5t-51.5 20.5q-23 0 -28 -35h-97zM-61 0l320 534h136l121 -534h-152l-16 92h-199l-53 -92h-157zM214 205h114l-13 73q-7 39 -12 84h-2
q-8 -18 -37 -71z" />
    <glyph glyph-name="Acircumflex.small" horiz-adv-x="593" 
d="M-61 0l320 534h136l121 -534h-152l-16 92h-199l-53 -92h-157zM214 205h114l-13 73q-7 39 -12 84h-2q-8 -18 -37 -71zM172 566l121 147h107l87 -147h-109l-40 67l-51 -67h-115z" />
    <glyph glyph-name="Aacute.small" horiz-adv-x="593" 
d="M268 566l75 147h161l-124 -147h-112zM-61 0l320 534h136l121 -534h-152l-16 92h-199l-53 -92h-157zM214 205h114l-13 73q-7 39 -12 84h-2q-8 -18 -37 -71z" />
    <glyph glyph-name="Agrave.small" horiz-adv-x="593" 
d="M281 566l-96 147h161l48 -147h-113zM-61 0l320 534h136l121 -534h-152l-16 92h-199l-53 -92h-157zM214 205h114l-13 73q-7 39 -12 84h-2q-8 -18 -37 -71z" />
    <glyph glyph-name="Z.small" horiz-adv-x="520" 
d="M-20 0l297 410h-207l-9 120h464l-298 -410h227l-26 -120h-448z" />
    <glyph glyph-name="Y.small" horiz-adv-x="550" 
d="M139 0l43 195l-127 335h143l74 -220h2l145 220h155l-243 -344l-41 -186h-151z" />
    <glyph glyph-name="X.small" horiz-adv-x="593" 
d="M-52 0l254 279l-142 251h148l90 -160l139 160h163l-240 -268l150 -262h-150l-96 172l-154 -172h-162z" />
    <glyph glyph-name="W.small" horiz-adv-x="843" 
d="M136 -3l-84 533h144l29 -228q8 -75 11 -124h2q27 60 54 111l85 158l-13 83h129l31 -209q9 -63 16 -145h2q29 70 65 139l113 215h150l-295 -533h-128l-24 153q-9 58 -14 110h-2q-24 -56 -55 -109l-86 -154h-130z" />
    <glyph glyph-name="V.small" horiz-adv-x="554" 
d="M156 -3l-110 533h144l36 -219q14 -92 18 -140h2q15 40 65 134l122 225h152l-303 -533h-126z" />
    <glyph glyph-name="U.small" horiz-adv-x="651" 
d="M270 -10q-97 0 -163.5 42.5t-66.5 133.5q0 40 13 96l59 268h151l-66 -298q-7 -33 -7 -50q0 -36 24 -55.5t64 -19.5q61 0 94 41q20 24 30 65l70 317h150l-70 -319q-21 -92 -62 -140q-69 -81 -220 -81z" />
    <glyph glyph-name="T.small" horiz-adv-x="506" 
d="M110 0l91 410h-166l26 120h481l-46 -120h-144l-91 -410h-151z" />
    <glyph glyph-name="S.small" horiz-adv-x="493" 
d="M-9 37l49 106q76 -40 146 -40q73 0 73 53q0 21 -21 37.5t-50.5 30.5t-59.5 31.5t-51 49.5t-21 75q0 77 56.5 118.5t144.5 41.5q90 0 176 -30l-24 -115q-72 34 -140 34q-60 0 -60 -42q0 -19 21 -34t50.5 -29t59.5 -32t51 -51t21 -77q0 -80 -59 -127t-165 -47
q-103 0 -197 47z" />
    <glyph glyph-name="R.small" horiz-adv-x="544" 
d="M2 0l117 530h184q101 0 154.5 -39t53.5 -110q0 -62 -41.5 -106t-106.5 -65v-2q24 -24 57 -96l51 -112h-156l-38 93q-24 59 -45 80h-41l-38 -173h-151zM216 286h48q43 0 71.5 22t28.5 55q0 54 -73 54h-46z" />
    <glyph glyph-name="Q.small" horiz-adv-x="643" 
d="M424 -162q-73 0 -131.5 32.5t-118.5 95.5q-14 15 -42 40.5t-41.5 40.5t-30 39t-23.5 52.5t-7 65.5q0 139 87 237.5t236 98.5q101 0 167 -55t66 -159q0 -121 -68 -213t-187 -115q-5 -1 -17 -3v-2q9 -4 33.5 -16.5t45.5 -18.5t48 -6q42 0 84 13l27 -106q-63 -21 -128 -21z
M277 107q73 0 116 65t43 145q0 47 -24 76.5t-73 29.5q-73 0 -116 -65t-43 -145q0 -47 24 -76.5t73 -29.5z" />
    <glyph glyph-name="P.small" horiz-adv-x="530" 
d="M2 0l117 530h174q90 0 143.5 -43t53.5 -120q0 -91 -65 -148.5t-195 -57.5h-42l-35 -161h-151zM213 274h33q48 0 72.5 24.5t24.5 63.5q0 55 -63 55h-35z" />
    <glyph glyph-name="O.small" horiz-adv-x="643" 
d="M263 -10q-101 0 -167 55t-66 159q0 139 87 237.5t236 98.5q101 0 167 -55t66 -159q0 -139 -87 -237.5t-236 -98.5zM277 107q73 0 116 65t43 145q0 47 -24 76.5t-73 29.5q-73 0 -116 -65t-43 -145q0 -47 24 -76.5t73 -29.5z" />
    <glyph glyph-name="N.small" horiz-adv-x="667" 
d="M2 0l117 530h142l108 -212q32 -60 49 -103h2q5 38 17 89l50 226h151l-117 -530h-137l-108 212q-38 77 -51 117h-3q-6 -48 -16 -89l-53 -240h-151z" />
    <glyph glyph-name="M.small" horiz-adv-x="737" 
d="M2 0l117 530h140l37 -97q31 -81 52 -144h2q42 54 97 116l112 125h149l-117 -530h-151l42 189q19 85 30 119h-2q-28 -41 -70 -90l-89 -107h-58l-41 104q-21 55 -31 93h-2q-5 -33 -20 -100l-46 -208h-151z" />
    <glyph glyph-name="L.small" horiz-adv-x="435" 
d="M2 0l117 530h151l-91 -410h196l-30 -120h-343z" />
    <glyph glyph-name="K.small" horiz-adv-x="566" 
d="M2 0l117 530h151l-50 -227h2l209 227h165l-263 -284l183 -246h-167l-148 205h-3l-45 -205h-151z" />
    <glyph glyph-name="J.small" horiz-adv-x="324" 
d="M-146 -146l41 112q31 -14 62 -14q34 0 51 19.5t26 60.5l110 498h151l-118 -535q-18 -83 -67 -123.5t-138 -40.5q-69 0 -118 23z" />
    <glyph glyph-name="I.small" horiz-adv-x="299" 
d="M2 0l117 530h151l-117 -530h-151z" />
    <glyph glyph-name="H.small" horiz-adv-x="666" 
d="M2 0l117 530h151l-45 -201h216l45 201h151l-117 -530h-151l46 208h-216l-46 -208h-151z" />
    <glyph glyph-name="G.small" horiz-adv-x="613" 
d="M293 -10q-124 0 -193.5 62t-69.5 168q0 141 95 230.5t233 89.5q94 0 190 -33l-27 -115q-68 31 -141 31q-85 0 -142.5 -55.5t-57.5 -143.5q0 -55 32.5 -86t95.5 -31q25 0 49 5l33 148h151l-53 -239q-90 -31 -195 -31z" />
    <glyph glyph-name="F.small" horiz-adv-x="452" 
d="M2 0l117 530h349l-46 -120h-178l-23 -102h177l-25 -113h-177l-43 -195h-151z" />
    <glyph glyph-name="E.small" horiz-adv-x="495" 
d="M2 0l117 530h349l-43 -113h-180l-21 -94h176l-25 -113h-176l-21 -97h200l-25 -113h-351z" />
    <glyph glyph-name="D.small" horiz-adv-x="623" 
d="M2 0l117 530h166q130 0 205.5 -56.5t75.5 -167.5q0 -124 -90 -215t-257 -91h-217zM180 121h56q88 0 134 54t46 130q0 104 -139 104h-34z" />
    <glyph glyph-name="C.small" horiz-adv-x="522" 
d="M285 -10q-119 0 -187 62.5t-68 167.5q0 141 95 230.5t233 89.5q75 0 139 -23l-27 -115q-48 21 -101 21q-80 0 -134.5 -55t-54.5 -141q0 -120 126 -120q62 0 117 26l31 -109q-78 -34 -169 -34z" />
    <glyph glyph-name="B.small" horiz-adv-x="555" 
d="M2 0l117 530h210q81 0 125 -32t44 -88q0 -87 -90 -130v-2q78 -22 78 -100q0 -77 -68 -127.5t-184 -50.5h-232zM176 104h69q37 0 64 17.5t27 53.5q0 44 -58 44h-77zM222 314h49q38 0 59 21t21 50q0 41 -46 41h-58z" />
    <glyph glyph-name="A.small" horiz-adv-x="593" 
d="M-61 0l320 534h136l121 -534h-152l-16 92h-199l-53 -92h-157zM214 205h114l-13 73q-7 39 -12 84h-2q-8 -18 -37 -71z" />
    <glyph glyph-name="four.OT" horiz-adv-x="560" 
d="M190 -195l43 195h-226l-14 103l382 382h116l-81 -363h100l-27 -122h-100l-35 -160zM261 122l12 48q17 66 32 106h-2l-154 -157q66 3 83 3h29z" />
    <glyph glyph-name="three.OT" horiz-adv-x="560" 
d="M-28 -163l41 112q57 -26 130 -26q67 0 107.5 28t40.5 74q0 66 -109 66h-103l15 111q131 3 181 33t50 84q0 26 -20 41.5t-59 15.5q-66 0 -146 -37l-29 107q101 48 209 48q88 0 141 -40.5t53 -109.5q0 -130 -130 -179v-2q39 -10 67.5 -41.5t28.5 -85.5q0 -105 -80 -168
t-213 -63q-101 0 -175 32z" />
    <glyph glyph-name="two.OT" horiz-adv-x="560" 
d="M11 0q9 65 42.5 117t74.5 82t80.5 53.5t66 44.5t26.5 42q0 37 -55 37q-65 0 -142 -37l-27 106q96 49 204 49q79 0 124 -39t45 -99q0 -46 -29.5 -86t-66 -63t-76.5 -49t-53 -42h210l-25 -116h-399z" />
    <glyph glyph-name="one.OT" horiz-adv-x="560" 
d="M202 0l71 320q-86 -40 -173 -49v119q58 10 126 38.5t112 57.5h123l-108 -486h-151z" />
    <glyph glyph-name="zero.OT" horiz-adv-x="560" 
d="M223 -10q-96 0 -151.5 51.5t-55.5 143.5q0 135 79.5 222t201.5 87q96 0 151.5 -51.5t55.5 -143.5q0 -135 -79 -222t-202 -87zM237 108q52 0 85 56t33 122q0 90 -72 90q-51 0 -84.5 -56t-33.5 -121q0 -91 72 -91z" />
    <glyph glyph-name="yen.OP" horiz-adv-x="560" 
d="M131 0l14 64h-112l19 87h112l13 57h-112l19 87h66l-66 215h138l45 -182h2l119 182h155l-159 -215h67l-19 -87h-112l-13 -57h112l-19 -87h-112l-14 -64h-143z" />
    <glyph glyph-name="sterling.OP" horiz-adv-x="560" 
d="M42 0l9 81q29 4 47.5 25.5t24.5 43.5t11 58h-52l13 96h53l6 38q13 87 69 132t146 45q76 0 132 -27l-40 -111q-31 20 -76 20q-72 0 -85 -73l-4 -24h144l-29 -96h-130q-11 -71 -38 -107l1 -2q30 7 80 7h119l-11 -106h-390z" />
    <glyph glyph-name="dollar.OP" horiz-adv-x="560" 
d="M145 -73l19 89q-72 8 -128 34l42 106q66 -33 132 -33q86 0 86 37q0 14 -20 25.5t-48.5 22.5t-57 26t-48.5 43.5t-20 67.5q0 54 38.5 98.5t121.5 55.5l16 80h100l-16 -81q68 -9 110 -29l-27 -111q-68 35 -138 35q-63 0 -63 -34q0 -19 31 -35t68 -29t68 -44t31 -76
q0 -66 -44.5 -108t-135.5 -51l-17 -89h-100z" />
    <glyph glyph-name="Euro.OP" horiz-adv-x="560" 
d="M47 149l8 77h45q0 27 5 57h-46l9 77h60q34 76 100 117.5t146 41.5q77 0 133 -29l-23 -115q-47 31 -102 31q-64 0 -103 -46h149l-22 -77h-162q-6 -34 -6 -57h159l-23 -77h-125q20 -46 86 -46q51 0 98 30l27 -105q-64 -38 -141 -38q-79 0 -135.5 42.5t-75.5 116.5h-61z" />
    <glyph glyph-name="nine.OP" horiz-adv-x="580" 
d="M31 -211l-14 115q95 12 178 56.5t123 117.5l-2 1q-51 -24 -102 -24q-80 0 -130.5 51.5t-50.5 136.5q0 110 73 180.5t185 70.5q104 0 162 -62t58 -168q0 -79 -26.5 -153.5t-81 -142t-150.5 -115.5t-222 -64zM259 173q46 0 92 25q9 29 9 66q0 49 -19 80.5t-61 31.5
q-46 0 -72.5 -34t-26.5 -79q0 -90 78 -90z" />
    <glyph glyph-name="eight.OP" horiz-adv-x="590" 
d="M254 -10q-110 0 -174 46.5t-64 125.5q0 132 150 178v3q-37 25 -59 55t-22 79q0 80 66.5 134.5t181.5 54.5q109 0 167 -46.5t58 -115.5q0 -104 -128 -166v-2q95 -44 95 -143q0 -96 -78 -149.5t-193 -53.5zM265 105q41 0 69.5 19t28.5 58q0 13 -4.5 23.5t-9.5 17.5
t-18 15.5t-20 12.5t-26.5 14t-28.5 14q-78 -43 -78 -105q0 -32 24.5 -50.5t62.5 -18.5zM323 393q74 34 74 93q0 29 -18.5 47t-53.5 18q-36 0 -57 -21.5t-21 -50.5q0 -51 76 -86z" />
    <glyph glyph-name="seven.OP" horiz-adv-x="514" 
d="M32 -201q49 169 123.5 320.5t151.5 250.5h-268l-19 116h486v-47q-103 -137 -186.5 -297.5t-119.5 -309.5z" />
    <glyph glyph-name="six.OP" horiz-adv-x="580" 
d="M247 -10q-97 0 -158 59t-61 173q0 179 121 310t356 160l16 -116q-64 -8 -127.5 -32t-119 -67.5t-78.5 -96.5l2 -1q63 42 140 42q74 0 122.5 -47.5t48.5 -129.5q0 -104 -70.5 -179t-191.5 -75zM252 108q44 0 76 32t32 80q0 34 -20.5 57t-58.5 23q-59 0 -91 -50
q-17 -26 -17 -61q0 -36 21 -58.5t58 -22.5z" />
    <glyph glyph-name="five.OP" horiz-adv-x="510" 
d="M-64 -164l41 113q66 -26 132 -26q68 0 114 33t46 94q0 42 -33 60.5t-106 18.5h-108l79 357h402l-41 -116h-243l-29 -134h20q96 0 151.5 -45t55.5 -133q0 -108 -81 -180.5t-223 -72.5q-102 0 -177 31z" />
    <glyph glyph-name="four.OP" horiz-adv-x="560" 
d="M186 -195l43 195h-226l-14 103l382 382h116l-81 -363h100l-27 -122h-100l-35 -160zM257 122l12 48q17 66 32 106h-2l-154 -157q66 3 83 3h29z" />
    <glyph glyph-name="three.OP" horiz-adv-x="540" 
d="M-45 -163l41 112q57 -26 130 -26q67 0 107.5 28t40.5 74q0 66 -109 66h-103l15 111q131 3 181 33t50 84q0 26 -20 41.5t-59 15.5q-66 0 -146 -37l-29 107q101 48 209 48q88 0 141 -40.5t53 -109.5q0 -130 -130 -179v-2q39 -10 67.5 -41.5t28.5 -85.5q0 -105 -80 -168
t-213 -63q-101 0 -175 32z" />
    <glyph glyph-name="two.OP" horiz-adv-x="514" 
d="M-5 0q9 65 42.5 117t74.5 82t80.5 53.5t66 44.5t26.5 42q0 37 -55 37q-65 0 -142 -37l-27 106q96 49 204 49q79 0 124 -39t45 -99q0 -46 -29.5 -86t-66 -63t-76.5 -49t-53 -42h210l-25 -116h-399z" />
    <glyph glyph-name="one.OP" horiz-adv-x="440" 
d="M122 0l71 320q-66 -30 -136 -43v119q102 24 201 90h123l-108 -486h-151z" />
    <glyph glyph-name="zero.OP" horiz-adv-x="560" 
d="M225 -10q-95 0 -148 51t-53 144q0 136 75.5 222.5t195.5 86.5q95 0 148 -51t53 -144q0 -136 -75 -222.5t-196 -86.5zM237 108q51 0 80.5 55t29.5 123q0 90 -64 90q-50 0 -80 -55t-30 -122q0 -91 64 -91z" />
    <glyph glyph-name="yen.LT" horiz-adv-x="560" 
d="M134 0l23 104h-150l19 89h151l15 67h-151l20 89h109l-77 310h151l43 -268h2l155 268h163l-209 -310h111l-20 -89h-151l-15 -67h151l-20 -89h-151l-23 -104h-146z" />
    <glyph glyph-name="sterling.LT" horiz-adv-x="560" 
d="M18 0l13 92q15 3 28.5 9t23 16.5t17.5 20t14 24.5t10 24.5t7 26t4.5 23t3.5 21.5t2 16h-71l18 123h69l9 57q13 76 47 123q64 90 197 90q80 0 153 -33l-50 -117q-38 23 -89 23q-60 0 -88 -45q-16 -24 -22 -65l-5 -33h172l-35 -123h-153q-7 -40 -10.5 -58.5t-20.5 -53
t-42 -52.5v-2q61 16 142 16h126l-18 -123h-452z" />
    <glyph glyph-name="five.OT" horiz-adv-x="560" 
d="M-40 -164l41 113q66 -26 132 -26q68 0 114 33t46 94q0 42 -33 60.5t-106 18.5h-108l79 357h402l-41 -116h-243l-29 -134h20q96 0 151.5 -45t55.5 -133q0 -108 -81 -180.5t-223 -72.5q-102 0 -177 31z" />
    <glyph glyph-name="six.OT" horiz-adv-x="560" 
d="M237 -10q-97 0 -158 59t-61 173q0 179 121 310t356 160l16 -116q-64 -8 -127.5 -32t-119 -67.5t-78.5 -96.5l2 -1q63 42 140 42q74 0 122.5 -47.5t48.5 -129.5q0 -104 -70.5 -179t-191.5 -75zM242 108q44 0 76 32t32 80q0 34 -20.5 57t-58.5 23q-59 0 -91 -50
q-17 -26 -17 -61q0 -36 21 -58.5t58 -22.5z" />
    <glyph glyph-name="seven.OT" horiz-adv-x="560" 
d="M68 -201q49 169 123.5 320.5t151.5 250.5h-268l-19 116h486v-47q-103 -137 -186.5 -297.5t-119.5 -309.5z" />
    <glyph glyph-name="eight.OT" horiz-adv-x="560" 
d="M235 -10q-110 0 -174 46.5t-64 125.5q0 132 150 178v3q-37 25 -59 55t-22 79q0 80 66.5 134.5t181.5 54.5q109 0 167 -46.5t58 -115.5q0 -104 -128 -166v-2q95 -44 95 -143q0 -96 -78 -149.5t-193 -53.5zM246 105q41 0 69.5 19t28.5 58q0 13 -4.5 23.5t-9.5 17.5
t-18 15.5t-20 12.5t-26.5 14t-28.5 14q-78 -43 -78 -105q0 -32 24.5 -50.5t62.5 -18.5zM304 393q74 34 74 93q0 29 -18.5 47t-53.5 18q-36 0 -57 -21.5t-21 -50.5q0 -51 76 -86z" />
    <glyph glyph-name="nine.OT" horiz-adv-x="560" 
d="M21 -211l-14 115q95 12 178 56.5t123 117.5l-2 1q-51 -24 -102 -24q-80 0 -130.5 51.5t-50.5 136.5q0 110 73 180.5t185 70.5q104 0 162 -62t58 -168q0 -79 -26.5 -153.5t-81 -142t-150.5 -115.5t-222 -64zM249 173q46 0 92 25q9 29 9 66q0 49 -19 80.5t-61 31.5
q-46 0 -72.5 -34t-26.5 -79q0 -90 78 -90z" />
    <glyph glyph-name="Euro.OT" horiz-adv-x="560" 
d="M47 149l8 77h45q0 27 5 57h-46l9 77h60q34 76 100 117.5t146 41.5q77 0 133 -29l-23 -115q-47 31 -102 31q-64 0 -103 -46h149l-22 -77h-162q-6 -34 -6 -57h159l-23 -77h-125q20 -46 86 -46q51 0 98 30l27 -105q-64 -38 -141 -38q-79 0 -135.5 42.5t-75.5 116.5h-61z" />
    <glyph glyph-name="dollar.OT" horiz-adv-x="560" 
d="M145 -73l19 89q-72 8 -128 34l42 106q66 -33 132 -33q86 0 86 37q0 14 -20 25.5t-48.5 22.5t-57 26t-48.5 43.5t-20 67.5q0 54 38.5 98.5t121.5 55.5l16 80h100l-16 -81q68 -9 110 -29l-27 -111q-68 35 -138 35q-63 0 -63 -34q0 -19 31 -35t68 -29t68 -44t31 -76
q0 -66 -44.5 -108t-135.5 -51l-17 -89h-100z" />
    <glyph glyph-name="sterling.OT" horiz-adv-x="560" 
d="M42 0l9 81q29 4 47.5 25.5t24.5 43.5t11 58h-52l13 96h53l6 38q13 87 69 132t146 45q76 0 132 -27l-40 -111q-31 20 -76 20q-72 0 -85 -73l-4 -24h144l-29 -96h-130q-11 -71 -38 -107l1 -2q30 7 80 7h119l-11 -106h-390z" />
    <glyph glyph-name="yen.OT" horiz-adv-x="560" 
d="M131 0l14 64h-112l19 87h112l13 57h-112l19 87h66l-66 215h138l45 -182h2l119 182h155l-159 -215h67l-19 -87h-112l-13 -57h112l-19 -87h-112l-14 -64h-143z" />
    <glyph glyph-name="zero.small" horiz-adv-x="521" 
d="M214 -10q-90 0 -139.5 51.5t-49.5 144.5q0 39 5.5 80.5t23 92.5t44 89.5t73.5 65t108 26.5q90 0 139.5 -51.5t49.5 -144.5q0 -39 -5.5 -80.5t-23 -92.5t-44 -89.5t-73.5 -65t-108 -26.5zM222 107q40 0 67 78.5t27 155.5q0 82 -45 82q-40 0 -67 -78.5t-27 -155.5
q0 -82 45 -82z" />
    <glyph glyph-name="one.small" horiz-adv-x="398" 
d="M108 0l84 381q-71 -30 -143 -41v121q45 9 107 31.5t98 41.5h123l-118 -534h-151z" />
    <glyph glyph-name="two.small" horiz-adv-x="494" 
d="M-11 0q9 76 44.5 134.5t80 92t87 58.5t71.5 48.5t29 48.5q0 41 -65 41q-73 0 -156 -38l-22 113q107 42 205 42q81 0 135.5 -37t54.5 -113q0 -40 -21.5 -74.5t-56 -60t-70.5 -47.5t-72 -47t-54 -48h252l-24 -113h-418z" />
    <glyph glyph-name="three.small" horiz-adv-x="487" 
d="M-22 34l49 104q60 -31 131 -31q54 0 80 18.5t26 46.5q0 22 -21 30.5t-71 8.5h-98l19 109h49q54 0 89 9q60 15 60 54q0 41 -68 41q-54 0 -141 -29l-19 111q100 34 183 34q95 0 146 -37t51 -101q0 -86 -99 -129v-2q72 -25 72 -94q0 -81 -68.5 -134t-189.5 -53
q-105 0 -180 44z" />
    <glyph glyph-name="four.small" horiz-adv-x="544" 
d="M215 0l24 108h-215l-13 88l349 338h124l-69 -311h83l-26 -115h-82l-24 -108h-151zM270 223l10 44q11 46 25 81l-129 -127q28 2 49 2h45z" />
    <glyph glyph-name="five.small" horiz-adv-x="490" 
d="M-24 34l49 104q60 -31 127 -31q53 0 79.5 21t26.5 50q0 33 -30 43t-89 10h-83l66 299h366l-43 -113h-209l-17 -79h7q86 0 135 -41.5t49 -108.5q0 -85 -68 -141.5t-186 -56.5q-105 0 -180 44z" />
    <glyph glyph-name="six.small" horiz-adv-x="526" 
d="M237 -10q-95 0 -151 51t-56 150q0 149 87 249t237 100q75 0 140 -28l-44 -106q-46 21 -96 21q-54 0 -98 -28.5t-69 -83.5h2q49 33 111 33q75 0 118 -42t43 -111q0 -95 -65 -150t-159 -55zM240 103q30 0 52 21.5t22 54.5q0 26 -16 43t-45 17q-35 0 -54.5 -21.5
t-19.5 -55.5q0 -28 15.5 -43.5t45.5 -15.5z" />
    <glyph glyph-name="seven.small" horiz-adv-x="462" 
d="M48 0q44 217 212 410h-217l-9 120h420v-53q-201 -241 -254 -477h-152z" />
    <glyph glyph-name="eight.small" horiz-adv-x="531" 
d="M224 -10q-97 0 -150.5 39.5t-53.5 106.5q0 100 118 144v2q-63 40 -63 103q0 62 52 108.5t153 46.5q97 0 145 -40t48 -100q0 -79 -99 -133v-2q22 -13 35.5 -23.5t26.5 -32.5t13 -49q0 -80 -62 -125t-163 -45zM231 98q28 0 49.5 13t21.5 41q0 20 -18.5 35.5t-61.5 34.5
q-55 -31 -55 -74q0 -24 18.5 -37t45.5 -13zM276 318q51 22 51 68q0 19 -12.5 32.5t-38.5 13.5q-27 0 -40.5 -14t-13.5 -37q0 -40 54 -63z" />
    <glyph glyph-name="nine.small" horiz-adv-x="522" 
d="M17 22l46 105q51 -24 105 -24q53 0 90.5 26.5t51.5 76.5h-2q-39 -24 -94 -24q-73 0 -120 38.5t-47 113.5q0 90 60 148t159 58q88 0 148 -51t60 -159q0 -70 -17.5 -129.5t-52.5 -107.5t-95 -75.5t-139 -27.5q-83 0 -153 32zM252 291q38 0 71 18q3 15 3 32q0 86 -61 86
q-35 0 -53 -25t-18 -53q0 -58 58 -58z" />
    <glyph glyph-name="Euro.small" horiz-adv-x="504" 
d="M10 155l8 79h47q0 31 6 61h-49l10 79h62q35 79 104 122.5t152 43.5q81 0 138 -30l-24 -120q-50 33 -106 33q-67 0 -107 -49h155l-23 -79h-168q-5 -24 -7 -61h166l-24 -79h-131q22 -48 90 -48q54 0 102 31l28 -108q-65 -40 -146 -40q-82 0 -141 44t-79 121h-63z" />
    <glyph glyph-name="dollar.small" horiz-adv-x="504" 
d="M109 -75l20 90q-73 12 -116 40l46 104q70 -34 135 -34q70 0 70 39q0 18 -19 32.5t-46.5 27.5t-55 29.5t-46.5 45.5t-19 67q0 55 39 98.5t114 54.5l18 84h111l-19 -85q55 -7 101 -27l-23 -114q-68 34 -128 34q-62 0 -62 -34q0 -16 19 -29.5t46.5 -26.5t55 -29t46.5 -44.5
t19 -66.5q0 -62 -45 -109t-131 -58l-19 -89h-111z" />
    <glyph glyph-name="sterling.small" horiz-adv-x="504" 
d="M3 0l15 91q81 12 93 119h-60l18 113h56l8 46q10 57 41 97q57 74 170 74q76 0 141 -30l-40 -111q-43 24 -88 24q-42 0 -63 -26q-15 -18 -20 -51l-3 -23h154l-33 -113h-136q-11 -68 -37 -100v-2q27 5 89 5h126l-19 -113h-412z" />
    <glyph glyph-name="yen.small" horiz-adv-x="504" 
d="M-5 72l18 83h127l12 52h-128l19 83h90l-68 240h145l36 -202h2l122 202h162l-173 -240h88l-19 -83h-130l-12 -52h131l-18 -83h-131l-15 -72h-146l15 72h-127z" />
    <glyph glyph-name="six.LT" horiz-adv-x="560" 
d="M260 -10q-106 0 -169 61t-63 183q0 184 106 308t278 124q76 0 146 -29l-47 -114q-47 22 -106 22q-76 0 -134 -47.5t-89 -145.5h2q58 68 152 68q87 0 135.5 -49.5t48.5 -132.5q0 -115 -77.5 -181.5t-182.5 -66.5zM265 111q40 0 67 29.5t27 77.5q0 37 -20 59t-57 22
q-44 0 -69 -30t-25 -77q0 -81 77 -81z" />
    <glyph glyph-name="seven.LT" horiz-adv-x="560" 
d="M105 0q31 154 104.5 291t162.5 239h-264l-9 129h470v-55q-241 -301 -308 -604h-156z" />
    <glyph glyph-name="eight.LT" horiz-adv-x="560" 
d="M248 -10q-110 0 -174 46.5t-64 125.5q0 132 150 178v3q-37 25 -59 55t-22 79q0 80 66.5 134.5t181.5 54.5q109 0 167 -46.5t58 -115.5q0 -104 -128 -166v-2q95 -44 95 -143q0 -96 -78 -149.5t-193 -53.5zM259 105q41 0 69.5 19t28.5 58q0 13 -4.5 23.5t-9.5 17.5
t-18 15.5t-20 12.5t-26.5 14t-28.5 14q-78 -43 -78 -105q0 -32 24.5 -50.5t62.5 -18.5zM317 393q74 34 74 93q0 29 -18.5 47t-53.5 18q-36 0 -57 -21.5t-21 -50.5q0 -51 76 -86z" />
    <glyph glyph-name="nine.LT" horiz-adv-x="560" 
d="M17 24l49 113q51 -26 114 -26q147 0 186 152h-2q-56 -37 -130 -37q-81 0 -135 49.5t-54 139.5q0 114 73 182.5t186 68.5q46 0 85.5 -13.5t74 -41.5t54.5 -79.5t20 -120.5q0 -86 -22 -161t-65 -133.5t-112.5 -92.5t-157.5 -34q-92 0 -164 34zM285 347q42 0 92 25
q7 23 7 57q0 116 -82 116q-46 0 -70.5 -36t-24.5 -81q0 -35 18.5 -58t59.5 -23z" />
    <glyph glyph-name="Euro.LT" horiz-adv-x="560" 
d="M31 205l9 89h55v2q0 31 5 66h-55l10 89h69q39 102 122 158.5t182 56.5q86 0 147 -31l-25 -129q-53 30 -112 30q-93 0 -143 -85h196l-26 -89h-202q-6 -34 -6 -60v-8h201l-26 -89h-167q21 -85 106 -85q52 0 104 26l26 -120q-60 -36 -152 -36q-104 0 -167.5 55.5
t-80.5 159.5h-70z" />
    <glyph glyph-name="dollar.LT" horiz-adv-x="560" 
d="M139 -90l22 107q-70 8 -134 45l53 109q61 -36 130 -36q111 0 111 62q0 26 -22 47t-53 38t-62 37t-53 56t-22 85q0 71 49.5 122t130.5 64l20 100h107l-21 -100q67 -7 123 -33l-27 -118q-66 37 -140 37q-36 0 -60.5 -15t-24.5 -43q0 -25 22 -44.5t53 -35.5t62 -36t53 -55
t22 -83q0 -78 -57.5 -134t-152.5 -69l-22 -107h-107z" />
    <glyph glyph-name="plusinferior" horiz-adv-x="389" 
d="M82 -147v118h-106v88h106v114h97v-114h106v-88h-106v-118h-97z" />
    <glyph glyph-name="minusinferior" horiz-adv-x="389" 
d="M-24 -29v88h309v-88h-309z" />
    <glyph glyph-name="equalinferior" horiz-adv-x="389" 
d="M-24 -100v88h309v-88h-309zM-24 42v88h309v-88h-309z" />
    <glyph glyph-name="five.LT" horiz-adv-x="560" 
d="M-7 28l55 120q59 -31 136 -31q56 0 100.5 25.5t44.5 81.5q0 18 -6.5 32t-20 21.5t-25.5 12.5t-33.5 6.5t-32 2t-32.5 0.5h-11h-82l80 360h416l-49 -129h-245l-25 -113h23q105 0 155 -49.5t50 -124.5q0 -111 -83.5 -182t-222.5 -71q-121 0 -192 38z" />
    <glyph glyph-name="four.LT" horiz-adv-x="560" 
d="M239 0l34 153h-246l-14 103l393 408h131l-86 -389h91l-27 -122h-91l-34 -153h-151zM300 275l13 53q19 78 32 113l-161 -169q66 3 82 3h34z" />
    <glyph glyph-name="three.LT" horiz-adv-x="560" 
d="M-10 30l56 119q59 -32 148 -32q57 0 96 21.5t39 70.5q0 36 -25.5 49.5t-90.5 13.5h-100l20 118h48q69 0 111 12q71 21 71 77q0 60 -86 60q-69 0 -158 -31l-20 117q106 41 211 41q102 0 158.5 -42t56.5 -116q0 -126 -134 -166v-2q100 -25 100 -120q0 -99 -81 -164.5
t-219 -65.5q-127 0 -201 40z" />
    <glyph glyph-name="two.LT" horiz-adv-x="560" 
d="M2 0q8 66 33 121t58 92.5t71.5 69t75 55.5t66 45.5t48 46t18.5 50.5q0 33 -22 46t-64 13q-79 0 -168 -42l-23 120q119 49 225 49q100 0 156.5 -45.5t56.5 -125.5q0 -54 -29 -101t-72 -81.5t-88 -64.5t-83 -61t-49 -58h283l-29 -129h-464z" />
    <glyph glyph-name="Amacron.small" horiz-adv-x="593" 
d="M177 600l23 112h311l-23 -112h-311zM-61 0l320 534h136l121 -534h-152l-16 92h-199l-53 -92h-157zM214 205h114l-13 73q-7 39 -12 84h-2q-8 -18 -37 -71z" />
    <glyph glyph-name="Ccircumflex.small" horiz-adv-x="522" 
d="M285 -10q-119 0 -187 62.5t-68 167.5q0 141 95 230.5t233 89.5q75 0 139 -23l-27 -115q-48 21 -101 21q-80 0 -134.5 -55t-54.5 -141q0 -120 126 -120q62 0 117 26l31 -109q-78 -34 -169 -34zM183 566l121 147h107l87 -147h-109l-40 67l-51 -67h-115z" />
    <glyph glyph-name="Abreve.small" horiz-adv-x="593" 
d="M330 573q-69 0 -107 40.5t-31 111.5h99q-2 -29 11 -46t38 -17t43.5 17t25.5 46h105q-15 -74 -64.5 -113t-119.5 -39zM-61 0l320 534h136l121 -534h-152l-16 92h-199l-53 -92h-157zM214 205h114l-13 73q-7 39 -12 84h-2q-8 -18 -37 -71z" />
    <glyph glyph-name="Ccaron.small" horiz-adv-x="522" 
d="M292 566l-87 147h109l40 -67l51 67h115l-121 -147h-107zM285 -10q-119 0 -187 62.5t-68 167.5q0 141 95 230.5t233 89.5q75 0 139 -23l-27 -115q-48 21 -101 21q-80 0 -134.5 -55t-54.5 -141q0 -120 126 -120q62 0 117 26l31 -109q-78 -34 -169 -34z" />
    <glyph glyph-name="Cdotaccent.small" horiz-adv-x="522" 
d="M285 -10q-119 0 -187 62.5t-68 167.5q0 141 95 230.5t233 89.5q75 0 139 -23l-27 -115q-48 21 -101 21q-80 0 -134.5 -55t-54.5 -141q0 -120 126 -120q62 0 117 26l31 -109q-78 -34 -169 -34zM357 564q-37 0 -60.5 23t-23.5 56q0 42 28.5 68t67.5 26q37 0 60.5 -22.5
t23.5 -55.5q0 -42 -28.5 -68.5t-67.5 -26.5z" />
    <glyph glyph-name="Ccedilla.small" horiz-adv-x="522" 
d="M96 -198l28 62q20 -9 47 -9q51 0 51 32q0 26 -72 26l45 88q-79 21 -122 78.5t-43 140.5q0 141 95 230.5t233 89.5q75 0 139 -23l-27 -115q-48 21 -101 21q-80 0 -134.5 -55t-54.5 -141q0 -120 126 -120q62 0 117 26l31 -109q-74 -32 -162 -34l-19 -36q76 -7 76 -65
q0 -47 -44.5 -74t-120.5 -27q-51 0 -88 14z" />
    <glyph glyph-name="Dcaron.small" horiz-adv-x="623" 
d="M277 566l-87 147h109l40 -67l51 67h115l-121 -147h-107zM2 0l117 530h166q130 0 205.5 -56.5t75.5 -167.5q0 -124 -90 -215t-257 -91h-217zM180 121h56q88 0 134 54t46 130q0 104 -139 104h-34z" />
    <glyph glyph-name="Dcroat.small" horiz-adv-x="623" 
d="M2 0l46 209h-55l25 112h55l46 209h166q130 0 205.5 -56.5t75.5 -167.5q0 -124 -90 -215t-257 -91h-217zM180 121h56q88 0 134 54t46 130q0 104 -139 104h-34l-20 -88h91l-25 -112h-90z" />
    <glyph glyph-name="Egrave.small" horiz-adv-x="495" 
d="M244 566l-96 147h161l48 -147h-113zM2 0l117 530h349l-43 -113h-180l-21 -94h176l-25 -113h-176l-21 -97h200l-25 -113h-351z" />
    <glyph glyph-name="Eacute.small" horiz-adv-x="495" 
d="M229 566l75 147h161l-124 -147h-112zM2 0l117 530h349l-43 -113h-180l-21 -94h176l-25 -113h-176l-21 -97h200l-25 -113h-351z" />
    <glyph glyph-name="Ecircumflex.small" horiz-adv-x="495" 
d="M2 0l117 530h349l-43 -113h-180l-21 -94h176l-25 -113h-176l-21 -97h200l-25 -113h-351zM142 566l121 147h107l87 -147h-109l-40 67l-51 -67h-115z" />
    <glyph glyph-name="Ecaron.small" horiz-adv-x="495" 
d="M236 566l-87 147h109l40 -67l51 67h115l-121 -147h-107zM2 0l117 530h349l-43 -113h-180l-21 -94h176l-25 -113h-176l-21 -97h200l-25 -113h-351z" />
    <glyph glyph-name="Edieresis.small" horiz-adv-x="495" 
d="M2 0l117 530h349l-43 -113h-180l-21 -94h176l-25 -113h-176l-21 -97h200l-25 -113h-351zM201 567q-28 0 -46 17t-18 45q0 36 22.5 60.5t54.5 24.5q28 0 46 -17t18 -45q0 -36 -22.5 -60.5t-54.5 -24.5zM400 567q-28 0 -46 17t-18 45q0 36 22.5 60.5t54.5 24.5q28 0 46 -17
t18 -45q0 -36 -22.5 -60.5t-54.5 -24.5z" />
    <glyph glyph-name="Emacron.small" horiz-adv-x="495" 
d="M145 600l23 112h311l-23 -112h-311zM2 0l117 530h349l-43 -113h-180l-21 -94h176l-25 -113h-176l-21 -97h200l-25 -113h-351z" />
    <glyph glyph-name="Aring.small" horiz-adv-x="593" 
d="M-61 0l320 534q-46 20 -46 67q0 52 40 85t102 33q51 0 81.5 -21t30.5 -59q0 -73 -72 -104l121 -535h-152l-16 92h-199l-53 -92h-157zM214 205h114l-13 73q-7 39 -12 84h-2q-8 -18 -37 -71zM333 580q19 0 30.5 16t11.5 36q0 28 -28 28q-19 0 -30.5 -16t-11.5 -36
q0 -28 28 -28z" />
    <glyph glyph-name="Ebreve.small" horiz-adv-x="495" 
d="M294 573q-69 0 -107 40.5t-31 111.5h99q-2 -29 11 -46t38 -17t43.5 17t25.5 46h105q-15 -74 -64.5 -113t-119.5 -39zM2 0l117 530h349l-43 -113h-180l-21 -94h176l-25 -113h-176l-21 -97h200l-25 -113h-351z" />
    <glyph glyph-name="Aringacute.small" horiz-adv-x="593" 
d="M-61 0l320 534q-46 20 -46 67t33.5 79t85.5 37l65 129h161l-125 -147q34 -21 34 -60q0 -73 -72 -104l121 -535h-152l-16 92h-199l-53 -92h-157zM214 205h114l-13 73q-7 39 -12 84h-2q-8 -18 -37 -71zM333 580q19 0 30.5 16t11.5 36q0 28 -28 28q-19 0 -30.5 -16
t-11.5 -36q0 -28 28 -28z" />
    <glyph glyph-name="Aogonek.small" horiz-adv-x="593" 
d="M-61 0l320 534h136l121 -534q-55 -12 -100.5 -44.5t-45.5 -61.5q0 -26 32 -26q16 0 37 6l7 -77q-45 -12 -90 -12q-108 0 -108 80q0 44 32 80.5t83 58.5l-15 88h-199l-53 -92h-157zM214 205h114l-13 73q-7 39 -12 84h-2q-8 -18 -37 -71z" />
    <glyph glyph-name="Edotaccent.small" horiz-adv-x="495" 
d="M2 0l117 530h349l-43 -113h-180l-21 -94h176l-25 -113h-176l-21 -97h200l-25 -113h-351zM292 564q-37 0 -60.5 23t-23.5 56q0 42 28.5 68t67.5 26q37 0 60.5 -22.5t23.5 -55.5q0 -42 -28.5 -68.5t-67.5 -26.5z" />
    <glyph glyph-name="Eogonek.small" horiz-adv-x="495" 
d="M2 0l117 530h349l-43 -113h-180l-21 -94h176l-25 -113h-176l-21 -97h200l-25 -113h-19q-126 -53 -126 -106q0 -26 32 -26q16 0 37 6l7 -77q-45 -12 -90 -12q-108 0 -108 80q0 75 101 135h-185z" />
    <glyph glyph-name="Gcircumflex.small" horiz-adv-x="613" 
d="M293 -10q-124 0 -193.5 62t-69.5 168q0 141 95 230.5t233 89.5q94 0 190 -33l-27 -115q-68 31 -141 31q-85 0 -142.5 -55.5t-57.5 -143.5q0 -55 32.5 -86t95.5 -31q25 0 49 5l33 148h151l-53 -239q-90 -31 -195 -31zM211 566l121 147h107l87 -147h-109l-40 67l-51 -67
h-115z" />
    <glyph glyph-name="Gbreve.small" horiz-adv-x="613" 
d="M360 573q-69 0 -107 40.5t-31 111.5h99q-2 -29 11 -46t38 -17t43.5 17t25.5 46h105q-15 -74 -64.5 -113t-119.5 -39zM293 -10q-124 0 -193.5 62t-69.5 168q0 141 95 230.5t233 89.5q94 0 190 -33l-27 -115q-68 31 -141 31q-85 0 -142.5 -55.5t-57.5 -143.5
q0 -55 32.5 -86t95.5 -31q25 0 49 5l33 148h151l-53 -239q-90 -31 -195 -31z" />
    <glyph glyph-name="Gdotaccent.small" horiz-adv-x="613" 
d="M293 -10q-124 0 -193.5 62t-69.5 168q0 141 95 230.5t233 89.5q94 0 190 -33l-27 -115q-68 31 -141 31q-85 0 -142.5 -55.5t-57.5 -143.5q0 -55 32.5 -86t95.5 -31q25 0 49 5l33 148h151l-53 -239q-90 -31 -195 -31zM369 564q-37 0 -60.5 23t-23.5 56q0 42 28.5 68
t67.5 26q37 0 60.5 -22.5t23.5 -55.5q0 -42 -28.5 -68.5t-67.5 -26.5z" />
    <glyph glyph-name="Gcommaaccent.small" horiz-adv-x="613" 
d="M293 -10q-124 0 -193.5 62t-69.5 168q0 141 95 230.5t233 89.5q94 0 190 -33l-27 -115q-68 31 -141 31q-85 0 -142.5 -55.5t-57.5 -143.5q0 -55 32.5 -86t95.5 -31q25 0 49 5l33 148h151l-53 -239q-90 -31 -195 -31zM161 -237l-27 94q81 11 81 56q0 13 -8 35h134
q9 -26 9 -50q0 -121 -189 -135z" />
    <glyph glyph-name="Hcircumflex.small" horiz-adv-x="666" 
d="M2 0l117 530h151l-45 -201h216l45 201h151l-117 -530h-151l46 208h-216l-46 -208h-151zM221 566l121 147h107l87 -147h-109l-40 67l-51 -67h-115z" />
    <glyph glyph-name="Hbar.small" horiz-adv-x="666" 
d="M2 0l86 390h-51l20 91h51l11 49h151l-11 -49h216l11 49h151l-11 -49h53l-20 -91h-53l-86 -390h-151l46 208h-216l-46 -208h-151zM225 329h216l13 61h-216z" />
    <glyph glyph-name="Igrave.small" horiz-adv-x="299" 
d="M161 566l-96 147h161l48 -147h-113zM2 0l117 530h151l-117 -530h-151z" />
    <glyph glyph-name="Iacute.small" horiz-adv-x="299" 
d="M129 566l75 147h161l-124 -147h-112zM2 0l117 530h151l-117 -530h-151z" />
    <glyph glyph-name="Icircumflex.small" horiz-adv-x="299" 
d="M2 0l117 530h151l-117 -530h-151zM40 566l121 147h107l87 -147h-109l-40 67l-51 -67h-115z" />
    <glyph glyph-name="Itilde.small" horiz-adv-x="299" 
d="M29 577q5 68 35.5 103t73.5 35q33 0 71.5 -20.5t51.5 -20.5q23 0 28 35h97q-5 -68 -35.5 -103t-73.5 -35q-33 0 -71.5 20.5t-51.5 20.5q-23 0 -28 -35h-97zM2 0l117 530h151l-117 -530h-151z" />
    <glyph glyph-name="AE.small" horiz-adv-x="756" 
d="M-70 0l406 530h385l-26 -113h-187l-14 -94h184l-16 -113h-185l-14 -97h209l-16 -113h-344l14 92h-164l-69 -92h-163zM247 205h96l24 157h-2z" />
    </font>
</defs>
</svg>
